G04*
G04 #@! TF.GenerationSoftware,Altium Limited,Altium Designer,19.0.15 (446)*
G04*
G04 Layer_Color=65535*
%FSLAX43Y43*%
%MOMM*%
G71*
G01*
G75*
%ADD10C,0.051*%
%ADD11C,0.152*%
%ADD12C,0.200*%
%ADD13C,0.254*%
%ADD14C,0.250*%
%ADD15C,0.076*%
%ADD16C,0.127*%
%ADD17C,0.025*%
%ADD18C,1.000*%
%ADD19C,0.152*%
%ADD20R,3.300X0.475*%
%ADD21R,4.500X0.800*%
D10*
X94093Y60016D02*
G03*
X94982Y61696I-1143J1680D01*
G01*
X90918D02*
G03*
X91807Y60016I2032J0D01*
G01*
X94982Y68554D02*
G03*
X94093Y70234I-2032J0D01*
G01*
X91807Y70234D02*
G03*
X90918Y68554I1143J-1680D01*
G01*
X94093Y61142D02*
G03*
X94220Y61696I-1143J554D01*
G01*
X91680D02*
G03*
X91807Y61142I1270J-0D01*
G01*
X94220Y68554D02*
G03*
X94093Y69108I-1270J0D01*
G01*
X91807D02*
G03*
X91680Y68554I1143J-554D01*
G01*
X14041Y74782D02*
G03*
X14595Y74655I554J1143D01*
G01*
Y77195D02*
G03*
X14041Y77068I-0J-1270D01*
G01*
X21453Y74655D02*
G03*
X22007Y74782I0J1270D01*
G01*
Y77068D02*
G03*
X21453Y77195I-554J-1143D01*
G01*
X12915Y74782D02*
G03*
X14595Y73893I1680J1143D01*
G01*
Y77957D02*
G03*
X12915Y77068I-0J-2032D01*
G01*
X21453Y73893D02*
G03*
X23133Y74782I-0J2032D01*
G01*
X23133Y77068D02*
G03*
X21453Y77957I-1680J-1143D01*
G01*
X120009Y76843D02*
G03*
X118329Y77732I-1680J-1143D01*
G01*
Y73668D02*
G03*
X120009Y74557I-0J2032D01*
G01*
X111471Y77732D02*
G03*
X109791Y76843I-0J-2032D01*
G01*
X109791Y74557D02*
G03*
X111471Y73668I1680J1143D01*
G01*
X118883Y76843D02*
G03*
X118329Y76970I-554J-1143D01*
G01*
Y74430D02*
G03*
X118883Y74557I0J1270D01*
G01*
X111471Y76970D02*
G03*
X110917Y76843I-0J-1270D01*
G01*
Y74557D02*
G03*
X111471Y74430I554J1143D01*
G01*
X94982Y61696D02*
Y68554D01*
X90918Y61696D02*
Y68554D01*
X94220Y61696D02*
Y68554D01*
X91680Y61696D02*
Y68554D01*
X92950Y64109D02*
Y64490D01*
Y65760D02*
Y66141D01*
X17008Y75925D02*
X17389D01*
X18659D02*
X19040D01*
X14595Y74655D02*
X21453D01*
X14595Y77195D02*
X21453D01*
X14595Y73893D02*
X21453D01*
X14595Y77957D02*
X21453D01*
X111471Y77732D02*
X118329D01*
X111471Y73668D02*
X118329D01*
X111471Y76970D02*
X118329D01*
X111471Y74430D02*
X118329D01*
X115535Y75700D02*
X115916D01*
X113884D02*
X114265D01*
D11*
X95109Y59410D02*
G03*
X95363Y59664I0J254D01*
G01*
X90537D02*
G03*
X90791Y59410I254J0D01*
G01*
X95363Y70586D02*
G03*
X95109Y70840I-254J0D01*
G01*
X90791D02*
G03*
X90537Y70586I0J-254D01*
G01*
X12309Y73766D02*
G03*
X12563Y73512I254J0D01*
G01*
Y78338D02*
G03*
X12309Y78084I0J-254D01*
G01*
X23485Y73512D02*
G03*
X23739Y73766I0J254D01*
G01*
Y78084D02*
G03*
X23485Y78338I-254J0D01*
G01*
X120615Y77859D02*
G03*
X120361Y78113I-254J0D01*
G01*
Y73287D02*
G03*
X120615Y73541I0J254D01*
G01*
X109439Y78113D02*
G03*
X109185Y77859I0J-254D01*
G01*
Y73541D02*
G03*
X109439Y73287I254J0D01*
G01*
X181941Y73378D02*
G03*
X181941Y73378I-141J0D01*
G01*
X181916Y68028D02*
G03*
X181916Y68028I-141J0D01*
G01*
X194083Y82478D02*
G03*
X194083Y82478I-141J0D01*
G01*
X104256Y118277D02*
G03*
X104256Y118277I-141J0D01*
G01*
X95363Y59664D02*
Y70586D01*
X90537Y59664D02*
Y70586D01*
X93585Y64871D02*
Y65379D01*
X92315Y64871D02*
Y65379D01*
X94093Y59410D02*
X95109D01*
X90791D02*
X91807D01*
X92315Y64871D02*
X93585D01*
X92950Y64490D02*
X93585D01*
X92315D02*
X92950D01*
X92315Y65379D02*
X93585D01*
X92950Y65760D02*
X93585D01*
X92315D02*
X92950D01*
X94093Y70840D02*
X95109D01*
X90791D02*
X91807D01*
X12309Y73766D02*
Y74782D01*
Y77068D02*
Y78084D01*
X17389Y75290D02*
Y75925D01*
Y76560D01*
X17770Y75290D02*
Y76560D01*
X18659Y75290D02*
Y75925D01*
Y76560D01*
X18278Y75290D02*
Y76560D01*
X23739Y73766D02*
Y74782D01*
Y77068D02*
Y78084D01*
X17770Y75290D02*
X18278D01*
X17770Y76560D02*
X18278D01*
X12563Y73512D02*
X23485D01*
X12563Y78338D02*
X23485D01*
X109439Y78113D02*
X120361D01*
X109439Y73287D02*
X120361D01*
X114646Y76335D02*
X115154D01*
X114646Y75065D02*
X115154D01*
X120615Y76843D02*
Y77859D01*
Y73541D02*
Y74557D01*
X115154Y75065D02*
Y76335D01*
X115535Y75700D02*
Y76335D01*
Y75065D02*
Y75700D01*
X114646Y75065D02*
Y76335D01*
X114265Y75700D02*
Y76335D01*
Y75065D02*
Y75700D01*
X109185Y76843D02*
Y77859D01*
Y73541D02*
Y74557D01*
X81135Y59441D02*
X82043D01*
X71782D02*
Y60349D01*
Y69702D02*
X72690D01*
X82043Y59441D02*
Y60349D01*
X71782Y59441D02*
X72690D01*
X71782Y68794D02*
Y69702D01*
X82043Y68794D02*
Y69171D01*
X81512Y69702D02*
X82043Y69171D01*
X81135Y69702D02*
X81512D01*
X134252Y134039D02*
Y134723D01*
X133309Y119077D02*
X134252D01*
X127609D02*
X130841D01*
X134252D02*
Y131469D01*
X119748Y119077D02*
X125141D01*
X119748D02*
Y132478D01*
X121556Y134723D02*
X134252D01*
X106875Y52375D02*
Y54025D01*
X105950Y52375D02*
X106875D01*
X103725D02*
X104650D01*
X103725D02*
Y54025D01*
X104975D02*
X105650D01*
X103358Y52375D02*
Y54025D01*
X102433Y52375D02*
X103358D01*
X100208D02*
X101133D01*
X100208D02*
Y54025D01*
X101458D02*
X102133D01*
X167075Y125942D02*
Y127592D01*
X166150Y125942D02*
X167075D01*
X163925D02*
X164850D01*
X163925D02*
Y127592D01*
X165175D02*
X165850D01*
X178225Y121675D02*
X179875D01*
Y120750D02*
Y121675D01*
Y118525D02*
Y119450D01*
X178225Y118525D02*
X179875D01*
X178225Y119775D02*
Y120450D01*
X165974Y59375D02*
Y61025D01*
X166899D01*
X168199D02*
X169124D01*
Y59375D02*
Y61025D01*
X167199Y59375D02*
X167874D01*
X15798Y109427D02*
X23552D01*
X15798Y91273D02*
X23552D01*
X36904Y103920D02*
Y104346D01*
X37330D01*
X36904Y100104D02*
X37330D01*
X41146D02*
Y100530D01*
X40720Y104346D02*
X41146D01*
X36904Y100104D02*
Y100530D01*
X40720Y100104D02*
X41146D01*
Y103920D02*
Y104346D01*
X201150Y29200D02*
Y30850D01*
X202075D01*
X203375D02*
X204300D01*
Y29200D02*
Y30850D01*
X202375Y29200D02*
X203050D01*
X52777Y131500D02*
X52100D01*
X52777Y132177D01*
Y132346D01*
X52608Y132516D01*
X52269D01*
X52100Y132346D01*
X53793Y131500D02*
X53116D01*
X53793Y132177D01*
Y132346D01*
X53624Y132516D01*
X53285D01*
X53116Y132346D01*
X54131Y131500D02*
Y132516D01*
X54639D01*
X54808Y132346D01*
Y132008D01*
X54639Y131839D01*
X54131D01*
X15360Y20700D02*
X15699D01*
X15529D01*
Y21716D01*
X15360Y21546D01*
X15737Y23240D02*
X15060D01*
X15737Y23917D01*
Y24086D01*
X15568Y24256D01*
X15229D01*
X15060Y24086D01*
X28340Y23300D02*
X28679D01*
X28509D01*
Y24316D01*
X28340Y24146D01*
X29186D02*
X29356Y24316D01*
X29694D01*
X29864Y24146D01*
Y23469D01*
X29694Y23300D01*
X29356D01*
X29186Y23469D01*
Y24146D01*
X28340Y20929D02*
X28509Y20760D01*
X28848D01*
X29017Y20929D01*
Y21606D01*
X28848Y21776D01*
X28509D01*
X28340Y21606D01*
Y21437D01*
X28509Y21268D01*
X29017D01*
X36360Y20700D02*
X36699D01*
X36529D01*
Y21716D01*
X36360Y21546D01*
X36737Y23240D02*
X36060D01*
X36737Y23917D01*
Y24086D01*
X36568Y24256D01*
X36229D01*
X36060Y24086D01*
X49340Y23300D02*
X49679D01*
X49509D01*
Y24316D01*
X49340Y24146D01*
X50186D02*
X50356Y24316D01*
X50694D01*
X50864Y24146D01*
Y23469D01*
X50694Y23300D01*
X50356D01*
X50186Y23469D01*
Y24146D01*
X49340Y20929D02*
X49509Y20760D01*
X49848D01*
X50017Y20929D01*
Y21606D01*
X49848Y21776D01*
X49509D01*
X49340Y21606D01*
Y21437D01*
X49509Y21268D01*
X50017D01*
X57360Y20700D02*
X57699D01*
X57529D01*
Y21716D01*
X57360Y21546D01*
X57737Y23240D02*
X57060D01*
X57737Y23917D01*
Y24086D01*
X57568Y24256D01*
X57229D01*
X57060Y24086D01*
X70340Y23300D02*
X70679D01*
X70509D01*
Y24316D01*
X70340Y24146D01*
X71186D02*
X71356Y24316D01*
X71694D01*
X71864Y24146D01*
Y23469D01*
X71694Y23300D01*
X71356D01*
X71186Y23469D01*
Y24146D01*
X70340Y20929D02*
X70509Y20760D01*
X70848D01*
X71017Y20929D01*
Y21606D01*
X70848Y21776D01*
X70509D01*
X70340Y21606D01*
Y21437D01*
X70509Y21268D01*
X71017D01*
X78360Y20700D02*
X78699D01*
X78529D01*
Y21716D01*
X78360Y21546D01*
X78737Y23240D02*
X78060D01*
X78737Y23917D01*
Y24086D01*
X78568Y24256D01*
X78229D01*
X78060Y24086D01*
X91340Y23300D02*
X91679D01*
X91509D01*
Y24316D01*
X91340Y24146D01*
X92186D02*
X92356Y24316D01*
X92694D01*
X92864Y24146D01*
Y23469D01*
X92694Y23300D01*
X92356D01*
X92186Y23469D01*
Y24146D01*
X91340Y20929D02*
X91509Y20760D01*
X91848D01*
X92017Y20929D01*
Y21606D01*
X91848Y21776D01*
X91509D01*
X91340Y21606D01*
Y21437D01*
X91509Y21268D01*
X92017D01*
X119360Y20700D02*
X119699D01*
X119529D01*
Y21716D01*
X119360Y21546D01*
X119737Y23240D02*
X119060D01*
X119737Y23917D01*
Y24086D01*
X119568Y24256D01*
X119229D01*
X119060Y24086D01*
X132340Y23300D02*
X132679D01*
X132509D01*
Y24316D01*
X132340Y24146D01*
X133186D02*
X133356Y24316D01*
X133694D01*
X133864Y24146D01*
Y23469D01*
X133694Y23300D01*
X133356D01*
X133186Y23469D01*
Y24146D01*
X132340Y20929D02*
X132509Y20760D01*
X132848D01*
X133017Y20929D01*
Y21606D01*
X132848Y21776D01*
X132509D01*
X132340Y21606D01*
Y21437D01*
X132509Y21268D01*
X133017D01*
X140360Y20700D02*
X140699D01*
X140529D01*
Y21716D01*
X140360Y21546D01*
X140737Y23240D02*
X140060D01*
X140737Y23917D01*
Y24086D01*
X140568Y24256D01*
X140229D01*
X140060Y24086D01*
X153340Y23300D02*
X153679D01*
X153509D01*
Y24316D01*
X153340Y24146D01*
X154186D02*
X154356Y24316D01*
X154694D01*
X154864Y24146D01*
Y23469D01*
X154694Y23300D01*
X154356D01*
X154186Y23469D01*
Y24146D01*
X153340Y20929D02*
X153509Y20760D01*
X153848D01*
X154017Y20929D01*
Y21606D01*
X153848Y21776D01*
X153509D01*
X153340Y21606D01*
Y21437D01*
X153509Y21268D01*
X154017D01*
X161360Y20700D02*
X161699D01*
X161529D01*
Y21716D01*
X161360Y21546D01*
X161737Y23240D02*
X161060D01*
X161737Y23917D01*
Y24086D01*
X161568Y24256D01*
X161229D01*
X161060Y24086D01*
X174340Y23300D02*
X174679D01*
X174509D01*
Y24316D01*
X174340Y24146D01*
X175186D02*
X175356Y24316D01*
X175694D01*
X175864Y24146D01*
Y23469D01*
X175694Y23300D01*
X175356D01*
X175186Y23469D01*
Y24146D01*
X174340Y20929D02*
X174509Y20760D01*
X174848D01*
X175017Y20929D01*
Y21606D01*
X174848Y21776D01*
X174509D01*
X174340Y21606D01*
Y21437D01*
X174509Y21268D01*
X175017D01*
X182360Y20700D02*
X182699D01*
X182529D01*
Y21716D01*
X182360Y21546D01*
X182737Y23240D02*
X182060D01*
X182737Y23917D01*
Y24086D01*
X182568Y24256D01*
X182229D01*
X182060Y24086D01*
X195340Y23300D02*
X195679D01*
X195509D01*
Y24316D01*
X195340Y24146D01*
X196186D02*
X196356Y24316D01*
X196694D01*
X196864Y24146D01*
Y23469D01*
X196694Y23300D01*
X196356D01*
X196186Y23469D01*
Y24146D01*
X195340Y20929D02*
X195509Y20760D01*
X195848D01*
X196017Y20929D01*
Y21606D01*
X195848Y21776D01*
X195509D01*
X195340Y21606D01*
Y21437D01*
X195509Y21268D01*
X196017D01*
X157610Y115900D02*
X157949D01*
X157779D01*
Y116916D01*
X157610Y116746D01*
X175270D02*
X175439Y116916D01*
X175778D01*
X175947Y116746D01*
Y116577D01*
X175778Y116408D01*
X175947Y116239D01*
Y116069D01*
X175778Y115900D01*
X175439D01*
X175270Y116069D01*
Y116239D01*
X175439Y116408D01*
X175270Y116577D01*
Y116746D01*
X175439Y116408D02*
X175778D01*
X157610Y111700D02*
X157949D01*
X157779D01*
Y112716D01*
X157610Y112546D01*
X175270D02*
X175439Y112716D01*
X175778D01*
X175947Y112546D01*
Y112377D01*
X175778Y112208D01*
X175947Y112039D01*
Y111869D01*
X175778Y111700D01*
X175439D01*
X175270Y111869D01*
Y112039D01*
X175439Y112208D01*
X175270Y112377D01*
Y112546D01*
X175439Y112208D02*
X175778D01*
X42325Y91680D02*
Y92019D01*
Y91849D01*
X41309D01*
X41479Y91680D01*
X42325Y114030D02*
Y114369D01*
Y114199D01*
X41309D01*
X41479Y114030D01*
Y114876D02*
X41309Y115046D01*
Y115384D01*
X41479Y115554D01*
X42156D01*
X42325Y115384D01*
Y115046D01*
X42156Y114876D01*
X41479D01*
X32575Y91680D02*
Y92019D01*
Y91849D01*
X31559D01*
X31729Y91680D01*
Y109200D02*
X31559Y109369D01*
Y109708D01*
X31729Y109877D01*
X31898D01*
X32067Y109708D01*
X32236Y109877D01*
X32406D01*
X32575Y109708D01*
Y109369D01*
X32406Y109200D01*
X32236D01*
X32067Y109369D01*
X31898Y109200D01*
X31729D01*
X32067Y109369D02*
Y109708D01*
X33777Y131500D02*
X33100D01*
X33777Y132177D01*
Y132346D01*
X33608Y132516D01*
X33269D01*
X33100Y132346D01*
X34793Y131500D02*
X34116D01*
X34793Y132177D01*
Y132346D01*
X34624Y132516D01*
X34285D01*
X34116Y132346D01*
X35131Y131500D02*
Y132516D01*
X35639D01*
X35808Y132346D01*
Y132008D01*
X35639Y131839D01*
X35131D01*
X115420Y111430D02*
X115759D01*
X115589D01*
Y112446D01*
X115420Y112276D01*
X115797Y113970D02*
X115120D01*
X115797Y114647D01*
Y114816D01*
X115628Y114986D01*
X115289D01*
X115120Y114816D01*
X128400Y114030D02*
X128739D01*
X128569D01*
Y115046D01*
X128400Y114876D01*
X129246D02*
X129416Y115046D01*
X129754D01*
X129924Y114876D01*
Y114199D01*
X129754Y114030D01*
X129416D01*
X129246Y114199D01*
Y114876D01*
X128400Y111659D02*
X128569Y111490D01*
X128908D01*
X129077Y111659D01*
Y112336D01*
X128908Y112506D01*
X128569D01*
X128400Y112336D01*
Y112167D01*
X128569Y111998D01*
X129077D01*
D12*
X81512Y70671D02*
G03*
X81512Y70671I-100J0D01*
G01*
X196900Y90307D02*
G03*
X196900Y90307I-100J0D01*
G01*
X199049Y133524D02*
G03*
X199049Y129524I0J-2000D01*
G01*
X195371Y133524D02*
G03*
X195371Y129524I0J-2000D01*
G01*
X189380Y30837D02*
G03*
X189380Y31163I0J162D01*
G01*
X168380Y30837D02*
G03*
X168380Y31163I0J162D01*
G01*
X147380Y30837D02*
G03*
X147380Y31163I0J162D01*
G01*
X126380Y30837D02*
G03*
X126380Y31163I0J162D01*
G01*
X85380Y30837D02*
G03*
X85380Y31163I0J162D01*
G01*
X64380Y30837D02*
G03*
X64380Y31163I0J162D01*
G01*
X43380Y30837D02*
G03*
X43380Y31163I0J162D01*
G01*
X22380Y30837D02*
G03*
X22380Y31163I0J162D01*
G01*
X192480Y15500D02*
G03*
X192480Y15500I-1500J0D01*
G01*
X171480D02*
G03*
X171480Y15500I-1500J0D01*
G01*
X150480D02*
G03*
X150480Y15500I-1500J0D01*
G01*
X129480D02*
G03*
X129480Y15500I-1500J0D01*
G01*
X84500D02*
G03*
X84500Y15500I-1500J0D01*
G01*
X63500D02*
G03*
X63500Y15500I-1500J0D01*
G01*
X42500D02*
G03*
X42500Y15500I-1500J0D01*
G01*
X21500D02*
G03*
X21500Y15500I-1500J0D01*
G01*
X196805Y42359D02*
G03*
X196805Y42041I0J-159D01*
G01*
X178280Y42359D02*
G03*
X178280Y42041I0J-159D01*
G01*
X157280Y42359D02*
G03*
X157280Y42041I0J-159D01*
G01*
X136280Y42359D02*
G03*
X136280Y42041I0J-159D01*
G01*
X95280Y42159D02*
G03*
X95280Y41841I0J-159D01*
G01*
X74280Y42159D02*
G03*
X74280Y41841I0J-159D01*
G01*
X53280Y42159D02*
G03*
X53280Y41841I0J-159D01*
G01*
X32280Y42159D02*
G03*
X32280Y41841I0J-159D01*
G01*
X186060Y42041D02*
G03*
X186060Y42359I0J159D01*
G01*
X167460Y42041D02*
G03*
X167460Y42359I0J159D01*
G01*
X145860Y42041D02*
G03*
X145860Y42359I0J159D01*
G01*
X125440Y42041D02*
G03*
X125440Y42359I0J159D01*
G01*
X84460Y41841D02*
G03*
X84460Y42159I0J159D01*
G01*
X63460Y41841D02*
G03*
X63460Y42159I0J159D01*
G01*
X42460Y41841D02*
G03*
X42460Y42159I0J159D01*
G01*
X21460Y41841D02*
G03*
X21460Y42159I0J159D01*
G01*
X189475Y65950D02*
G03*
X189475Y65950I-100J0D01*
G01*
X57000Y82000D02*
G03*
X59500Y79500I2500J0D01*
G01*
X94500D02*
G03*
X97000Y82000I0J2500D01*
G01*
Y132000D02*
G03*
X94500Y134500I-2500J0D01*
G01*
X59500D02*
G03*
X57000Y132000I0J-2500D01*
G01*
X25000Y70580D02*
G03*
X25000Y70580I-100J0D01*
G01*
X216000Y60490D02*
G03*
X215700Y60800I-300J10D01*
G01*
Y73300D02*
G03*
X216000Y73610I0J300D01*
G01*
X11641Y84232D02*
G03*
X11641Y84868I0J317D01*
G01*
X17640Y32643D02*
G03*
X17640Y32007I0J-317D01*
G01*
X38640Y32643D02*
G03*
X38640Y32007I0J-317D01*
G01*
X59840Y32643D02*
G03*
X59840Y32007I0J-317D01*
G01*
X80740Y32643D02*
G03*
X80740Y32007I0J-317D01*
G01*
X121740Y32643D02*
G03*
X121740Y32007I0J-317D01*
G01*
X142540Y32643D02*
G03*
X142540Y32007I0J-317D01*
G01*
X163708Y32818D02*
G03*
X163708Y32182I0J-317D01*
G01*
X184639Y32643D02*
G03*
X184639Y32007I0J-317D01*
G01*
X52290Y75000D02*
G03*
X52290Y75000I-100J0D01*
G01*
X12725Y63900D02*
G03*
X12725Y63900I-100J0D01*
G01*
X117600Y82000D02*
G03*
X117600Y82000I-100J0D01*
G01*
X122000Y70580D02*
G03*
X122000Y70580I-100J0D01*
G01*
X109745Y63000D02*
G03*
X109745Y63000I-100J0D01*
G01*
X183070Y73251D02*
G03*
X183578Y73251I254J0D01*
G01*
X189425Y71275D02*
G03*
X189425Y71275I-100J0D01*
G01*
X183045Y67901D02*
G03*
X183553Y67901I254J0D01*
G01*
X48200Y77450D02*
G03*
X48200Y77450I-100J0D01*
G01*
X53400Y90400D02*
G03*
X53400Y90400I-100J0D01*
G01*
X195211Y82351D02*
G03*
X195719Y82351I254J0D01*
G01*
X170650Y124636D02*
G03*
X170150Y124636I-250J0D01*
G01*
X180017Y129595D02*
G03*
X181033Y130611I0J1016D01*
G01*
Y132262D02*
G03*
X180017Y133278I-1016J0D01*
G01*
X160967Y130738D02*
G03*
X161983Y129722I1016J0D01*
G01*
Y133278D02*
G03*
X160967Y132262I0J-1016D01*
G01*
X105384Y118150D02*
G03*
X105893Y118150I254J0D01*
G01*
X193500Y120200D02*
G03*
X193500Y120200I-6100J0D01*
G01*
X163617Y65800D02*
G03*
X162982Y65800I-317J0D01*
G01*
X163617Y76785D02*
G03*
X162982Y76785I-317J0D01*
G01*
X146000Y104925D02*
G03*
X146000Y104925I-100J0D01*
G01*
X146500Y134400D02*
G03*
X147500Y134400I500J0D01*
G01*
X188650Y104775D02*
G03*
X188650Y104775I-100J0D01*
G01*
X209400Y97471D02*
G03*
X208531Y96792I0J-896D01*
G01*
X209742Y97435D02*
G03*
X212614Y97506I827J24664D01*
G01*
D02*
G03*
X215300Y98475I-1519J8419D01*
G01*
X209272Y97462D02*
G03*
X209742Y97435I440J3615D01*
G01*
X208531Y116158D02*
G03*
X209400Y115479I869J217D01*
G01*
X212614Y115444D02*
G03*
X209742Y115515I-2044J-24593D01*
G01*
X215300Y114475D02*
G03*
X212614Y115444I-4205J-7450D01*
G01*
X209742Y115515D02*
G03*
X209272Y115488I-30J-3642D01*
G01*
X71070Y81655D02*
Y92565D01*
X68370Y81655D02*
X71070D01*
X68370D02*
Y92565D01*
X71070D01*
X65577Y59143D02*
X65977D01*
X65577Y60143D02*
X65977D01*
X65577Y60586D02*
X65977D01*
X65577Y61586D02*
X65977D01*
X65577Y62029D02*
X65977D01*
X65577Y63029D02*
X65977D01*
X65577Y63472D02*
X65977D01*
X65577Y64472D02*
X65977D01*
X65577Y64914D02*
X65977D01*
X65577Y65914D02*
X65977D01*
X65577Y66357D02*
X65977D01*
X65577Y67357D02*
X65977D01*
X65577Y67800D02*
X65977D01*
X65577Y68800D02*
X65977D01*
X83513Y71686D02*
Y72086D01*
X84513Y71686D02*
Y72086D01*
X86071Y62875D02*
X86471D01*
X86071Y63875D02*
X86471D01*
X62584Y69171D02*
X63984D01*
X62584Y70371D02*
X63984D01*
X156250Y63090D02*
X162750D01*
X156250Y57610D02*
Y63090D01*
Y57610D02*
X162750D01*
Y63090D01*
X22753Y9250D02*
X28233D01*
Y2750D02*
Y9250D01*
X22753Y2750D02*
X28233D01*
X22753D02*
Y9250D01*
X40260Y2750D02*
Y9250D01*
Y2750D02*
X45740D01*
Y9250D01*
X40260D02*
X45740D01*
X82260D02*
X87740D01*
Y2750D02*
Y9250D01*
X82260Y2750D02*
X87740D01*
X82260D02*
Y9250D01*
X123260Y2750D02*
Y9250D01*
Y2750D02*
X128740D01*
Y9250D01*
X123260D02*
X128740D01*
X144260D02*
X149740D01*
Y2750D02*
Y9250D01*
X144260Y2750D02*
X149740D01*
X144260D02*
Y9250D01*
X165260Y2750D02*
Y9250D01*
Y2750D02*
X170740D01*
Y9250D01*
X165260D02*
X170740D01*
X186260D02*
X191740D01*
Y2750D02*
Y9250D01*
X186260Y2750D02*
X191740D01*
X186260D02*
Y9250D01*
X61260Y2750D02*
Y9250D01*
Y2750D02*
X66740D01*
Y9250D01*
X61260D02*
X66740D01*
X26200Y12052D02*
X27000D01*
X25100Y10452D02*
Y12052D01*
Y10452D02*
X26000D01*
X27425Y10452D02*
X27875D01*
X28100D02*
Y12052D01*
X27875Y10452D02*
X28100D01*
X27200D02*
X27425D01*
X187547Y12100D02*
X188347D01*
X186447Y10500D02*
Y12100D01*
Y10500D02*
X187347D01*
X188772Y10500D02*
X189222D01*
X189447D02*
Y12100D01*
X189222Y10500D02*
X189447D01*
X188547D02*
X188772D01*
X180553Y12100D02*
X181353D01*
X179453Y10500D02*
Y12100D01*
Y10500D02*
X180353D01*
X181778Y10500D02*
X182228D01*
X182453D02*
Y12100D01*
X182228Y10500D02*
X182453D01*
X181553D02*
X181778D01*
X191044Y12100D02*
X191844D01*
X189944Y10500D02*
Y12100D01*
Y10500D02*
X190844D01*
X192269Y10500D02*
X192719D01*
X192944D02*
Y12100D01*
X192719Y10500D02*
X192944D01*
X192044D02*
X192269D01*
X172233Y12158D02*
X173033D01*
X171133Y10558D02*
Y12158D01*
Y10558D02*
X172033D01*
X173458Y10558D02*
X173908D01*
X174133D02*
Y12158D01*
X173908Y10558D02*
X174133D01*
X173233D02*
X173458D01*
X165100Y12158D02*
X165900D01*
X164000Y10558D02*
Y12158D01*
Y10558D02*
X164900D01*
X166325Y10558D02*
X166775D01*
X167000D02*
Y12158D01*
X166775Y10558D02*
X167000D01*
X166100D02*
X166325D01*
X150527Y12050D02*
X151327D01*
X149427Y10450D02*
Y12050D01*
Y10450D02*
X150327D01*
X151752Y10450D02*
X152202D01*
X152427D02*
Y12050D01*
X152202Y10450D02*
X152427D01*
X151527D02*
X151752D01*
X143500Y12050D02*
X144300D01*
X142400Y10450D02*
Y12050D01*
Y10450D02*
X143300D01*
X144725Y10450D02*
X145175D01*
X145400D02*
Y12050D01*
X145175Y10450D02*
X145400D01*
X144500D02*
X144725D01*
X128536Y12200D02*
X129336D01*
X127436Y10600D02*
Y12200D01*
Y10600D02*
X128336D01*
X129761Y10600D02*
X130211D01*
X130436D02*
Y12200D01*
X130211Y10600D02*
X130436D01*
X129536D02*
X129761D01*
X121644Y12200D02*
X122444D01*
X120544Y10600D02*
Y12200D01*
Y10600D02*
X121444D01*
X122869Y10600D02*
X123319D01*
X123544D02*
Y12200D01*
X123319Y10600D02*
X123544D01*
X122644D02*
X122869D01*
X88605Y12000D02*
X89405D01*
X87505Y10400D02*
Y12000D01*
Y10400D02*
X88405D01*
X89830Y10400D02*
X90280D01*
X90505D02*
Y12000D01*
X90280Y10400D02*
X90505D01*
X89605D02*
X89830D01*
X81623Y12000D02*
X82423D01*
X80523Y10400D02*
Y12000D01*
Y10400D02*
X81423D01*
X82848Y10400D02*
X83298D01*
X83523D02*
Y12000D01*
X83298Y10400D02*
X83523D01*
X82623D02*
X82848D01*
X60370Y11979D02*
X61170D01*
X59270Y10378D02*
Y11979D01*
Y10378D02*
X60170D01*
X61595Y10378D02*
X62045D01*
X62270D02*
Y11979D01*
X62045Y10378D02*
X62270D01*
X61370D02*
X61595D01*
X67311Y11979D02*
X68111D01*
X66211Y10378D02*
Y11979D01*
Y10378D02*
X67111D01*
X68536Y10378D02*
X68986D01*
X69211D02*
Y11979D01*
X68986Y10378D02*
X69211D01*
X68311D02*
X68536D01*
X40659Y12115D02*
X41459D01*
X39559Y10515D02*
Y12115D01*
Y10515D02*
X40459D01*
X41884Y10515D02*
X42334D01*
X42559D02*
Y12115D01*
X42334Y10515D02*
X42559D01*
X41659D02*
X41884D01*
X47390Y12115D02*
X48190D01*
X46290Y10515D02*
Y12115D01*
Y10515D02*
X47190D01*
X48615Y10515D02*
X49065D01*
X49290D02*
Y12115D01*
X49065Y10515D02*
X49290D01*
X48390D02*
X48615D01*
X18900Y12027D02*
X19700D01*
X17800Y10427D02*
Y12027D01*
Y10427D02*
X18700D01*
X20125Y10427D02*
X20575D01*
X20800D02*
Y12027D01*
X20575Y10427D02*
X20800D01*
X19900D02*
X20125D01*
X175800Y12158D02*
X176600D01*
X174700Y10558D02*
Y12158D01*
Y10558D02*
X175600D01*
X177025Y10558D02*
X177475D01*
X177700D02*
Y12158D01*
X177475Y10558D02*
X177700D01*
X176800D02*
X177025D01*
X154040Y12050D02*
X154840D01*
X152940Y10450D02*
Y12050D01*
Y10450D02*
X153840D01*
X155265Y10450D02*
X155715D01*
X155940D02*
Y12050D01*
X155715Y10450D02*
X155940D01*
X155040D02*
X155265D01*
X131982Y12200D02*
X132782D01*
X130882Y10600D02*
Y12200D01*
Y10600D02*
X131782D01*
X133207Y10600D02*
X133657D01*
X133882D02*
Y12200D01*
X133657Y10600D02*
X133882D01*
X132982D02*
X133207D01*
X92096Y12000D02*
X92896D01*
X90996Y10400D02*
Y12000D01*
Y10400D02*
X91896D01*
X93321Y10400D02*
X93771D01*
X93996D02*
Y12000D01*
X93771Y10400D02*
X93996D01*
X93096D02*
X93321D01*
X70782Y11979D02*
X71582D01*
X69682Y10378D02*
Y11979D01*
Y10378D02*
X70582D01*
X72007Y10378D02*
X72457D01*
X72682D02*
Y11979D01*
X72457Y10378D02*
X72682D01*
X71782D02*
X72007D01*
X50735Y12115D02*
X51535D01*
X49635Y10515D02*
Y12115D01*
Y10515D02*
X50535D01*
X51960Y10515D02*
X52410D01*
X52635D02*
Y12115D01*
X52410Y10515D02*
X52635D01*
X51735D02*
X51960D01*
X29850Y12027D02*
X30650D01*
X28750Y10427D02*
Y12027D01*
Y10427D02*
X29650D01*
X31075Y10427D02*
X31525D01*
X31750D02*
Y12027D01*
X31525Y10427D02*
X31750D01*
X30850D02*
X31075D01*
X184050Y12100D02*
X184850D01*
X182950Y10500D02*
Y12100D01*
Y10500D02*
X183850D01*
X185275Y10500D02*
X185725D01*
X185950D02*
Y12100D01*
X185725Y10500D02*
X185950D01*
X185050D02*
X185275D01*
X168667Y12158D02*
X169467D01*
X167567Y10558D02*
Y12158D01*
Y10558D02*
X168467D01*
X169892Y10558D02*
X170342D01*
X170567D02*
Y12158D01*
X170342Y10558D02*
X170567D01*
X169667D02*
X169892D01*
X147013Y12050D02*
X147813D01*
X145913Y10450D02*
Y12050D01*
Y10450D02*
X146813D01*
X148238Y10450D02*
X148688D01*
X148913D02*
Y12050D01*
X148688Y10450D02*
X148913D01*
X148013D02*
X148238D01*
X125090Y12200D02*
X125890D01*
X123990Y10600D02*
Y12200D01*
Y10600D02*
X124890D01*
X126315Y10600D02*
X126765D01*
X126990D02*
Y12200D01*
X126765Y10600D02*
X126990D01*
X126090D02*
X126315D01*
X85114Y12000D02*
X85914D01*
X84014Y10400D02*
Y12000D01*
Y10400D02*
X84914D01*
X86339Y10400D02*
X86789D01*
X87014D02*
Y12000D01*
X86789Y10400D02*
X87014D01*
X86114D02*
X86339D01*
X63841Y11979D02*
X64641D01*
X62741Y10378D02*
Y11979D01*
Y10378D02*
X63641D01*
X65066Y10378D02*
X65516D01*
X65741D02*
Y11979D01*
X65516Y10378D02*
X65741D01*
X64841D02*
X65066D01*
X43971Y12115D02*
X44771D01*
X42871Y10515D02*
Y12115D01*
Y10515D02*
X43771D01*
X45196Y10515D02*
X45646D01*
X45871D02*
Y12115D01*
X45646Y10515D02*
X45871D01*
X44971D02*
X45196D01*
X22546Y12027D02*
X23346D01*
X21446Y10427D02*
Y12027D01*
Y10427D02*
X22346D01*
X23771Y10427D02*
X24221D01*
X24446D02*
Y12027D01*
X24221Y10427D02*
X24446D01*
X23546D02*
X23771D01*
X196842Y129524D02*
Y133524D01*
X182638Y6720D02*
X182639Y7520D01*
X182638Y5596D02*
X184162D01*
X182638Y8644D02*
X184162D01*
X197938Y15700D02*
X197939Y16500D01*
X197938Y14576D02*
X199462D01*
X197938Y17624D02*
X199462D01*
X180662Y14855D02*
Y17545D01*
Y14855D02*
X186042D01*
Y17545D01*
X180662D02*
X186042D01*
X174110Y8022D02*
X174910Y8021D01*
X172986Y6498D02*
Y8022D01*
X176034Y6498D02*
Y8022D01*
X161000Y10412D02*
X161800Y10411D01*
X159876Y8888D02*
Y10412D01*
X162924Y8888D02*
Y10412D01*
X160163Y15055D02*
Y17745D01*
Y15055D02*
X165543D01*
Y17745D01*
X160163D02*
X165543D01*
X153528Y7080D02*
X153529Y7880D01*
X153528Y5956D02*
X155052D01*
X153528Y9004D02*
X155052D01*
X139429Y9762D02*
X140229Y9761D01*
X138305Y8238D02*
Y9762D01*
X141353Y8238D02*
Y9762D01*
X139610Y14755D02*
Y17445D01*
Y14755D02*
X144990D01*
Y17445D01*
X139610D02*
X144990D01*
X112500Y19139D02*
X113300Y19138D01*
X114424D02*
Y20662D01*
X111376Y19138D02*
Y20662D01*
X112600Y24761D02*
X113400Y24760D01*
X114524D02*
Y26284D01*
X111476Y24760D02*
Y26284D01*
X111376Y10901D02*
Y13591D01*
Y10901D02*
X116756D01*
Y13591D01*
X111376D02*
X116756D01*
X90958Y6900D02*
X90959Y7700D01*
X90958Y5776D02*
X92482D01*
X90958Y8824D02*
X92482D01*
X77350Y10662D02*
X78150Y10661D01*
X76226Y9138D02*
Y10662D01*
X79274Y9138D02*
Y10662D01*
X95047Y14555D02*
Y17245D01*
X89667D02*
X95047D01*
X89667Y14555D02*
Y17245D01*
Y14555D02*
X95047D01*
X70268Y7060D02*
X70269Y7860D01*
X70268Y5936D02*
X71792D01*
X70268Y8984D02*
X71792D01*
X56150Y10762D02*
X56950Y10761D01*
X55026Y9238D02*
Y10762D01*
X58074Y9238D02*
Y10762D01*
X74190Y14555D02*
Y17245D01*
X68810D02*
X74190D01*
X68810Y14555D02*
Y17245D01*
Y14555D02*
X74190D01*
X49218Y7060D02*
X49219Y7860D01*
X49218Y5936D02*
X50742D01*
X49218Y8984D02*
X50742D01*
X35693Y10033D02*
X36493Y10032D01*
X34569Y8509D02*
Y10033D01*
X37617Y8509D02*
Y10033D01*
X52685Y15055D02*
Y17745D01*
X47305D02*
X52685D01*
X47305Y15055D02*
Y17745D01*
Y15055D02*
X52685D01*
X8000Y33139D02*
X8800Y33138D01*
X9924D02*
Y34662D01*
X6876Y33138D02*
Y34662D01*
X8000Y25789D02*
X8800Y25788D01*
X9924D02*
Y27312D01*
X6876Y25788D02*
Y27312D01*
X31442Y14855D02*
Y17545D01*
X26062D02*
X31442D01*
X26062Y14855D02*
Y17545D01*
Y14855D02*
X31442D01*
X168000Y122525D02*
Y122925D01*
X166394Y123825D02*
X167381D01*
X165900D02*
X166394D01*
X167381D02*
X167875D01*
X167394Y121625D02*
X167887D01*
X165913D02*
X166406D01*
X167394D01*
X185104Y130300D02*
Y130700D01*
X183498Y131600D02*
X184485D01*
X183004D02*
X183498D01*
X184485D02*
X184979D01*
X184498Y129400D02*
X184991D01*
X183016D02*
X183510D01*
X184498D01*
X203850Y35000D02*
Y35400D01*
X202244Y36300D02*
X203231D01*
X201750D02*
X202244D01*
X203231D02*
X203725D01*
X203244Y34100D02*
X203738D01*
X201762D02*
X202256D01*
X203244D01*
X198980Y33300D02*
X199280D01*
Y28700D02*
Y33300D01*
X199080Y28700D02*
X199280D01*
X198980D02*
X199080D01*
X189380Y33300D02*
X189680D01*
X189380Y28700D02*
X189680D01*
X189380D02*
Y30837D01*
Y31163D02*
Y33300D01*
X177980D02*
X178280D01*
Y28700D02*
Y33300D01*
X178080Y28700D02*
X178280D01*
X177980D02*
X178080D01*
X168380Y33300D02*
X168680D01*
X168380Y28700D02*
X168680D01*
X168380D02*
Y30837D01*
Y31163D02*
Y33300D01*
X156980D02*
X157280D01*
Y28700D02*
Y33300D01*
X157080Y28700D02*
X157280D01*
X156980D02*
X157080D01*
X147380Y33300D02*
X147680D01*
X147380Y28700D02*
X147680D01*
X147380D02*
Y30837D01*
Y31163D02*
Y33300D01*
X135980D02*
X136280D01*
Y28700D02*
Y33300D01*
X136080Y28700D02*
X136280D01*
X135980D02*
X136080D01*
X126380Y33300D02*
X126680D01*
X126380Y28700D02*
X126680D01*
X126380D02*
Y30837D01*
Y31163D02*
Y33300D01*
X94980D02*
X95280D01*
Y28700D02*
Y33300D01*
X95080Y28700D02*
X95280D01*
X94980D02*
X95080D01*
X85380Y33300D02*
X85680D01*
X85380Y28700D02*
X85680D01*
X85380D02*
Y30837D01*
Y31163D02*
Y33300D01*
X73980D02*
X74280D01*
Y28700D02*
Y33300D01*
X74080Y28700D02*
X74280D01*
X73980D02*
X74080D01*
X64380Y33300D02*
X64680D01*
X64380Y28700D02*
X64680D01*
X64380D02*
Y30837D01*
Y31163D02*
Y33300D01*
X52980D02*
X53280D01*
Y28700D02*
Y33300D01*
X53080Y28700D02*
X53280D01*
X52980D02*
X53080D01*
X43380Y33300D02*
X43680D01*
X43380Y28700D02*
X43680D01*
X43380D02*
Y30837D01*
Y31163D02*
Y33300D01*
X31980D02*
X32280D01*
Y28700D02*
Y33300D01*
X32080Y28700D02*
X32280D01*
X31980D02*
X32080D01*
X22380Y33300D02*
X22680D01*
X22380Y28700D02*
X22680D01*
X22380D02*
Y30837D01*
Y31163D02*
Y33300D01*
X110925Y71600D02*
X111325D01*
X110925Y72600D02*
X111325D01*
X118500D02*
X118900D01*
X118500Y71600D02*
X118900D01*
X14300Y71200D02*
X14700D01*
X14300Y72200D02*
X14700D01*
X22100D02*
X22500D01*
X22100Y71200D02*
X22500D01*
X191725Y43290D02*
X196805D01*
X191725Y41110D02*
Y43290D01*
Y41110D02*
X196805D01*
Y42041D01*
Y42359D02*
Y43290D01*
X173200D02*
X178280D01*
X173200Y41110D02*
Y43290D01*
Y41110D02*
X178280D01*
Y42041D01*
Y42359D02*
Y43290D01*
X152200D02*
X157280D01*
X152200Y41110D02*
Y43290D01*
Y41110D02*
X157280D01*
Y42041D01*
Y42359D02*
Y43290D01*
X131200D02*
X136280D01*
X131200Y41110D02*
Y43290D01*
Y41110D02*
X136280D01*
Y42041D01*
Y42359D02*
Y43290D01*
X90200Y43090D02*
X95280D01*
X90200Y40910D02*
Y43090D01*
Y40910D02*
X95280D01*
Y41841D01*
Y42159D02*
Y43090D01*
X69200D02*
X74280D01*
X69200Y40910D02*
Y43090D01*
Y40910D02*
X74280D01*
Y41841D01*
Y42159D02*
Y43090D01*
X48200D02*
X53280D01*
X48200Y40910D02*
Y43090D01*
Y40910D02*
X53280D01*
Y41841D01*
Y42159D02*
Y43090D01*
X27200D02*
X32280D01*
X27200Y40910D02*
Y43090D01*
Y40910D02*
X32280D01*
Y41841D01*
Y42159D02*
Y43090D01*
X186060Y41110D02*
X191140D01*
Y43290D01*
X186060D02*
X191140D01*
X186060Y42359D02*
Y43290D01*
Y41110D02*
Y42041D01*
X167460Y41110D02*
X172540D01*
Y43290D01*
X167460D02*
X172540D01*
X167460Y42359D02*
Y43290D01*
Y41110D02*
Y42041D01*
X145860Y41110D02*
X150940D01*
Y43290D01*
X145860D02*
X150940D01*
X145860Y42359D02*
Y43290D01*
Y41110D02*
Y42041D01*
X125440Y41110D02*
X130520D01*
Y43290D01*
X125440D02*
X130520D01*
X125440Y42359D02*
Y43290D01*
Y41110D02*
Y42041D01*
X84460Y40910D02*
X89540D01*
Y43090D01*
X84460D02*
X89540D01*
X84460Y42159D02*
Y43090D01*
Y40910D02*
Y41841D01*
X63460Y40910D02*
X68540D01*
Y43090D01*
X63460D02*
X68540D01*
X63460Y42159D02*
Y43090D01*
Y40910D02*
Y41841D01*
X42460Y40910D02*
X47540D01*
Y43090D01*
X42460D02*
X47540D01*
X42460Y42159D02*
Y43090D01*
Y40910D02*
Y41841D01*
X21460Y40910D02*
X26540D01*
Y43090D01*
X21460D02*
X26540D01*
X21460Y42159D02*
Y43090D01*
Y40910D02*
Y41841D01*
X184727Y42019D02*
Y42419D01*
X185727Y42019D02*
Y42419D01*
X184900Y37300D02*
Y37700D01*
X185900Y37300D02*
Y37700D01*
Y46800D02*
Y47200D01*
X184900Y46800D02*
Y47200D01*
X183420Y42000D02*
Y42400D01*
X184420Y42000D02*
Y42400D01*
X186200Y36800D02*
Y37200D01*
X187200Y36800D02*
Y37200D01*
X186178Y46800D02*
Y47200D01*
X187178Y46800D02*
Y47200D01*
X190025Y36800D02*
Y37200D01*
X191025Y36800D02*
Y37200D01*
X190000Y46800D02*
Y47200D01*
X191000Y46800D02*
Y47200D01*
X195988Y37000D02*
Y37400D01*
X196988Y37000D02*
Y37400D01*
X195988Y46800D02*
Y47200D01*
X196988Y46800D02*
Y47200D01*
X191850Y36800D02*
Y37200D01*
X192850Y36800D02*
Y37200D01*
X191850Y46800D02*
Y47200D01*
X192850Y46800D02*
Y47200D01*
X164875Y42000D02*
Y42400D01*
X165875Y42000D02*
Y42400D01*
X165000Y37300D02*
Y37700D01*
X164000Y37300D02*
Y37700D01*
X165000Y46800D02*
Y47200D01*
X164000Y46800D02*
Y47200D01*
X166119Y42000D02*
Y42400D01*
X167119Y42000D02*
Y42400D01*
X167600Y36800D02*
Y37200D01*
X168600Y36800D02*
Y37200D01*
X167600Y46800D02*
Y47200D01*
X168600Y46800D02*
Y47200D01*
X171400Y36800D02*
Y37200D01*
X172400Y36800D02*
Y37200D01*
X171300Y46800D02*
Y47200D01*
X172300Y46800D02*
Y47200D01*
X177200Y36800D02*
Y37200D01*
X178200Y36800D02*
Y37200D01*
X177200Y46800D02*
Y47200D01*
X178200Y46800D02*
Y47200D01*
X173300Y36800D02*
Y37200D01*
X174300Y36800D02*
Y37200D01*
X173300Y46800D02*
Y47200D01*
X174300Y46800D02*
Y47200D01*
X143200Y42000D02*
Y42400D01*
X144200Y42000D02*
Y42400D01*
X144825Y37538D02*
Y37938D01*
X143825Y37538D02*
Y37938D01*
X143918Y45000D02*
Y45400D01*
X142918Y45000D02*
Y45400D01*
X144505Y42000D02*
Y42400D01*
X145505Y42000D02*
Y42400D01*
X145900Y36800D02*
Y37200D01*
X146900Y36800D02*
Y37200D01*
X145773Y46800D02*
Y47200D01*
X146773Y46800D02*
Y47200D01*
X150375Y36800D02*
Y37200D01*
X151375Y36800D02*
Y37200D01*
X149800Y46800D02*
Y47200D01*
X150800Y46800D02*
Y47200D01*
X156200Y36800D02*
Y37200D01*
X157200Y36800D02*
Y37200D01*
X156100Y46800D02*
Y47200D01*
X157100Y46800D02*
Y47200D01*
X151800Y36800D02*
Y37200D01*
X152800Y36800D02*
Y37200D01*
X152300Y46800D02*
Y47200D01*
X153300Y46800D02*
Y47200D01*
X122700Y42000D02*
Y42400D01*
X123700Y42000D02*
Y42400D01*
X123200Y37538D02*
Y37938D01*
X122200Y37538D02*
Y37938D01*
X123200Y46862D02*
Y47262D01*
X122200Y46862D02*
Y47262D01*
X124000Y42000D02*
Y42400D01*
X125000Y42000D02*
Y42400D01*
X125500Y36800D02*
Y37200D01*
X126500Y36800D02*
Y37200D01*
X125500Y46800D02*
Y47200D01*
X126500Y46800D02*
Y47200D01*
X129400Y36800D02*
Y37200D01*
X130400Y36800D02*
Y37200D01*
X129359Y46800D02*
Y47200D01*
X130359Y46800D02*
Y47200D01*
X135200Y36800D02*
Y37200D01*
X136200Y36800D02*
Y37200D01*
X135827Y46799D02*
Y47199D01*
X134827Y46799D02*
Y47199D01*
X131400Y36800D02*
Y37200D01*
X132400Y36800D02*
Y37200D01*
X131350Y46800D02*
Y47200D01*
X132350Y46800D02*
Y47200D01*
X81900Y41800D02*
Y42200D01*
X82900Y41800D02*
Y42200D01*
X81929Y37600D02*
Y38000D01*
X80929Y37600D02*
Y38000D01*
X81917Y46800D02*
Y47200D01*
X80917Y46800D02*
Y47200D01*
X83200Y41800D02*
Y42200D01*
X84200Y41800D02*
Y42200D01*
X84600Y36800D02*
Y37200D01*
X85600Y36800D02*
Y37200D01*
X84500Y46800D02*
Y47200D01*
X85500Y46800D02*
Y47200D01*
X88400Y36800D02*
Y37200D01*
X89400Y36800D02*
Y37200D01*
X88400Y46800D02*
Y47200D01*
X89400Y46800D02*
Y47200D01*
X94460Y36370D02*
Y36770D01*
X95460Y36370D02*
Y36770D01*
X94125Y46800D02*
Y47200D01*
X95125Y46800D02*
Y47200D01*
X90300Y36800D02*
Y37200D01*
X91300Y36800D02*
Y37200D01*
X90300Y46800D02*
Y47200D01*
X91300Y46800D02*
Y47200D01*
X60800Y41800D02*
Y42200D01*
X61800Y41800D02*
Y42200D01*
X60800Y37400D02*
Y37800D01*
X59800Y37400D02*
Y37800D01*
X61000Y46800D02*
Y47200D01*
X60000Y46800D02*
Y47200D01*
X62100Y41800D02*
Y42200D01*
X63100Y41800D02*
Y42200D01*
X63600Y36800D02*
Y37200D01*
X64600Y36800D02*
Y37200D01*
X63500Y46800D02*
Y47200D01*
X64500Y46800D02*
Y47200D01*
X67400Y36800D02*
Y37200D01*
X68400Y36800D02*
Y37200D01*
X67400Y46800D02*
Y47200D01*
X68400Y46800D02*
Y47200D01*
X73200Y36800D02*
Y37200D01*
X74200Y36800D02*
Y37200D01*
X73100Y46800D02*
Y47200D01*
X74100Y46800D02*
Y47200D01*
X69400Y36800D02*
Y37200D01*
X70400Y36800D02*
Y37200D01*
X69300Y46800D02*
Y47200D01*
X70300Y46800D02*
Y47200D01*
X39800Y41800D02*
Y42200D01*
X40800Y41800D02*
Y42200D01*
X39900Y37600D02*
Y38000D01*
X38900Y37600D02*
Y38000D01*
X40200Y46862D02*
Y47262D01*
X39200Y46862D02*
Y47262D01*
X41100Y41800D02*
Y42200D01*
X42100Y41800D02*
Y42200D01*
X42500Y36800D02*
Y37200D01*
X43500Y36800D02*
Y37200D01*
X42500Y46800D02*
Y47200D01*
X43500Y46800D02*
Y47200D01*
X46400Y36800D02*
Y37200D01*
X47400Y36800D02*
Y37200D01*
X46400Y46800D02*
Y47200D01*
X47400Y46800D02*
Y47200D01*
X52200Y36628D02*
Y37028D01*
X53200Y36628D02*
Y37028D01*
X52200Y46700D02*
Y47100D01*
X53200Y46700D02*
Y47100D01*
X48330Y36800D02*
Y37200D01*
X49330Y36800D02*
Y37200D01*
X48389Y46800D02*
Y47200D01*
X49389Y46800D02*
Y47200D01*
X18945Y41800D02*
Y42200D01*
X19945Y41800D02*
Y42200D01*
X18900Y37500D02*
Y37900D01*
X17900Y37500D02*
Y37900D01*
X18900Y46800D02*
Y47200D01*
X17900Y46800D02*
Y47200D01*
X20200Y41800D02*
Y42200D01*
X21200Y41800D02*
Y42200D01*
X21600Y36800D02*
Y37200D01*
X22600Y36800D02*
Y37200D01*
X21500Y46800D02*
Y47200D01*
X22500Y46800D02*
Y47200D01*
X25408Y36800D02*
Y37200D01*
X26408Y36800D02*
Y37200D01*
X25324Y46800D02*
Y47200D01*
X26324Y46800D02*
Y47200D01*
X31200Y36800D02*
Y37200D01*
X32200Y36800D02*
Y37200D01*
X31105Y46800D02*
Y47200D01*
X32105Y46800D02*
Y47200D01*
X27311Y36800D02*
Y37200D01*
X28311Y36800D02*
Y37200D01*
X27311Y46800D02*
Y47200D01*
X28311Y46800D02*
Y47200D01*
X190175Y65650D02*
X191175D01*
X190175Y63850D02*
X191175D01*
X179600Y26900D02*
X180000D01*
X179600Y25900D02*
X180000D01*
X182000Y25500D02*
Y25900D01*
X181000Y25500D02*
Y25900D01*
X182200Y25500D02*
Y25900D01*
X183200Y25500D02*
Y25900D01*
X184200Y26000D02*
X184600D01*
X184200Y27000D02*
X184600D01*
X188000Y28300D02*
Y28700D01*
X189000Y28300D02*
Y28700D01*
X187650Y28300D02*
Y28700D01*
X186650Y28300D02*
Y28700D01*
X186300Y33400D02*
Y33800D01*
X185300Y33400D02*
Y33800D01*
X187600Y33400D02*
Y33800D01*
X186600Y33400D02*
Y33800D01*
X188900Y33400D02*
Y33800D01*
X187900Y33400D02*
Y33800D01*
X167000Y28400D02*
Y28800D01*
X168000Y28400D02*
Y28800D01*
X166700Y28400D02*
Y28800D01*
X165700Y28400D02*
Y28800D01*
X161100Y25700D02*
Y26100D01*
X160100Y25700D02*
Y26100D01*
X161300Y25700D02*
Y26100D01*
X162300Y25700D02*
Y26100D01*
X163200Y26200D02*
X163600D01*
X163200Y27200D02*
X163600D01*
X158600D02*
X159000D01*
X158600Y26200D02*
X159000D01*
X165300Y33200D02*
Y33600D01*
X164300Y33200D02*
Y33600D01*
X166600Y33200D02*
Y33600D01*
X165600Y33200D02*
Y33600D01*
X167900Y33200D02*
Y33600D01*
X166900Y33200D02*
Y33600D01*
X144300Y33300D02*
Y33700D01*
X143300Y33300D02*
Y33700D01*
X145600Y33300D02*
Y33700D01*
X144600Y33300D02*
Y33700D01*
X146900Y33300D02*
Y33700D01*
X145900Y33300D02*
Y33700D01*
X145643Y28375D02*
Y28775D01*
X144643Y28375D02*
Y28775D01*
X145940Y28375D02*
Y28775D01*
X146940Y28375D02*
Y28775D01*
X140150Y25600D02*
Y26000D01*
X141150Y25600D02*
Y26000D01*
X139900Y25600D02*
Y26000D01*
X138900Y25600D02*
Y26000D01*
X142100Y26200D02*
X142500D01*
X142100Y27200D02*
X142500D01*
X137500Y27100D02*
X137900D01*
X137500Y26100D02*
X137900D01*
X119100Y25600D02*
Y26000D01*
X118100Y25600D02*
Y26000D01*
X119400Y25600D02*
Y26000D01*
X120400Y25600D02*
Y26000D01*
X121500Y26100D02*
X121900D01*
X121500Y27100D02*
X121900D01*
X116600D02*
X117000D01*
X116600Y26100D02*
X117000D01*
X123400Y33300D02*
Y33700D01*
X122400Y33300D02*
Y33700D01*
X124700Y33300D02*
Y33700D01*
X123700Y33300D02*
Y33700D01*
X126000Y33300D02*
Y33700D01*
X125000Y33300D02*
Y33700D01*
X84075Y28375D02*
Y28775D01*
X85075Y28375D02*
Y28775D01*
X83800Y28375D02*
Y28775D01*
X82800Y28375D02*
Y28775D01*
X78198Y25703D02*
Y26103D01*
X77198Y25703D02*
Y26103D01*
X78450Y25703D02*
Y26103D01*
X79450Y25703D02*
Y26103D01*
X80479Y26089D02*
X80879D01*
X80479Y27089D02*
X80879D01*
X75700Y27105D02*
X76100D01*
X75700Y26105D02*
X76100D01*
X82566Y33400D02*
Y33800D01*
X81566Y33400D02*
Y33800D01*
X83800Y33400D02*
Y33800D01*
X82800Y33400D02*
Y33800D01*
X85100Y33400D02*
Y33800D01*
X84100Y33400D02*
Y33800D01*
X61400Y33400D02*
Y33800D01*
X60400Y33400D02*
Y33800D01*
X62700Y33400D02*
Y33800D01*
X61700Y33400D02*
Y33800D01*
X64000Y33400D02*
Y33800D01*
X63000Y33400D02*
Y33800D01*
Y28500D02*
Y28900D01*
X64000Y28500D02*
Y28900D01*
X62700Y28500D02*
Y28900D01*
X61700Y28500D02*
Y28900D01*
X59500Y26050D02*
X59900D01*
X59500Y27050D02*
X59900D01*
X57435Y25654D02*
Y26054D01*
X58435Y25654D02*
Y26054D01*
X57165Y25654D02*
Y26054D01*
X56165Y25654D02*
Y26054D01*
X54700Y27050D02*
X55100D01*
X54700Y26050D02*
X55100D01*
X40500Y33300D02*
Y33700D01*
X39500Y33300D02*
Y33700D01*
X41800Y33300D02*
Y33700D01*
X40800Y33300D02*
Y33700D01*
X43100Y33300D02*
Y33700D01*
X42100Y33300D02*
Y33700D01*
X41750Y28375D02*
Y28775D01*
X40750Y28375D02*
Y28775D01*
X42000Y28375D02*
Y28775D01*
X43000Y28375D02*
Y28775D01*
X36050Y25659D02*
Y26059D01*
X35050Y25659D02*
Y26059D01*
X36300Y25659D02*
Y26059D01*
X37300Y25659D02*
Y26059D01*
X38260Y26100D02*
X38660D01*
X38260Y27100D02*
X38660D01*
X33600Y27077D02*
X34000D01*
X33600Y26077D02*
X34000D01*
X19500Y33300D02*
Y33700D01*
X18500Y33300D02*
Y33700D01*
X20800Y33300D02*
Y33700D01*
X19800Y33300D02*
Y33700D01*
X22100Y33300D02*
Y33700D01*
X21100Y33300D02*
Y33700D01*
X21050Y28375D02*
Y28775D01*
X22050Y28375D02*
Y28775D01*
X20800Y28375D02*
Y28775D01*
X19800Y28375D02*
Y28775D01*
X12600Y27100D02*
X13000D01*
X12600Y26100D02*
X13000D01*
X17246Y26089D02*
X17646D01*
X17246Y27089D02*
X17646D01*
X15300Y25627D02*
Y26027D01*
X16300Y25627D02*
Y26027D01*
X15100Y25627D02*
Y26027D01*
X14100Y25627D02*
Y26027D01*
X10600Y21500D02*
Y21900D01*
X9600Y21500D02*
Y21900D01*
X6950Y21650D02*
Y22050D01*
X7950Y21650D02*
Y22050D01*
X34939Y12484D02*
Y12884D01*
X35939Y12484D02*
Y12884D01*
X37209Y12484D02*
Y12884D01*
X36209Y12484D02*
Y12884D01*
X55179Y13186D02*
Y13586D01*
X56179Y13186D02*
Y13586D01*
X57494Y13175D02*
Y13575D01*
X56494Y13175D02*
Y13575D01*
X76450Y13051D02*
Y13451D01*
X77450Y13051D02*
Y13451D01*
X215950Y45250D02*
Y55000D01*
X200450Y45250D02*
X215950D01*
X200450D02*
Y55250D01*
X201950D01*
X215950Y55000D02*
Y55250D01*
X207950D02*
X215950D01*
X138100Y105500D02*
Y105900D01*
X139100Y105500D02*
Y105900D01*
X139500Y105500D02*
Y105900D01*
X140500Y105500D02*
Y105900D01*
X104665Y49882D02*
X106189D01*
X104411Y49628D02*
X104665Y49882D01*
X104411Y45818D02*
Y49628D01*
X106189Y45818D02*
Y46580D01*
X104411Y45818D02*
X106189D01*
Y46580D02*
Y49882D01*
X104411Y46580D02*
Y49120D01*
X101148Y49882D02*
X102672D01*
X100894Y49628D02*
X101148Y49882D01*
X100894Y45818D02*
Y49628D01*
X102672Y45818D02*
Y46580D01*
X100894Y45818D02*
X102672D01*
Y46580D02*
Y49882D01*
X100894Y46580D02*
Y49120D01*
X105100Y50300D02*
X105500D01*
X105100Y51300D02*
X105500D01*
X101571Y50300D02*
X101971D01*
X101571Y51300D02*
X101971D01*
X105100Y56500D02*
X105500D01*
X105100Y57500D02*
X105500D01*
X101600Y56500D02*
X102000D01*
X101600Y57500D02*
X102000D01*
X105100Y55100D02*
X105500D01*
X105100Y56100D02*
X105500D01*
X101583Y55100D02*
X101983D01*
X101583Y56100D02*
X101983D01*
X109114Y116300D02*
Y116700D01*
X110114Y116300D02*
Y116700D01*
X60000Y83000D02*
X61000D01*
X60500Y82500D02*
Y83500D01*
X93000Y83000D02*
X94000D01*
X93500Y82500D02*
Y83500D01*
X93000Y131000D02*
X94000D01*
X93500Y130500D02*
Y131500D01*
X60000Y131000D02*
X61000D01*
X60500Y130500D02*
Y131500D01*
X94000Y109000D02*
Y110000D01*
X93500Y109500D02*
X94500D01*
X60000Y109000D02*
Y110000D01*
X59500Y109500D02*
X60500D01*
X86500Y128000D02*
Y134500D01*
X75500Y128000D02*
X86500D01*
X75500D02*
Y134500D01*
X57000Y82000D02*
Y132000D01*
X59500Y134500D02*
X94500D01*
X97000Y82000D02*
Y132000D01*
X59500Y79500D02*
X94500D01*
X92560Y120800D02*
X95440D01*
X92560Y119700D02*
Y120800D01*
X95440Y119700D02*
Y120800D01*
X92560Y98200D02*
X95440D01*
X92560D02*
Y99340D01*
X95440Y98200D02*
Y99300D01*
X61440Y119700D02*
Y120800D01*
X58560Y119700D02*
Y120800D01*
X61440D01*
Y98200D02*
Y99300D01*
X58560Y98200D02*
Y99340D01*
Y98200D02*
X61440D01*
X174875Y64114D02*
Y67314D01*
X176675D01*
Y64114D02*
Y67314D01*
X174875Y64114D02*
X176675D01*
X176650Y67625D02*
Y70825D01*
X174850Y67625D02*
X176650D01*
X174850D02*
Y70825D01*
X176650D01*
X174500Y67625D02*
Y70825D01*
X172700Y67625D02*
X174500D01*
X172700D02*
Y70825D01*
X174500D01*
X172725Y64114D02*
Y67314D01*
X174525D01*
Y64114D02*
Y67314D01*
X172725Y64114D02*
X174525D01*
X170600D02*
Y67314D01*
X172400D01*
Y64114D02*
Y67314D01*
X170600Y64114D02*
X172400D01*
Y67625D02*
Y70825D01*
X170600Y67625D02*
X172400D01*
X170600D02*
Y70825D01*
X172400D01*
X170900Y80325D02*
Y83525D01*
X169100Y80325D02*
X170900D01*
X169100D02*
Y83525D01*
X170900D01*
X169100Y76800D02*
Y80000D01*
X170900D01*
Y76800D02*
Y80000D01*
X169100Y76800D02*
X170900D01*
X118300Y20400D02*
X118525D01*
X118975D02*
X119200D01*
Y22000D01*
X118525Y20400D02*
X118975D01*
X116200Y20400D02*
X117100D01*
X116200D02*
Y22000D01*
X117300D02*
X118100D01*
X53775Y128925D02*
Y131075D01*
X51950D02*
X53775D01*
X51950Y128925D02*
X53775D01*
X36225D02*
Y131075D01*
X38050D01*
X36225Y128925D02*
X38050D01*
X149173Y83302D02*
Y83702D01*
X148173Y83302D02*
Y83702D01*
X150750Y83302D02*
Y83702D01*
X149750Y83302D02*
Y83702D01*
X152327Y83302D02*
Y83702D01*
X151327Y83302D02*
Y83702D01*
X153905Y83302D02*
Y83702D01*
X152905Y83302D02*
Y83702D01*
X155482Y83302D02*
Y83702D01*
X154482Y83302D02*
Y83702D01*
X149173Y72200D02*
Y72600D01*
X148173Y72200D02*
Y72600D01*
X150750Y72200D02*
Y72600D01*
X149750Y72200D02*
Y72600D01*
X152327Y72200D02*
Y72600D01*
X151327Y72200D02*
Y72600D01*
X153905Y72200D02*
Y72600D01*
X152905Y72200D02*
Y72600D01*
X155482Y72200D02*
Y72600D01*
X154482Y72200D02*
Y72600D01*
X166523Y83300D02*
Y83700D01*
X165523Y83300D02*
Y83700D01*
X215700Y60800D02*
X215700Y60900D01*
X216000D01*
X215700Y73300D02*
X215700Y73200D01*
X216000D01*
Y60900D02*
Y73200D01*
X215700Y59800D02*
Y60500D01*
Y59800D02*
X216000D01*
X216000Y60490D02*
X216000Y59800D01*
X216000Y73610D02*
X216000Y74300D01*
X215700D02*
X216000D01*
X215700Y73600D02*
Y74300D01*
X199000Y62200D02*
Y71900D01*
X207750Y60500D02*
X215700D01*
X202100D02*
X203690D01*
X202100Y73600D02*
X203690D01*
X207750D02*
X215700D01*
X174750Y126475D02*
Y126875D01*
X173750Y126475D02*
Y126875D01*
Y124175D02*
Y124575D01*
X174750Y124175D02*
Y124575D01*
X51450Y90445D02*
Y101355D01*
X48750Y90445D02*
X51450D01*
X48750D02*
Y101355D01*
X51450D01*
X187224Y66202D02*
Y66602D01*
X188224Y66202D02*
Y66602D01*
X187273Y71603D02*
Y72003D01*
X188273Y71603D02*
Y72003D01*
X143375Y67101D02*
X143775D01*
X143375Y66101D02*
X143775D01*
X143375Y69641D02*
X143775D01*
X143375Y68641D02*
X143775D01*
X138475Y72108D02*
X138875D01*
X138475Y71108D02*
X138875D01*
X138475Y74648D02*
X138875D01*
X138475Y73648D02*
X138875D01*
X143375Y77261D02*
X143775D01*
X143375Y76261D02*
X143775D01*
X143375Y79801D02*
X143775D01*
X143375Y78801D02*
X143775D01*
X166523Y72200D02*
Y72600D01*
X165523Y72200D02*
Y72600D01*
X115745Y63783D02*
Y64183D01*
X116745Y63783D02*
Y64183D01*
X115745Y66781D02*
Y67181D01*
X116745Y66781D02*
Y67181D01*
X20900Y63800D02*
Y64200D01*
X21900Y63800D02*
Y64200D01*
X20900Y66800D02*
Y67200D01*
X21900Y66800D02*
Y67200D01*
X11641Y82593D02*
Y84232D01*
Y84868D02*
Y86530D01*
X16721Y82593D02*
Y86530D01*
X12560Y30345D02*
Y34282D01*
X17640Y30345D02*
Y32007D01*
Y32643D02*
Y34282D01*
X38640Y32643D02*
Y34282D01*
Y30345D02*
Y32007D01*
X33560Y30345D02*
Y34282D01*
X54760Y30345D02*
Y34282D01*
X59840Y30345D02*
Y32007D01*
Y32643D02*
Y34282D01*
X80740Y32643D02*
Y34282D01*
Y30345D02*
Y32007D01*
X75660Y30345D02*
Y34282D01*
X116660Y30345D02*
Y34282D01*
X121740Y30345D02*
Y32007D01*
Y32643D02*
Y34282D01*
X142540Y32643D02*
Y34282D01*
Y30345D02*
Y32007D01*
X137460Y30345D02*
Y34282D01*
X158628Y30520D02*
Y34457D01*
X163708Y30520D02*
Y32182D01*
Y32818D02*
Y34457D01*
X184639Y32643D02*
Y34282D01*
Y30345D02*
Y32007D01*
X179559Y30345D02*
Y34282D01*
X155458Y62382D02*
X155966D01*
Y58318D02*
Y62382D01*
X155458Y58318D02*
X155966D01*
X152664Y62382D02*
X153172D01*
X152664Y58318D02*
Y62382D01*
Y58318D02*
X153172D01*
X152664Y58953D02*
X153172D01*
X155458D02*
X155966D01*
X193301Y70837D02*
X196349D01*
Y69313D02*
Y70837D01*
X193301Y69313D02*
X196349D01*
X193301D02*
Y70837D01*
X193351Y65512D02*
X196399D01*
Y63988D02*
Y65512D01*
X193351Y63988D02*
X196399D01*
X193351D02*
Y65512D01*
X196400Y16100D02*
Y16500D01*
X195400Y16100D02*
Y16500D01*
X184203Y27450D02*
X184603D01*
X184203Y28450D02*
X184603D01*
X186100Y31150D02*
X186500D01*
X186100Y30150D02*
X186500D01*
X180532Y7550D02*
Y7950D01*
X179532Y7550D02*
Y7950D01*
X181899Y27450D02*
X182299D01*
X181899Y28450D02*
X182299D01*
X180274Y22100D02*
X181074D01*
X179174Y20500D02*
Y22100D01*
Y20500D02*
X180074D01*
X181499Y20500D02*
X181949D01*
X182174D02*
Y22100D01*
X181949Y20500D02*
X182174D01*
X181274D02*
X181499D01*
X179600Y27450D02*
X180000D01*
X179600Y28450D02*
X180000D01*
X161850Y12700D02*
Y13100D01*
X162850Y12700D02*
Y13100D01*
X163300Y27500D02*
X163700D01*
X163300Y28500D02*
X163700D01*
X165125Y31300D02*
X165525D01*
X165125Y30300D02*
X165525D01*
X161000Y12700D02*
Y13100D01*
X160000Y12700D02*
Y13100D01*
X160900Y27500D02*
X161300D01*
X160900Y28500D02*
X161300D01*
X159500Y22100D02*
X160300D01*
X158400Y20500D02*
Y22100D01*
Y20500D02*
X159300D01*
X160725Y20500D02*
X161175D01*
X161400D02*
Y22100D01*
X161175Y20500D02*
X161400D01*
X160500D02*
X160725D01*
X158600Y27500D02*
X159000D01*
X158600Y28500D02*
X159000D01*
X140279Y12300D02*
Y12700D01*
X141279Y12300D02*
Y12700D01*
X142100Y27450D02*
X142500D01*
X142100Y28450D02*
X142500D01*
X143995Y31300D02*
X144395D01*
X143995Y30300D02*
X144395D01*
X139429Y12300D02*
Y12700D01*
X138429Y12300D02*
Y12700D01*
X139800Y27450D02*
X140200D01*
X139800Y28450D02*
X140200D01*
X138400Y21900D02*
X139200D01*
X137300Y20300D02*
Y21900D01*
Y20300D02*
X138200D01*
X139625Y20300D02*
X140075D01*
X140300D02*
Y21900D01*
X140075Y20300D02*
X140300D01*
X139400D02*
X139625D01*
X137500Y27450D02*
X137900D01*
X137500Y28450D02*
X137900D01*
X114300Y16000D02*
Y16400D01*
X113300Y16000D02*
Y16400D01*
X123700Y28400D02*
Y28800D01*
X124700Y28400D02*
Y28800D01*
X126000Y28400D02*
Y28800D01*
X125000Y28400D02*
Y28800D01*
X121500Y27400D02*
X121900D01*
X121500Y28400D02*
X121900D01*
X123260Y31300D02*
X123660D01*
X123260Y30300D02*
X123660D01*
X111450Y16000D02*
Y16400D01*
X112450Y16000D02*
Y16400D01*
X119000Y27400D02*
X119400D01*
X119000Y28400D02*
X119400D01*
X116600Y27400D02*
X117000D01*
X116600Y28400D02*
X117000D01*
X77963Y13051D02*
Y13451D01*
X78963Y13051D02*
Y13451D01*
X80479Y27500D02*
X80879D01*
X80479Y28500D02*
X80879D01*
X82300Y31300D02*
X82700D01*
X82300Y30300D02*
X82700D01*
X78000Y27500D02*
X78400D01*
X78000Y28500D02*
X78400D01*
X76585Y21750D02*
X77385D01*
X75485Y20150D02*
Y21750D01*
Y20150D02*
X76385D01*
X77810Y20150D02*
X78260D01*
X78485D02*
Y21750D01*
X78260Y20150D02*
X78485D01*
X77585D02*
X77810D01*
X75600Y27500D02*
X76000D01*
X75600Y28500D02*
X76000D01*
X59500Y27400D02*
X59900D01*
X59500Y28400D02*
X59900D01*
X61200Y31300D02*
X61600D01*
X61200Y30300D02*
X61600D01*
X57100Y27400D02*
X57500D01*
X57100Y28400D02*
X57500D01*
X55350Y21050D02*
X56150D01*
X54250Y19450D02*
Y21050D01*
Y19450D02*
X55150D01*
X56575Y19450D02*
X57025D01*
X57250D02*
Y21050D01*
X57025Y19450D02*
X57250D01*
X56350D02*
X56575D01*
X54700Y27400D02*
X55100D01*
X54700Y28400D02*
X55100D01*
X38260Y27500D02*
X38660D01*
X38260Y28500D02*
X38660D01*
X40300Y31300D02*
X40700D01*
X40300Y30300D02*
X40700D01*
X35900Y27500D02*
X36300D01*
X35900Y28500D02*
X36300D01*
X34900Y22000D02*
X35700D01*
X33800Y20400D02*
Y22000D01*
Y20400D02*
X34700D01*
X36125Y20400D02*
X36575D01*
X36800D02*
Y22000D01*
X36575Y20400D02*
X36800D01*
X35900D02*
X36125D01*
X33572Y27500D02*
X33972D01*
X33572Y28500D02*
X33972D01*
X17246Y27500D02*
X17646D01*
X17246Y28500D02*
X17646D01*
X19000Y31300D02*
X19400D01*
X19000Y30300D02*
X19400D01*
X14900Y27500D02*
X15300D01*
X14900Y28500D02*
X15300D01*
X13392Y21907D02*
X14192D01*
X12292Y20307D02*
Y21907D01*
Y20307D02*
X13192D01*
X14617Y20307D02*
X15067D01*
X15292D02*
Y21907D01*
X15067Y20307D02*
X15292D01*
X14392D02*
X14617D01*
X12572Y27500D02*
X12972D01*
X12572Y28500D02*
X12972D01*
X52990Y72900D02*
X53990D01*
X52990Y74700D02*
X53990D01*
X32280Y18000D02*
Y27000D01*
X11720D02*
X32280D01*
X11720Y18000D02*
X32280D01*
X11720D02*
Y27000D01*
X21900Y60800D02*
Y61200D01*
X20900Y60800D02*
Y61200D01*
X23600Y60800D02*
Y61200D01*
X22600Y60800D02*
Y61200D01*
X23600Y66800D02*
Y67200D01*
X22600Y66800D02*
Y67200D01*
X17500Y66800D02*
Y67200D01*
X18500Y66800D02*
Y67200D01*
X53280Y18000D02*
Y27000D01*
X32720D02*
X53280D01*
X32720Y18000D02*
X53280D01*
X32720D02*
Y27000D01*
X19200Y66800D02*
Y67200D01*
X20200Y66800D02*
Y67200D01*
X19200Y63800D02*
Y64200D01*
X20200Y63800D02*
Y64200D01*
X18500Y63800D02*
Y64200D01*
X17500Y63800D02*
Y64200D01*
X35500Y74500D02*
Y74900D01*
X34500Y74500D02*
Y74900D01*
X38100Y74500D02*
Y74900D01*
X37100Y74500D02*
Y74900D01*
X26623Y58500D02*
Y58900D01*
X27623Y58500D02*
Y58900D01*
X32550Y74500D02*
Y74900D01*
X31550Y74500D02*
Y74900D01*
X74280Y18000D02*
Y27000D01*
X53720D02*
X74280D01*
X53720Y18000D02*
X74280D01*
X53720D02*
Y27000D01*
X36800Y74500D02*
Y74900D01*
X35800Y74500D02*
Y74900D01*
X38700Y62100D02*
Y62500D01*
X39700Y62100D02*
Y62500D01*
X23600Y63800D02*
Y64200D01*
X22600Y63800D02*
Y64200D01*
X28550Y74500D02*
Y74900D01*
X27550Y74500D02*
Y74900D01*
X12300Y65400D02*
Y65800D01*
X11300Y65400D02*
Y65800D01*
X13900Y68500D02*
X14300D01*
X13900Y67500D02*
X14300D01*
X13900Y70500D02*
X14300D01*
X13900Y69500D02*
X14300D01*
X12300Y62700D02*
Y63100D01*
X11300Y62700D02*
Y63100D01*
X95280Y18000D02*
Y27000D01*
X74720D02*
X95280D01*
X74720Y18000D02*
X95280D01*
X74720D02*
Y27000D01*
X13900Y61800D02*
X14300D01*
X13900Y62800D02*
X14300D01*
X15900Y64300D02*
Y65700D01*
X12700Y64300D02*
Y65700D01*
X118300Y79900D02*
X119300D01*
X118300Y81700D02*
X119300D01*
X136280Y18000D02*
Y27000D01*
X115720D02*
X136280D01*
X115720Y18000D02*
X136280D01*
X115720D02*
Y27000D01*
X114980Y60292D02*
Y60692D01*
X113980Y60292D02*
Y60692D01*
X116745Y60292D02*
Y60692D01*
X115745Y60292D02*
Y60692D01*
X120275Y66781D02*
Y67181D01*
X119275Y66781D02*
Y67181D01*
X113980Y66781D02*
Y67181D01*
X114980Y66781D02*
Y67181D01*
X157280Y18000D02*
Y27000D01*
X136720D02*
X157280D01*
X136720Y18000D02*
X157280D01*
X136720D02*
Y27000D01*
X117510Y66781D02*
Y67181D01*
X118510Y66781D02*
Y67181D01*
X117510Y63783D02*
Y64183D01*
X118510Y63783D02*
Y64183D01*
X114980Y63783D02*
Y64183D01*
X113980Y63783D02*
Y64183D01*
X132200Y74500D02*
Y74900D01*
X131200Y74500D02*
Y74900D01*
X129550Y74500D02*
Y74900D01*
X128550Y74500D02*
Y74900D01*
X134750Y74500D02*
Y74900D01*
X133750Y74500D02*
Y74900D01*
X122170Y58650D02*
Y59050D01*
X123170Y58650D02*
Y59050D01*
X178280Y18000D02*
Y27000D01*
X157720D02*
X178280D01*
X157720Y18000D02*
X178280D01*
X157720D02*
Y27000D01*
X125550Y74500D02*
Y74900D01*
X124550Y74500D02*
Y74900D01*
X133475Y74500D02*
Y74900D01*
X132475Y74500D02*
Y74900D01*
X135350Y59150D02*
Y59550D01*
X136350Y59150D02*
Y59550D01*
X120275Y63783D02*
Y64183D01*
X119275Y63783D02*
Y64183D01*
X108020Y64350D02*
Y64750D01*
X109020Y64350D02*
Y64750D01*
X110400Y67610D02*
X110800D01*
X110400Y66610D02*
X110800D01*
X110410Y69497D02*
X110810D01*
X110410Y68497D02*
X110810D01*
X109010Y61020D02*
Y61420D01*
X108010Y61020D02*
Y61420D01*
X199280Y18000D02*
Y27000D01*
X178720D02*
X199280D01*
X178720Y18000D02*
X199280D01*
X178720D02*
Y27000D01*
X110910Y60420D02*
X111310D01*
X110910Y61420D02*
X111310D01*
X112920Y63400D02*
Y64800D01*
X109720Y63400D02*
Y64800D01*
X189200Y71901D02*
X190600D01*
X189200Y73101D02*
X190600D01*
X182308Y69949D02*
X184340D01*
X183578Y73251D02*
X184340D01*
X182308D02*
X183070D01*
X186023Y71603D02*
Y72003D01*
X187023Y71603D02*
Y72003D01*
X183100Y69601D02*
X183500D01*
X183100Y68601D02*
X183500D01*
X179399Y71603D02*
Y72003D01*
X180399Y71603D02*
Y72003D01*
X178149Y71603D02*
Y72003D01*
X179149Y71603D02*
Y72003D01*
X190125Y69175D02*
X191125D01*
X190125Y70975D02*
X191125D01*
X186875Y68601D02*
X187275D01*
X186875Y69601D02*
X187275D01*
X189250Y66500D02*
X190650D01*
X189250Y67700D02*
X190650D01*
X182283Y64599D02*
X184315D01*
X183553Y67901D02*
X184315D01*
X182283D02*
X183045D01*
X86081Y61162D02*
X86481D01*
X86081Y60162D02*
X86481D01*
X185974Y66202D02*
Y66602D01*
X186974Y66202D02*
Y66602D01*
X183079Y64125D02*
X183479D01*
X183079Y63125D02*
X183479D01*
X179399Y66202D02*
Y66602D01*
X180399Y66202D02*
Y66602D01*
X178149Y66202D02*
Y66602D01*
X179149Y66202D02*
Y66602D01*
X186950Y63125D02*
X187350D01*
X186950Y64125D02*
X187350D01*
X49100Y84775D02*
Y85175D01*
X48100Y84775D02*
Y85175D01*
X43400Y78700D02*
X43800D01*
X43400Y77700D02*
X43800D01*
X45905Y78700D02*
X46305D01*
X45905Y77700D02*
X46305D01*
X86081Y58662D02*
X86481D01*
X86081Y59662D02*
X86481D01*
X86081Y57162D02*
X86481D01*
X86081Y58162D02*
X86481D01*
X10350Y56135D02*
Y72125D01*
X7650Y56135D02*
X10350D01*
X7650D02*
Y72125D01*
X10350D01*
X79972Y56200D02*
Y56600D01*
X80972Y56200D02*
Y56600D01*
X53100Y102500D02*
X53500D01*
X53100Y101500D02*
X53500D01*
X83026Y71686D02*
Y72086D01*
X82026Y71686D02*
Y72086D01*
X54363Y97000D02*
X54763D01*
X54363Y98000D02*
X54763D01*
X89200Y67925D02*
Y68325D01*
X90200Y67925D02*
Y68325D01*
X88300Y63525D02*
X90100D01*
Y66725D01*
X88300D02*
X90100D01*
X88300Y63525D02*
Y66725D01*
X53100Y99550D02*
X53500D01*
X53100Y100550D02*
X53500D01*
X90200Y61925D02*
Y62325D01*
X89200Y61925D02*
Y62325D01*
X86050Y61518D02*
X86450D01*
X86050Y62518D02*
X86450D01*
X76900Y56200D02*
Y56600D01*
X77900Y56200D02*
Y56600D01*
X65600Y58700D02*
X66000D01*
X65600Y57700D02*
X66000D01*
X86071Y66321D02*
X86471D01*
X86071Y67321D02*
X86471D01*
X86071Y67585D02*
X86471D01*
X86071Y68585D02*
X86471D01*
X86050Y71475D02*
X86450D01*
X86050Y72475D02*
X86450D01*
X86050Y68863D02*
X86450D01*
X86050Y69863D02*
X86450D01*
X69208Y70317D02*
Y70717D01*
X68208Y70317D02*
Y70717D01*
X70608Y70317D02*
Y70717D01*
X69608Y70317D02*
Y70717D01*
X86050Y70175D02*
X86450D01*
X86050Y71175D02*
X86450D01*
X66087Y70317D02*
Y70717D01*
X65087Y70317D02*
Y70717D01*
X67648Y70317D02*
Y70717D01*
X66648Y70317D02*
Y70717D01*
X23305Y83022D02*
Y86578D01*
X20257D02*
X23305D01*
X20257Y83396D02*
Y83400D01*
Y83396D02*
X20631Y83022D01*
X20257Y83396D02*
Y86578D01*
Y83396D02*
X20631Y83022D01*
X23305D01*
X21531Y87350D02*
X21931D01*
X21531Y88350D02*
X21931D01*
X24900Y84700D02*
Y85100D01*
X23900Y84700D02*
Y85100D01*
X9700Y86000D02*
Y86400D01*
X10700Y86000D02*
Y86400D01*
X26706Y81725D02*
X27106D01*
X26706Y82725D02*
X27106D01*
X28304Y83328D02*
Y83817D01*
X27515Y86172D02*
X28304D01*
X25459Y85683D02*
Y86172D01*
X27515Y83328D02*
X28304D01*
Y85683D02*
Y86172D01*
X25459D02*
X26248D01*
X25459Y83817D02*
X25931Y83345D01*
X25459Y83817D02*
Y85683D01*
Y83817D02*
X25948Y83328D01*
X27515D01*
X28304Y83817D02*
Y85683D01*
X26248Y86172D02*
X27515D01*
X26681Y86725D02*
X27081D01*
X26681Y87725D02*
X27081D01*
X32800Y84700D02*
Y85100D01*
X31800Y84700D02*
Y85100D01*
X33350Y83925D02*
X33700Y83575D01*
Y83550D02*
Y83575D01*
Y83550D02*
X33975D01*
X30400Y84700D02*
Y85100D01*
X31400Y84700D02*
Y85100D01*
X37900Y84700D02*
Y85100D01*
X38900Y84700D02*
Y85100D01*
X36500Y84700D02*
Y85100D01*
X37500Y84700D02*
Y85100D01*
X203600Y91975D02*
Y93275D01*
Y80675D02*
Y81975D01*
X207200Y79475D02*
X209500D01*
X207100Y94475D02*
X209500D01*
X212500D02*
X215910D01*
Y94225D02*
Y94475D01*
X212600Y79475D02*
X215910D01*
Y94225D01*
X194449Y79049D02*
X196481D01*
X195719Y82351D02*
X196481D01*
X194449D02*
X195211D01*
X193365Y80700D02*
Y81100D01*
X192365Y80700D02*
Y81100D01*
X190865Y80700D02*
Y81100D01*
X191865Y80700D02*
Y81100D01*
X199150Y80650D02*
Y81050D01*
X200150Y80650D02*
Y81050D01*
X198700Y79750D02*
Y80150D01*
X197700Y79750D02*
Y80150D01*
X169652Y122525D02*
Y122925D01*
X168652Y122525D02*
Y122925D01*
X170852Y123975D02*
X171253D01*
X170852Y122975D02*
X171253D01*
X170852Y122475D02*
X171253D01*
X170852Y121475D02*
X171253D01*
X102188Y115700D02*
Y116100D01*
X101188Y115700D02*
Y116100D01*
X100839Y115700D02*
Y116100D01*
X99839Y115700D02*
Y116100D01*
X168400Y127830D02*
X172400D01*
X168400Y124636D02*
X170150D01*
X170650D02*
X172400D01*
X177477Y129595D02*
X180017D01*
X181033Y130611D02*
Y132262D01*
X160967Y130738D02*
Y132262D01*
X161983Y133278D02*
X169603D01*
X161983Y129722D02*
X164650D01*
X172397Y133278D02*
X180017D01*
X104622Y114848D02*
X106655D01*
X105893Y118150D02*
X106655D01*
X104622D02*
X105384D01*
X166700Y120200D02*
X167100D01*
X166700Y121200D02*
X167100D01*
X103538Y115700D02*
Y116100D01*
X102538Y115700D02*
Y116100D01*
X108714Y116300D02*
Y116700D01*
X107714Y116300D02*
Y116700D01*
X173500Y119900D02*
Y120300D01*
X174500Y119900D02*
Y120300D01*
X175700Y119900D02*
Y120300D01*
X176700Y119900D02*
Y120300D01*
X164349Y61675D02*
X164749D01*
X164349Y60675D02*
X164749D01*
X174050Y59850D02*
Y63050D01*
X175850D01*
Y59850D02*
Y63050D01*
X174050Y59850D02*
X175850D01*
X164349Y58600D02*
X164749D01*
X164349Y59600D02*
X164749D01*
X147922Y57950D02*
X152022D01*
Y58750D01*
Y61850D02*
Y62750D01*
X147922D02*
X152022D01*
X145422Y60150D02*
Y60550D01*
X144422Y60150D02*
Y60550D01*
X146822Y60150D02*
Y60550D01*
X145822Y60150D02*
Y60550D01*
X151800Y64050D02*
Y70450D01*
Y64050D02*
X158800D01*
Y70450D01*
X151800D02*
X158800D01*
X161225Y65175D02*
X161625D01*
X161225Y64175D02*
X161625D01*
X165475Y65175D02*
X165875D01*
X165475Y64175D02*
X165875D01*
X163368Y72200D02*
Y72600D01*
X162368Y72200D02*
Y72600D01*
X160791Y72200D02*
Y72600D01*
X161791Y72200D02*
Y72600D01*
X161320Y70880D02*
X165257D01*
X161320Y65800D02*
X162982D01*
X163617D02*
X165257D01*
X144950Y64956D02*
Y80946D01*
X147650D01*
Y64956D02*
Y80946D01*
X144950Y64956D02*
X147650D01*
X167100Y68550D02*
Y68950D01*
X168100Y68550D02*
Y68950D01*
X158636Y72200D02*
Y72600D01*
X157636Y72200D02*
Y72600D01*
X163945Y72200D02*
Y72600D01*
X164945Y72200D02*
Y72600D01*
X168100Y72200D02*
Y72600D01*
X167100Y72200D02*
Y72600D01*
X156059Y72200D02*
Y72600D01*
X157059Y72200D02*
Y72600D01*
X160214Y72200D02*
Y72600D01*
X159214Y72200D02*
Y72600D01*
X151800Y75200D02*
Y81600D01*
Y75200D02*
X158800D01*
Y81600D01*
X151800D02*
X158800D01*
X161225Y76077D02*
X161625D01*
X161225Y75077D02*
X161625D01*
X165475Y76077D02*
X165875D01*
X165475Y75077D02*
X165875D01*
X163368Y83350D02*
Y83750D01*
X162368Y83350D02*
Y83750D01*
X160791Y83350D02*
Y83750D01*
X161791Y83350D02*
Y83750D01*
X161320Y81865D02*
X165257D01*
X161320Y76785D02*
X162982D01*
X163617D02*
X165257D01*
X167100Y79627D02*
Y80027D01*
X168100Y79627D02*
Y80027D01*
X158636Y83325D02*
Y83725D01*
X157636Y83325D02*
Y83725D01*
X163945Y83350D02*
Y83750D01*
X164945Y83350D02*
Y83750D01*
X168100Y83300D02*
Y83700D01*
X167100Y83300D02*
Y83700D01*
X156059Y83325D02*
Y83725D01*
X157059Y83325D02*
Y83725D01*
X160214Y83325D02*
Y83725D01*
X159214Y83325D02*
Y83725D01*
X144095Y111350D02*
X155005D01*
Y108650D02*
Y111350D01*
X144095Y108650D02*
X155005D01*
X144095D02*
Y111350D01*
X156155Y115550D02*
X177225D01*
Y112850D02*
Y115550D01*
X156155Y112850D02*
X177225D01*
X156155D02*
Y115550D01*
Y111350D02*
X177225D01*
Y108650D02*
Y111350D01*
X156155Y108650D02*
X177225D01*
X156155D02*
Y111350D01*
X132720D02*
X143630D01*
Y108650D02*
Y111350D01*
X132720Y108650D02*
X143630D01*
X132720D02*
Y111350D01*
X144095Y115550D02*
X155005D01*
Y112850D02*
Y115550D01*
X144095Y112850D02*
X155005D01*
X144095D02*
Y115550D01*
X132720D02*
X143630D01*
Y112850D02*
Y115550D01*
X132720Y112850D02*
X143630D01*
X132720D02*
Y115550D01*
X141650Y111620D02*
X142050D01*
X141650Y112620D02*
X142050D01*
X138400Y111620D02*
X138800D01*
X138400Y112620D02*
X138800D01*
X7725Y92220D02*
X8125D01*
X7725Y91220D02*
X8125D01*
X7725Y94760D02*
X8125D01*
X7725Y93760D02*
X8125D01*
X7725Y97300D02*
X8125D01*
X7725Y96300D02*
X8125D01*
X7725Y99840D02*
X8125D01*
X7725Y98840D02*
X8125D01*
X7725Y102380D02*
X8125D01*
X7725Y101380D02*
X8125D01*
X7725Y104920D02*
X8125D01*
X7725Y103920D02*
X8125D01*
X7725Y107460D02*
X8125D01*
X7725Y106460D02*
X8125D01*
X7725Y110000D02*
X8125D01*
X7725Y109000D02*
X8125D01*
X12025Y90075D02*
Y116225D01*
X9325Y90075D02*
X12025D01*
X9325D02*
Y116225D01*
X12025D01*
X32350Y90355D02*
Y116505D01*
X29650Y90355D02*
X32350D01*
X29650D02*
Y116505D01*
X32350D01*
X26100Y90400D02*
Y90800D01*
X27100Y90400D02*
Y90800D01*
X19300Y90400D02*
X19700D01*
X19300Y89400D02*
X19700D01*
X22800D02*
X23200D01*
X22800Y90400D02*
X23200D01*
X157800Y126700D02*
X158200D01*
X157800Y125700D02*
X158200D01*
X157800Y125400D02*
X158200D01*
X157800Y124400D02*
X158200D01*
X157800Y134425D02*
X158200D01*
X157800Y133425D02*
X158200D01*
X157800Y133175D02*
X158200D01*
X157800Y132175D02*
X158200D01*
X157800Y131900D02*
X158200D01*
X157800Y130900D02*
X158200D01*
X135800Y123900D02*
X136200D01*
X135800Y122900D02*
X136200D01*
X135800Y131825D02*
X136200D01*
X135800Y130825D02*
X136200D01*
X135800Y129825D02*
X136200D01*
X135800Y128825D02*
X136200D01*
X135800Y127825D02*
X136200D01*
X135800Y126825D02*
X136200D01*
X135800Y125950D02*
X136200D01*
X135800Y124950D02*
X136200D01*
X157800Y128000D02*
X158200D01*
X157800Y127000D02*
X158200D01*
X157800Y130600D02*
X158200D01*
X157800Y129600D02*
X158200D01*
X157800Y129300D02*
X158200D01*
X157800Y128300D02*
X158200D01*
X137500Y134400D02*
X146500D01*
X147500D02*
X156500D01*
Y122900D02*
Y129900D01*
X137500Y118400D02*
X156500D01*
X137500D02*
Y134400D01*
X156500Y118400D02*
Y122900D01*
Y129900D02*
Y134400D01*
X37500Y107250D02*
Y107650D01*
X36500Y107250D02*
Y107650D01*
X39325Y107250D02*
Y107650D01*
X38325Y107250D02*
Y107650D01*
X40000Y107250D02*
Y107650D01*
X41000Y107250D02*
Y107650D01*
X42680Y116080D02*
X45370D01*
X42680Y90380D02*
Y116080D01*
Y90380D02*
X45370D01*
Y116080D01*
X35620Y90380D02*
Y111000D01*
X32930Y90380D02*
X35620D01*
X32930D02*
Y111000D01*
X35620D01*
X61440Y98200D02*
Y99300D01*
X58560Y98200D02*
Y99340D01*
X61440Y119700D02*
Y120800D01*
X58560Y119700D02*
Y120800D01*
Y98200D02*
X61440D01*
X58560Y120800D02*
X61440D01*
X95440Y98200D02*
Y99300D01*
X92560Y98200D02*
Y99340D01*
X95440Y119700D02*
Y120800D01*
X92560Y119700D02*
Y120800D01*
Y98200D02*
X95440D01*
X92560Y120800D02*
X95440D01*
X203600Y114475D02*
X215950D01*
X194650D02*
X200500D01*
X194650Y98475D02*
X200500D01*
X203600D02*
X215950D01*
X194650D02*
Y114475D01*
X215950Y98475D02*
Y114475D01*
X210300Y95500D02*
X210700D01*
X210300Y96500D02*
X210700D01*
X199800Y118800D02*
Y119200D01*
X198800Y118800D02*
Y119200D01*
X192211Y106962D02*
X192611D01*
X192211Y105962D02*
X192611D01*
X17225Y128925D02*
X19050D01*
X17225Y131075D02*
X19050D01*
X17225Y128925D02*
Y131075D01*
X32950Y128925D02*
X34775D01*
X32950Y131075D02*
X34775D01*
Y128925D02*
Y131075D01*
X100150Y123275D02*
Y123675D01*
X101150Y123275D02*
Y123675D01*
X98875Y123275D02*
Y123675D01*
X99875Y123275D02*
Y123675D01*
X98600Y123275D02*
Y123675D01*
X97600Y123275D02*
Y123675D01*
X132340Y108730D02*
Y117730D01*
X111780D02*
X132340D01*
X111780Y108730D02*
X132340D01*
X111780D02*
Y117730D01*
X104480Y124690D02*
X107170D01*
X104480Y119310D02*
Y124690D01*
Y119310D02*
X107170D01*
Y124690D01*
X101480D02*
X104170D01*
X101480Y119310D02*
Y124690D01*
Y119310D02*
X104170D01*
Y124690D01*
X208400Y19200D02*
X210800D01*
X208300Y26800D02*
X210800D01*
X205100Y19100D02*
Y26900D01*
X210800Y19200D02*
Y26800D01*
X205100Y19100D02*
X205600D01*
X205100Y26900D02*
X205600D01*
X107480Y124690D02*
X110170D01*
X107480Y119310D02*
Y124690D01*
Y119310D02*
X110170D01*
Y124690D01*
X110480D02*
X113170D01*
X110480Y119310D02*
Y124690D01*
Y119310D02*
X113170D01*
Y124690D01*
X202525Y32295D02*
X202925D01*
X202525Y33295D02*
X202925D01*
X208400Y34200D02*
X210800D01*
X208300Y41800D02*
X210800D01*
X205100Y34100D02*
Y41900D01*
X210800Y34200D02*
Y41800D01*
X205100Y34100D02*
X205600D01*
X205100Y41900D02*
X205600D01*
X202525Y25575D02*
X202925D01*
X202525Y26575D02*
X202925D01*
X202525Y27025D02*
X202925D01*
X202525Y28025D02*
X202925D01*
X188236Y128468D02*
X189760D01*
X190014Y128722D01*
Y132532D01*
X188236Y131770D02*
Y132532D01*
X190014D01*
X188236Y128468D02*
Y131770D01*
X190014Y129230D02*
Y131770D01*
X186600Y130350D02*
X187000D01*
X186600Y129350D02*
X187000D01*
X190411Y128468D02*
X191935D01*
X192189Y128722D01*
Y132532D01*
X190411Y131770D02*
Y132532D01*
X192189D01*
X190411Y128468D02*
Y131770D01*
X192189Y129230D02*
Y131770D01*
X190600Y126975D02*
X191000D01*
X190600Y127975D02*
X191000D01*
X48400Y90445D02*
Y101355D01*
X45700Y90445D02*
X48400D01*
X45700D02*
Y101355D01*
X48400D01*
D13*
X184670Y5342D02*
G03*
X184670Y5342I-127J0D01*
G01*
X199970Y14322D02*
G03*
X199970Y14322I-127J0D01*
G01*
X172859Y6117D02*
G03*
X172859Y6117I-127J0D01*
G01*
X159749Y8507D02*
G03*
X159749Y8507I-127J0D01*
G01*
X155560Y5702D02*
G03*
X155560Y5702I-127J0D01*
G01*
X138178Y7857D02*
G03*
X138178Y7857I-127J0D01*
G01*
X114805Y21043D02*
G03*
X114805Y21043I-127J0D01*
G01*
X114905Y26665D02*
G03*
X114905Y26665I-127J0D01*
G01*
X92990Y5522D02*
G03*
X92990Y5522I-127J0D01*
G01*
X76099Y8757D02*
G03*
X76099Y8757I-127J0D01*
G01*
X72300Y5682D02*
G03*
X72300Y5682I-127J0D01*
G01*
X54899Y8857D02*
G03*
X54899Y8857I-127J0D01*
G01*
X51250Y5682D02*
G03*
X51250Y5682I-127J0D01*
G01*
X34442Y8128D02*
G03*
X34442Y8128I-127J0D01*
G01*
X10305Y35043D02*
G03*
X10305Y35043I-127J0D01*
G01*
Y27693D02*
G03*
X10305Y27693I-127J0D01*
G01*
X175534Y126845D02*
G03*
X175534Y124305I1270J-1270D01*
G01*
X177566D02*
G03*
X177566Y126845I-1270J1270D01*
G01*
X193174Y68932D02*
G03*
X193174Y68932I-127J0D01*
G01*
X193224Y63607D02*
G03*
X193224Y63607I-127J0D01*
G01*
X173727Y125079D02*
G03*
X173727Y125079I-127J0D01*
G01*
X166125Y65465D02*
G03*
X166125Y65465I-125J0D01*
G01*
Y76450D02*
G03*
X166125Y76450I-125J0D01*
G01*
X15022Y109873D02*
G03*
X15022Y109850I-347J-23D01*
G01*
X168085Y99896D02*
X188085D01*
X168085Y89896D02*
Y99896D01*
Y89896D02*
X188085D01*
Y99896D01*
X148200Y69750D02*
X148200Y69750D01*
X148200Y64350D02*
Y70150D01*
X148950Y64350D02*
X151500D01*
Y70150D01*
X148200Y64350D02*
X148950D01*
X151500Y75750D02*
X151500Y75750D01*
Y75350D02*
Y81150D01*
X148200D02*
X150750D01*
X148200Y75350D02*
Y81150D01*
X150750D02*
X151500D01*
X33350Y83900D02*
Y86050D01*
Y83900D02*
X33700Y83550D01*
X35850D01*
Y84800D02*
Y86050D01*
X33350D02*
X35850D01*
Y83550D02*
Y84800D01*
X107700Y46077D02*
X108900D01*
Y46877D01*
X107700Y48076D02*
Y47277D01*
X108900D01*
Y48076D01*
X108300Y47277D02*
Y47676D01*
X107700Y48476D02*
X108900D01*
Y49076D01*
X108700Y49276D01*
X107900D01*
X107700Y49076D01*
Y48476D01*
X109100Y49676D02*
Y50476D01*
X108900Y51675D02*
Y50875D01*
X108100Y51675D01*
X107900D01*
X107700Y51475D01*
Y51075D01*
X107900Y50875D01*
X98200Y46000D02*
X99400D01*
Y46800D01*
X98200Y47999D02*
Y47200D01*
X99400D01*
Y47999D01*
X98800Y47200D02*
Y47599D01*
X98200Y48399D02*
X99400D01*
Y48999D01*
X99200Y49199D01*
X98400D01*
X98200Y48999D01*
Y48399D01*
X99600Y49599D02*
Y50399D01*
X99400Y50798D02*
Y51198D01*
Y50998D01*
X98200D01*
X98400Y50798D01*
X144100Y70150D02*
X142900D01*
Y70750D01*
X143100Y70950D01*
X143500D01*
X143700Y70750D01*
Y70150D01*
X142900Y71949D02*
Y71550D01*
X143100Y71350D01*
X143900D01*
X144100Y71550D01*
Y71949D01*
X143900Y72149D01*
X143100D01*
X142900Y71949D01*
Y72549D02*
X144100D01*
X143700Y72949D01*
X144100Y73349D01*
X142900D01*
Y74549D02*
Y73749D01*
X144100D01*
Y74549D01*
X143500Y73749D02*
Y74149D01*
X144100Y74948D02*
X142900D01*
Y75548D01*
X143100Y75748D01*
X143500D01*
X143700Y75548D01*
Y74948D01*
Y75348D02*
X144100Y75748D01*
X5900Y57000D02*
X6900D01*
X7100Y57200D01*
Y57600D01*
X6900Y57800D01*
X5900D01*
X6100Y58999D02*
X5900Y58799D01*
Y58400D01*
X6100Y58200D01*
X6300D01*
X6500Y58400D01*
Y58799D01*
X6700Y58999D01*
X6900D01*
X7100Y58799D01*
Y58400D01*
X6900Y58200D01*
X5900Y59399D02*
X7100D01*
Y59999D01*
X6900Y60199D01*
X6700D01*
X6500Y59999D01*
Y59399D01*
Y59999D01*
X6300Y60199D01*
X6100D01*
X5900Y59999D01*
Y59399D01*
Y62598D02*
Y61798D01*
X7100D01*
Y62598D01*
X6500Y61798D02*
Y62198D01*
X5900Y62998D02*
X7100Y63798D01*
X5900D02*
X7100Y62998D01*
Y64198D02*
X5900D01*
Y64797D01*
X6100Y64997D01*
X6500D01*
X6700Y64797D01*
Y64198D01*
X7100Y65397D02*
X6300D01*
X5900Y65797D01*
X6300Y66197D01*
X7100D01*
X6500D01*
Y65397D01*
X7100Y66597D02*
X5900D01*
X7100Y67397D01*
X5900D01*
Y67797D02*
X7100D01*
Y68396D01*
X6900Y68596D01*
X6100D01*
X5900Y68396D01*
Y67797D01*
Y69796D02*
Y68996D01*
X7100D01*
Y69796D01*
X6500Y68996D02*
Y69396D01*
X7100Y70196D02*
X5900D01*
Y70796D01*
X6100Y70995D01*
X6500D01*
X6700Y70796D01*
Y70196D01*
Y70596D02*
X7100Y70995D01*
X26798Y110500D02*
X26598Y110300D01*
Y109900D01*
X26798Y109700D01*
X27598D01*
X27798Y109900D01*
Y110300D01*
X27598Y110500D01*
X27198D01*
Y110100D01*
X27798Y110900D02*
X26598D01*
Y111500D01*
X26798Y111700D01*
X27198D01*
X27398Y111500D01*
Y110900D01*
X26598Y112099D02*
Y112499D01*
Y112299D01*
X27798D01*
Y112099D01*
Y112499D01*
X26598Y113699D02*
Y113299D01*
X26798Y113099D01*
X27598D01*
X27798Y113299D01*
Y113699D01*
X27598Y113899D01*
X26798D01*
X26598Y113699D01*
X27998Y114299D02*
Y115098D01*
X27798Y115498D02*
X26998D01*
X26598Y115898D01*
X26998Y116298D01*
X27798D01*
X27198D01*
Y115498D01*
X12775Y110200D02*
X12575Y110000D01*
Y109600D01*
X12775Y109400D01*
X13575D01*
X13775Y109600D01*
Y110000D01*
X13575Y110200D01*
X13175D01*
Y109800D01*
X13775Y110600D02*
X12575D01*
Y111200D01*
X12775Y111400D01*
X13175D01*
X13375Y111200D01*
Y110600D01*
X12575Y111799D02*
Y112199D01*
Y111999D01*
X13775D01*
Y111799D01*
Y112199D01*
X12575Y113399D02*
Y112999D01*
X12775Y112799D01*
X13575D01*
X13775Y112999D01*
Y113399D01*
X13575Y113599D01*
X12775D01*
X12575Y113399D01*
X13975Y113999D02*
Y114798D01*
X12575Y115198D02*
X13775D01*
Y115798D01*
X13575Y115998D01*
X13375D01*
X13175Y115798D01*
Y115198D01*
Y115798D01*
X12975Y115998D01*
X12775D01*
X12575Y115798D01*
Y115198D01*
X38800Y109200D02*
X40000D01*
X39600D01*
X38800Y110000D01*
X39400Y109400D01*
X40000Y110000D01*
X38800Y111199D02*
Y110400D01*
X40000D01*
Y111199D01*
X39400Y110400D02*
Y110799D01*
X38800Y111599D02*
X39000D01*
X39400Y111999D01*
X39000Y112399D01*
X38800D01*
X39400Y111999D02*
X40000D01*
Y112799D02*
X38800D01*
Y113399D01*
X39000Y113599D01*
X39400D01*
X39600Y113399D01*
Y112799D01*
X40000Y113998D02*
X39200D01*
X38800Y114398D01*
X39200Y114798D01*
X40000D01*
X39400D01*
Y113998D01*
X38800Y115198D02*
X40000D01*
Y115798D01*
X39800Y115998D01*
X39000D01*
X38800Y115798D01*
Y115198D01*
X46400Y102156D02*
X47400D01*
X47600Y102356D01*
Y102756D01*
X47400Y102956D01*
X46400D01*
X47600Y103356D02*
X46800D01*
X46400Y103755D01*
X46800Y104155D01*
X47600D01*
X47000D01*
Y103356D01*
X47600Y104555D02*
X46400D01*
Y105155D01*
X46600Y105355D01*
X47000D01*
X47200Y105155D01*
Y104555D01*
Y104955D02*
X47600Y105355D01*
X46400Y105755D02*
Y106555D01*
Y106155D01*
X47600D01*
X47800Y106954D02*
Y107754D01*
X46400Y108154D02*
X47600D01*
Y108754D01*
X47400Y108954D01*
X46600D01*
X46400Y108754D01*
Y108154D01*
Y109354D02*
X47600D01*
Y109953D01*
X47400Y110153D01*
X47200D01*
X47000Y109953D01*
Y109354D01*
Y109953D01*
X46800Y110153D01*
X46600D01*
X46400Y109953D01*
Y109354D01*
X46600Y111353D02*
X46400Y111153D01*
Y110753D01*
X46600Y110553D01*
X47400D01*
X47600Y110753D01*
Y111153D01*
X47400Y111353D01*
X47000D01*
Y110953D01*
X49600Y102286D02*
X50600D01*
X50800Y102486D01*
Y102886D01*
X50600Y103086D01*
X49600D01*
X49800Y104286D02*
X49600Y104086D01*
Y103686D01*
X49800Y103486D01*
X50000D01*
X50200Y103686D01*
Y104086D01*
X50400Y104286D01*
X50600D01*
X50800Y104086D01*
Y103686D01*
X50600Y103486D01*
X49600Y104685D02*
X50800D01*
Y105285D01*
X50600Y105485D01*
X50400D01*
X50200Y105285D01*
Y104685D01*
Y105285D01*
X50000Y105485D01*
X49800D01*
X49600Y105285D01*
Y104685D01*
Y107085D02*
X50800D01*
Y107684D01*
X50600Y107884D01*
X49800D01*
X49600Y107684D01*
Y107085D01*
Y109084D02*
Y108284D01*
X50800D01*
Y109084D01*
X50200Y108284D02*
Y108684D01*
X49600Y109484D02*
X50400D01*
X50800Y109884D01*
X50400Y110284D01*
X49600D01*
X144153Y108302D02*
X144553D01*
X144353D01*
Y107102D01*
X144153D01*
X144553D01*
X145952D02*
X145153D01*
X145952Y107902D01*
Y108102D01*
X145752Y108302D01*
X145353D01*
X145153Y108102D01*
X147152D02*
X146952Y108302D01*
X146552D01*
X146352Y108102D01*
Y107302D01*
X146552Y107102D01*
X146952D01*
X147152Y107302D01*
X147552Y106902D02*
X148352D01*
X148751Y108102D02*
X148951Y108302D01*
X149351D01*
X149551Y108102D01*
Y107902D01*
X149351Y107702D01*
X149151D01*
X149351D01*
X149551Y107502D01*
Y107302D01*
X149351Y107102D01*
X148951D01*
X148751Y107302D01*
X149951Y108302D02*
Y107502D01*
X150351Y107102D01*
X150751Y107502D01*
Y108302D01*
X151151Y108102D02*
X151351Y108302D01*
X151751D01*
X151950Y108102D01*
Y107902D01*
X151751Y107702D01*
X151551D01*
X151751D01*
X151950Y107502D01*
Y107302D01*
X151751Y107102D01*
X151351D01*
X151151Y107302D01*
X132813Y108269D02*
X133213D01*
X133013D01*
Y107069D01*
X132813D01*
X133213D01*
X134612D02*
X133813D01*
X134612Y107869D01*
Y108069D01*
X134413Y108269D01*
X134013D01*
X133813Y108069D01*
X135812D02*
X135612Y108269D01*
X135212D01*
X135012Y108069D01*
Y107269D01*
X135212Y107069D01*
X135612D01*
X135812Y107269D01*
X136212Y106869D02*
X137012D01*
X137412Y108069D02*
X137611Y108269D01*
X138011D01*
X138211Y108069D01*
Y107869D01*
X138011Y107669D01*
X137811D01*
X138011D01*
X138211Y107469D01*
Y107269D01*
X138011Y107069D01*
X137611D01*
X137412Y107269D01*
X138611Y108269D02*
Y107469D01*
X139011Y107069D01*
X139411Y107469D01*
Y108269D01*
X139811Y108069D02*
X140011Y108269D01*
X140411D01*
X140611Y108069D01*
Y107869D01*
X140411Y107669D01*
X140211D01*
X140411D01*
X140611Y107469D01*
Y107269D01*
X140411Y107069D01*
X140011D01*
X139811Y107269D01*
X164488Y107960D02*
X164288Y108160D01*
X163888D01*
X163688Y107960D01*
Y107760D01*
X163888Y107560D01*
X164288D01*
X164488Y107360D01*
Y107160D01*
X164288Y106960D01*
X163888D01*
X163688Y107160D01*
X164888Y106960D02*
Y108160D01*
X165487D01*
X165687Y107960D01*
Y107560D01*
X165487Y107360D01*
X164888D01*
X166087Y108160D02*
X166487D01*
X166287D01*
Y106960D01*
X166087D01*
X166487D01*
X167087Y106760D02*
X167887D01*
X169086Y106960D02*
X168287D01*
X169086Y107760D01*
Y107960D01*
X168886Y108160D01*
X168486D01*
X168287Y107960D01*
X164137Y117200D02*
X163937Y117400D01*
X163537D01*
X163337Y117200D01*
Y117000D01*
X163537Y116800D01*
X163937D01*
X164137Y116600D01*
Y116400D01*
X163937Y116200D01*
X163537D01*
X163337Y116400D01*
X164537Y116200D02*
Y117400D01*
X165137D01*
X165337Y117200D01*
Y116800D01*
X165137Y116600D01*
X164537D01*
X165737Y117400D02*
X166137D01*
X165937D01*
Y116200D01*
X165737D01*
X166137D01*
X166736Y116000D02*
X167536D01*
X167936Y116200D02*
X168336D01*
X168136D01*
Y117400D01*
X167936Y117200D01*
X144100Y117200D02*
X144500D01*
X144300D01*
Y116000D01*
X144100D01*
X144500D01*
X145899D02*
X145100D01*
X145899Y116800D01*
Y117000D01*
X145699Y117200D01*
X145300D01*
X145100Y117000D01*
X147099D02*
X146899Y117200D01*
X146499D01*
X146299Y117000D01*
Y116200D01*
X146499Y116000D01*
X146899D01*
X147099Y116200D01*
X147499Y115800D02*
X148299D01*
X149498Y117200D02*
X148699D01*
Y116600D01*
X149098Y116800D01*
X149298D01*
X149498Y116600D01*
Y116200D01*
X149298Y116000D01*
X148898D01*
X148699Y116200D01*
X149898Y117200D02*
Y116400D01*
X150298Y116000D01*
X150698Y116400D01*
Y117200D01*
X132800D02*
X133200D01*
X133000D01*
Y116000D01*
X132800D01*
X133200D01*
X134599D02*
X133800D01*
X134599Y116800D01*
Y117000D01*
X134399Y117200D01*
X134000D01*
X133800Y117000D01*
X135799D02*
X135599Y117200D01*
X135199D01*
X134999Y117000D01*
Y116200D01*
X135199Y116000D01*
X135599D01*
X135799Y116200D01*
X136199Y115800D02*
X136999D01*
X138198Y117200D02*
X137399D01*
Y116600D01*
X137798Y116800D01*
X137998D01*
X138198Y116600D01*
Y116200D01*
X137998Y116000D01*
X137598D01*
X137399Y116200D01*
X138598Y117200D02*
Y116400D01*
X138998Y116000D01*
X139398Y116400D01*
Y117200D01*
D14*
X39875Y127375D02*
G03*
X39875Y127375I-125J0D01*
G01*
X20875D02*
G03*
X20875Y127375I-125J0D01*
G01*
X95905Y99351D02*
X95911D01*
X95905Y99340D02*
Y99351D01*
X61905Y99340D02*
Y99351D01*
X61911D01*
X61905Y99340D02*
Y99351D01*
X61911D01*
X95905Y99340D02*
Y99351D01*
X95911D01*
D15*
X113423Y84677D02*
X114566D01*
X113347Y84753D02*
X114490D01*
X113347Y84830D02*
X114414D01*
X113271Y84906D02*
X114262D01*
X113195Y84982D02*
X114185D01*
X113195Y85058D02*
X114185D01*
X113119Y85134D02*
X114109D01*
X113119Y85211D02*
X114033D01*
X113042Y85287D02*
X113957D01*
X113042Y85363D02*
X113957D01*
X113042Y85439D02*
X113881D01*
X112966Y85515D02*
X113881D01*
X112966Y85592D02*
X113804D01*
X112966Y85668D02*
X113804D01*
X112966Y85744D02*
X113804D01*
X112890Y85820D02*
X113728D01*
X112890Y85896D02*
X113728D01*
X112890Y85973D02*
X113728D01*
X112890Y86049D02*
X113728D01*
X112890Y86125D02*
X113728D01*
X112890Y86201D02*
X113728D01*
X112890Y86354D02*
X113728D01*
X112890Y86430D02*
X113728D01*
X112890Y86506D02*
X113728D01*
X112890Y86582D02*
X113728D01*
X112890Y86658D02*
X113728D01*
X112966Y86735D02*
X113728D01*
X112966Y86811D02*
X113804D01*
X112966Y86887D02*
X113804D01*
X112966Y86963D02*
X113804D01*
X112966Y87039D02*
X113881D01*
X113042Y87116D02*
X113881D01*
X113042Y87192D02*
X113957D01*
X113042Y87268D02*
X113957D01*
X113119Y87344D02*
X114033D01*
X113119Y87420D02*
X114109D01*
X113195Y87497D02*
X114185D01*
X113195Y87573D02*
X114262D01*
X113271Y87649D02*
X114338D01*
X113347Y87725D02*
X114414D01*
X113347Y87801D02*
X114490D01*
X113423Y87878D02*
X114566D01*
X115100Y83610D02*
X115862D01*
X114795Y83687D02*
X115862D01*
X114795Y88868D02*
X115862D01*
X115176Y88944D02*
X115862D01*
X117767Y85134D02*
X118681D01*
X117767Y85211D02*
X118681D01*
X117691Y85287D02*
X118605D01*
X117691Y85363D02*
X118605D01*
X117614Y85439D02*
X118529D01*
X117614Y85515D02*
X118529D01*
X117614Y85592D02*
X118453D01*
X117614Y85668D02*
X118453D01*
X117538Y85744D02*
X118376D01*
X117538Y85820D02*
X118376D01*
X117538Y86735D02*
X118376D01*
X117538Y86811D02*
X118376D01*
X117614Y86887D02*
X118453D01*
X117614Y86963D02*
X118453D01*
X117614Y87039D02*
X118529D01*
X117691Y87116D02*
X118529D01*
X117691Y87192D02*
X118605D01*
X117691Y87268D02*
X118605D01*
X117767Y87344D02*
X118681D01*
X119748Y83610D02*
X120510D01*
X119443Y83687D02*
X120510D01*
X119215Y83763D02*
X120510D01*
X119062Y83839D02*
X120510D01*
X118910Y83915D02*
X120510D01*
X118910Y88640D02*
X120510D01*
X119062Y88716D02*
X120510D01*
X119215Y88792D02*
X120510D01*
X119443Y88868D02*
X120510D01*
X119748Y88944D02*
X120510D01*
X112890Y86277D02*
X113728D01*
X113576Y84449D02*
X115100D01*
X113576Y84525D02*
X114871D01*
X113500Y84601D02*
X114719D01*
X113500Y87954D02*
X114719D01*
X113576Y88030D02*
X114871D01*
X113576Y88106D02*
X115100D01*
X118757Y83991D02*
X120510D01*
X118681Y84068D02*
X120510D01*
X118529Y84144D02*
X120510D01*
X118376Y84296D02*
X120510D01*
X118300Y84372D02*
X120510D01*
X118224Y84449D02*
X119748D01*
X118148Y84525D02*
X119519D01*
X118072Y84601D02*
X119367D01*
X118072Y84677D02*
X119215D01*
X117995Y84753D02*
X119138D01*
X117919Y84830D02*
X118986D01*
X117919Y84906D02*
X118910D01*
X117843Y84982D02*
X118834D01*
X117843Y85058D02*
X118757D01*
X117538Y85896D02*
X119977D01*
X117538Y85973D02*
X119977D01*
X117538Y86049D02*
X119977D01*
X117538Y86125D02*
X119977D01*
X117538Y86201D02*
X119977D01*
X117538Y86354D02*
X119977D01*
X117538Y86430D02*
X119977D01*
X117538Y86506D02*
X119977D01*
X117538Y86582D02*
X119977D01*
X117538Y86658D02*
X119977D01*
X117767Y87420D02*
X118757D01*
X117843Y87497D02*
X118757D01*
X117843Y87573D02*
X118834D01*
X117919Y87649D02*
X118910D01*
X117919Y87725D02*
X118986D01*
X117995Y87801D02*
X119138D01*
X118072Y87878D02*
X119215D01*
X118072Y87954D02*
X119367D01*
X118148Y88030D02*
X119519D01*
X118224Y88106D02*
X119748D01*
X118300Y88182D02*
X120510D01*
X118453Y88335D02*
X120510D01*
X118605Y88411D02*
X120510D01*
X118681Y88487D02*
X120510D01*
X118757Y88563D02*
X120510D01*
X118453Y84220D02*
X120510D01*
X117538Y86277D02*
X119977D01*
X118376Y88259D02*
X120510D01*
X114566Y83763D02*
X115862D01*
X114414Y83839D02*
X115862D01*
X114262Y83915D02*
X115862D01*
X114185Y83991D02*
X115862D01*
X114033Y84068D02*
X115862D01*
X113957Y84144D02*
X115862D01*
X113728Y84296D02*
X115862D01*
X113652Y84372D02*
X115862D01*
X113652Y88182D02*
X115862D01*
X113881Y88335D02*
X115862D01*
X113957Y88411D02*
X115862D01*
X114033Y88487D02*
X115862D01*
X114185Y88563D02*
X115862D01*
X114262Y88640D02*
X115862D01*
X114414Y88716D02*
X115862D01*
X114643Y88792D02*
X115862D01*
X113804Y84220D02*
X115862D01*
X113728Y88259D02*
X115862D01*
X139028Y83991D02*
X141543D01*
X133237Y90087D02*
X134533D01*
X131256Y83991D02*
X133466D01*
X139867Y87878D02*
X141619D01*
X139714Y87801D02*
X141772D01*
X139562Y87725D02*
X141772D01*
X139486Y87649D02*
X141695D01*
X139409Y87573D02*
X141695D01*
X139333Y87497D02*
X141695D01*
X139257Y87420D02*
X141695D01*
X139181Y87344D02*
X141619D01*
X139181Y87268D02*
X141619D01*
X139409Y85896D02*
X141467D01*
X139562Y85820D02*
X141543D01*
X139638Y85744D02*
X141619D01*
X139790Y85668D02*
X141695D01*
X139943Y85592D02*
X141772D01*
X140095Y85515D02*
X141772D01*
X140324Y85439D02*
X141848D01*
X140476Y85363D02*
X141848D01*
X139105Y84372D02*
X141848D01*
X139105Y84296D02*
X141772D01*
X139105Y84220D02*
X141772D01*
X139028Y84144D02*
X141695D01*
X139028Y84068D02*
X141619D01*
X139028Y83915D02*
X141467D01*
X133390Y90240D02*
X134533D01*
X133313Y90164D02*
X134533D01*
X133161Y90011D02*
X134533D01*
X133161Y89935D02*
X134533D01*
X133085Y89859D02*
X134533D01*
X133009Y89783D02*
X134533D01*
X133009Y89706D02*
X134456D01*
X132932Y89630D02*
X134380D01*
X131408Y86582D02*
X133390D01*
X131332Y86506D02*
X133466D01*
X131180Y86430D02*
X133542D01*
X131104Y86354D02*
X133618D01*
X131027Y86277D02*
X133694D01*
X131027Y86201D02*
X133771D01*
X131027Y84220D02*
X133694D01*
X131104Y84144D02*
X133618D01*
X131180Y84068D02*
X133542D01*
X131332Y83915D02*
X133390D01*
X134685Y86049D02*
X138266D01*
X139257D02*
X141162D01*
X131485Y88030D02*
X132704D01*
X127065Y86049D02*
X129884D01*
X134304Y91078D02*
X134380D01*
X134228Y91002D02*
X134380D01*
X134075Y90926D02*
X134456D01*
X133999Y90849D02*
X134456D01*
X133923Y90773D02*
X134456D01*
X133847Y90697D02*
X134456D01*
X133694Y90621D02*
X134456D01*
X133694Y90545D02*
X134456D01*
X133542Y90468D02*
X134456D01*
X133542Y90392D02*
X134456D01*
X133466Y90316D02*
X134533D01*
X140095Y87954D02*
X141391D01*
X139105Y86354D02*
X140476D01*
X134685Y86277D02*
X138266D01*
X139105D02*
X140629D01*
X134685Y86201D02*
X138266D01*
X139181D02*
X140857D01*
X134685Y86125D02*
X138266D01*
X139257D02*
X141010D01*
X134685Y85973D02*
X138266D01*
X139333D02*
X141314D01*
X134685Y85896D02*
X138266D01*
X134685Y85820D02*
X138266D01*
X134685Y85744D02*
X138266D01*
X134685Y85668D02*
X138266D01*
X134685Y85592D02*
X138266D01*
X134685Y85515D02*
X138266D01*
X139028Y83839D02*
X141314D01*
X139181Y83763D02*
X141162D01*
X139409Y83687D02*
X140933D01*
X139867Y83610D02*
X140552D01*
X132323Y88640D02*
X133237D01*
X132323Y88563D02*
X133161D01*
X132247Y88487D02*
X133085D01*
X131027Y88411D02*
X133009D01*
X131104Y88335D02*
X132932D01*
X131180Y88259D02*
X132932D01*
X131332Y88182D02*
X132856D01*
X131408Y88106D02*
X132780D01*
X127446Y87954D02*
X129122D01*
X131561D02*
X132704D01*
X127141Y87878D02*
X129427D01*
X131713D02*
X132628D01*
X127065Y87801D02*
X129580D01*
X131789D02*
X132551D01*
X127065Y87725D02*
X129732D01*
X131866D02*
X132551D01*
X127065Y87649D02*
X129808D01*
X131942D02*
X132475D01*
X127065Y87573D02*
X129884D01*
X132018D02*
X132399D01*
X127065Y87497D02*
X129961D01*
X132170D02*
X132399D01*
X127065Y87420D02*
X130037D01*
X132247D02*
X132323D01*
X127065Y87344D02*
X130037D01*
X131942Y86811D02*
X132856D01*
X131713Y86735D02*
X133085D01*
X131561Y86658D02*
X133237D01*
X127065Y85973D02*
X129808D01*
X127065Y85896D02*
X129732D01*
X127065Y85820D02*
X129656D01*
X127065Y85744D02*
X129503D01*
X127065Y85668D02*
X129503D01*
X127065Y85592D02*
X129580D01*
X127065Y85515D02*
X129732D01*
X127065Y85439D02*
X129732D01*
X131408Y83839D02*
X133313D01*
X129351Y83763D02*
X130342D01*
X131561D02*
X133161D01*
X129351Y83687D02*
X130342D01*
X131713D02*
X132932D01*
X132094Y83610D02*
X132628D01*
X140629Y88030D02*
X140781D01*
X137276Y83991D02*
X138266D01*
X134685D02*
X135676D01*
X132704Y86049D02*
X133847D01*
X130951D02*
X132018D01*
X129275Y83991D02*
X130265D01*
X127065D02*
X128056D01*
X141162Y87192D02*
X141619D01*
X141391Y87116D02*
X141543D01*
X140629Y85287D02*
X141924D01*
X140781Y85211D02*
X141924D01*
X140857Y85134D02*
X141924D01*
X140933Y85058D02*
X141924D01*
X140933Y84982D02*
X141924D01*
X140933Y84906D02*
X141924D01*
X140933Y84830D02*
X141924D01*
X140933Y84753D02*
X141924D01*
X140933Y84677D02*
X141924D01*
X140857Y84601D02*
X141924D01*
X140781Y84525D02*
X141924D01*
X140705Y84449D02*
X141848D01*
X139105Y87192D02*
X140324D01*
X139105Y87116D02*
X140171D01*
X139105Y87039D02*
X140095D01*
X139028Y86963D02*
X140019D01*
X139028Y86887D02*
X140019D01*
X139028Y86811D02*
X140019D01*
X139028Y86735D02*
X140019D01*
X139028Y86658D02*
X140019D01*
X139028Y86582D02*
X140095D01*
X139028Y86506D02*
X140171D01*
X139105Y86430D02*
X140324D01*
X139181Y84601D02*
X139257D01*
X139181Y84525D02*
X139486D01*
X139105Y84449D02*
X139714D01*
X137276Y87954D02*
X138266D01*
X137276Y87878D02*
X138266D01*
X137276Y87801D02*
X138266D01*
X137276Y87725D02*
X138266D01*
X137276Y87649D02*
X138266D01*
X137276Y87573D02*
X138266D01*
X137276Y87497D02*
X138266D01*
X137276Y87420D02*
X138266D01*
X137276Y87344D02*
X138266D01*
X137276Y87268D02*
X138266D01*
X137276Y87192D02*
X138266D01*
X137276Y87116D02*
X138266D01*
X137276Y87039D02*
X138266D01*
X137276Y86963D02*
X138266D01*
X137276Y86887D02*
X138266D01*
X137276Y86811D02*
X138266D01*
X137276Y86735D02*
X138266D01*
X137276Y86658D02*
X138266D01*
X137276Y86582D02*
X138266D01*
X137276Y86506D02*
X138266D01*
X137276Y86430D02*
X138266D01*
X137276Y86354D02*
X138266D01*
X137276Y85439D02*
X138266D01*
X137276Y85363D02*
X138266D01*
X137276Y85287D02*
X138266D01*
X137276Y85211D02*
X138266D01*
X137276Y85134D02*
X138266D01*
X137276Y85058D02*
X138266D01*
X137276Y84982D02*
X138266D01*
X137276Y84906D02*
X138266D01*
X137276Y84830D02*
X138266D01*
X137276Y84753D02*
X138266D01*
X137276Y84677D02*
X138266D01*
X137276Y84601D02*
X138266D01*
X137276Y84525D02*
X138266D01*
X137276Y84449D02*
X138266D01*
X137276Y84372D02*
X138266D01*
X137276Y84296D02*
X138266D01*
X137276Y84220D02*
X138266D01*
X137276Y84144D02*
X138266D01*
X137276Y84068D02*
X138266D01*
X137276Y83915D02*
X138266D01*
X137276Y83839D02*
X138266D01*
X137276Y83763D02*
X138266D01*
X137276Y83687D02*
X138266D01*
X134685Y87954D02*
X135599D01*
X134685Y87878D02*
X135676D01*
X134685Y87801D02*
X135676D01*
X134685Y87725D02*
X135676D01*
X134685Y87649D02*
X135676D01*
X134685Y87573D02*
X135676D01*
X134685Y87497D02*
X135676D01*
X134685Y87420D02*
X135676D01*
X134685Y87344D02*
X135676D01*
X134685Y87268D02*
X135676D01*
X134685Y87192D02*
X135676D01*
X134685Y87116D02*
X135676D01*
X134685Y87039D02*
X135676D01*
X134685Y86963D02*
X135676D01*
X134685Y86887D02*
X135676D01*
X134685Y86811D02*
X135676D01*
X134685Y86735D02*
X135676D01*
X134685Y86658D02*
X135676D01*
X134685Y86582D02*
X135676D01*
X134685Y86506D02*
X135676D01*
X134685Y86430D02*
X135676D01*
X134685Y86354D02*
X135676D01*
X134685Y85439D02*
X135676D01*
X134685Y85363D02*
X135676D01*
X134685Y85287D02*
X135676D01*
X134685Y85211D02*
X135676D01*
X134685Y85134D02*
X135676D01*
X134685Y85058D02*
X135676D01*
X134685Y84982D02*
X135676D01*
X134685Y84906D02*
X135676D01*
X134685Y84830D02*
X135676D01*
X134685Y84753D02*
X135676D01*
X134685Y84677D02*
X135676D01*
X134685Y84601D02*
X135676D01*
X134685Y84525D02*
X135676D01*
X134685Y84449D02*
X135676D01*
X134685Y84372D02*
X135676D01*
X134685Y84296D02*
X135676D01*
X134685Y84220D02*
X135676D01*
X134685Y84144D02*
X135676D01*
X134685Y84068D02*
X135676D01*
X134685Y83915D02*
X135676D01*
X134685Y83839D02*
X135676D01*
X134685Y83763D02*
X135676D01*
X134685Y83687D02*
X135676D01*
X132856Y89554D02*
X134228D01*
X132856Y89478D02*
X134152D01*
X132780Y89402D02*
X133999D01*
X132704Y89325D02*
X133923D01*
X132704Y89249D02*
X133847D01*
X132628Y89173D02*
X133771D01*
X132551Y89097D02*
X133694D01*
X132551Y89021D02*
X133618D01*
X132475Y88944D02*
X133542D01*
X132475Y88868D02*
X133466D01*
X132399Y88792D02*
X133390D01*
X132399Y88716D02*
X133313D01*
X132628Y86125D02*
X133771D01*
X132780Y85973D02*
X133847D01*
X132856Y85896D02*
X133923D01*
X132932Y85820D02*
X133923D01*
X132932Y85744D02*
X133923D01*
X132932Y85668D02*
X133999D01*
X133009Y85592D02*
X133999D01*
X133009Y85515D02*
X133999D01*
X133009Y85439D02*
X133999D01*
X133009Y85363D02*
X133999D01*
X133009Y85287D02*
X133999D01*
X133009Y85211D02*
X133999D01*
X133009Y85134D02*
X133999D01*
X133009Y85058D02*
X133999D01*
X133009Y84982D02*
X133999D01*
X133009Y84906D02*
X133999D01*
X132932Y84830D02*
X133999D01*
X132932Y84753D02*
X133923D01*
X132932Y84677D02*
X133923D01*
X132856Y84601D02*
X133923D01*
X132856Y84525D02*
X133847D01*
X132780Y84449D02*
X133847D01*
X132704Y84372D02*
X133771D01*
X132551Y84296D02*
X133771D01*
X131485Y89325D02*
X131637D01*
X131332Y89249D02*
X131713D01*
X131180Y89173D02*
X131713D01*
X131104Y89097D02*
X131789D01*
X130951Y89021D02*
X131866D01*
X130875Y88944D02*
X131866D01*
X130799Y88868D02*
X131942D01*
X130723Y88792D02*
X131942D01*
X130646Y88716D02*
X132018D01*
X130646Y88640D02*
X132018D01*
X130799Y88563D02*
X132094D01*
X130875Y88487D02*
X132094D01*
X130951Y86125D02*
X132094D01*
X130875Y85973D02*
X131942D01*
X130875Y85896D02*
X131866D01*
X130799Y85820D02*
X131866D01*
X130799Y85744D02*
X131789D01*
X130799Y85668D02*
X131789D01*
X130723Y85592D02*
X131789D01*
X130723Y85515D02*
X131713D01*
X130723Y85439D02*
X131713D01*
X130723Y85363D02*
X131713D01*
X130723Y85287D02*
X131713D01*
X130723Y85211D02*
X131713D01*
X130723Y85134D02*
X131713D01*
X130723Y85058D02*
X131713D01*
X130723Y84982D02*
X131713D01*
X130723Y84906D02*
X131713D01*
X130723Y84830D02*
X131789D01*
X130799Y84753D02*
X131789D01*
X130799Y84677D02*
X131789D01*
X130799Y84601D02*
X131866D01*
X130875Y84525D02*
X131866D01*
X130875Y84449D02*
X131942D01*
X130951Y84372D02*
X132018D01*
X130951Y84296D02*
X132247D01*
X128741Y87268D02*
X130113D01*
X128970Y87192D02*
X130113D01*
X129046Y87116D02*
X130189D01*
X129122Y87039D02*
X130189D01*
X129199Y86963D02*
X130189D01*
X129199Y86887D02*
X130189D01*
X129199Y86811D02*
X130189D01*
X129275Y86735D02*
X130189D01*
X129275Y86658D02*
X130189D01*
X129199Y86582D02*
X130189D01*
X129199Y86506D02*
X130189D01*
X129199Y86430D02*
X130113D01*
X129122Y86354D02*
X130113D01*
X129046Y86277D02*
X130113D01*
X128970Y86201D02*
X130037D01*
X128818Y86125D02*
X129961D01*
X128513Y85363D02*
X129808D01*
X128741Y85287D02*
X129884D01*
X128818Y85211D02*
X129884D01*
X128894Y85134D02*
X129961D01*
X128970Y85058D02*
X129961D01*
X128970Y84982D02*
X129961D01*
X129046Y84906D02*
X130037D01*
X129046Y84830D02*
X130037D01*
X129046Y84753D02*
X130037D01*
X129046Y84677D02*
X130037D01*
X129122Y84601D02*
X130113D01*
X129122Y84525D02*
X130113D01*
X129122Y84449D02*
X130113D01*
X129122Y84372D02*
X130113D01*
X129199Y84296D02*
X130189D01*
X129199Y84220D02*
X130189D01*
X129199Y84144D02*
X130189D01*
X129199Y84068D02*
X130189D01*
X129275Y83915D02*
X130265D01*
X129275Y83839D02*
X130265D01*
X127065Y87268D02*
X128132D01*
X127065Y87192D02*
X128056D01*
X127065Y87116D02*
X128056D01*
X127065Y87039D02*
X128056D01*
X127065Y86963D02*
X128056D01*
X127065Y86887D02*
X128056D01*
X127065Y86811D02*
X128056D01*
X127065Y86735D02*
X128056D01*
X127065Y86658D02*
X128056D01*
X127065Y86582D02*
X128056D01*
X127065Y86506D02*
X128056D01*
X127065Y86430D02*
X128056D01*
X127065Y86354D02*
X128056D01*
X127065Y86277D02*
X128056D01*
X127065Y86201D02*
X128056D01*
X127065Y86125D02*
X128056D01*
X127065Y85363D02*
X128132D01*
X127065Y85287D02*
X128056D01*
X127065Y85211D02*
X128056D01*
X127065Y85134D02*
X128056D01*
X127065Y85058D02*
X128056D01*
X127065Y84982D02*
X128056D01*
X127065Y84906D02*
X128056D01*
X127065Y84830D02*
X128056D01*
X127065Y84753D02*
X128056D01*
X127065Y84677D02*
X128056D01*
X127065Y84601D02*
X128056D01*
X127065Y84525D02*
X128056D01*
X127065Y84449D02*
X128056D01*
X127065Y84372D02*
X128056D01*
X127065Y84296D02*
X128056D01*
X127065Y84220D02*
X128056D01*
X127065Y84144D02*
X128056D01*
X127065Y84068D02*
X128056D01*
X127065Y83915D02*
X128056D01*
X127065Y83839D02*
X128056D01*
X127065Y83763D02*
X128056D01*
X127141Y83687D02*
X128056D01*
X146695Y91116D02*
X147229D01*
X146543Y91192D02*
X147381D01*
X146467Y91269D02*
X147534D01*
X146391Y91345D02*
X147610D01*
X146391Y91421D02*
X147686D01*
X146314Y91497D02*
X147762D01*
X146238Y91573D02*
X147838D01*
X146162Y91650D02*
X147838D01*
X146086Y91726D02*
X147915D01*
X146010Y91802D02*
X147915D01*
X146010Y91878D02*
X147991D01*
X145933Y91954D02*
X147991D01*
X145857Y92031D02*
X147991D01*
X145781Y92107D02*
X147991D01*
X147381Y92183D02*
X147915D01*
X145705D02*
X147305D01*
Y92259D02*
X147915D01*
X145705D02*
X147229D01*
X147305Y92335D02*
X147838D01*
X145629D02*
X147229D01*
Y92412D02*
X147838D01*
X145552D02*
X147153D01*
Y92488D02*
X147762D01*
X145476D02*
X147076D01*
Y92564D02*
X147686D01*
X145476D02*
X147000D01*
Y92640D02*
X147610D01*
X145400D02*
X146924D01*
X147000Y92716D02*
X147610D01*
X145324D02*
X146924D01*
Y92793D02*
X147534D01*
X145248D02*
X146848D01*
Y92869D02*
X147457D01*
X145171D02*
X146772D01*
Y92945D02*
X147381D01*
X145171D02*
X146695D01*
Y93021D02*
X147305D01*
X145095D02*
X146619D01*
X146695Y93097D02*
X147305D01*
X145019D02*
X146619D01*
Y93174D02*
X147229D01*
X144943D02*
X146543D01*
Y93250D02*
X147153D01*
X144943D02*
X146467D01*
Y93326D02*
X147076D01*
X144867D02*
X146391D01*
X146467Y93402D02*
X147000D01*
X144790D02*
X146314D01*
X146391Y93478D02*
X147000D01*
X144714D02*
X146314D01*
Y93555D02*
X146924D01*
X144714D02*
X146238D01*
Y93631D02*
X146848D01*
X144638D02*
X146162D01*
Y93707D02*
X146772D01*
X144562D02*
X146086D01*
X142657D02*
X143876D01*
X146162Y93783D02*
X146695D01*
X144486D02*
X146010D01*
X142428D02*
X144181D01*
X146086Y93859D02*
X146619D01*
X144486D02*
X146010D01*
X142200D02*
X144409D01*
X146010Y93936D02*
X146619D01*
X142047D02*
X145933D01*
Y94012D02*
X146543D01*
X141895D02*
X145857D01*
X161859Y94088D02*
X164069D01*
X158430D02*
X159878D01*
X152791D02*
X157211D01*
X148524D02*
X149972D01*
X145857D02*
X146467D01*
X141742D02*
X145781D01*
X135951D02*
X137399D01*
X126960D02*
X131913D01*
X121549D02*
X126807D01*
X119340D02*
X121092D01*
X117282D02*
X119263D01*
X112939D02*
X114387D01*
X161783Y94164D02*
X163993D01*
X158430D02*
X159878D01*
X152791D02*
X157287D01*
X148524D02*
X149972D01*
X145857D02*
X146391D01*
X141666D02*
X145705D01*
X135951D02*
X137399D01*
X127036D02*
X132217D01*
X121626D02*
X126731D01*
X119416D02*
X121168D01*
X117282D02*
X119187D01*
X112939D02*
X114387D01*
X161707Y94240D02*
X163917D01*
X158430D02*
X159878D01*
X152791D02*
X157363D01*
X148524D02*
X149972D01*
X145781D02*
X146314D01*
X141590D02*
X145705D01*
X135951D02*
X137399D01*
X127112D02*
X132370D01*
X121702D02*
X126731D01*
X119492D02*
X121245D01*
X117206D02*
X119111D01*
X112939D02*
X114387D01*
X161631Y94317D02*
X163840D01*
X158430D02*
X159878D01*
X152791D02*
X157363D01*
X148524D02*
X149972D01*
X145705D02*
X146238D01*
X141438D02*
X145629D01*
X135951D02*
X137399D01*
X127112D02*
X132522D01*
X121702D02*
X126655D01*
X119492D02*
X121245D01*
X117130D02*
X119035D01*
X112939D02*
X114387D01*
X161554Y94393D02*
X163764D01*
X158430D02*
X159878D01*
X152791D02*
X157440D01*
X148524D02*
X149972D01*
X145629D02*
X146238D01*
X143647D02*
X145552D01*
X141361D02*
X143571D01*
X135951D02*
X137399D01*
X127188D02*
X132598D01*
X121778D02*
X126579D01*
X119568D02*
X121321D01*
X117054D02*
X119035D01*
X112939D02*
X114387D01*
X161402Y94469D02*
X163612D01*
X158430D02*
X159878D01*
X152791D02*
X157516D01*
X148524D02*
X149972D01*
X145552D02*
X146162D01*
X143952D02*
X145476D01*
X141285D02*
X143571D01*
X135951D02*
X137399D01*
X127264D02*
X132675D01*
X121854D02*
X126579D01*
X119644D02*
X121397D01*
X116977D02*
X118959D01*
X112939D02*
X114387D01*
X161326Y94545D02*
X163536D01*
X158430D02*
X159878D01*
X152791D02*
X157592D01*
X148524D02*
X149972D01*
X145476D02*
X146086D01*
X144105D02*
X145400D01*
X142504D02*
X143571D01*
X141209D02*
X142428D01*
X135951D02*
X137399D01*
X127341D02*
X132751D01*
X121930D02*
X126502D01*
X119644D02*
X121397D01*
X116901D02*
X118882D01*
X112939D02*
X114387D01*
X161250Y94621D02*
X163459D01*
X158430D02*
X159878D01*
X152791D02*
X157592D01*
X148524D02*
X149972D01*
X145476D02*
X146010D01*
X144257D02*
X145400D01*
X142504D02*
X143571D01*
X141209D02*
X142276D01*
X135951D02*
X137399D01*
X127341D02*
X132827D01*
X121930D02*
X126426D01*
X119721D02*
X121473D01*
X116825D02*
X118806D01*
X112939D02*
X114387D01*
X161173Y94698D02*
X163383D01*
X158430D02*
X159878D01*
X152791D02*
X157668D01*
X148524D02*
X149972D01*
X144409D02*
X145933D01*
X142581D02*
X143571D01*
X141133D02*
X142200D01*
X135951D02*
X137399D01*
X127417D02*
X132903D01*
X122007D02*
X126426D01*
X119797D02*
X121549D01*
X116825D02*
X118730D01*
X112939D02*
X114387D01*
X161097Y94774D02*
X163231D01*
X158430D02*
X159878D01*
X152791D02*
X157744D01*
X148524D02*
X149972D01*
X144486D02*
X145933D01*
X142581D02*
X143647D01*
X141057D02*
X142047D01*
X135951D02*
X137399D01*
X127493D02*
X132903D01*
X122083D02*
X126350D01*
X119873D02*
X121626D01*
X116749D02*
X118654D01*
X112939D02*
X114387D01*
X161021Y94850D02*
X163155D01*
X158430D02*
X159878D01*
X152791D02*
X157821D01*
X148524D02*
X149972D01*
X144562D02*
X145857D01*
X142581D02*
X143647D01*
X140980D02*
X141971D01*
X135951D02*
X137399D01*
X127569D02*
X132979D01*
X122159D02*
X126274D01*
X119873D02*
X121626D01*
X116673D02*
X118578D01*
X112939D02*
X114387D01*
X160945Y94926D02*
X163078D01*
X158430D02*
X159878D01*
X152791D02*
X157897D01*
X148524D02*
X149972D01*
X144638D02*
X145781D01*
X142581D02*
X143647D01*
X140980D02*
X141895D01*
X135951D02*
X137399D01*
X127645D02*
X132979D01*
X122159D02*
X126198D01*
X119949D02*
X121702D01*
X116596D02*
X118501D01*
X112939D02*
X114387D01*
X160792Y95002D02*
X163002D01*
X158430D02*
X159878D01*
X152791D02*
X157897D01*
X148524D02*
X149972D01*
X144714D02*
X145705D01*
X142581D02*
X143647D01*
X140904D02*
X141819D01*
X135951D02*
X137399D01*
X127645D02*
X133056D01*
X122235D02*
X126198D01*
X120025D02*
X121778D01*
X116520D02*
X118425D01*
X112939D02*
X114387D01*
X160716Y95079D02*
X162850D01*
X158430D02*
X159878D01*
X152791D02*
X157973D01*
X148524D02*
X149972D01*
X144790D02*
X145705D01*
X142581D02*
X143647D01*
X140904D02*
X141742D01*
X135951D02*
X137399D01*
X127722D02*
X133056D01*
X122311D02*
X126121D01*
X120025D02*
X121778D01*
X116444D02*
X118349D01*
X112939D02*
X114387D01*
X160640Y95155D02*
X162774D01*
X158430D02*
X159878D01*
X152791D02*
X158049D01*
X148524D02*
X149972D01*
X144867D02*
X145781D01*
X142581D02*
X143647D01*
X140828D02*
X141742D01*
X135951D02*
X137399D01*
X127798D02*
X133056D01*
X122311D02*
X126045D01*
X120102D02*
X121854D01*
X116444D02*
X118273D01*
X112939D02*
X114387D01*
X160564Y95231D02*
X162697D01*
X158430D02*
X159878D01*
X152791D02*
X158049D01*
X148524D02*
X149972D01*
X144943D02*
X145781D01*
X143724D02*
X144028D01*
X142581D02*
X143647D01*
X140828D02*
X141666D01*
X135951D02*
X137399D01*
X127874D02*
X133056D01*
X124216D02*
X126045D01*
X122388D02*
X124064D01*
X120178D02*
X121930D01*
X112939D02*
X118197D01*
X160488Y95307D02*
X162621D01*
X158430D02*
X159878D01*
X152791D02*
X154239D01*
X148524D02*
X149972D01*
X145019D02*
X145781D01*
X142581D02*
X144028D01*
X140752D02*
X141590D01*
X135951D02*
X137399D01*
X131532D02*
X133056D01*
X124216D02*
X125969D01*
X120178D02*
X121930D01*
X112939D02*
X118120D01*
X160411Y95383D02*
X162469D01*
X158430D02*
X159878D01*
X152791D02*
X154239D01*
X148524D02*
X149972D01*
X145019D02*
X145857D01*
X142276D02*
X144105D01*
X140752D02*
X141590D01*
X135951D02*
X137399D01*
X131608D02*
X133056D01*
X124140D02*
X125893D01*
X120254D02*
X122007D01*
X112939D02*
X118044D01*
X160335Y95460D02*
X162393D01*
X158430D02*
X159878D01*
X152791D02*
X154239D01*
X148524D02*
X149972D01*
X145095D02*
X145857D01*
X142200D02*
X144105D01*
X140752D02*
X141514D01*
X135951D02*
X137399D01*
X131684D02*
X133056D01*
X124064D02*
X125893D01*
X120330D02*
X122083D01*
X112939D02*
X117968D01*
X160183Y95536D02*
X162316D01*
X158430D02*
X159878D01*
X152791D02*
X154239D01*
X148524D02*
X149972D01*
X145095D02*
X145933D01*
X142200D02*
X144105D01*
X140676D02*
X141438D01*
X135875D02*
X137475D01*
X131684D02*
X133056D01*
X124064D02*
X125817D01*
X120406D02*
X122159D01*
X112939D02*
X118120D01*
X160107Y95612D02*
X162240D01*
X158430D02*
X159878D01*
X152791D02*
X154239D01*
X148524D02*
X149972D01*
X145171D02*
X145933D01*
X142200D02*
X144105D01*
X140676D02*
X141438D01*
X135875D02*
X137551D01*
X131684D02*
X133056D01*
X123988D02*
X125740D01*
X120406D02*
X122159D01*
X112939D02*
X118273D01*
X160030Y95688D02*
X162088D01*
X158430D02*
X159878D01*
X152791D02*
X154239D01*
X148524D02*
X149972D01*
X145171D02*
X145933D01*
X142200D02*
X144105D01*
X140676D02*
X141361D01*
X135799D02*
X137628D01*
X131608D02*
X133056D01*
X123912D02*
X125740D01*
X120483D02*
X122235D01*
X112939D02*
X118425D01*
X159954Y95764D02*
X162012D01*
X158430D02*
X159878D01*
X152791D02*
X156982D01*
X148524D02*
X149972D01*
X145248D02*
X145933D01*
X142276D02*
X144105D01*
X140599D02*
X141361D01*
X135723D02*
X137628D01*
X131455D02*
X133056D01*
X123835D02*
X125664D01*
X120559D02*
X122311D01*
X112939D02*
X118501D01*
X158430Y95841D02*
X161935D01*
X152791D02*
X157059D01*
X148524D02*
X149972D01*
X145248D02*
X145933D01*
X142276D02*
X144105D01*
X140599D02*
X141361D01*
X135646D02*
X137704D01*
X128255D02*
X133056D01*
X123835D02*
X125588D01*
X120559D02*
X122311D01*
X112939D02*
X118578D01*
X158430Y95917D02*
X161783D01*
X152791D02*
X157135D01*
X148524D02*
X149972D01*
X145248D02*
X146010D01*
X142276D02*
X144105D01*
X140599D02*
X141285D01*
X135570D02*
X137780D01*
X127950D02*
X133056D01*
X123759D02*
X125588D01*
X120635D02*
X122388D01*
X112939D02*
X118654D01*
X158430Y95993D02*
X161707D01*
X152791D02*
X157211D01*
X148524D02*
X149972D01*
X145248D02*
X146010D01*
X142276D02*
X144181D01*
X140599D02*
X141285D01*
X135494D02*
X137856D01*
X127798D02*
X132979D01*
X123683D02*
X125512D01*
X120711D02*
X122464D01*
X112939D02*
X118730D01*
X158430Y96069D02*
X161631D01*
X152791D02*
X157211D01*
X148524D02*
X149972D01*
X145324D02*
X146010D01*
X142276D02*
X144181D01*
X140599D02*
X141285D01*
X135418D02*
X137932D01*
X127645D02*
X132979D01*
X123683D02*
X125436D01*
X120787D02*
X122540D01*
X112939D02*
X118806D01*
X158430Y96145D02*
X161478D01*
X152791D02*
X157287D01*
X148524D02*
X149972D01*
X145324D02*
X146010D01*
X142276D02*
X144181D01*
X140523D02*
X141285D01*
X135342D02*
X138009D01*
X127569D02*
X132903D01*
X123607D02*
X125359D01*
X120787D02*
X122540D01*
X112939D02*
X118806D01*
X158430Y96222D02*
X161402D01*
X152791D02*
X157363D01*
X148524D02*
X149972D01*
X145324D02*
X146010D01*
X142276D02*
X144181D01*
X140523D02*
X141209D01*
X135265D02*
X138085D01*
X127417D02*
X132903D01*
X123531D02*
X125359D01*
X120864D02*
X122616D01*
X112939D02*
X118882D01*
X158430Y96298D02*
X161326D01*
X152791D02*
X157440D01*
X148524D02*
X149972D01*
X145324D02*
X146010D01*
X142276D02*
X144181D01*
X140523D02*
X141209D01*
X135189D02*
X138161D01*
X127417D02*
X132827D01*
X123531D02*
X125283D01*
X120940D02*
X122692D01*
X112939D02*
X118882D01*
X158430Y96374D02*
X161173D01*
X152791D02*
X157440D01*
X148524D02*
X149972D01*
X145324D02*
X146010D01*
X142276D02*
X144181D01*
X140523D02*
X141209D01*
X135113D02*
X138161D01*
X127341D02*
X132751D01*
X123454D02*
X125207D01*
X120940D02*
X122692D01*
X116977D02*
X118959D01*
X158430Y96450D02*
X161250D01*
X152791D02*
X157516D01*
X148524D02*
X149972D01*
X145324D02*
X146010D01*
X142276D02*
X144181D01*
X140523D02*
X141209D01*
X135113D02*
X138237D01*
X127264D02*
X132675D01*
X123378D02*
X125207D01*
X121016D02*
X122769D01*
X117206D02*
X118959D01*
X158430Y96526D02*
X161326D01*
X152791D02*
X157592D01*
X148524D02*
X149972D01*
X145324D02*
X146010D01*
X142352D02*
X144181D01*
X140523D02*
X141209D01*
X135037D02*
X138313D01*
X127264D02*
X132522D01*
X123378D02*
X125131D01*
X121092D02*
X122845D01*
X117358D02*
X118959D01*
X158430Y96603D02*
X161478D01*
X152791D02*
X157668D01*
X148524D02*
X149972D01*
X145324D02*
X146010D01*
X142352D02*
X144181D01*
X140523D02*
X141209D01*
X134961D02*
X138390D01*
X127188D02*
X132370D01*
X123302D02*
X125055D01*
X121168D02*
X122921D01*
X117435D02*
X118959D01*
X158430Y96679D02*
X161554D01*
X152791D02*
X157744D01*
X148524D02*
X149972D01*
X145324D02*
X146010D01*
X142352D02*
X144181D01*
X140523D02*
X141209D01*
X134884D02*
X138466D01*
X127188D02*
X132141D01*
X123226D02*
X125055D01*
X121168D02*
X122921D01*
X117511D02*
X118959D01*
X158430Y96755D02*
X161707D01*
X152791D02*
X157744D01*
X148524D02*
X149972D01*
X145324D02*
X146010D01*
X142352D02*
X144105D01*
X140523D02*
X141209D01*
X136789D02*
X138542D01*
X134808D02*
X136637D01*
X127188D02*
X131608D01*
X123226D02*
X124978D01*
X121245D02*
X122997D01*
X117511D02*
X119035D01*
X158430Y96831D02*
X161783D01*
X152791D02*
X157744D01*
X148524D02*
X149972D01*
X145324D02*
X146010D01*
X142352D02*
X144105D01*
X140523D02*
X141285D01*
X136866D02*
X138618D01*
X134732D02*
X136561D01*
X127112D02*
X128636D01*
X123150D02*
X124902D01*
X121321D02*
X123073D01*
X117511D02*
X119035D01*
X159954Y96907D02*
X161859D01*
X158430D02*
X159878D01*
X152791D02*
X154239D01*
X148524D02*
X149972D01*
X145324D02*
X146010D01*
X142428D02*
X143952D01*
X140523D02*
X141285D01*
X136942D02*
X138694D01*
X134656D02*
X136485D01*
X127112D02*
X128560D01*
X121321D02*
X124902D01*
X117511D02*
X119035D01*
X160030Y96984D02*
X162012D01*
X158430D02*
X159878D01*
X152791D02*
X154239D01*
X148524D02*
X149972D01*
X145248D02*
X146010D01*
X142504D02*
X143647D01*
X140599D02*
X141285D01*
X136942D02*
X138771D01*
X134580D02*
X136408D01*
X127112D02*
X128560D01*
X121397D02*
X124826D01*
X117511D02*
X119035D01*
X160183Y97060D02*
X162088D01*
X158430D02*
X159878D01*
X152791D02*
X154239D01*
X148524D02*
X149972D01*
X145248D02*
X146010D01*
X143114D02*
X143724D01*
X142733D02*
X142885D01*
X140599D02*
X141285D01*
X137018D02*
X138771D01*
X134503D02*
X136332D01*
X127112D02*
X128560D01*
X121473D02*
X124750D01*
X117435D02*
X119035D01*
X160259Y97136D02*
X162164D01*
X158430D02*
X159878D01*
X152791D02*
X154239D01*
X148524D02*
X149972D01*
X145248D02*
X146010D01*
X142962D02*
X143800D01*
X140599D02*
X141361D01*
X137094D02*
X138847D01*
X134427D02*
X136256D01*
X127112D02*
X128560D01*
X121473D02*
X124674D01*
X117358D02*
X118959D01*
X160335Y97212D02*
X162316D01*
X158430D02*
X159878D01*
X152791D02*
X154239D01*
X148524D02*
X149972D01*
X145248D02*
X146010D01*
X142885D02*
X143876D01*
X140599D02*
X141361D01*
X137170D02*
X138923D01*
X134351D02*
X136256D01*
X127112D02*
X128636D01*
X121549D02*
X124674D01*
X117206D02*
X118959D01*
X160411Y97288D02*
X162393D01*
X158430D02*
X159878D01*
X152791D02*
X154239D01*
X148524D02*
X149972D01*
X145171D02*
X145933D01*
X142885D02*
X143876D01*
X140599D02*
X141361D01*
X137247D02*
X138999D01*
X134275D02*
X136180D01*
X127112D02*
X128788D01*
X121626D02*
X124597D01*
X116977D02*
X118959D01*
X160488Y97365D02*
X162469D01*
X158430D02*
X159878D01*
X152791D02*
X157211D01*
X146467D02*
X151648D01*
X145171D02*
X145933D01*
X142885D02*
X143952D01*
X140676D02*
X141438D01*
X137247D02*
X139075D01*
X134275D02*
X136104D01*
X127112D02*
X132141D01*
X121702D02*
X124521D01*
X112939D02*
X118959D01*
X160564Y97441D02*
X162621D01*
X158430D02*
X159878D01*
X152791D02*
X157211D01*
X146543D02*
X151725D01*
X145095D02*
X145933D01*
X142809D02*
X143952D01*
X140676D02*
X141438D01*
X137323D02*
X139152D01*
X134199D02*
X136027D01*
X127188D02*
X132217D01*
X121702D02*
X124521D01*
X112939D02*
X118959D01*
X160716Y97517D02*
X162697D01*
X158430D02*
X159878D01*
X152791D02*
X157287D01*
X146543D02*
X151725D01*
X145095D02*
X145857D01*
X142809D02*
X143952D01*
X140676D02*
X141514D01*
X137399D02*
X139228D01*
X134122D02*
X135951D01*
X127188D02*
X132217D01*
X121778D02*
X124445D01*
X113015D02*
X118882D01*
X160792Y97593D02*
X162774D01*
X158430D02*
X159878D01*
X152791D02*
X157363D01*
X146619D02*
X151801D01*
X145019D02*
X145857D01*
X142809D02*
X143952D01*
X140752D02*
X141514D01*
X137475D02*
X139304D01*
X134046D02*
X135875D01*
X127188D02*
X132294D01*
X121854D02*
X124369D01*
X113091D02*
X118882D01*
X160869Y97669D02*
X162926D01*
X158430D02*
X159878D01*
X152791D02*
X157440D01*
X146695D02*
X151877D01*
X145019D02*
X145857D01*
X142809D02*
X143952D01*
X140752D02*
X141590D01*
X137551D02*
X139380D01*
X133970D02*
X135799D01*
X127188D02*
X132370D01*
X121854D02*
X124369D01*
X113091D02*
X118806D01*
X160945Y97746D02*
X163002D01*
X158430D02*
X159878D01*
X152791D02*
X157516D01*
X146772D02*
X151953D01*
X144943D02*
X145781D01*
X142885D02*
X143876D01*
X140828D02*
X141666D01*
X137628D02*
X139380D01*
X133894D02*
X135799D01*
X127264D02*
X132446D01*
X121930D02*
X124293D01*
X113167D02*
X118806D01*
X161021Y97822D02*
X163078D01*
X158430D02*
X159878D01*
X152791D02*
X157516D01*
X146772D02*
X151953D01*
X144867D02*
X145781D01*
X142885D02*
X143876D01*
X140828D02*
X141666D01*
X137628D02*
X139456D01*
X133818D02*
X135723D01*
X127264D02*
X132446D01*
X122007D02*
X124216D01*
X113244D02*
X118730D01*
X161097Y97898D02*
X163231D01*
X158430D02*
X159878D01*
X152791D02*
X157592D01*
X146848D02*
X152029D01*
X144867D02*
X145705D01*
X142962D02*
X143800D01*
X140904D02*
X141742D01*
X137704D02*
X139533D01*
X133741D02*
X135646D01*
X127341D02*
X132522D01*
X122083D02*
X124216D01*
X113320D02*
X118654D01*
X161250Y97974D02*
X163307D01*
X158430D02*
X159878D01*
X152791D02*
X157668D01*
X146924D02*
X152106D01*
X144790D02*
X145705D01*
X143038D02*
X143724D01*
X140904D02*
X141819D01*
X137780D02*
X139609D01*
X133665D02*
X135570D01*
X127417D02*
X132598D01*
X122083D02*
X124140D01*
X113396D02*
X118578D01*
X161326Y98050D02*
X163383D01*
X158430D02*
X159878D01*
X152791D02*
X157744D01*
X147000D02*
X152182D01*
X144714D02*
X145629D01*
X143190D02*
X143571D01*
X140980D02*
X141895D01*
X137856D02*
X139685D01*
X133589D02*
X135494D01*
X127493D02*
X132675D01*
X122159D02*
X124064D01*
X113396D02*
X118501D01*
X161402Y98127D02*
X163536D01*
X158430D02*
X159878D01*
X152791D02*
X157744D01*
X147076D02*
X152182D01*
X144638D02*
X145552D01*
X141057D02*
X141971D01*
X137932D02*
X139761D01*
X133513D02*
X135418D01*
X127569D02*
X132675D01*
X122235D02*
X123988D01*
X113472D02*
X118349D01*
X161478Y98203D02*
X163612D01*
X158430D02*
X159878D01*
X152791D02*
X157821D01*
X147076D02*
X152258D01*
X144486D02*
X145552D01*
X141057D02*
X142047D01*
X137932D02*
X139837D01*
X133513D02*
X135342D01*
X127645D02*
X132751D01*
X122311D02*
X123988D01*
X113548D02*
X118273D01*
X161554Y98279D02*
X163688D01*
X158430D02*
X159878D01*
X152791D02*
X157897D01*
X147153D02*
X152334D01*
X144409D02*
X145476D01*
X141133D02*
X142200D01*
X138009D02*
X139914D01*
X133437D02*
X135342D01*
X127798D02*
X132827D01*
X122311D02*
X123912D01*
X113625D02*
X118120D01*
X161707Y98355D02*
X163840D01*
X158430D02*
X159878D01*
X152791D02*
X157973D01*
X147229D02*
X152410D01*
X144257D02*
X145400D01*
X141209D02*
X142276D01*
X138085D02*
X139990D01*
X133360D02*
X135265D01*
X127950D02*
X132903D01*
X122464D02*
X123835D01*
X113625D02*
X117892D01*
X161783Y98431D02*
X163917D01*
X158430D02*
X159878D01*
X152791D02*
X157973D01*
X147305D02*
X152410D01*
X144105D02*
X145324D01*
X141285D02*
X142428D01*
X138161D02*
X139990D01*
X133284D02*
X135189D01*
X128179D02*
X132903D01*
X122540D02*
X123759D01*
X113701D02*
X117663D01*
X161859Y98508D02*
X163917D01*
X158430D02*
X159878D01*
X152791D02*
X158049D01*
X147305D02*
X152487D01*
X143952D02*
X145248D01*
X141285D02*
X142581D01*
X138237D02*
X140066D01*
X133284D02*
X135113D01*
X128560D02*
X132979D01*
X122616D02*
X123607D01*
X113777D02*
X117130D01*
X143724Y98584D02*
X145171D01*
X141361D02*
X142733D01*
X122845D02*
X123378D01*
X143419Y98660D02*
X145095D01*
X141438D02*
X143114D01*
X141514Y98736D02*
X145019D01*
X141666Y98812D02*
X144943D01*
X141742Y98889D02*
X144867D01*
X141895Y98965D02*
X144714D01*
X141971Y99041D02*
X144562D01*
X142200Y99117D02*
X144409D01*
X142352Y99193D02*
X144257D01*
X142657Y99270D02*
X143952D01*
D16*
X178684Y48150D02*
X184684D01*
X178684Y36650D02*
Y48150D01*
Y36650D02*
X184684D01*
Y48150D01*
X157684D02*
X163684D01*
X157684Y36650D02*
Y48150D01*
Y36650D02*
X163684D01*
Y48150D01*
X136684D02*
X142684D01*
X136684Y36650D02*
Y48150D01*
Y36650D02*
X142684D01*
Y48150D01*
X115684D02*
X121684D01*
X115684Y36650D02*
Y48150D01*
Y36650D02*
X121684D01*
Y48150D01*
X74684D02*
X80684D01*
X74684Y36650D02*
Y48150D01*
Y36650D02*
X80684D01*
Y48150D01*
X53683D02*
X59683D01*
X53683Y36650D02*
Y48150D01*
Y36650D02*
X59683D01*
Y48150D01*
X32683D02*
X38683D01*
X32683Y36650D02*
Y48150D01*
Y36650D02*
X38683D01*
Y48150D01*
X11684D02*
X17684D01*
X11684Y36650D02*
Y48150D01*
Y36650D02*
X17684D01*
Y48150D01*
X160500Y119200D02*
Y122200D01*
X26800Y61480D02*
Y62380D01*
Y61480D02*
X27700D01*
X26800Y70580D02*
Y71480D01*
X27700D01*
X35900D02*
X36800D01*
Y70580D02*
Y71480D01*
Y61480D02*
Y62380D01*
X35900Y61480D02*
X36800D01*
X132900D02*
X133800D01*
Y62380D01*
Y70580D02*
Y71480D01*
X132900D02*
X133800D01*
X123800D02*
X124700D01*
X123800Y70580D02*
Y71480D01*
Y61480D02*
X124700D01*
X123800D02*
Y62380D01*
X48050Y78600D02*
Y81700D01*
X51150Y78600D02*
Y81700D01*
X53250Y91550D02*
Y94650D01*
X56350Y91550D02*
Y94650D01*
X142450Y106825D02*
X144750D01*
X142450Y104625D02*
X144750D01*
D17*
X50645Y65898D02*
X51254D01*
X50518Y65923D02*
X51381D01*
X50441Y65949D02*
X51483D01*
X50365Y65974D02*
X51559D01*
X50289Y65999D02*
X51635D01*
X51127Y66025D02*
X51686D01*
X50213D02*
X50772D01*
X51280Y66050D02*
X51737D01*
X50162D02*
X50619D01*
X51407Y66076D02*
X51788D01*
X50111D02*
X50518D01*
X51483Y66101D02*
X51838D01*
X50060D02*
X50441D01*
X51559Y66126D02*
X51889D01*
X50035D02*
X50365D01*
X51610Y66152D02*
X51915D01*
X49984D02*
X50314D01*
X51661Y66177D02*
X51965D01*
X49959D02*
X50238D01*
X51711Y66203D02*
X51991D01*
X49908D02*
X50187D01*
X51762Y66228D02*
X52042D01*
X49883D02*
X50162D01*
X51813Y66253D02*
X52067D01*
X51203D02*
X51559D01*
X50670D02*
X50975D01*
X50137D02*
X50568D01*
X49832D02*
X50111D01*
X51838Y66279D02*
X52092D01*
X51203D02*
X51635D01*
X50645D02*
X51026D01*
X50137D02*
X50568D01*
X49806D02*
X50060D01*
X51889Y66304D02*
X52143D01*
X51203D02*
X51686D01*
X50645D02*
X51051D01*
X50137D02*
X50568D01*
X49781D02*
X50035D01*
X51915Y66330D02*
X52169D01*
X51203D02*
X51711D01*
X50645D02*
X51076D01*
X50137D02*
X50568D01*
X49756D02*
X49984D01*
X51965Y66355D02*
X52194D01*
X51203D02*
X51737D01*
X50645D02*
X51102D01*
X50137D02*
X50568D01*
X49730D02*
X49959D01*
X51991Y66380D02*
X52219D01*
X51457D02*
X51762D01*
X51203D02*
X51381D01*
X50873D02*
X51102D01*
X50645D02*
X50797D01*
X50137D02*
X50568D01*
X49705D02*
X49933D01*
X52016Y66406D02*
X52245D01*
X51534D02*
X51762D01*
X51203D02*
X51381D01*
X50924D02*
X51102D01*
X50670D02*
X50721D01*
X50137D02*
X50289D01*
X49679D02*
X49883D01*
X52042Y66431D02*
X52270D01*
X51584D02*
X51788D01*
X51203D02*
X51381D01*
X50949D02*
X51102D01*
X50137D02*
X50289D01*
X49654D02*
X49857D01*
X52067Y66457D02*
X52296D01*
X51584D02*
X51788D01*
X51203D02*
X51381D01*
X50924D02*
X51102D01*
X50137D02*
X50289D01*
X49629D02*
X49832D01*
X52092Y66482D02*
X52321D01*
X51610D02*
X51813D01*
X51203D02*
X51381D01*
X50924D02*
X51102D01*
X50137D02*
X50289D01*
X49603D02*
X49806D01*
X52118Y66507D02*
X52346D01*
X51610D02*
X51813D01*
X51203D02*
X51381D01*
X50873D02*
X51102D01*
X50137D02*
X50289D01*
X49578D02*
X49781D01*
X52143Y66533D02*
X52346D01*
X51635D02*
X51813D01*
X51203D02*
X51381D01*
X50822D02*
X51102D01*
X50137D02*
X50543D01*
X49552D02*
X49756D01*
X52169Y66558D02*
X52372D01*
X51635D02*
X51813D01*
X51203D02*
X51381D01*
X50746D02*
X51076D01*
X50137D02*
X50543D01*
X49527D02*
X49730D01*
X52194Y66584D02*
X52397D01*
X51635D02*
X51813D01*
X51203D02*
X51381D01*
X50721D02*
X51076D01*
X50137D02*
X50543D01*
X49527D02*
X49705D01*
X52219Y66609D02*
X52423D01*
X51635D02*
X51813D01*
X51203D02*
X51381D01*
X50695D02*
X51051D01*
X50137D02*
X50543D01*
X49502D02*
X49679D01*
X52245Y66634D02*
X52423D01*
X51635D02*
X51813D01*
X51203D02*
X51381D01*
X50670D02*
X51000D01*
X50137D02*
X50543D01*
X49476D02*
X49679D01*
X52270Y66660D02*
X52448D01*
X51635D02*
X51813D01*
X51203D02*
X51381D01*
X50645D02*
X50949D01*
X50137D02*
X50543D01*
X49451D02*
X49654D01*
X52296Y66685D02*
X52473D01*
X51635D02*
X51813D01*
X51203D02*
X51381D01*
X50645D02*
X50899D01*
X50137D02*
X50289D01*
X49451D02*
X49629D01*
X52296Y66711D02*
X52473D01*
X51610D02*
X51813D01*
X51203D02*
X51381D01*
X50645D02*
X50848D01*
X50137D02*
X50289D01*
X49425D02*
X49603D01*
X52321Y66736D02*
X52499D01*
X51940D02*
X52067D01*
X51610D02*
X51788D01*
X51203D02*
X51381D01*
X50645D02*
X50822D01*
X50137D02*
X50289D01*
X49832D02*
X49984D01*
X49425D02*
X49603D01*
X52346Y66761D02*
X52524D01*
X51940D02*
X52092D01*
X51584D02*
X51788D01*
X51203D02*
X51381D01*
X50645D02*
X50822D01*
X50137D02*
X50289D01*
X49806D02*
X49984D01*
X49400D02*
X49578D01*
X52346Y66787D02*
X52524D01*
X51965D02*
X52118D01*
X51534D02*
X51788D01*
X51203D02*
X51381D01*
X51026D02*
X51051D01*
X50645D02*
X50822D01*
X50137D02*
X50289D01*
X49806D02*
X49959D01*
X49375D02*
X49552D01*
X52372Y66812D02*
X52550D01*
X51991D02*
X52143D01*
X51203D02*
X51762D01*
X50645D02*
X51051D01*
X50137D02*
X50568D01*
X49781D02*
X49933D01*
X49375D02*
X49552D01*
X52397Y66838D02*
X52550D01*
X51991D02*
X52169D01*
X51203D02*
X51737D01*
X50670D02*
X51076D01*
X50137D02*
X50568D01*
X49756D02*
X49908D01*
X49349D02*
X49527D01*
X52397Y66863D02*
X52575D01*
X52016D02*
X52169D01*
X51203D02*
X51711D01*
X50670D02*
X51076D01*
X50137D02*
X50568D01*
X49730D02*
X49883D01*
X49349D02*
X49502D01*
X52423Y66888D02*
X52575D01*
X52042D02*
X52194D01*
X51203D02*
X51686D01*
X50695D02*
X51076D01*
X50137D02*
X50568D01*
X49730D02*
X49883D01*
X49324D02*
X49502D01*
X52423Y66914D02*
X52600D01*
X52067D02*
X52219D01*
X51203D02*
X51635D01*
X50746D02*
X51076D01*
X50137D02*
X50568D01*
X49705D02*
X49857D01*
X49324D02*
X49476D01*
X52448Y66939D02*
X52600D01*
X52067D02*
X52219D01*
X51229D02*
X51559D01*
X50797D02*
X51026D01*
X50137D02*
X50568D01*
X49679D02*
X49832D01*
X49298D02*
X49476D01*
X52448Y66965D02*
X52626D01*
X52092D02*
X52245D01*
X49679D02*
X49832D01*
X49298D02*
X49451D01*
X52473Y66990D02*
X52626D01*
X52118D02*
X52245D01*
X49883D02*
X52016D01*
X49654D02*
X49806D01*
X49298D02*
X49451D01*
X52473Y67015D02*
X52626D01*
X52118D02*
X52270D01*
X49908D02*
X52016D01*
X49654D02*
X49781D01*
X49273D02*
X49425D01*
X52499Y67041D02*
X52651D01*
X52143D02*
X52270D01*
X49908D02*
X51991D01*
X49629D02*
X49781D01*
X49273D02*
X49425D01*
X52499Y67066D02*
X52651D01*
X52143D02*
X52296D01*
X49933D02*
X51991D01*
X49629D02*
X49756D01*
X49248D02*
X49425D01*
X52499Y67092D02*
X52677D01*
X52169D02*
X52296D01*
X49933D02*
X51965D01*
X49603D02*
X49756D01*
X49248D02*
X49400D01*
X52524Y67117D02*
X52677D01*
X52169D02*
X52321D01*
X50772D02*
X51965D01*
X49959D02*
X50746D01*
X49603D02*
X49730D01*
X49248D02*
X49400D01*
X52524Y67142D02*
X52677D01*
X52194D02*
X52321D01*
X50797D02*
X51940D01*
X50594D02*
X50746D01*
X50543D02*
X50568D01*
X49984D02*
X50518D01*
X49603D02*
X49730D01*
X49222D02*
X49375D01*
X52524Y67168D02*
X52677D01*
X52194D02*
X52321D01*
X50822D02*
X51940D01*
X50619D02*
X50746D01*
X49984D02*
X50568D01*
X49578D02*
X49705D01*
X49222D02*
X49375D01*
X52550Y67193D02*
X52702D01*
X52219D02*
X52346D01*
X50848D02*
X51915D01*
X50619D02*
X50772D01*
X50518D02*
X50568D01*
X50010D02*
X50492D01*
X49578D02*
X49705D01*
X49222D02*
X49375D01*
X52550Y67219D02*
X52702D01*
X52219D02*
X52346D01*
X50848D02*
X51889D01*
X50619D02*
X50772D01*
X50010D02*
X50568D01*
X49552D02*
X49679D01*
X49222D02*
X49375D01*
X52550Y67244D02*
X52702D01*
X52245D02*
X52372D01*
X50822D02*
X51889D01*
X50619D02*
X50797D01*
X50035D02*
X50543D01*
X49552D02*
X49679D01*
X49197D02*
X49349D01*
X52575Y67269D02*
X52727D01*
X52245D02*
X52372D01*
X50899D02*
X51864D01*
X50746D02*
X50873D01*
X50619D02*
X50721D01*
X50035D02*
X50467D01*
X49552D02*
X49679D01*
X49197D02*
X49349D01*
X52575Y67295D02*
X52727D01*
X52245D02*
X52372D01*
X50924D02*
X51864D01*
X50797D02*
X50822D01*
X50594D02*
X50721D01*
X50060D02*
X50467D01*
X49552D02*
X49654D01*
X49197D02*
X49349D01*
X52575Y67320D02*
X52727D01*
X52245D02*
X52372D01*
X50949D02*
X51838D01*
X50568D02*
X50721D01*
X50086D02*
X50441D01*
X49527D02*
X49654D01*
X49197D02*
X49349D01*
X52575Y67346D02*
X52727D01*
X52270D02*
X52397D01*
X50975D02*
X51813D01*
X50670D02*
X50746D01*
X50568D02*
X50645D01*
X50086D02*
X50441D01*
X49527D02*
X49654D01*
X49171D02*
X49324D01*
X52600Y67371D02*
X52727D01*
X52270D02*
X52397D01*
X51000D02*
X51813D01*
X50670D02*
X50772D01*
X50568D02*
X50619D01*
X50111D02*
X50441D01*
X49527D02*
X49654D01*
X49171D02*
X49324D01*
X52600Y67396D02*
X52727D01*
X52270D02*
X52397D01*
X51026D02*
X51788D01*
X50670D02*
X50772D01*
X50568D02*
X50619D01*
X50111D02*
X50441D01*
X49527D02*
X49629D01*
X49171D02*
X49324D01*
X52600Y67422D02*
X52753D01*
X52296D02*
X52397D01*
X51051D02*
X51788D01*
X50670D02*
X50797D01*
X50568D02*
X50645D01*
X50137D02*
X50416D01*
X49502D02*
X49629D01*
X49171D02*
X49324D01*
X52600Y67447D02*
X52753D01*
X52296D02*
X52397D01*
X51076D02*
X51762D01*
X50670D02*
X50822D01*
X50568D02*
X50645D01*
X50137D02*
X50416D01*
X49502D02*
X49629D01*
X49171D02*
X49324D01*
X52600Y67473D02*
X52753D01*
X52296D02*
X52423D01*
X51102D02*
X51762D01*
X50568D02*
X50848D01*
X50162D02*
X50416D01*
X49502D02*
X49629D01*
X49171D02*
X49298D01*
X52600Y67498D02*
X52753D01*
X52296D02*
X52423D01*
X51153D02*
X51737D01*
X50797D02*
X50873D01*
X50721D02*
X50772D01*
X50645D02*
X50695D01*
X50568D02*
X50619D01*
X50187D02*
X50416D01*
X49502D02*
X49629D01*
X49171D02*
X49298D01*
X52600Y67523D02*
X52753D01*
X52296D02*
X52423D01*
X51178D02*
X51711D01*
X50721D02*
X50899D01*
X50645D02*
X50695D01*
X50568D02*
X50619D01*
X50187D02*
X50391D01*
X49502D02*
X49603D01*
X49171D02*
X49298D01*
X52600Y67549D02*
X52753D01*
X52296D02*
X52423D01*
X51203D02*
X51711D01*
X50568D02*
X50899D01*
X50213D02*
X50391D01*
X49502D02*
X49603D01*
X49171D02*
X49298D01*
X52626Y67574D02*
X52753D01*
X52296D02*
X52423D01*
X51229D02*
X51686D01*
X50568D02*
X50899D01*
X50213D02*
X50416D01*
X49502D02*
X49603D01*
X49146D02*
X49298D01*
X52626Y67600D02*
X52753D01*
X52321D02*
X52423D01*
X51254D02*
X51686D01*
X50594D02*
X50873D01*
X50238D02*
X50416D01*
X49502D02*
X49603D01*
X49146D02*
X49298D01*
X52626Y67625D02*
X52753D01*
X52321D02*
X52423D01*
X51280D02*
X51661D01*
X50594D02*
X50822D01*
X50238D02*
X50441D01*
X49502D02*
X49603D01*
X49146D02*
X49298D01*
X52626Y67650D02*
X52753D01*
X52321D02*
X52423D01*
X51305D02*
X51661D01*
X50619D02*
X50797D01*
X50264D02*
X50467D01*
X49476D02*
X49603D01*
X49146D02*
X49298D01*
X52626Y67676D02*
X52753D01*
X52321D02*
X52423D01*
X51330D02*
X51635D01*
X50645D02*
X50746D01*
X50289D02*
X50467D01*
X49476D02*
X49603D01*
X49146D02*
X49298D01*
X52626Y67701D02*
X52753D01*
X52321D02*
X52423D01*
X51356D02*
X51610D01*
X50289D02*
X50492D01*
X49476D02*
X49603D01*
X49146D02*
X49298D01*
X52626Y67727D02*
X52753D01*
X52321D02*
X52423D01*
X51381D02*
X51610D01*
X50314D02*
X50492D01*
X49476D02*
X49603D01*
X49146D02*
X49298D01*
X52626Y67752D02*
X52753D01*
X52321D02*
X52423D01*
X51407D02*
X51584D01*
X50314D02*
X50518D01*
X49476D02*
X49603D01*
X49146D02*
X49298D01*
X52626Y67777D02*
X52753D01*
X52321D02*
X52423D01*
X51432D02*
X51584D01*
X50340D02*
X50543D01*
X49502D02*
X49603D01*
X49146D02*
X49298D01*
X52600Y67803D02*
X52753D01*
X52296D02*
X52423D01*
X51457D02*
X51559D01*
X50365D02*
X50543D01*
X49502D02*
X49603D01*
X49171D02*
X49298D01*
X52600Y67828D02*
X52753D01*
X52296D02*
X52423D01*
X51483D02*
X51559D01*
X50365D02*
X50568D01*
X49502D02*
X49603D01*
X49171D02*
X49298D01*
X52600Y67854D02*
X52753D01*
X52296D02*
X52423D01*
X51508D02*
X51534D01*
X50391D02*
X50594D01*
X49502D02*
X49603D01*
X49171D02*
X49298D01*
X52600Y67879D02*
X52753D01*
X52296D02*
X52423D01*
X50391D02*
X50594D01*
X49502D02*
X49603D01*
X49171D02*
X49298D01*
X52600Y67904D02*
X52753D01*
X52296D02*
X52423D01*
X50416D02*
X50619D01*
X49502D02*
X49629D01*
X49171D02*
X49324D01*
X52600Y67930D02*
X52753D01*
X52296D02*
X52397D01*
X50416D02*
X50645D01*
X49502D02*
X49629D01*
X49171D02*
X49324D01*
X52600Y67955D02*
X52727D01*
X52296D02*
X52397D01*
X50441D02*
X50645D01*
X49502D02*
X49629D01*
X49171D02*
X49324D01*
X52600Y67981D02*
X52727D01*
X52270D02*
X52397D01*
X50467D02*
X50695D01*
X49502D02*
X49629D01*
X49171D02*
X49324D01*
X52575Y68006D02*
X52727D01*
X52270D02*
X52397D01*
X50467D02*
X50746D01*
X49527D02*
X49629D01*
X49171D02*
X49324D01*
X52575Y68031D02*
X52727D01*
X52270D02*
X52397D01*
X50492D02*
X50899D01*
X49527D02*
X49654D01*
X49197D02*
X49349D01*
X52575Y68057D02*
X52727D01*
X52270D02*
X52372D01*
X50492D02*
X51076D01*
X49527D02*
X49654D01*
X49197D02*
X49349D01*
X52575Y68082D02*
X52727D01*
X52245D02*
X52372D01*
X50518D02*
X51178D01*
X49527D02*
X49654D01*
X49197D02*
X49349D01*
X52550Y68108D02*
X52702D01*
X52245D02*
X52372D01*
X50518D02*
X51229D01*
X49552D02*
X49679D01*
X49197D02*
X49349D01*
X52550Y68133D02*
X52702D01*
X52245D02*
X52372D01*
X50543D02*
X51280D01*
X49552D02*
X49679D01*
X49222D02*
X49375D01*
X52550Y68158D02*
X52702D01*
X52219D02*
X52346D01*
X50568D02*
X51330D01*
X49552D02*
X49679D01*
X49222D02*
X49375D01*
X52524Y68184D02*
X52677D01*
X52219D02*
X52346D01*
X50568D02*
X51330D01*
X49578D02*
X49705D01*
X49222D02*
X49375D01*
X52524Y68209D02*
X52677D01*
X52219D02*
X52346D01*
X50594D02*
X51330D01*
X49578D02*
X49705D01*
X49222D02*
X49400D01*
X52524Y68235D02*
X52677D01*
X52194D02*
X52321D01*
X50594D02*
X51305D01*
X49578D02*
X49730D01*
X49248D02*
X49400D01*
X52499Y68260D02*
X52677D01*
X52194D02*
X52321D01*
X50619D02*
X51305D01*
X49603D02*
X49730D01*
X49248D02*
X49400D01*
X52499Y68285D02*
X52651D01*
X52169D02*
X52296D01*
X50619D02*
X51280D01*
X49603D02*
X49730D01*
X49248D02*
X49425D01*
X52499Y68311D02*
X52651D01*
X52169D02*
X52296D01*
X50645D02*
X51280D01*
X49629D02*
X49756D01*
X49273D02*
X49425D01*
X52473Y68336D02*
X52626D01*
X52143D02*
X52296D01*
X50670D02*
X51254D01*
X49629D02*
X49781D01*
X49273D02*
X49425D01*
X52473Y68362D02*
X52626D01*
X52143D02*
X52270D01*
X50670D02*
X51229D01*
X49654D02*
X49781D01*
X49298D02*
X49451D01*
X52448Y68387D02*
X52626D01*
X52118D02*
X52270D01*
X50695D02*
X51229D01*
X49654D02*
X49806D01*
X49298D02*
X49451D01*
X52448Y68412D02*
X52600D01*
X52092D02*
X52245D01*
X50695D02*
X51203D01*
X49679D02*
X49806D01*
X49298D02*
X49476D01*
X52423Y68438D02*
X52600D01*
X52092D02*
X52219D01*
X50721D02*
X51203D01*
X49679D02*
X49832D01*
X49324D02*
X49476D01*
X52423Y68463D02*
X52575D01*
X52067D02*
X52219D01*
X50746D02*
X51178D01*
X49705D02*
X49857D01*
X49324D02*
X49502D01*
X52397Y68489D02*
X52575D01*
X52042D02*
X52194D01*
X50746D02*
X51153D01*
X49705D02*
X49857D01*
X49349D02*
X49502D01*
X52397Y68514D02*
X52550D01*
X52042D02*
X52194D01*
X50772D02*
X51153D01*
X49730D02*
X49883D01*
X49349D02*
X49527D01*
X52372Y68539D02*
X52550D01*
X52016D02*
X52169D01*
X50772D02*
X51127D01*
X49756D02*
X49908D01*
X49375D02*
X49552D01*
X52346Y68565D02*
X52524D01*
X51991D02*
X52143D01*
X50797D02*
X51127D01*
X49756D02*
X49933D01*
X49375D02*
X49552D01*
X52346Y68590D02*
X52524D01*
X51965D02*
X52118D01*
X50797D02*
X51102D01*
X49781D02*
X49959D01*
X49400D02*
X49578D01*
X52321Y68616D02*
X52499D01*
X51940D02*
X52118D01*
X50822D02*
X51102D01*
X49806D02*
X49959D01*
X49425D02*
X49603D01*
X52296Y68641D02*
X52473D01*
X51915D02*
X52092D01*
X50848D02*
X51076D01*
X49832D02*
X49984D01*
X49425D02*
X49603D01*
X52296Y68666D02*
X52473D01*
X51889D02*
X52067D01*
X50848D02*
X51051D01*
X49857D02*
X50010D01*
X49451D02*
X49629D01*
X52270Y68692D02*
X52448D01*
X51864D02*
X52042D01*
X50873D02*
X51051D01*
X49883D02*
X50035D01*
X49476D02*
X49654D01*
X52245Y68717D02*
X52423D01*
X51838D02*
X52016D01*
X50873D02*
X51026D01*
X49908D02*
X50086D01*
X49476D02*
X49679D01*
X52219Y68743D02*
X52423D01*
X51813D02*
X51991D01*
X50899D02*
X51026D01*
X49933D02*
X50111D01*
X49502D02*
X49679D01*
X52194Y68768D02*
X52397D01*
X51788D02*
X51965D01*
X50899D02*
X51000D01*
X49959D02*
X50137D01*
X49527D02*
X49705D01*
X52169Y68793D02*
X52372D01*
X51737D02*
X51940D01*
X50924D02*
X51000D01*
X49984D02*
X50162D01*
X49527D02*
X49730D01*
X52143Y68819D02*
X52346D01*
X51711D02*
X51915D01*
X50949D02*
X50975D01*
X50010D02*
X50213D01*
X49552D02*
X49756D01*
X52118Y68844D02*
X52346D01*
X51661D02*
X51889D01*
X50035D02*
X50238D01*
X49578D02*
X49781D01*
X52092Y68870D02*
X52321D01*
X51635D02*
X51838D01*
X50060D02*
X50289D01*
X49603D02*
X49806D01*
X52067Y68895D02*
X52296D01*
X51584D02*
X51813D01*
X50111D02*
X50340D01*
X49629D02*
X49832D01*
X52042Y68920D02*
X52270D01*
X51534D02*
X51762D01*
X50137D02*
X50391D01*
X49654D02*
X49857D01*
X52016Y68946D02*
X52245D01*
X51457D02*
X51737D01*
X50187D02*
X50441D01*
X49679D02*
X49883D01*
X51991Y68971D02*
X52219D01*
X51407D02*
X51686D01*
X50213D02*
X50518D01*
X49705D02*
X49933D01*
X51965Y68997D02*
X52194D01*
X51330D02*
X51635D01*
X50264D02*
X50594D01*
X49730D02*
X49959D01*
X51915Y69022D02*
X52169D01*
X51229D02*
X51584D01*
X50314D02*
X50695D01*
X49756D02*
X49984D01*
X51889Y69047D02*
X52143D01*
X51026D02*
X51534D01*
X50365D02*
X50899D01*
X49781D02*
X50035D01*
X51838Y69073D02*
X52092D01*
X50441D02*
X51483D01*
X49806D02*
X50060D01*
X51813Y69098D02*
X52067D01*
X50518D02*
X51407D01*
X49832D02*
X50111D01*
X51762Y69124D02*
X52042D01*
X50619D02*
X51305D01*
X49883D02*
X50162D01*
X51711Y69149D02*
X51991D01*
X50746D02*
X51178D01*
X49908D02*
X50187D01*
X51661Y69174D02*
X51965D01*
X49959D02*
X50238D01*
X51610Y69200D02*
X51915D01*
X49984D02*
X50314D01*
X51534Y69225D02*
X51889D01*
X50035D02*
X50365D01*
X51483Y69251D02*
X51838D01*
X50060D02*
X50441D01*
X51381Y69276D02*
X51788D01*
X50111D02*
X50518D01*
X51280Y69301D02*
X51737D01*
X50162D02*
X50619D01*
X51127Y69327D02*
X51686D01*
X50238D02*
X50797D01*
X50289Y69352D02*
X51635D01*
X50365Y69378D02*
X51559D01*
X50441Y69403D02*
X51483D01*
X50518Y69428D02*
X51381D01*
X50645Y69454D02*
X51254D01*
D18*
X167698Y129750D02*
X174302D01*
D19*
X36904Y103920D02*
X37330Y104346D01*
D20*
X149850Y70038D02*
D03*
X149850Y75463D02*
D03*
D21*
X22000Y18400D02*
D03*
X43000Y18400D02*
D03*
X64000Y18400D02*
D03*
X85000D02*
D03*
X126000Y18400D02*
D03*
X147000Y18400D02*
D03*
X168000D02*
D03*
X189000D02*
D03*
X122060Y109130D02*
D03*
M02*
