G04*
G04 #@! TF.GenerationSoftware,Altium Limited,Altium Designer,19.0.15 (446)*
G04*
G04 Layer_Physical_Order=3*
G04 Layer_Color=32768*
%FSLAX43Y43*%
%MOMM*%
G71*
G01*
G75*
%ADD12C,0.200*%
%ADD18C,1.000*%
%ADD162C,0.500*%
%ADD175C,1.508*%
%ADD191C,1.016*%
%ADD193C,1.528*%
%ADD194C,1.808*%
%ADD195C,1.608*%
%ADD196C,1.308*%
%ADD197O,1.408X4.008*%
%ADD198O,4.008X1.408*%
%ADD199C,4.008*%
%ADD200C,1.428*%
%ADD201C,2.808*%
%ADD202O,3.208X1.208*%
%ADD203O,2.208X1.208*%
%ADD204C,1.208*%
%ADD205C,4.208*%
%ADD206C,1.398*%
%ADD207C,2.208*%
%ADD208C,3.708*%
%ADD209C,0.708*%
D12*
X93600Y118098D02*
X93702Y118200D01*
X113698Y108627D02*
X113800Y108525D01*
X176925Y57425D02*
X177000Y57500D01*
D18*
X178500Y4000D02*
Y42443D01*
X157500Y4000D02*
Y42443D01*
X136500Y4000D02*
Y42443D01*
X202050Y14300D02*
Y19950D01*
X200100Y21900D02*
X202050Y19950D01*
X200100Y21900D02*
Y34500D01*
X197750Y36850D02*
X200100Y34500D01*
X197750Y36850D02*
Y41450D01*
X196757Y42443D02*
X197750Y41450D01*
X110200Y42443D02*
X196757D01*
X110200Y9450D02*
Y42443D01*
X97551Y8350D02*
X97551Y42443D01*
X74500Y4000D02*
X74500Y42492D01*
X53600Y4000D02*
X53600Y42492D01*
X32500D02*
X97551D01*
X32500Y4000D02*
X32500Y42492D01*
X4950Y42492D02*
X32500Y42492D01*
X143950Y84125D02*
X145050Y85225D01*
X176500D01*
X177000Y84725D01*
Y57500D02*
Y84725D01*
X143950Y57425D02*
X176925D01*
X143950D02*
Y84125D01*
D162*
X61300Y70700D02*
X62509Y71909D01*
X80700D01*
X89050D02*
Y73698D01*
X88145Y74603D02*
X89050Y73698D01*
X83394Y74603D02*
X88145D01*
X80700Y71909D02*
X83394Y74603D01*
X89050Y55150D02*
Y71909D01*
X61300Y55300D02*
Y70700D01*
X160836Y118203D02*
Y135044D01*
X134562Y118207D02*
Y135044D01*
X180135Y118235D02*
X183700Y121800D01*
X180035Y118200D02*
X180062Y118173D01*
X163600Y118200D02*
X180035D01*
X155900D02*
X163600D01*
X104125D02*
X104804Y117521D01*
X100200Y118200D02*
X104125D01*
X122150Y108525D02*
Y118200D01*
X155900D01*
X196575Y48900D02*
X200040Y45435D01*
Y42694D02*
Y45435D01*
X192350Y53125D02*
X196575Y48900D01*
X205500Y37234D02*
X211108D01*
X200040Y42694D02*
X205500Y37234D01*
X143700Y45000D02*
X182264D01*
X135800D02*
Y54400D01*
X11500Y45000D02*
X135800D01*
X42900Y117800D02*
X44500Y116200D01*
X42900Y117800D02*
Y117800D01*
X10300D02*
X42900D01*
X143700Y54400D02*
X182225D01*
X135800D02*
Y67875D01*
X143700Y45000D02*
Y54400D01*
X182264Y42479D02*
Y45000D01*
X10300Y46200D02*
X11500Y45000D01*
X10300Y46200D02*
Y66700D01*
X4950D02*
X10300D01*
X183700Y121800D02*
X185825D01*
Y121075D02*
Y121800D01*
X93702Y118200D02*
X100200D01*
X93600Y116900D02*
Y118098D01*
X104804Y117521D02*
X113698Y108627D01*
X185825Y59650D02*
X192350Y53125D01*
X185825Y59650D02*
Y60200D01*
X113800Y108525D02*
X174075D01*
X182225Y100375D01*
Y54400D02*
Y100375D01*
X185825Y121075D02*
X185825Y60200D01*
X40450Y55300D02*
Y76550D01*
X49000Y101025D02*
X51400Y103425D01*
X49000Y92700D02*
Y101025D01*
Y92575D02*
Y92700D01*
Y85100D02*
Y92575D01*
X40450Y76550D02*
X49000Y85100D01*
X50700Y110000D02*
X51400Y109300D01*
X43800Y116900D02*
X50700Y110000D01*
X51400Y103425D02*
Y109300D01*
X115200Y96960D02*
X135800Y76360D01*
X93600Y114075D02*
Y116900D01*
Y114075D02*
X98085D01*
X115280Y96880D01*
X40450Y55300D02*
X61300D01*
X135800Y67875D02*
X138700Y70775D01*
Y75000D01*
X89050Y55100D02*
X106450Y55100D01*
Y66650D01*
X137400Y76300D02*
X138700Y75000D01*
X127300Y76300D02*
X137400D01*
X121000Y70000D02*
X127300Y76300D01*
X109800Y70000D02*
X121000D01*
X106450Y66650D02*
X109800Y70000D01*
D175*
X179934Y46250D02*
D03*
Y41170D02*
D03*
X158934Y46250D02*
D03*
Y41170D02*
D03*
X137934Y46250D02*
D03*
Y41170D02*
D03*
X116934Y46250D02*
D03*
Y41170D02*
D03*
X75934Y46250D02*
D03*
Y41170D02*
D03*
X54933Y46250D02*
D03*
Y41170D02*
D03*
X33933Y46250D02*
D03*
Y41170D02*
D03*
X12934Y46250D02*
D03*
Y41170D02*
D03*
X209500Y20750D02*
D03*
Y25250D02*
D03*
Y40250D02*
D03*
D191*
X15600Y3950D02*
X32526D01*
X47500D01*
X55496D01*
X74455D01*
X94805D01*
X94992Y3949D01*
X97551Y6687D02*
Y8340D01*
X97556Y8458D01*
X110193Y9452D02*
X115286D01*
X115300Y9450D01*
X116441Y8439D02*
X116449Y8328D01*
X116437Y6537D02*
X116449Y8328D01*
X116435Y6284D02*
X116437Y6537D01*
X118735Y3952D02*
X118988Y3950D01*
X119003Y3950D01*
X155400Y3950D01*
X178467D01*
X199774D01*
X199999Y3950D01*
X202050Y6225D02*
Y15250D01*
X202060Y15441D01*
X203809Y17190D02*
X204000Y17200D01*
X208642Y17200D01*
X208657Y17202D02*
X208674Y17211D01*
X211128Y19664D01*
X211140Y19685D01*
X211142Y39517D02*
X212800D01*
X212829Y39524D01*
X212843Y39539D02*
X212850Y39557D01*
Y61458D01*
X212843Y61486D02*
X212850Y61458D01*
X212810Y61508D02*
X212829Y61501D01*
X210017Y61508D02*
X212810D01*
X210017Y72567D02*
X212800D01*
X212829Y72574D01*
X212843Y72589D02*
X212850Y72607D01*
Y98783D01*
X212843Y98811D02*
X212850Y98783D01*
X212810Y98833D02*
X212829Y98826D01*
X211050Y98833D02*
X212810D01*
X211050Y111175D02*
X212800D01*
X212829Y111182D01*
X212843Y111196D02*
X212850Y111215D01*
Y112500D01*
X208022Y117546D02*
X208343Y117531D01*
X208008Y117550D02*
X208022Y117546D01*
X204000Y117550D02*
X208008Y117550D01*
X203808Y117560D02*
X204000Y117550D01*
X118450Y134501D02*
X118450Y134610D01*
X118450Y127150D02*
X118450Y134501D01*
X118442Y126993D02*
X118450Y127150D01*
X97550Y126945D02*
X97557Y126808D01*
X97550Y126945D02*
Y133000D01*
X97550Y133202D02*
X97550Y133000D01*
X95501Y135050D02*
X95702Y135050D01*
X90975Y135050D02*
X95501Y135050D01*
X70250Y127000D02*
X70258Y126920D01*
X70250Y127000D02*
Y134300D01*
X18300Y135050D02*
X69500Y135050D01*
X17969Y135050D02*
X18300Y135050D01*
X13250Y127355D02*
Y130000D01*
Y127355D02*
X13256Y127324D01*
X13270Y127308D02*
X13289Y127300D01*
X14500D01*
X13300Y123900D02*
X14500D01*
X13271Y123893D02*
X13300Y123900D01*
X13250Y123860D02*
X13257Y123878D01*
X13250Y123860D02*
X13250Y119750D01*
X7475Y117800D02*
X11300D01*
X7226Y117800D02*
X7475Y117800D01*
X4950Y115276D02*
X4950Y115524D01*
X4950Y19500D02*
X4950Y115276D01*
X13250Y11175D02*
Y15200D01*
Y11175D02*
X13254Y11154D01*
X13273Y11132D01*
X13292Y11112D01*
X13318Y11100D01*
X14500D01*
X13293Y7689D02*
X13310Y7698D01*
X13264Y7661D02*
X13293Y7689D01*
X13252Y7640D02*
X13264Y7661D01*
X15369Y3950D02*
X15600D01*
X14914Y4040D02*
X15369Y3950D01*
X14487Y4217D02*
X14914Y4040D01*
X14102Y4474D02*
X14487Y4217D01*
X13774Y4802D02*
X14102Y4474D01*
X13517Y5187D02*
X13774Y4802D01*
X13340Y5614D02*
X13517Y5187D01*
X13250Y6069D02*
X13340Y5614D01*
X13250Y6069D02*
Y6300D01*
X202050Y6001D02*
Y6225D01*
X201963Y5561D02*
X202050Y6001D01*
X201791Y5147D02*
X201963Y5561D01*
X201542Y4775D02*
X201791Y5147D01*
X201225Y4458D02*
X201542Y4775D01*
X200853Y4209D02*
X201225Y4458D01*
X200439Y4037D02*
X200853Y4209D01*
X199999Y3950D02*
X200439Y4037D01*
X118239Y4054D02*
X118735Y3952D01*
X117773Y4251D02*
X118239Y4054D01*
X117354Y4535D02*
X117773Y4251D01*
X116999Y4895D02*
X117354Y4535D01*
X116721Y5318D02*
X116999Y4895D01*
X116530Y5787D02*
X116721Y5318D01*
X116435Y6284D02*
X116530Y5787D01*
X116393Y8655D02*
X116441Y8439D01*
X116305Y8859D02*
X116393Y8655D01*
X116179Y9041D02*
X116305Y8859D01*
X116020Y9196D02*
X116179Y9041D01*
X115834Y9318D02*
X116020Y9196D01*
X115629Y9402D02*
X115834Y9318D01*
X115411Y9444D02*
X115629Y9402D01*
X115300Y9450D02*
X115411Y9444D01*
X98542Y9444D02*
X98650Y9450D01*
X98331Y9402D02*
X98542Y9444D01*
X98132Y9320D02*
X98331Y9402D01*
X97952Y9200D02*
X98132Y9320D01*
X97800Y9048D02*
X97952Y9200D01*
X97680Y8868D02*
X97800Y9048D01*
X97598Y8669D02*
X97680Y8868D01*
X97556Y8458D02*
X97598Y8669D01*
X97551Y6508D02*
Y6687D01*
X97504Y6152D02*
X97551Y6508D01*
X97411Y5805D02*
X97504Y6152D01*
X97274Y5473D02*
X97411Y5805D01*
X97094Y5163D02*
X97274Y5473D01*
X96876Y4878D02*
X97094Y5163D01*
X96622Y4624D02*
X96876Y4878D01*
X96337Y4406D02*
X96622Y4624D01*
X96026Y4226D02*
X96337Y4406D01*
X95695Y4089D02*
X96026Y4226D01*
X95348Y3996D02*
X95695Y4089D01*
X94992Y3949D02*
X95348Y3996D01*
X13250Y6300D02*
Y7625D01*
X98650Y9450D02*
X110179D01*
X110193Y9452D01*
X212829Y39524D02*
X212843Y39539D01*
X212829Y61501D02*
X212843Y61486D01*
X212829Y72574D02*
X212843Y72589D01*
X212829Y98826D02*
X212843Y98811D01*
X212829Y111182D02*
X212843Y111196D01*
X212850Y112500D02*
Y112822D01*
X212769Y113460D02*
X212850Y112822D01*
X212607Y114083D02*
X212769Y113460D01*
X212367Y114680D02*
X212607Y114083D01*
X212053Y115242D02*
X212367Y114680D01*
X211671Y115759D02*
X212053Y115242D01*
X211226Y116224D02*
X211671Y115759D01*
X210726Y116629D02*
X211226Y116224D01*
X210178Y116967D02*
X210726Y116629D01*
X209592Y117233D02*
X210178Y116967D01*
X208977Y117422D02*
X209592Y117233D01*
X208343Y117531D02*
X208977Y117422D01*
X6279Y117513D02*
X6738Y117703D01*
X5865Y117237D02*
X6279Y117513D01*
X5237Y116472D02*
X5514Y116885D01*
X5047Y116012D02*
X5237Y116472D01*
X4950Y115524D02*
X5047Y116012D01*
X14500Y127300D02*
X14667Y127291D01*
X14993Y127226D01*
X15301Y127099D01*
X15578Y126914D01*
X15814Y126678D01*
X15999Y126401D01*
X16126Y126093D01*
X16191Y125767D01*
X16200Y125600D01*
X16191Y125433D02*
X16200Y125600D01*
X16126Y125107D02*
X16191Y125433D01*
X15999Y124799D02*
X16126Y125107D01*
X15814Y124522D02*
X15999Y124799D01*
X15578Y124286D02*
X15814Y124522D01*
X15301Y124101D02*
X15578Y124286D01*
X14993Y123974D02*
X15301Y124101D01*
X14667Y123909D02*
X14993Y123974D01*
X14500Y123900D02*
X14667Y123909D01*
X11250Y17200D02*
X11446Y17190D01*
X11830Y17114D01*
X12193Y16963D01*
X12519Y16746D01*
X12796Y16469D01*
X13014Y16143D01*
X13164Y15780D01*
X13240Y15396D01*
X13250Y15200D01*
X14500Y11100D02*
X14667Y11091D01*
X14993Y11026D01*
X15301Y10899D01*
X15578Y10714D01*
X15814Y10478D01*
X15999Y10201D01*
X16126Y9893D01*
X16191Y9567D01*
X16200Y9400D01*
X16191Y9233D02*
X16200Y9400D01*
X16126Y8907D02*
X16191Y9233D01*
X15999Y8599D02*
X16126Y8907D01*
X15814Y8322D02*
X15999Y8599D01*
X15578Y8086D02*
X15814Y8322D01*
X15301Y7901D02*
X15578Y8086D01*
X14993Y7774D02*
X15301Y7901D01*
X14667Y7709D02*
X14993Y7774D01*
X14500Y7700D02*
X14667Y7709D01*
X13325Y7700D02*
X14500D01*
X13310Y7698D02*
X13325Y7700D01*
X13250Y7625D02*
X13252Y7640D01*
X208642Y17200D02*
X208657Y17202D01*
X211140Y19685D02*
X211142Y19700D01*
Y39517D01*
X210017Y61508D02*
Y72567D01*
X211050Y98833D02*
Y111175D01*
X203434Y117634D02*
X203808Y117560D01*
X203081Y117781D02*
X203434Y117634D01*
X202763Y117993D02*
X203081Y117781D01*
X202493Y118263D02*
X202763Y117993D01*
X202281Y118581D02*
X202493Y118263D01*
X202134Y118934D02*
X202281Y118581D01*
X202060Y119309D02*
X202134Y118934D01*
X202050Y119500D02*
X202060Y119309D01*
X202050Y119500D02*
Y132700D01*
X119000Y135050D02*
X199700D01*
X118891D02*
X119000D01*
X118688Y134967D02*
X118891Y135050D01*
X118534Y134812D02*
X118688Y134967D01*
X118450Y134610D02*
X118534Y134812D01*
X118381Y126685D02*
X118442Y126993D01*
X118261Y126396D02*
X118381Y126685D01*
X118086Y126135D02*
X118261Y126396D01*
X117865Y125913D02*
X118086Y126135D01*
X117604Y125739D02*
X117865Y125913D01*
X117314Y125619D02*
X117604Y125739D01*
X117007Y125558D02*
X117314Y125619D01*
X116850Y125550D02*
X117007Y125558D01*
X98945Y125550D02*
X116850D01*
X69574Y135050D02*
X69719Y135022D01*
X69500Y135050D02*
X69574Y135050D01*
X17312Y134964D02*
X17969Y135050D01*
X16673Y134793D02*
X17312Y134964D01*
X16061Y134539D02*
X16673Y134793D01*
X15488Y134208D02*
X16061Y134539D01*
X14963Y133805D02*
X15488Y134208D01*
X14495Y133337D02*
X14963Y133805D01*
X14092Y132812D02*
X14495Y133337D01*
X13761Y132239D02*
X14092Y132812D01*
X13508Y131627D02*
X13761Y132239D01*
X13336Y130988D02*
X13508Y131627D01*
X13250Y130331D02*
X13336Y130988D01*
X13250Y130000D02*
Y130331D01*
X13256Y127324D02*
X13270Y127308D01*
X13257Y123878D02*
X13271Y123893D01*
X13240Y119559D02*
X13250Y119750D01*
X13166Y119184D02*
X13240Y119559D01*
X13019Y118831D02*
X13166Y119184D01*
X12807Y118513D02*
X13019Y118831D01*
X12537Y118243D02*
X12807Y118513D01*
X12219Y118031D02*
X12537Y118243D01*
X11866Y117884D02*
X12219Y118031D01*
X11491Y117810D02*
X11866Y117884D01*
X11300Y117800D02*
X11491Y117810D01*
X7250Y17200D02*
X11250D01*
X7023D02*
X7250D01*
X6579Y17288D02*
X7023Y17200D01*
X6160Y17461D02*
X6579Y17288D01*
X5784Y17713D02*
X6160Y17461D01*
X5463Y18034D02*
X5784Y17713D01*
X5211Y18410D02*
X5463Y18034D01*
X5038Y18829D02*
X5211Y18410D01*
X4950Y19273D02*
X5038Y18829D01*
X4950Y19273D02*
Y19500D01*
X5514Y116885D02*
X5865Y117237D01*
X6738Y117703D02*
X7226Y117800D01*
X69719Y135022D02*
X69855Y134965D01*
X69978Y134883D01*
X70083Y134778D01*
X70165Y134655D01*
X70222Y134519D01*
X70250Y134374D01*
Y134300D02*
Y134374D01*
X70258Y126920D02*
X70319Y126772D01*
X70433Y126659D01*
X70580Y126598D01*
X70660Y126590D01*
X89075D01*
X89168Y126599D01*
X89339Y126670D01*
X89470Y126801D01*
X89540Y126972D01*
X89550Y127065D01*
Y133625D01*
Y133765D01*
X89604Y134041D01*
X89712Y134300D01*
X89868Y134534D01*
X90066Y134732D01*
X90300Y134888D01*
X90559Y134996D01*
X90835Y135050D01*
X90975D01*
X95702Y135050D02*
X96098Y134971D01*
X96472Y134817D01*
X96807Y134592D01*
X97093Y134307D01*
X97317Y133971D01*
X97472Y133598D01*
X97550Y133202D01*
X97557Y126808D02*
X97610Y126540D01*
X97715Y126288D01*
X97867Y126060D01*
X98060Y125867D01*
X98288Y125715D01*
X98540Y125610D01*
X98808Y125557D01*
X98945Y125550D01*
X199700Y135050D02*
X199931D01*
X200386Y134960D01*
X200813Y134783D01*
X201198Y134526D01*
X201526Y134198D01*
X201783Y133813D01*
X201960Y133386D01*
X202050Y132931D01*
Y132700D02*
Y132931D01*
X203434Y17116D02*
X203809Y17190D01*
X203081Y16969D02*
X203434Y17116D01*
X202763Y16757D02*
X203081Y16969D01*
X202493Y16487D02*
X202763Y16757D01*
X202281Y16169D02*
X202493Y16487D01*
X202134Y15816D02*
X202281Y16169D01*
X202060Y15441D02*
X202134Y15816D01*
D193*
X69720Y88380D02*
D03*
Y90920D02*
D03*
Y85840D02*
D03*
D03*
Y90920D02*
D03*
Y88380D02*
D03*
X9000Y60320D02*
D03*
Y62860D02*
D03*
X50100Y97170D02*
D03*
Y99710D02*
D03*
Y94630D02*
D03*
D03*
Y99710D02*
D03*
Y97170D02*
D03*
X9000Y57780D02*
D03*
Y67940D02*
D03*
X146300Y74221D02*
D03*
Y69141D02*
D03*
Y66601D02*
D03*
Y71681D02*
D03*
X145740Y110000D02*
D03*
X150820D02*
D03*
X153360D02*
D03*
D03*
X150820D02*
D03*
X145740D02*
D03*
X170500Y114200D02*
D03*
X167960D02*
D03*
X165420D02*
D03*
X160340D02*
D03*
X157800D02*
D03*
X162880D02*
D03*
X173040D02*
D03*
X170500Y110000D02*
D03*
X167960D02*
D03*
X165420D02*
D03*
X157800D02*
D03*
X162880D02*
D03*
X173040D02*
D03*
X175580D02*
D03*
X134365D02*
D03*
X139445D02*
D03*
X141985D02*
D03*
D03*
X139445D02*
D03*
X134365D02*
D03*
X148280Y114200D02*
D03*
X145740D02*
D03*
X150820D02*
D03*
X153360D02*
D03*
D03*
X150820D02*
D03*
X145740D02*
D03*
X148280D02*
D03*
X136905D02*
D03*
X134365D02*
D03*
X139445D02*
D03*
X141985D02*
D03*
D03*
X139445D02*
D03*
X134365D02*
D03*
X136905D02*
D03*
X10675Y91720D02*
D03*
Y94260D02*
D03*
Y96800D02*
D03*
Y101880D02*
D03*
Y104420D02*
D03*
Y106960D02*
D03*
Y112040D02*
D03*
Y109500D02*
D03*
Y99340D02*
D03*
X31000Y92000D02*
D03*
Y94540D02*
D03*
Y97080D02*
D03*
Y102160D02*
D03*
Y104700D02*
D03*
Y107240D02*
D03*
Y112320D02*
D03*
Y109780D02*
D03*
Y99620D02*
D03*
X207640Y113200D02*
D03*
Y99750D02*
D03*
X209670Y113200D02*
D03*
Y99750D02*
D03*
X47050Y97170D02*
D03*
Y99710D02*
D03*
Y94630D02*
D03*
Y92090D02*
D03*
D03*
Y94630D02*
D03*
Y99710D02*
D03*
Y97170D02*
D03*
D194*
X159500Y59080D02*
D03*
Y61620D02*
D03*
X24223Y6000D02*
D03*
X26763D02*
D03*
X44270D02*
D03*
X41730D02*
D03*
X83730D02*
D03*
X86270D02*
D03*
X127270D02*
D03*
X124730D02*
D03*
X145730D02*
D03*
X148270D02*
D03*
X169270D02*
D03*
X166730D02*
D03*
X187730D02*
D03*
X190270D02*
D03*
X65270D02*
D03*
X62730D02*
D03*
X165920Y129750D02*
D03*
X176080D02*
D03*
X207000Y26500D02*
D03*
Y19500D02*
D03*
Y41500D02*
D03*
Y34500D02*
D03*
D195*
X182082Y16200D02*
D03*
X184622D02*
D03*
X161583Y16400D02*
D03*
X164123D02*
D03*
X141030Y16100D02*
D03*
X143570D02*
D03*
X112796Y12246D02*
D03*
X115336D02*
D03*
X93627Y15900D02*
D03*
X91087D02*
D03*
X72770D02*
D03*
X70230D02*
D03*
X51265Y16400D02*
D03*
X48725D02*
D03*
X30022Y16200D02*
D03*
X27482D02*
D03*
X16920Y21230D02*
D03*
Y23770D02*
D03*
X19460Y21230D02*
D03*
Y23770D02*
D03*
X22000Y21230D02*
D03*
Y23770D02*
D03*
X24540Y21230D02*
D03*
X27080D02*
D03*
X24540Y23770D02*
D03*
X27080D02*
D03*
X37920Y21230D02*
D03*
Y23770D02*
D03*
X40460Y21230D02*
D03*
Y23770D02*
D03*
X43000Y21230D02*
D03*
Y23770D02*
D03*
X45540Y21230D02*
D03*
X48080D02*
D03*
X45540Y23770D02*
D03*
X48080D02*
D03*
X58920Y21230D02*
D03*
Y23770D02*
D03*
X61460Y21230D02*
D03*
Y23770D02*
D03*
X64000Y21230D02*
D03*
Y23770D02*
D03*
X66540Y21230D02*
D03*
X69080D02*
D03*
X66540Y23770D02*
D03*
X69080D02*
D03*
X79920Y21230D02*
D03*
Y23770D02*
D03*
X82460Y21230D02*
D03*
Y23770D02*
D03*
X85000Y21230D02*
D03*
Y23770D02*
D03*
X87540Y21230D02*
D03*
X90080D02*
D03*
X87540Y23770D02*
D03*
X90080D02*
D03*
X120920Y21230D02*
D03*
Y23770D02*
D03*
X123460Y21230D02*
D03*
Y23770D02*
D03*
X126000Y21230D02*
D03*
Y23770D02*
D03*
X128540Y21230D02*
D03*
X131080D02*
D03*
X128540Y23770D02*
D03*
X131080D02*
D03*
X141920Y21230D02*
D03*
Y23770D02*
D03*
X144460Y21230D02*
D03*
Y23770D02*
D03*
X147000Y21230D02*
D03*
Y23770D02*
D03*
X149540Y21230D02*
D03*
X152080D02*
D03*
X149540Y23770D02*
D03*
X152080D02*
D03*
X162920Y21230D02*
D03*
Y23770D02*
D03*
X165460Y21230D02*
D03*
Y23770D02*
D03*
X168000Y21230D02*
D03*
Y23770D02*
D03*
X170540Y21230D02*
D03*
X173080D02*
D03*
X170540Y23770D02*
D03*
X173080D02*
D03*
X183920Y21230D02*
D03*
Y23770D02*
D03*
X186460Y21230D02*
D03*
Y23770D02*
D03*
X189000Y21230D02*
D03*
Y23770D02*
D03*
X191540Y21230D02*
D03*
X194080D02*
D03*
X191540Y23770D02*
D03*
X194080D02*
D03*
X44025Y109580D02*
D03*
Y107040D02*
D03*
Y101960D02*
D03*
Y96880D02*
D03*
Y91800D02*
D03*
Y94340D02*
D03*
Y99420D02*
D03*
Y104500D02*
D03*
Y112120D02*
D03*
Y114660D02*
D03*
X34275Y104500D02*
D03*
Y99420D02*
D03*
Y94340D02*
D03*
Y91800D02*
D03*
Y96880D02*
D03*
Y101960D02*
D03*
Y107040D02*
D03*
Y109580D02*
D03*
X116980Y111960D02*
D03*
Y114500D02*
D03*
X119520Y111960D02*
D03*
Y114500D02*
D03*
X122060Y111960D02*
D03*
Y114500D02*
D03*
X124600Y111960D02*
D03*
X127140D02*
D03*
Y114500D02*
D03*
X105825Y120730D02*
D03*
X102825D02*
D03*
X108825D02*
D03*
X111825D02*
D03*
D196*
X193520Y15500D02*
D03*
X190980D02*
D03*
X188440D02*
D03*
X172520D02*
D03*
X169980D02*
D03*
X167440D02*
D03*
X151520D02*
D03*
X148980D02*
D03*
X146440D02*
D03*
X130520D02*
D03*
X127980D02*
D03*
X125440D02*
D03*
X85540D02*
D03*
X83000D02*
D03*
X80460D02*
D03*
X64540D02*
D03*
X62000D02*
D03*
X59460D02*
D03*
X43540D02*
D03*
X41000D02*
D03*
X38460D02*
D03*
X22540D02*
D03*
X20000D02*
D03*
X17460D02*
D03*
X176550Y124305D02*
D03*
Y126845D02*
D03*
D197*
X201950Y50000D02*
D03*
X208000D02*
D03*
D198*
X204950Y54700D02*
D03*
D199*
X105000Y28000D02*
D03*
X196500Y9400D02*
D03*
Y125600D02*
D03*
D200*
X200390Y63550D02*
D03*
Y68050D02*
D03*
Y66050D02*
D03*
X203010Y68050D02*
D03*
Y66050D02*
D03*
Y63550D02*
D03*
D201*
X200040Y60480D02*
D03*
Y73620D02*
D03*
X205720D02*
D03*
Y60480D02*
D03*
D202*
X205060Y79725D02*
D03*
Y94225D02*
D03*
D203*
X211020D02*
D03*
Y79725D02*
D03*
D204*
X191200Y120200D02*
D03*
D205*
X60500Y131000D02*
D03*
X93500D02*
D03*
Y83000D02*
D03*
X60500D02*
D03*
D206*
X198750Y112190D02*
D03*
Y109650D02*
D03*
Y107110D02*
D03*
Y104570D02*
D03*
Y102030D02*
D03*
X196210Y110920D02*
D03*
Y108380D02*
D03*
Y105840D02*
D03*
Y103300D02*
D03*
Y100760D02*
D03*
D207*
X202050Y98600D02*
D03*
Y114350D02*
D03*
D208*
X205100Y112190D02*
D03*
Y100760D02*
D03*
D209*
X147002Y48400D02*
D03*
X147200Y46600D02*
D03*
X147600Y47300D02*
D03*
X148100Y47873D02*
D03*
X139995Y44944D02*
D03*
X137157Y44852D02*
D03*
X141800Y45600D02*
D03*
X190700Y70356D02*
D03*
Y69794D02*
D03*
X187763Y75800D02*
D03*
X187201D02*
D03*
X51800Y80959D02*
D03*
X49100Y79212D02*
D03*
X188753Y75751D02*
D03*
X51800Y81600D02*
D03*
X189314Y75751D02*
D03*
X49084Y80900D02*
D03*
X190556Y65031D02*
D03*
Y64469D02*
D03*
X54100Y78395D02*
D03*
Y78957D02*
D03*
X54225Y80427D02*
D03*
Y79866D02*
D03*
X77700Y74081D02*
D03*
Y73519D02*
D03*
X72058Y74081D02*
D03*
Y73519D02*
D03*
X80193Y81100D02*
D03*
X79632D02*
D03*
X80193Y74458D02*
D03*
X79632D02*
D03*
X46050Y85558D02*
D03*
X79186Y68811D02*
D03*
X73900Y68730D02*
D03*
X103600Y49041D02*
D03*
X98388Y52666D02*
D03*
X109495Y53300D02*
D03*
X111934Y46570D02*
D03*
X89810Y48872D02*
D03*
X91152Y53100D02*
D03*
X62900Y61396D02*
D03*
X63409Y57836D02*
D03*
X64000Y54866D02*
D03*
X74210Y54529D02*
D03*
X70230Y58000D02*
D03*
X83358Y57900D02*
D03*
X87203Y55800D02*
D03*
X84261Y64100D02*
D03*
X84696Y70000D02*
D03*
X86900Y73500D02*
D03*
X75904Y64000D02*
D03*
X73250Y63821D02*
D03*
X77441Y62730D02*
D03*
X81023Y64106D02*
D03*
Y65800D02*
D03*
X82513Y69366D02*
D03*
X78246Y66700D02*
D03*
X72955Y67020D02*
D03*
X76162Y68730D02*
D03*
X71900Y70900D02*
D03*
X62700Y71000D02*
D03*
X64395Y71075D02*
D03*
X63800Y65288D02*
D03*
X63778Y68230D02*
D03*
X67755Y67563D02*
D03*
X69700Y68275D02*
D03*
X70000Y61200D02*
D03*
Y62473D02*
D03*
X73100Y60800D02*
D03*
X78531Y61300D02*
D03*
X84600Y59913D02*
D03*
X81796Y55650D02*
D03*
X78463Y55600D02*
D03*
X88340Y52100D02*
D03*
X85284Y52200D02*
D03*
X87831Y60662D02*
D03*
X195775Y72500D02*
D03*
X183300Y66215D02*
D03*
X181087Y73800D02*
D03*
X181135Y65296D02*
D03*
X180320Y73800D02*
D03*
X107300Y82603D02*
D03*
X106400Y82600D02*
D03*
X106250Y83300D02*
D03*
X106000Y84000D02*
D03*
X104500Y78200D02*
D03*
X105100Y78690D02*
D03*
X105700Y78200D02*
D03*
X106200Y78690D02*
D03*
X102000Y72000D02*
D03*
X102800Y72900D02*
D03*
X54870Y92750D02*
D03*
X55200Y93373D02*
D03*
X60670Y90898D02*
D03*
X192300Y7600D02*
D03*
X200040Y5800D02*
D03*
X193500Y5350D02*
D03*
X185700Y5100D02*
D03*
X179900Y5300D02*
D03*
X179800Y9750D02*
D03*
X183600Y10000D02*
D03*
X176955Y8600D02*
D03*
X171700Y5200D02*
D03*
X164400Y5500D02*
D03*
X158800Y5300D02*
D03*
X154600Y5100D02*
D03*
X137700Y5600D02*
D03*
X130728Y8100D02*
D03*
X131200Y5300D02*
D03*
X120300Y5600D02*
D03*
X95200Y9600D02*
D03*
X95800Y5900D02*
D03*
X80460Y5400D02*
D03*
X76000Y6600D02*
D03*
X68133Y5350D02*
D03*
X73034Y5150D02*
D03*
X60234Y5550D02*
D03*
X54933Y6150D02*
D03*
X52327Y9400D02*
D03*
X33850Y6000D02*
D03*
X176300Y6110D02*
D03*
X114410Y68970D02*
D03*
X107610Y66490D02*
D03*
X109510Y61812D02*
D03*
X111210Y59340D02*
D03*
X118790Y62315D02*
D03*
X114480D02*
D03*
X113470Y65510D02*
D03*
X115440Y65490D02*
D03*
X120890Y66400D02*
D03*
X118900Y65500D02*
D03*
X117140Y65495D02*
D03*
X112740Y63850D02*
D03*
X112270Y66510D02*
D03*
X112280Y67530D02*
D03*
X95000Y35200D02*
D03*
X52745Y35410D02*
D03*
X93670Y107090D02*
D03*
X94250Y106550D02*
D03*
X93580Y106000D02*
D03*
X93680Y105340D02*
D03*
X90190Y108850D02*
D03*
X90170Y108280D02*
D03*
X67530Y107200D02*
D03*
X66660Y105975D02*
D03*
X66140Y104810D02*
D03*
X65460Y103610D02*
D03*
X64810Y102410D02*
D03*
X33990Y65240D02*
D03*
X34000Y65810D02*
D03*
X28400Y69330D02*
D03*
X29610Y69350D02*
D03*
X14720Y16450D02*
D03*
X14260Y15970D02*
D03*
X35654Y14900D02*
D03*
X34998Y14873D02*
D03*
X56093Y15360D02*
D03*
X55420Y15380D02*
D03*
X76610Y17620D02*
D03*
X77260Y17610D02*
D03*
X181050Y17890D02*
D03*
X180320Y17870D02*
D03*
X159600Y15597D02*
D03*
X160190Y15600D02*
D03*
X139130Y15566D02*
D03*
X138490D02*
D03*
X125430Y69490D02*
D03*
X126710Y69475D02*
D03*
X147390Y51380D02*
D03*
X140950Y62010D02*
D03*
X139290Y61620D02*
D03*
X138830Y61040D02*
D03*
X45100Y58600D02*
D03*
X45080Y59410D02*
D03*
X45090Y60150D02*
D03*
X45108Y61100D02*
D03*
X45090Y61810D02*
D03*
X45100Y62530D02*
D03*
X10775Y40625D02*
D03*
X6550D02*
D03*
X30350Y13725D02*
D03*
X26525Y13550D02*
D03*
X29575Y6655D02*
D03*
X18700Y6550D02*
D03*
X14229Y13320D02*
D03*
X20650Y25814D02*
D03*
X23275Y24645D02*
D03*
X22100Y17175D02*
D03*
X19500Y17525D02*
D03*
X16575Y12650D02*
D03*
X14975Y6150D02*
D03*
X21175Y9775D02*
D03*
X24787Y9833D02*
D03*
X28505Y9800D02*
D03*
X31275Y9750D02*
D03*
X44325Y24632D02*
D03*
X45725Y14350D02*
D03*
X38500Y11125D02*
D03*
X42625Y9879D02*
D03*
X46050Y9921D02*
D03*
X49456Y9879D02*
D03*
X50133Y13993D02*
D03*
X51950Y22313D02*
D03*
X58658Y10925D02*
D03*
X62575Y9850D02*
D03*
X65975Y9750D02*
D03*
X69400Y9651D02*
D03*
X73250Y12700D02*
D03*
X72850Y22950D02*
D03*
X82825Y17350D02*
D03*
X78175Y16694D02*
D03*
X80375Y17075D02*
D03*
X80700Y9475D02*
D03*
X83725Y9800D02*
D03*
X87275Y9856D02*
D03*
X90900Y9750D02*
D03*
X95675Y12875D02*
D03*
X94675Y23200D02*
D03*
X187675Y18325D02*
D03*
X185175Y18650D02*
D03*
X184499Y13825D02*
D03*
X180875Y13528D02*
D03*
X200350Y19475D02*
D03*
X200500Y12365D02*
D03*
X190440Y9925D02*
D03*
X159375Y7500D02*
D03*
X176750Y21230D02*
D03*
X176125Y14150D02*
D03*
X174525Y9879D02*
D03*
X170900D02*
D03*
X167300Y9872D02*
D03*
X163546Y13350D02*
D03*
X156387Y15047D02*
D03*
X152712Y13972D02*
D03*
X154398Y13997D02*
D03*
X143387Y5797D02*
D03*
X152737Y9797D02*
D03*
X149237Y9822D02*
D03*
X145712Y9797D02*
D03*
X142387Y9672D02*
D03*
X134512Y7897D02*
D03*
X114287Y31172D02*
D03*
X113811Y38122D02*
D03*
X134763Y22572D02*
D03*
X129962Y17147D02*
D03*
X134762Y14028D02*
D03*
X130728Y9972D02*
D03*
X127337D02*
D03*
X123712D02*
D03*
X117812Y9072D02*
D03*
X196325Y19700D02*
D03*
X189350Y8950D02*
D03*
X185925Y9500D02*
D03*
X195850Y24425D02*
D03*
X186997Y25863D02*
D03*
X139650Y13995D02*
D03*
X15392Y17526D02*
D03*
X59334Y25300D02*
D03*
X55702Y24003D02*
D03*
X30054Y22454D02*
D03*
X30836Y19228D02*
D03*
X39851Y6198D02*
D03*
X34392Y17729D02*
D03*
X51918Y18626D02*
D03*
X51968Y25664D02*
D03*
X47676Y18288D02*
D03*
X37871Y8121D02*
D03*
Y12776D02*
D03*
X36400Y14300D02*
D03*
X35306Y18999D02*
D03*
X55725Y18050D02*
D03*
X79329Y8725D02*
D03*
X79775Y13550D02*
D03*
X78625Y15500D02*
D03*
X141500Y7800D02*
D03*
X141700Y13200D02*
D03*
X13195Y31200D02*
D03*
X20600Y30800D02*
D03*
X28289Y48625D02*
D03*
X25978Y48638D02*
D03*
X28249Y50896D02*
D03*
X15929Y68012D02*
D03*
X24971Y61594D02*
D03*
X17686Y61919D02*
D03*
X22259Y62494D02*
D03*
X22275Y65534D02*
D03*
X20556D02*
D03*
X18903Y65495D02*
D03*
X37971Y111129D02*
D03*
X40798Y109972D02*
D03*
X41154Y105255D02*
D03*
X38257Y101434D02*
D03*
X39761Y101412D02*
D03*
X39789Y102984D02*
D03*
X38262Y102989D02*
D03*
X205644Y24191D02*
D03*
X203666Y37376D02*
D03*
X8660Y50487D02*
D03*
X12518Y50808D02*
D03*
X191097Y49388D02*
D03*
X192444Y51988D02*
D03*
X188023Y53915D02*
D03*
X182916Y46570D02*
D03*
X181979Y50838D02*
D03*
X186059Y52753D02*
D03*
X177483Y52732D02*
D03*
X180855Y56084D02*
D03*
X171196Y55959D02*
D03*
X172809Y49567D02*
D03*
X170855Y52666D02*
D03*
X161745Y46540D02*
D03*
X166691Y50023D02*
D03*
X160075Y50600D02*
D03*
X154267Y55933D02*
D03*
X142997Y56323D02*
D03*
X138940Y64360D02*
D03*
X133536Y72907D02*
D03*
X131932Y70693D02*
D03*
X132969Y66185D02*
D03*
X128437Y66975D02*
D03*
X133845Y56933D02*
D03*
X135204Y56566D02*
D03*
X141093Y54105D02*
D03*
X138627Y52301D02*
D03*
X115685Y53579D02*
D03*
X123431Y50447D02*
D03*
X120190Y58303D02*
D03*
X50461Y53467D02*
D03*
X77591Y49593D02*
D03*
X82637Y47140D02*
D03*
X83281Y51212D02*
D03*
X68525Y49524D02*
D03*
X65898Y49785D02*
D03*
X70579Y51316D02*
D03*
X38328Y71312D02*
D03*
X35345Y63868D02*
D03*
X39788Y64571D02*
D03*
X62260Y48493D02*
D03*
X47904Y48903D02*
D03*
X42882Y52055D02*
D03*
X45108Y54104D02*
D03*
X53462Y50150D02*
D03*
X14112Y58808D02*
D03*
X23209Y50878D02*
D03*
X30310Y65654D02*
D03*
X39100Y58132D02*
D03*
X34078Y51162D02*
D03*
X38438Y51114D02*
D03*
X21394Y56031D02*
D03*
X16432Y50086D02*
D03*
X6448Y44001D02*
D03*
X29126Y29861D02*
D03*
X26183Y29829D02*
D03*
X27865Y32134D02*
D03*
X20203Y36339D02*
D03*
X15874Y39905D02*
D03*
X12710Y24749D02*
D03*
X30772Y25757D02*
D03*
X13792Y18694D02*
D03*
X6933Y19150D02*
D03*
X45904Y30146D02*
D03*
X50405Y29821D02*
D03*
X49230Y32096D02*
D03*
X47892Y37072D02*
D03*
X41216Y37122D02*
D03*
X38040Y37922D02*
D03*
X38177Y41011D02*
D03*
X34064Y37160D02*
D03*
X36740Y32384D02*
D03*
X39598Y18957D02*
D03*
X68900Y37117D02*
D03*
X62123Y37299D02*
D03*
X56912Y41015D02*
D03*
X56123Y37797D02*
D03*
X57459Y32586D02*
D03*
X70089Y32158D02*
D03*
X67220Y30139D02*
D03*
X71293Y29945D02*
D03*
X72887Y25960D02*
D03*
X68052Y18786D02*
D03*
X72551Y19034D02*
D03*
X57732Y22458D02*
D03*
X56786Y16619D02*
D03*
X59722Y17179D02*
D03*
X89875Y40967D02*
D03*
X83300Y37247D02*
D03*
X77551Y40850D02*
D03*
X79785Y37791D02*
D03*
X76133Y37072D02*
D03*
X78240Y32741D02*
D03*
X87831Y30369D02*
D03*
X92485Y29855D02*
D03*
X96076Y39139D02*
D03*
X96144Y27224D02*
D03*
X93761Y19054D02*
D03*
X81974Y19016D02*
D03*
X76932Y18620D02*
D03*
X149923Y36697D02*
D03*
X139545Y41089D02*
D03*
X139381Y32976D02*
D03*
X138699Y37471D02*
D03*
X143341Y35772D02*
D03*
X149669Y30461D02*
D03*
X154151Y29671D02*
D03*
X138431Y24053D02*
D03*
X138792Y18942D02*
D03*
X146605Y19464D02*
D03*
X153094Y25217D02*
D03*
X155809Y25939D02*
D03*
X155636Y20066D02*
D03*
X162797Y37487D02*
D03*
X159796Y37415D02*
D03*
X172860Y37053D02*
D03*
X161278Y32636D02*
D03*
X162202Y40825D02*
D03*
X166234Y36051D02*
D03*
X171357Y30354D02*
D03*
X174213Y32272D02*
D03*
X174642Y30009D02*
D03*
X161660Y19712D02*
D03*
X167737Y18881D02*
D03*
X177049Y25333D02*
D03*
X176943Y17023D02*
D03*
X191443Y40931D02*
D03*
X191430Y37355D02*
D03*
X183604Y37269D02*
D03*
X180690D02*
D03*
X181974Y32595D02*
D03*
X192032Y30109D02*
D03*
X195488Y29912D02*
D03*
X198023Y22817D02*
D03*
X179937Y24551D02*
D03*
X190380Y24848D02*
D03*
X180674Y18840D02*
D03*
X129500Y30264D02*
D03*
X133043Y30019D02*
D03*
X124362Y36806D02*
D03*
X111891Y40840D02*
D03*
X112232Y32213D02*
D03*
X116361Y24799D02*
D03*
X124893Y17533D02*
D03*
X127059Y17598D02*
D03*
X134257Y18626D02*
D03*
X135132Y25980D02*
D03*
X127315Y24645D02*
D03*
X124919Y24478D02*
D03*
X119661Y19276D02*
D03*
X119862Y13672D02*
D03*
X119650Y15566D02*
D03*
X119447Y17443D02*
D03*
X115127Y17315D02*
D03*
X111108Y14047D02*
D03*
X56946Y14812D02*
D03*
X56993Y15593D02*
D03*
X20700Y44544D02*
D03*
X62590Y44457D02*
D03*
X83684Y44447D02*
D03*
X195850Y43800D02*
D03*
X177327Y43700D02*
D03*
X156327Y43800D02*
D03*
X135336D02*
D03*
X183920Y43710D02*
D03*
X186662Y48632D02*
D03*
X191400Y46200D02*
D03*
X177665Y48500D02*
D03*
X172800Y46150D02*
D03*
X168100Y48632D02*
D03*
X166619Y44600D02*
D03*
X156576Y48600D02*
D03*
X151600Y46145D02*
D03*
X164550Y128700D02*
D03*
X160954Y126200D02*
D03*
X145005Y44700D02*
D03*
X125080Y44800D02*
D03*
X130889Y46000D02*
D03*
X89870Y45848D02*
D03*
X68870Y45700D02*
D03*
X47900Y46163D02*
D03*
X26817Y46225D02*
D03*
X136600Y69700D02*
D03*
X133821Y76850D02*
D03*
X83684Y40700D02*
D03*
X198700Y26053D02*
D03*
X197550Y32403D02*
D03*
X199900Y17900D02*
D03*
X192102Y32403D02*
D03*
X195775Y36437D02*
D03*
X195853Y40680D02*
D03*
X191400Y39500D02*
D03*
X183920Y40825D02*
D03*
X187012Y40680D02*
D03*
X185400Y36100D02*
D03*
X186700Y35713D02*
D03*
X186500Y32850D02*
D03*
X180400Y31414D02*
D03*
X187730Y30700D02*
D03*
X186200Y27750D02*
D03*
X159800Y31800D02*
D03*
X168100Y35814D02*
D03*
X171100Y32800D02*
D03*
X177605Y35619D02*
D03*
X177300Y40694D02*
D03*
X172870Y39500D02*
D03*
X168400Y40700D02*
D03*
X166599Y40800D02*
D03*
X164500Y38885D02*
D03*
X165450Y32650D02*
D03*
X165200Y27850D02*
D03*
X166700Y30800D02*
D03*
X163074Y33300D02*
D03*
X159219Y32795D02*
D03*
X158600Y18300D02*
D03*
X159200Y16900D02*
D03*
X159900Y19300D02*
D03*
X163000Y8500D02*
D03*
X150300Y32455D02*
D03*
X156600Y35600D02*
D03*
X156327Y40600D02*
D03*
X151600Y39500D02*
D03*
X145600Y36268D02*
D03*
X146812Y40700D02*
D03*
X144300Y39100D02*
D03*
X145000Y40800D02*
D03*
X138600Y31400D02*
D03*
X144460Y32750D02*
D03*
X145600Y30800D02*
D03*
X144000Y27825D02*
D03*
X122700Y39300D02*
D03*
X117700Y19200D02*
D03*
X112400Y22200D02*
D03*
X112100Y27800D02*
D03*
X80100Y33400D02*
D03*
X76512Y25150D02*
D03*
X76300Y33400D02*
D03*
X75700Y25200D02*
D03*
X56100Y32900D02*
D03*
X54500Y17900D02*
D03*
X59373Y32795D02*
D03*
X55000Y17060D02*
D03*
X57500Y8000D02*
D03*
X38000Y33300D02*
D03*
X34275Y24539D02*
D03*
X34895Y32600D02*
D03*
X33949Y25300D02*
D03*
X7450Y28925D02*
D03*
Y36200D02*
D03*
X138100Y17700D02*
D03*
X141905Y32695D02*
D03*
X137200Y18600D02*
D03*
X138086Y32525D02*
D03*
X123300Y27850D02*
D03*
X123500Y32750D02*
D03*
X124800Y30800D02*
D03*
X117300Y31300D02*
D03*
X129050Y32650D02*
D03*
X135700Y35600D02*
D03*
X135327Y40700D02*
D03*
X130900Y39500D02*
D03*
X126375Y40600D02*
D03*
X126000Y35641D02*
D03*
X124500Y40700D02*
D03*
X195853Y14839D02*
D03*
X162920Y14300D02*
D03*
X162200Y14822D02*
D03*
X116800Y14567D02*
D03*
Y15400D02*
D03*
X17000Y33300D02*
D03*
X15800Y32400D02*
D03*
X6700Y23900D02*
D03*
X8300D02*
D03*
X10100Y20100D02*
D03*
X7400Y20400D02*
D03*
X77000Y20900D02*
D03*
X94327Y40400D02*
D03*
X87878Y32568D02*
D03*
X85125Y35698D02*
D03*
X89870Y39300D02*
D03*
X85412Y40400D02*
D03*
X81400Y39200D02*
D03*
X82683Y32850D02*
D03*
X83900Y30800D02*
D03*
X82300Y27825D02*
D03*
X76300Y31255D02*
D03*
X60310Y39000D02*
D03*
X64100Y35641D02*
D03*
X55300Y31500D02*
D03*
X61350Y27950D02*
D03*
X62700Y30795D02*
D03*
X61544Y32850D02*
D03*
X67100Y32500D02*
D03*
X73750Y35600D02*
D03*
X73327Y40400D02*
D03*
X68870Y39300D02*
D03*
X64400Y40500D02*
D03*
X62600D02*
D03*
X208200Y95400D02*
D03*
X211400Y112700D02*
D03*
X132900Y131100D02*
D03*
X122710Y124300D02*
D03*
X131803Y128262D02*
D03*
X122700Y123100D02*
D03*
X164500Y118377D02*
D03*
X162920Y117800D02*
D03*
X163600Y117384D02*
D03*
X159300Y131400D02*
D03*
X153200Y129400D02*
D03*
X159300Y132675D02*
D03*
X153200Y131400D02*
D03*
X159300Y133900D02*
D03*
X153200Y133400D02*
D03*
X129100Y120400D02*
D03*
X129600Y120900D02*
D03*
X131100Y122500D02*
D03*
X130600Y122000D02*
D03*
X130100Y121443D02*
D03*
X101000Y119575D02*
D03*
Y121462D02*
D03*
X86200Y114675D02*
D03*
X49250Y133900D02*
D03*
X30250Y133502D02*
D03*
X32300Y133100D02*
D03*
X49250Y132675D02*
D03*
X85200Y116499D02*
D03*
X50400Y134000D02*
D03*
Y132700D02*
D03*
X114300Y123900D02*
D03*
X137462Y131325D02*
D03*
Y129325D02*
D03*
X137425Y127325D02*
D03*
X137400Y125450D02*
D03*
Y123400D02*
D03*
X47900Y39300D02*
D03*
X52327Y40400D02*
D03*
X43000Y35600D02*
D03*
X46105Y32500D02*
D03*
X34200Y31400D02*
D03*
X40200Y27998D02*
D03*
X41900Y30795D02*
D03*
X40650Y32750D02*
D03*
X39400Y39200D02*
D03*
X41600Y40600D02*
D03*
X43400Y40313D02*
D03*
X22850Y36250D02*
D03*
X31550Y35600D02*
D03*
X19300Y27825D02*
D03*
X19650Y32750D02*
D03*
X25100Y32900D02*
D03*
X22400Y40313D02*
D03*
X18400Y39100D02*
D03*
X20700Y40600D02*
D03*
X26870Y39300D02*
D03*
X31300Y40400D02*
D03*
X187800Y36400D02*
D03*
X188700Y36400D02*
D03*
X204600Y28000D02*
D03*
Y25650D02*
D03*
X60600Y95800D02*
D03*
X152518Y19700D02*
D03*
X152900Y22510D02*
D03*
X152055Y25700D02*
D03*
X144300D02*
D03*
X124000Y26000D02*
D03*
X130800Y19800D02*
D03*
X132100Y22505D02*
D03*
X131100Y25200D02*
D03*
X176303Y30100D02*
D03*
X176955Y29500D02*
D03*
X156605Y30200D02*
D03*
X155303Y30650D02*
D03*
X155928Y29500D02*
D03*
X148500Y37100D02*
D03*
X94625Y30800D02*
D03*
X93692Y37500D02*
D03*
X93058Y36950D02*
D03*
X93305Y31125D02*
D03*
X93955Y29700D02*
D03*
X92423Y36343D02*
D03*
X86200Y37300D02*
D03*
X87100D02*
D03*
X73600Y31200D02*
D03*
X72692Y36700D02*
D03*
X72058Y37500D02*
D03*
X72300Y31300D02*
D03*
X72955Y29700D02*
D03*
X71400Y36800D02*
D03*
X65100Y37300D02*
D03*
X66100Y37300D02*
D03*
X52600Y30600D02*
D03*
X51700Y37500D02*
D03*
X51057Y36900D02*
D03*
X51300Y30900D02*
D03*
X51955Y29582D02*
D03*
X50423Y36343D02*
D03*
X44048Y37400D02*
D03*
X45100Y37400D02*
D03*
X29411Y36800D02*
D03*
X30054Y37300D02*
D03*
X31600Y30200D02*
D03*
X30692Y37800D02*
D03*
X30300Y31300D02*
D03*
X30955Y29500D02*
D03*
X18196Y25050D02*
D03*
X40200Y25500D02*
D03*
X23048Y37800D02*
D03*
X24200Y37800D02*
D03*
X91100Y19900D02*
D03*
X91000Y22470D02*
D03*
X90000Y25250D02*
D03*
X82500Y25700D02*
D03*
X49153Y20100D02*
D03*
X49100Y22470D02*
D03*
X48300Y25400D02*
D03*
X70500Y21200D02*
D03*
X70000Y22490D02*
D03*
X68405Y25200D02*
D03*
X61500Y25700D02*
D03*
X28450Y20100D02*
D03*
X25900Y24700D02*
D03*
X25393Y25300D02*
D03*
X45500Y65275D02*
D03*
Y68200D02*
D03*
X44800Y67000D02*
D03*
X44400Y67600D02*
D03*
X43600Y68800D02*
D03*
Y66400D02*
D03*
X43200Y65831D02*
D03*
X34000Y68800D02*
D03*
Y68200D02*
D03*
Y67600D02*
D03*
Y67000D02*
D03*
Y66400D02*
D03*
X41600Y62200D02*
D03*
X40600Y61500D02*
D03*
X43100Y61000D02*
D03*
X42100Y60200D02*
D03*
X41100Y59500D02*
D03*
X43600Y58800D02*
D03*
X31500Y56050D02*
D03*
X31059Y56613D02*
D03*
X29050Y56600D02*
D03*
X28900Y53600D02*
D03*
X29423Y50700D02*
D03*
X36500Y55500D02*
D03*
Y57390D02*
D03*
X37500Y53400D02*
D03*
X37480Y57400D02*
D03*
X35550Y53900D02*
D03*
Y57400D02*
D03*
X34900Y56000D02*
D03*
X34550Y57300D02*
D03*
X34350Y54900D02*
D03*
X34050Y57600D02*
D03*
X33400Y54347D02*
D03*
X33050Y57100D02*
D03*
X27900Y54300D02*
D03*
X27055Y52300D02*
D03*
X31550Y52250D02*
D03*
X31300Y50700D02*
D03*
X27080Y55800D02*
D03*
X27031Y54950D02*
D03*
X28037Y56600D02*
D03*
X135600Y32300D02*
D03*
X134700Y37400D02*
D03*
X134000Y36800D02*
D03*
X134305Y31100D02*
D03*
X134955Y29700D02*
D03*
X133423Y36300D02*
D03*
X127027Y37600D02*
D03*
X128100D02*
D03*
X154411Y36343D02*
D03*
X155700Y37600D02*
D03*
X155075Y36700D02*
D03*
X147600Y37100D02*
D03*
X148700Y46800D02*
D03*
Y48800D02*
D03*
X149351Y47600D02*
D03*
X149352Y49700D02*
D03*
X154400Y48100D02*
D03*
Y50100D02*
D03*
X148100Y50500D02*
D03*
X153800Y48100D02*
D03*
Y51000D02*
D03*
X173600Y19900D02*
D03*
X174000Y22400D02*
D03*
X171900Y24700D02*
D03*
X164250Y24900D02*
D03*
X174800Y49300D02*
D03*
X175411D02*
D03*
X169700Y49900D02*
D03*
X170318D02*
D03*
X170952D02*
D03*
X169048D02*
D03*
X170318Y50800D02*
D03*
X170952Y51600D02*
D03*
X175400Y52000D02*
D03*
X169682Y52400D02*
D03*
X169048Y52853D02*
D03*
X174800Y53300D02*
D03*
X177600Y30100D02*
D03*
X176700Y37100D02*
D03*
X176100Y36400D02*
D03*
X175400D02*
D03*
X169048Y36935D02*
D03*
X170100D02*
D03*
X127043Y58800D02*
D03*
X129300Y55500D02*
D03*
X124500Y56000D02*
D03*
X126500D02*
D03*
X125550Y56700D02*
D03*
X126500D02*
D03*
X128550Y57425D02*
D03*
Y54900D02*
D03*
X127000Y57580D02*
D03*
Y52943D02*
D03*
X127550Y58100D02*
D03*
X127662Y52200D02*
D03*
X141800Y62900D02*
D03*
X141400Y63730D02*
D03*
X140600Y60885D02*
D03*
X140100Y62500D02*
D03*
X139700Y63298D02*
D03*
X131300Y66625D02*
D03*
X132100Y65625D02*
D03*
X130500Y67600D02*
D03*
X129300Y69100D02*
D03*
X129700Y68600D02*
D03*
X130100Y68100D02*
D03*
X131700Y66125D02*
D03*
X130900Y67100D02*
D03*
X195200Y36935D02*
D03*
X198600Y30400D02*
D03*
X193925Y37000D02*
D03*
X197955Y29700D02*
D03*
X194600Y37600D02*
D03*
X197300Y30500D02*
D03*
X195100Y22500D02*
D03*
X194400Y25700D02*
D03*
X183352Y70310D02*
D03*
X184961Y68125D02*
D03*
X183200Y65053D02*
D03*
X181135Y66125D02*
D03*
X178700Y64143D02*
D03*
X178900Y70004D02*
D03*
X131722Y83125D02*
D03*
X137842Y76892D02*
D03*
X141400Y79400D02*
D03*
X138100Y81446D02*
D03*
X137137Y84675D02*
D03*
X142400Y81600D02*
D03*
X129859Y84379D02*
D03*
X141800Y76600D02*
D03*
X139929Y84475D02*
D03*
X133121Y81834D02*
D03*
X136878Y78700D02*
D03*
X140439Y81000D02*
D03*
X139773Y77700D02*
D03*
X141985Y83800D02*
D03*
X133821Y84400D02*
D03*
X130328Y73846D02*
D03*
X128945Y62200D02*
D03*
X125100Y63398D02*
D03*
X121557Y62300D02*
D03*
X126300Y66730D02*
D03*
X124600Y65725D02*
D03*
X7000Y82603D02*
D03*
X6100Y94910D02*
D03*
Y100900D02*
D03*
X8675Y92874D02*
D03*
Y95600D02*
D03*
Y98100D02*
D03*
Y100600D02*
D03*
Y103119D02*
D03*
Y105734D02*
D03*
Y111563D02*
D03*
X7100Y116223D02*
D03*
X16500Y112190D02*
D03*
X24775Y115321D02*
D03*
X33200Y112800D02*
D03*
X36841Y114900D02*
D03*
X50077Y108037D02*
D03*
X47400Y107446D02*
D03*
X183489Y104836D02*
D03*
X178823Y100335D02*
D03*
X175696Y101020D02*
D03*
X180443Y106125D02*
D03*
X176572Y105250D02*
D03*
X178188Y107200D02*
D03*
X170679Y105300D02*
D03*
X173200Y107446D02*
D03*
X164100Y106353D02*
D03*
X169337Y102425D02*
D03*
X166500Y104939D02*
D03*
X162105Y104390D02*
D03*
X163035Y102307D02*
D03*
X153840Y102300D02*
D03*
X144000D02*
D03*
X132725Y102475D02*
D03*
X126177Y102600D02*
D03*
X119400Y102400D02*
D03*
X113274Y102475D02*
D03*
X110869Y102425D02*
D03*
X118300Y106800D02*
D03*
X123654Y106633D02*
D03*
X113200Y109084D02*
D03*
X98946Y116223D02*
D03*
X100463Y117644D02*
D03*
X102900Y117531D02*
D03*
X105600Y115663D02*
D03*
X125793Y109200D02*
D03*
X127738Y109136D02*
D03*
X130822Y109367D02*
D03*
X125500Y106700D02*
D03*
X127500Y105975D02*
D03*
X133074Y106034D02*
D03*
X136921Y107110D02*
D03*
X137500Y104975D02*
D03*
X141090Y106094D02*
D03*
X143263Y105100D02*
D03*
X148200Y107900D02*
D03*
X150738Y105488D02*
D03*
X161075Y107868D02*
D03*
X157800D02*
D03*
X153400Y107841D02*
D03*
X154625Y110801D02*
D03*
X152100Y109500D02*
D03*
X170652Y116300D02*
D03*
X181015Y115409D02*
D03*
X184500Y109367D02*
D03*
X180674Y97652D02*
D03*
X184403Y90630D02*
D03*
X209234Y23000D02*
D03*
X209700Y32795D02*
D03*
X179000Y57700D02*
D03*
X184950Y57425D02*
D03*
X198800Y40800D02*
D03*
X204390Y19350D02*
D03*
X202800Y23233D02*
D03*
X40738Y77300D02*
D03*
X6200Y55300D02*
D03*
X10000Y73675D02*
D03*
X11900Y67600D02*
D03*
X17430Y68520D02*
D03*
X25319Y78000D02*
D03*
X11175Y77600D02*
D03*
X18042D02*
D03*
X22800Y73058D02*
D03*
X12934Y71700D02*
D03*
X16800Y70507D02*
D03*
X19516Y70700D02*
D03*
X18062Y72362D02*
D03*
X39200Y60601D02*
D03*
X31994Y62150D02*
D03*
X27578Y63300D02*
D03*
X24725Y66950D02*
D03*
X27412Y65499D02*
D03*
X29811Y67750D02*
D03*
X28070Y76675D02*
D03*
X32137Y76600D02*
D03*
X37500Y76500D02*
D03*
X39151Y75691D02*
D03*
X41667Y81494D02*
D03*
X31050Y88616D02*
D03*
X38623Y88800D02*
D03*
X44636Y88300D02*
D03*
X38792Y81800D02*
D03*
X37023Y82900D02*
D03*
X38081Y93300D02*
D03*
X39559Y94960D02*
D03*
X40000Y96848D02*
D03*
X40750Y98449D02*
D03*
X36900Y99000D02*
D03*
X37073Y95815D02*
D03*
X32200Y106513D02*
D03*
X31936Y93567D02*
D03*
X24800Y90101D02*
D03*
X18900Y88427D02*
D03*
X12800Y89400D02*
D03*
X13075Y85326D02*
D03*
X18114Y82975D02*
D03*
X18300Y84729D02*
D03*
X21800Y84759D02*
D03*
X20050Y82963D02*
D03*
X17370Y81300D02*
D03*
X8000Y89112D02*
D03*
X16000Y89975D02*
D03*
X19445Y93000D02*
D03*
X17190Y97000D02*
D03*
X21025Y98153D02*
D03*
X17977Y108200D02*
D03*
X194850Y66950D02*
D03*
X183650Y111625D02*
D03*
X184058Y111217D02*
D03*
X168527Y106700D02*
D03*
X167950D02*
D03*
X129812Y118377D02*
D03*
X110575Y118675D02*
D03*
X118775Y118850D02*
D03*
X96500Y101777D02*
D03*
X98500Y99862D02*
D03*
Y100439D02*
D03*
X96500Y101200D02*
D03*
X180541Y111400D02*
D03*
X171700Y108200D02*
D03*
X162853Y107825D02*
D03*
X149350Y115475D02*
D03*
X190200Y81600D02*
D03*
X105400Y117458D02*
D03*
X146700Y105500D02*
D03*
X182300Y121700D02*
D03*
X64000Y117400D02*
D03*
X43800Y129986D02*
D03*
X64000Y116800D02*
D03*
X43223Y129986D02*
D03*
X63000Y116188D02*
D03*
X42250Y130000D02*
D03*
X63000Y115612D02*
D03*
X41673Y130000D02*
D03*
X62800Y119796D02*
D03*
X46223Y130000D02*
D03*
X62800Y120373D02*
D03*
X46800Y130000D02*
D03*
X45300D02*
D03*
X63000Y118589D02*
D03*
X44723Y130000D02*
D03*
X63000Y118011D02*
D03*
X23300Y129961D02*
D03*
X65446Y104175D02*
D03*
X22723Y129961D02*
D03*
X27700Y129986D02*
D03*
X67500Y107783D02*
D03*
X27123Y129986D02*
D03*
X66700Y106575D02*
D03*
X26250Y129961D02*
D03*
X25673D02*
D03*
X125885Y116900D02*
D03*
X100800Y108800D02*
D03*
X40123Y130000D02*
D03*
X40700D02*
D03*
X64000Y114989D02*
D03*
Y114411D02*
D03*
X15600Y84400D02*
D03*
X19653Y82200D02*
D03*
X24900D02*
D03*
X29550D02*
D03*
X33850Y81700D02*
D03*
Y83125D02*
D03*
X45750Y104175D02*
D03*
X46700Y103487D02*
D03*
X48025Y103600D02*
D03*
X48830Y102800D02*
D03*
X153200Y111900D02*
D03*
X147900Y106475D02*
D03*
X146700Y107900D02*
D03*
Y106475D02*
D03*
X145005Y108000D02*
D03*
X142050Y107700D02*
D03*
X139425Y107964D02*
D03*
X143400Y106475D02*
D03*
X143950Y105500D02*
D03*
X106450Y108800D02*
D03*
X94593Y113000D02*
D03*
X93900Y111960D02*
D03*
X90225Y111400D02*
D03*
X28752Y133300D02*
D03*
X34015Y132400D02*
D03*
X64800Y102975D02*
D03*
X21219Y129948D02*
D03*
X21796D02*
D03*
X66100Y105375D02*
D03*
X24223Y129962D02*
D03*
X24800D02*
D03*
X38275Y104915D02*
D03*
X100015Y108800D02*
D03*
X153675Y70450D02*
D03*
X127300Y73600D02*
D03*
X126050Y65100D02*
D03*
X86495Y99800D02*
D03*
Y101200D02*
D03*
Y97400D02*
D03*
Y98600D02*
D03*
X90225Y113200D02*
D03*
X90200Y112120D02*
D03*
X38800Y105625D02*
D03*
X87600Y106500D02*
D03*
X123400Y117449D02*
D03*
X128800Y116498D02*
D03*
X88400Y104500D02*
D03*
X89050Y116499D02*
D03*
X93000Y120400D02*
D03*
X119520Y106700D02*
D03*
X111825Y108100D02*
D03*
X154918Y105400D02*
D03*
X156200Y105200D02*
D03*
X159200Y105000D02*
D03*
X165420Y107700D02*
D03*
X130200Y112120D02*
D03*
X111800Y83020D02*
D03*
X131400Y107800D02*
D03*
X130550Y115800D02*
D03*
X131400Y116300D02*
D03*
X130200Y107825D02*
D03*
X124600Y106879D02*
D03*
X100600Y107000D02*
D03*
X121115Y103625D02*
D03*
X98600Y103600D02*
D03*
X94425Y102975D02*
D03*
X122800Y105840D02*
D03*
X94425Y104000D02*
D03*
X95600Y123270D02*
D03*
X87600Y121600D02*
D03*
X37200Y105625D02*
D03*
X99400Y115200D02*
D03*
X107600Y106725D02*
D03*
X105700Y108800D02*
D03*
X104800D02*
D03*
X104000D02*
D03*
X103226D02*
D03*
X102400D02*
D03*
X90200Y110800D02*
D03*
X90225Y110100D02*
D03*
X90200Y109425D02*
D03*
X99217Y119825D02*
D03*
X98000D02*
D03*
X99217Y117700D02*
D03*
X98000D02*
D03*
X99200Y108800D02*
D03*
X98400D02*
D03*
X97600D02*
D03*
X36300Y73089D02*
D03*
X28825Y73950D02*
D03*
X91404Y116300D02*
D03*
X95925Y120500D02*
D03*
X96650Y121675D02*
D03*
X93561Y114675D02*
D03*
X94704Y118900D02*
D03*
X83125Y120175D02*
D03*
X80425Y120200D02*
D03*
X197750Y83125D02*
D03*
Y85025D02*
D03*
X93600Y107825D02*
D03*
X96750Y114075D02*
D03*
X94425D02*
D03*
X126050Y69475D02*
D03*
X16400Y65100D02*
D03*
Y66215D02*
D03*
X29000Y69350D02*
D03*
M02*
