G04*
G04 #@! TF.GenerationSoftware,Altium Limited,Altium Designer,19.0.15 (446)*
G04*
G04 Layer_Color=8421504*
%FSLAX43Y43*%
%MOMM*%
G71*
G01*
G75*
%ADD22R,0.279X1.462*%
%ADD23R,1.930X5.334*%
%ADD24R,5.334X1.930*%
%ADD25R,0.600X0.900*%
%ADD26R,0.900X0.600*%
%ADD27R,0.950X0.700*%
%ADD28R,1.462X0.279*%
%ADD29R,0.600X1.300*%
%ADD30R,0.600X0.200*%
%ADD31R,1.200X0.600*%
%ADD32R,0.600X1.200*%
%ADD33R,1.803X1.397*%
%ADD34R,1.397X1.905*%
%ADD35R,0.813X1.499*%
%ADD36R,0.600X0.420*%
G04:AMPARAMS|DCode=37|XSize=1.4mm|YSize=0.3mm|CornerRadius=0.075mm|HoleSize=0mm|Usage=FLASHONLY|Rotation=90.000|XOffset=0mm|YOffset=0mm|HoleType=Round|Shape=RoundedRectangle|*
%AMROUNDEDRECTD37*
21,1,1.400,0.150,0,0,90.0*
21,1,1.250,0.300,0,0,90.0*
1,1,0.150,0.075,0.625*
1,1,0.150,0.075,-0.625*
1,1,0.150,-0.075,-0.625*
1,1,0.150,-0.075,0.625*
%
%ADD37ROUNDEDRECTD37*%
%ADD38R,0.300X1.550*%
%ADD39O,0.400X1.550*%
%ADD40R,1.100X0.600*%
%ADD41C,2.000*%
%ADD42R,0.700X0.200*%
%ADD43R,2.200X1.050*%
%ADD44R,1.050X1.000*%
%ADD45R,1.250X1.100*%
%ADD46R,0.800X0.800*%
%ADD47R,2.200X2.000*%
%ADD48R,1.300X0.700*%
G04:AMPARAMS|DCode=49|XSize=1.56mm|YSize=0.28mm|CornerRadius=0.035mm|HoleSize=0mm|Usage=FLASHONLY|Rotation=0.000|XOffset=0mm|YOffset=0mm|HoleType=Round|Shape=RoundedRectangle|*
%AMROUNDEDRECTD49*
21,1,1.560,0.210,0,0,0.0*
21,1,1.490,0.280,0,0,0.0*
1,1,0.070,0.745,-0.105*
1,1,0.070,-0.745,-0.105*
1,1,0.070,-0.745,0.105*
1,1,0.070,0.745,0.105*
%
%ADD49ROUNDEDRECTD49*%
G04:AMPARAMS|DCode=50|XSize=1.56mm|YSize=0.28mm|CornerRadius=0.035mm|HoleSize=0mm|Usage=FLASHONLY|Rotation=90.000|XOffset=0mm|YOffset=0mm|HoleType=Round|Shape=RoundedRectangle|*
%AMROUNDEDRECTD50*
21,1,1.560,0.210,0,0,90.0*
21,1,1.490,0.280,0,0,90.0*
1,1,0.070,0.105,0.745*
1,1,0.070,0.105,-0.745*
1,1,0.070,-0.105,-0.745*
1,1,0.070,-0.105,0.745*
%
%ADD50ROUNDEDRECTD50*%
%ADD51R,0.800X1.500*%
%ADD52R,0.400X1.500*%
%ADD53R,0.530X1.980*%
%ADD54O,0.530X1.980*%
%ADD55R,1.640X1.400*%
%ADD56R,2.600X0.300*%
%ADD57R,0.600X1.000*%
%ADD58R,0.800X0.550*%
%ADD59R,0.600X0.300*%
%ADD60R,0.300X0.600*%
%ADD61R,0.305X0.457*%
%ADD62R,0.457X0.305*%
%ADD63R,0.300X0.300*%
%ADD64R,0.300X0.300*%
%ADD65R,1.150X0.600*%
%ADD66R,1.150X0.450*%
%ADD67R,0.800X0.800*%
%ADD68R,0.700X0.420*%
%ADD69R,1.710X2.370*%
%ADD70R,1.500X1.000*%
%ADD71R,2.600X2.400*%
%ADD72R,2.200X1.000*%
%ADD73R,2.350X5.100*%
%ADD74R,1.505X0.802*%
%ADD75R,2.613X3.502*%
G04:AMPARAMS|DCode=76|XSize=1.12mm|YSize=0.27mm|CornerRadius=0.034mm|HoleSize=0mm|Usage=FLASHONLY|Rotation=180.000|XOffset=0mm|YOffset=0mm|HoleType=Round|Shape=RoundedRectangle|*
%AMROUNDEDRECTD76*
21,1,1.120,0.203,0,0,180.0*
21,1,1.053,0.270,0,0,180.0*
1,1,0.068,-0.526,0.101*
1,1,0.068,0.526,0.101*
1,1,0.068,0.526,-0.101*
1,1,0.068,-0.526,-0.101*
%
%ADD76ROUNDEDRECTD76*%
%ADD77R,1.981X0.559*%
%ADD78R,2.500X1.200*%
%ADD79O,2.500X1.200*%
%ADD80R,0.808X0.225*%
%ADD81R,0.225X0.808*%
%ADD82R,0.025X0.025*%
G36*
X94070Y133874D02*
X94544Y133738D01*
X94988Y133524D01*
X95390Y133239D01*
X95739Y132890D01*
X96024Y132488D01*
X96238Y132044D01*
X96374Y131570D01*
X96402Y131325D01*
X95372D01*
X95342Y131467D01*
X95249Y131743D01*
X95115Y132002D01*
X94943Y132237D01*
X94737Y132442D01*
X94502Y132614D01*
X94244Y132748D01*
X93968Y132842D01*
X93825Y132872D01*
X93825D01*
Y133902D01*
X94070Y133874D01*
D02*
G37*
G36*
X93175Y132872D02*
X93033Y132842D01*
X92757Y132749D01*
X92498Y132615D01*
X92263Y132443D01*
X92058Y132237D01*
X91886Y132002D01*
X91752Y131744D01*
X91658Y131468D01*
X91628Y131325D01*
X91628D01*
Y131325D01*
X90598D01*
X90626Y131570D01*
X90762Y132044D01*
X90976Y132488D01*
X91261Y132890D01*
X91610Y133239D01*
X92012Y133524D01*
X92456Y133738D01*
X92930Y133874D01*
X93175Y133902D01*
X93175D01*
Y132872D01*
D02*
G37*
G36*
X61070Y133874D02*
X61544Y133738D01*
X61988Y133524D01*
X62390Y133239D01*
X62739Y132890D01*
X63024Y132488D01*
X63238Y132044D01*
X63374Y131570D01*
X63402Y131325D01*
X62372D01*
X62342Y131467D01*
X62249Y131743D01*
X62115Y132002D01*
X61943Y132237D01*
X61737Y132442D01*
X61502Y132614D01*
X61244Y132748D01*
X60968Y132842D01*
X60825Y132872D01*
X60825D01*
Y133902D01*
X61070Y133874D01*
D02*
G37*
G36*
X60175Y132872D02*
X60033Y132842D01*
X59757Y132749D01*
X59498Y132615D01*
X59263Y132443D01*
X59058Y132237D01*
X58886Y132002D01*
X58752Y131744D01*
X58658Y131468D01*
X58628Y131325D01*
X58628D01*
Y131325D01*
X57598D01*
X57626Y131570D01*
X57762Y132044D01*
X57976Y132488D01*
X58261Y132890D01*
X58610Y133239D01*
X59012Y133524D01*
X59456Y133738D01*
X59930Y133874D01*
X60175Y133902D01*
X60175D01*
Y132872D01*
D02*
G37*
G36*
X96402Y130675D02*
X96374Y130430D01*
X96238Y129956D01*
X96024Y129512D01*
X95739Y129110D01*
X95390Y128761D01*
X94988Y128476D01*
X94544Y128262D01*
X94070Y128126D01*
X93825Y128098D01*
Y128098D01*
Y129128D01*
X93967Y129158D01*
X94243Y129251D01*
X94502Y129385D01*
X94737Y129557D01*
X94942Y129763D01*
X95114Y129998D01*
X95248Y130256D01*
X95342Y130532D01*
X95372Y130675D01*
Y130675D01*
Y130675D01*
X96402Y130675D01*
D02*
G37*
G36*
X91658Y130533D02*
X91751Y130257D01*
X91885Y129998D01*
X92057Y129763D01*
X92263Y129558D01*
X92498Y129386D01*
X92756Y129252D01*
X93032Y129158D01*
X93175Y129128D01*
X93175Y129128D01*
X93175D01*
X93175Y128098D01*
X92930Y128126D01*
X92456Y128262D01*
X92012Y128476D01*
X91610Y128761D01*
X91261Y129110D01*
X90976Y129512D01*
X90762Y129956D01*
X90626Y130430D01*
X90598Y130675D01*
X90598Y130675D01*
X91628D01*
X91658Y130533D01*
D02*
G37*
G36*
X63402Y130675D02*
X63374Y130430D01*
X63238Y129956D01*
X63024Y129512D01*
X62739Y129110D01*
X62390Y128761D01*
X61988Y128476D01*
X61544Y128262D01*
X61070Y128126D01*
X60825Y128098D01*
Y128098D01*
Y129128D01*
X60967Y129158D01*
X61243Y129251D01*
X61502Y129385D01*
X61737Y129557D01*
X61942Y129763D01*
X62114Y129998D01*
X62248Y130256D01*
X62342Y130532D01*
X62372Y130675D01*
Y130675D01*
Y130675D01*
X63402Y130675D01*
D02*
G37*
G36*
X58658Y130533D02*
X58751Y130257D01*
X58885Y129998D01*
X59057Y129763D01*
X59263Y129558D01*
X59498Y129386D01*
X59756Y129252D01*
X60032Y129158D01*
X60175Y129128D01*
X60175Y129128D01*
X60175D01*
X60175Y128098D01*
X59930Y128126D01*
X59456Y128262D01*
X59012Y128476D01*
X58610Y128761D01*
X58261Y129110D01*
X57976Y129512D01*
X57762Y129956D01*
X57626Y130430D01*
X57598Y130675D01*
X57598Y130675D01*
X58628D01*
X58658Y130533D01*
D02*
G37*
G36*
X40155Y101095D02*
X37895D01*
Y103355D01*
X40155D01*
Y101095D01*
D02*
G37*
G36*
X94070Y85874D02*
X94544Y85738D01*
X94988Y85524D01*
X95390Y85239D01*
X95739Y84890D01*
X96024Y84488D01*
X96238Y84044D01*
X96374Y83570D01*
X96402Y83325D01*
X95372D01*
X95342Y83467D01*
X95249Y83743D01*
X95115Y84002D01*
X94943Y84237D01*
X94737Y84442D01*
X94502Y84614D01*
X94244Y84748D01*
X93968Y84842D01*
X93825Y84872D01*
X93825D01*
Y85902D01*
X94070Y85874D01*
D02*
G37*
G36*
X93175Y84872D02*
X93033Y84842D01*
X92757Y84749D01*
X92498Y84615D01*
X92263Y84443D01*
X92058Y84237D01*
X91886Y84002D01*
X91752Y83744D01*
X91658Y83468D01*
X91628Y83325D01*
X91628D01*
Y83325D01*
X90598D01*
X90626Y83570D01*
X90762Y84044D01*
X90976Y84488D01*
X91261Y84890D01*
X91610Y85239D01*
X92012Y85524D01*
X92456Y85738D01*
X92930Y85874D01*
X93175Y85902D01*
X93175D01*
Y84872D01*
D02*
G37*
G36*
X61070Y85874D02*
X61544Y85738D01*
X61988Y85524D01*
X62390Y85239D01*
X62739Y84890D01*
X63024Y84488D01*
X63238Y84044D01*
X63374Y83570D01*
X63402Y83325D01*
X62372D01*
X62342Y83467D01*
X62249Y83743D01*
X62115Y84002D01*
X61943Y84237D01*
X61737Y84442D01*
X61502Y84614D01*
X61244Y84748D01*
X60968Y84842D01*
X60825Y84872D01*
X60825D01*
Y85902D01*
X61070Y85874D01*
D02*
G37*
G36*
X60175Y84872D02*
X60033Y84842D01*
X59757Y84749D01*
X59498Y84615D01*
X59263Y84443D01*
X59058Y84237D01*
X58886Y84002D01*
X58752Y83744D01*
X58658Y83468D01*
X58628Y83325D01*
X58628D01*
Y83325D01*
X57598D01*
X57626Y83570D01*
X57762Y84044D01*
X57976Y84488D01*
X58261Y84890D01*
X58610Y85239D01*
X59012Y85524D01*
X59456Y85738D01*
X59930Y85874D01*
X60175Y85902D01*
X60175D01*
Y84872D01*
D02*
G37*
G36*
X96402Y82675D02*
X96374Y82430D01*
X96238Y81956D01*
X96024Y81512D01*
X95739Y81110D01*
X95390Y80761D01*
X94988Y80476D01*
X94544Y80262D01*
X94070Y80126D01*
X93825Y80098D01*
Y80098D01*
Y81128D01*
X93967Y81158D01*
X94243Y81251D01*
X94502Y81385D01*
X94737Y81557D01*
X94942Y81763D01*
X95114Y81998D01*
X95248Y82256D01*
X95342Y82532D01*
X95372Y82675D01*
Y82675D01*
Y82675D01*
X96402Y82675D01*
D02*
G37*
G36*
X91658Y82533D02*
X91751Y82257D01*
X91885Y81998D01*
X92057Y81763D01*
X92263Y81558D01*
X92498Y81386D01*
X92756Y81252D01*
X93032Y81158D01*
X93175Y81128D01*
X93175Y81128D01*
X93175D01*
X93175Y80098D01*
X92930Y80126D01*
X92456Y80262D01*
X92012Y80476D01*
X91610Y80761D01*
X91261Y81110D01*
X90976Y81512D01*
X90762Y81956D01*
X90626Y82430D01*
X90598Y82675D01*
X90598Y82675D01*
X91628D01*
X91658Y82533D01*
D02*
G37*
G36*
X63402Y82675D02*
X63374Y82430D01*
X63238Y81956D01*
X63024Y81512D01*
X62739Y81110D01*
X62390Y80761D01*
X61988Y80476D01*
X61544Y80262D01*
X61070Y80126D01*
X60825Y80098D01*
Y80098D01*
Y81128D01*
X60967Y81158D01*
X61243Y81251D01*
X61502Y81385D01*
X61737Y81557D01*
X61942Y81763D01*
X62114Y81998D01*
X62248Y82256D01*
X62342Y82532D01*
X62372Y82675D01*
Y82675D01*
Y82675D01*
X63402Y82675D01*
D02*
G37*
G36*
X58658Y82533D02*
X58751Y82257D01*
X58885Y81998D01*
X59057Y81763D01*
X59263Y81558D01*
X59498Y81386D01*
X59756Y81252D01*
X60032Y81158D01*
X60175Y81128D01*
X60175Y81128D01*
X60175D01*
X60175Y80098D01*
X59930Y80126D01*
X59456Y80262D01*
X59012Y80476D01*
X58610Y80761D01*
X58261Y81110D01*
X57976Y81512D01*
X57762Y81956D01*
X57626Y82430D01*
X57598Y82675D01*
X57598Y82675D01*
X58628D01*
X58658Y82533D01*
D02*
G37*
D22*
X73662Y70185D02*
D03*
X74162D02*
D03*
X80662Y58958D02*
D03*
X80162D02*
D03*
X79662D02*
D03*
X79162D02*
D03*
X78662D02*
D03*
X78162D02*
D03*
X77662D02*
D03*
X77162D02*
D03*
X76662D02*
D03*
X76162D02*
D03*
X75662D02*
D03*
X75162D02*
D03*
X74662D02*
D03*
X74162D02*
D03*
X73662D02*
D03*
X73162D02*
D03*
Y70185D02*
D03*
X74662D02*
D03*
X75162D02*
D03*
X75662D02*
D03*
X76162D02*
D03*
X76662D02*
D03*
X77162D02*
D03*
X77662D02*
D03*
X78162D02*
D03*
X78662D02*
D03*
X79162D02*
D03*
X79662D02*
D03*
X80162D02*
D03*
X80662D02*
D03*
D23*
X92950Y60299D02*
D03*
Y69951D02*
D03*
D24*
X13198Y75925D02*
D03*
X22850D02*
D03*
X119726Y75700D02*
D03*
X110074D02*
D03*
D25*
X66527Y59643D02*
D03*
X65027D02*
D03*
X66527Y61086D02*
D03*
X65027D02*
D03*
X66527Y62529D02*
D03*
X65027D02*
D03*
X66527Y63972D02*
D03*
X65027D02*
D03*
X66527Y65414D02*
D03*
X65027D02*
D03*
X66527Y66857D02*
D03*
X65027D02*
D03*
X66527Y68300D02*
D03*
X65027D02*
D03*
X87021Y63375D02*
D03*
X85521D02*
D03*
X111875Y72100D02*
D03*
X110375D02*
D03*
X117950D02*
D03*
X119450D02*
D03*
X15250Y71700D02*
D03*
X13750D02*
D03*
X21550D02*
D03*
X23050D02*
D03*
X179050Y26400D02*
D03*
X180550D02*
D03*
X185150Y26500D02*
D03*
X183650D02*
D03*
X164150Y26700D02*
D03*
X162650D02*
D03*
X158050D02*
D03*
X159550D02*
D03*
X143050D02*
D03*
X141550D02*
D03*
X136950Y26600D02*
D03*
X138450D02*
D03*
X122450D02*
D03*
X120950D02*
D03*
X116050D02*
D03*
X117550D02*
D03*
X81429Y26589D02*
D03*
X79929D02*
D03*
X75150Y26605D02*
D03*
X76650D02*
D03*
X60450Y26550D02*
D03*
X58950D02*
D03*
X54150D02*
D03*
X55650D02*
D03*
X39210Y26600D02*
D03*
X37710D02*
D03*
X33050Y26577D02*
D03*
X34550D02*
D03*
X12050Y26600D02*
D03*
X13550D02*
D03*
X18196Y26589D02*
D03*
X16696D02*
D03*
X106050Y50800D02*
D03*
X104550D02*
D03*
X102521D02*
D03*
X101021D02*
D03*
X106050Y57000D02*
D03*
X104550D02*
D03*
X102550D02*
D03*
X101050D02*
D03*
X106050Y55600D02*
D03*
X104550D02*
D03*
X102533D02*
D03*
X101033D02*
D03*
X142825Y66601D02*
D03*
X144325D02*
D03*
X142825Y69141D02*
D03*
X144325D02*
D03*
X137925Y71608D02*
D03*
X139425D02*
D03*
X137925Y74148D02*
D03*
X139425D02*
D03*
X142825Y76761D02*
D03*
X144325D02*
D03*
X142825Y79301D02*
D03*
X144325D02*
D03*
X185153Y27950D02*
D03*
X183653D02*
D03*
X185550Y30650D02*
D03*
X187050D02*
D03*
X182849Y27950D02*
D03*
X181349D02*
D03*
X180550D02*
D03*
X179050D02*
D03*
X164250Y28000D02*
D03*
X162750D02*
D03*
X164575Y30800D02*
D03*
X166075D02*
D03*
X161850Y28000D02*
D03*
X160350D02*
D03*
X159550D02*
D03*
X158050D02*
D03*
X143050Y27950D02*
D03*
X141550D02*
D03*
X143445Y30800D02*
D03*
X144945D02*
D03*
X140750Y27950D02*
D03*
X139250D02*
D03*
X138450D02*
D03*
X136950D02*
D03*
X122450Y27900D02*
D03*
X120950D02*
D03*
X122710Y30800D02*
D03*
X124210D02*
D03*
X119950Y27900D02*
D03*
X118450D02*
D03*
X117550D02*
D03*
X116050D02*
D03*
X81429Y28000D02*
D03*
X79929D02*
D03*
X81750Y30800D02*
D03*
X83250D02*
D03*
X78950Y28000D02*
D03*
X77450D02*
D03*
X76550D02*
D03*
X75050D02*
D03*
X60450Y27900D02*
D03*
X58950D02*
D03*
X60650Y30800D02*
D03*
X62150D02*
D03*
X58050Y27900D02*
D03*
X56550D02*
D03*
X55650D02*
D03*
X54150D02*
D03*
X39210Y28000D02*
D03*
X37710D02*
D03*
X39750Y30800D02*
D03*
X41250D02*
D03*
X36850Y28000D02*
D03*
X35350D02*
D03*
X34522Y28000D02*
D03*
X33022D02*
D03*
X18196Y28000D02*
D03*
X16696D02*
D03*
X18450Y30800D02*
D03*
X19950D02*
D03*
X15850Y28000D02*
D03*
X14350D02*
D03*
X13522Y28000D02*
D03*
X12022D02*
D03*
X13350Y68000D02*
D03*
X14850D02*
D03*
X13350Y70000D02*
D03*
X14850D02*
D03*
Y62300D02*
D03*
X13350D02*
D03*
X109850Y67110D02*
D03*
X111350D02*
D03*
X109860Y68997D02*
D03*
X111360D02*
D03*
X111860Y60920D02*
D03*
X110360D02*
D03*
X182550Y69101D02*
D03*
X184050D02*
D03*
X187825Y69101D02*
D03*
X186325D02*
D03*
X85531Y60662D02*
D03*
X87031D02*
D03*
X182529Y63625D02*
D03*
X184029D02*
D03*
X187900D02*
D03*
X186400D02*
D03*
X42850Y78200D02*
D03*
X44350D02*
D03*
X45355D02*
D03*
X46855D02*
D03*
X87031Y59162D02*
D03*
X85531D02*
D03*
X87031Y57662D02*
D03*
X85531D02*
D03*
X52550Y102000D02*
D03*
X54050D02*
D03*
X55313Y97500D02*
D03*
X53813D02*
D03*
X54050Y100050D02*
D03*
X52550D02*
D03*
X87000Y62018D02*
D03*
X85500D02*
D03*
X65050Y58200D02*
D03*
X66550D02*
D03*
X87021Y66821D02*
D03*
X85521D02*
D03*
X87021Y68085D02*
D03*
X85521D02*
D03*
X87000Y71975D02*
D03*
X85500D02*
D03*
X87000Y69363D02*
D03*
X85500D02*
D03*
X87000Y70675D02*
D03*
X85500D02*
D03*
X22481Y87850D02*
D03*
X20981D02*
D03*
X27656Y82225D02*
D03*
X26156D02*
D03*
X27631Y87225D02*
D03*
X26131D02*
D03*
X170303Y123475D02*
D03*
X171803D02*
D03*
X170303Y121975D02*
D03*
X171803D02*
D03*
X167650Y120700D02*
D03*
X166150D02*
D03*
X163799Y61175D02*
D03*
X165299D02*
D03*
Y59100D02*
D03*
X163799D02*
D03*
X160675Y64675D02*
D03*
X162175D02*
D03*
X164925Y64675D02*
D03*
X166425D02*
D03*
X160675Y75577D02*
D03*
X162175D02*
D03*
X164925D02*
D03*
X166425D02*
D03*
X142600Y112120D02*
D03*
X141100D02*
D03*
X139350D02*
D03*
X137850D02*
D03*
X7175Y91720D02*
D03*
X8675D02*
D03*
X7175Y94260D02*
D03*
X8675D02*
D03*
X7175Y96800D02*
D03*
X8675D02*
D03*
X7175Y99340D02*
D03*
X8675D02*
D03*
X7175Y101880D02*
D03*
X8675D02*
D03*
X7175Y104420D02*
D03*
X8675D02*
D03*
X7175Y106960D02*
D03*
X8675D02*
D03*
X7175Y109500D02*
D03*
X8675D02*
D03*
X18750Y89900D02*
D03*
X20250D02*
D03*
X23750D02*
D03*
X22250D02*
D03*
X157250Y126200D02*
D03*
X158750D02*
D03*
X157250Y124900D02*
D03*
X158750D02*
D03*
X157250Y133925D02*
D03*
X158750D02*
D03*
X157250Y132675D02*
D03*
X158750D02*
D03*
X157250Y131400D02*
D03*
X158750D02*
D03*
X135250Y123400D02*
D03*
X136750D02*
D03*
X135250Y131325D02*
D03*
X136750D02*
D03*
X135250Y129325D02*
D03*
X136750D02*
D03*
X135250Y127325D02*
D03*
X136750D02*
D03*
X135250Y125450D02*
D03*
X136750D02*
D03*
X157250Y127500D02*
D03*
X158750D02*
D03*
X157250Y130100D02*
D03*
X158750D02*
D03*
X157250Y128800D02*
D03*
X158750D02*
D03*
X211250Y96000D02*
D03*
X209750D02*
D03*
X191661Y106462D02*
D03*
X193161D02*
D03*
X203475Y32795D02*
D03*
X201975D02*
D03*
X203475Y26075D02*
D03*
X201975D02*
D03*
X203475Y27525D02*
D03*
X201975D02*
D03*
X186050Y129850D02*
D03*
X187550D02*
D03*
X191550Y127475D02*
D03*
X190050D02*
D03*
D26*
X84013Y71136D02*
D03*
Y72636D02*
D03*
X139400Y25050D02*
D03*
X140650D02*
D03*
X160600Y25150D02*
D03*
X161800D02*
D03*
X185227Y41469D02*
D03*
Y42969D02*
D03*
X185400Y36750D02*
D03*
Y38250D02*
D03*
Y47750D02*
D03*
Y46250D02*
D03*
X183920Y41450D02*
D03*
Y42950D02*
D03*
X186700Y36250D02*
D03*
Y37750D02*
D03*
X186678Y46250D02*
D03*
Y47750D02*
D03*
X190525Y36250D02*
D03*
Y37750D02*
D03*
X190500Y46250D02*
D03*
Y47750D02*
D03*
X196488Y36450D02*
D03*
Y37950D02*
D03*
Y46250D02*
D03*
Y47750D02*
D03*
X192350Y36250D02*
D03*
Y37750D02*
D03*
Y46250D02*
D03*
Y47750D02*
D03*
X165375Y41450D02*
D03*
Y42950D02*
D03*
X164500Y38250D02*
D03*
Y36750D02*
D03*
Y47750D02*
D03*
Y46250D02*
D03*
X166619Y41450D02*
D03*
Y42950D02*
D03*
X168100Y36250D02*
D03*
Y37750D02*
D03*
Y46250D02*
D03*
Y47750D02*
D03*
X171900Y36250D02*
D03*
Y37750D02*
D03*
X171800Y46250D02*
D03*
Y47750D02*
D03*
X177700Y36250D02*
D03*
Y37750D02*
D03*
Y46250D02*
D03*
Y47750D02*
D03*
X173800Y36250D02*
D03*
Y37750D02*
D03*
Y46250D02*
D03*
Y47750D02*
D03*
X143700Y41450D02*
D03*
Y42950D02*
D03*
X144325Y38488D02*
D03*
Y36988D02*
D03*
X143418Y45950D02*
D03*
Y44450D02*
D03*
X145005Y41450D02*
D03*
Y42950D02*
D03*
X146400Y36250D02*
D03*
Y37750D02*
D03*
X146273Y46250D02*
D03*
Y47750D02*
D03*
X150875Y36250D02*
D03*
Y37750D02*
D03*
X150300Y46250D02*
D03*
Y47750D02*
D03*
X156700Y36250D02*
D03*
Y37750D02*
D03*
X156600Y46250D02*
D03*
Y47750D02*
D03*
X152300Y36250D02*
D03*
Y37750D02*
D03*
X152800Y46250D02*
D03*
Y47750D02*
D03*
X123200Y41450D02*
D03*
Y42950D02*
D03*
X122700Y38488D02*
D03*
Y36988D02*
D03*
Y47812D02*
D03*
Y46312D02*
D03*
X124500Y41450D02*
D03*
Y42950D02*
D03*
X126000Y36250D02*
D03*
Y37750D02*
D03*
Y46250D02*
D03*
Y47750D02*
D03*
X129900Y36250D02*
D03*
Y37750D02*
D03*
X129859Y46250D02*
D03*
Y47750D02*
D03*
X135700Y36250D02*
D03*
Y37750D02*
D03*
X135327Y47749D02*
D03*
Y46249D02*
D03*
X131900Y36250D02*
D03*
Y37750D02*
D03*
X131850Y46250D02*
D03*
Y47750D02*
D03*
X82400Y41250D02*
D03*
Y42750D02*
D03*
X81429Y38550D02*
D03*
Y37050D02*
D03*
X81417Y47750D02*
D03*
Y46250D02*
D03*
X83700Y41250D02*
D03*
Y42750D02*
D03*
X85100Y36250D02*
D03*
Y37750D02*
D03*
X85000Y46250D02*
D03*
Y47750D02*
D03*
X88900Y36250D02*
D03*
Y37750D02*
D03*
Y46250D02*
D03*
Y47750D02*
D03*
X94960Y35820D02*
D03*
Y37320D02*
D03*
X94625Y46250D02*
D03*
Y47750D02*
D03*
X90800Y36250D02*
D03*
Y37750D02*
D03*
Y46250D02*
D03*
Y47750D02*
D03*
X61300Y41250D02*
D03*
Y42750D02*
D03*
X60300Y38350D02*
D03*
Y36850D02*
D03*
X60500Y47750D02*
D03*
Y46250D02*
D03*
X62600Y41250D02*
D03*
Y42750D02*
D03*
X64100Y36250D02*
D03*
Y37750D02*
D03*
X64000Y46250D02*
D03*
Y47750D02*
D03*
X67900Y36250D02*
D03*
Y37750D02*
D03*
X67900Y46250D02*
D03*
Y47750D02*
D03*
X73700Y36250D02*
D03*
Y37750D02*
D03*
X73600Y46250D02*
D03*
Y47750D02*
D03*
X69900Y36250D02*
D03*
Y37750D02*
D03*
X69800Y46250D02*
D03*
Y47750D02*
D03*
X40300Y41250D02*
D03*
Y42750D02*
D03*
X39400Y38550D02*
D03*
Y37050D02*
D03*
X39700Y47812D02*
D03*
Y46312D02*
D03*
X41600Y41250D02*
D03*
Y42750D02*
D03*
X43000Y36250D02*
D03*
Y37750D02*
D03*
Y46250D02*
D03*
Y47750D02*
D03*
X46900Y36250D02*
D03*
Y37750D02*
D03*
Y46250D02*
D03*
Y47750D02*
D03*
X52700Y36078D02*
D03*
Y37578D02*
D03*
Y46150D02*
D03*
Y47650D02*
D03*
X48830Y36250D02*
D03*
Y37750D02*
D03*
X48889Y46250D02*
D03*
Y47750D02*
D03*
X19445Y41250D02*
D03*
Y42750D02*
D03*
X18400Y38450D02*
D03*
Y36950D02*
D03*
Y47750D02*
D03*
Y46250D02*
D03*
X20700Y41250D02*
D03*
Y42750D02*
D03*
X22100Y36250D02*
D03*
Y37750D02*
D03*
X22000Y46250D02*
D03*
Y47750D02*
D03*
X25908Y36250D02*
D03*
Y37750D02*
D03*
X25824Y46250D02*
D03*
Y47750D02*
D03*
X31700Y36250D02*
D03*
Y37750D02*
D03*
X31605Y46250D02*
D03*
Y47750D02*
D03*
X27811Y36250D02*
D03*
Y37750D02*
D03*
Y46250D02*
D03*
Y47750D02*
D03*
X181500Y26450D02*
D03*
Y24950D02*
D03*
X182700D02*
D03*
Y26450D02*
D03*
X188500Y27750D02*
D03*
Y29250D02*
D03*
X187150D02*
D03*
Y27750D02*
D03*
X185800Y34350D02*
D03*
Y32850D02*
D03*
X187100Y34350D02*
D03*
Y32850D02*
D03*
X188400Y34350D02*
D03*
Y32850D02*
D03*
X167500Y27850D02*
D03*
Y29350D02*
D03*
X166200D02*
D03*
Y27850D02*
D03*
X160600Y26650D02*
D03*
X161800D02*
D03*
X164800Y34150D02*
D03*
Y32650D02*
D03*
X166100Y34150D02*
D03*
Y32650D02*
D03*
X167400Y34150D02*
D03*
Y32650D02*
D03*
X143800Y34250D02*
D03*
Y32750D02*
D03*
X145100Y34250D02*
D03*
Y32750D02*
D03*
X146400Y34250D02*
D03*
Y32750D02*
D03*
X145143Y29325D02*
D03*
Y27825D02*
D03*
X146440D02*
D03*
Y29325D02*
D03*
X140650Y26550D02*
D03*
X139400D02*
D03*
X118600D02*
D03*
Y25050D02*
D03*
X119900D02*
D03*
Y26550D02*
D03*
X122900Y34250D02*
D03*
Y32750D02*
D03*
X124200Y34250D02*
D03*
Y32750D02*
D03*
X125500Y34250D02*
D03*
Y32750D02*
D03*
X84575Y27825D02*
D03*
Y29325D02*
D03*
X83300D02*
D03*
Y27825D02*
D03*
X77698Y26653D02*
D03*
Y25153D02*
D03*
X78950D02*
D03*
Y26653D02*
D03*
X82066Y34350D02*
D03*
Y32850D02*
D03*
X83300Y34350D02*
D03*
Y32850D02*
D03*
X84600Y34350D02*
D03*
Y32850D02*
D03*
X60900Y34350D02*
D03*
Y32850D02*
D03*
X62200Y34350D02*
D03*
Y32850D02*
D03*
X63500Y34350D02*
D03*
Y32850D02*
D03*
Y27950D02*
D03*
Y29450D02*
D03*
X62200D02*
D03*
Y27950D02*
D03*
X57935Y25104D02*
D03*
Y26604D02*
D03*
X56665D02*
D03*
Y25104D02*
D03*
X40000Y34250D02*
D03*
Y32750D02*
D03*
X41300Y34250D02*
D03*
Y32750D02*
D03*
X42600Y34250D02*
D03*
Y32750D02*
D03*
X41250Y29325D02*
D03*
Y27825D02*
D03*
X42500D02*
D03*
Y29325D02*
D03*
X35550Y26609D02*
D03*
Y25109D02*
D03*
X36800D02*
D03*
Y26609D02*
D03*
X19000Y34250D02*
D03*
Y32750D02*
D03*
X20300Y34250D02*
D03*
Y32750D02*
D03*
X21600Y34250D02*
D03*
Y32750D02*
D03*
X21550Y27825D02*
D03*
Y29325D02*
D03*
X20300D02*
D03*
Y27825D02*
D03*
X15800Y25077D02*
D03*
Y26577D02*
D03*
X14600D02*
D03*
Y25077D02*
D03*
X10100Y22450D02*
D03*
Y20950D02*
D03*
X7450Y21100D02*
D03*
Y22600D02*
D03*
X35439Y11934D02*
D03*
Y13434D02*
D03*
X36709D02*
D03*
Y11934D02*
D03*
X55679Y12636D02*
D03*
Y14136D02*
D03*
X56994Y14125D02*
D03*
Y12625D02*
D03*
X76950Y12501D02*
D03*
Y14001D02*
D03*
X138600Y104950D02*
D03*
Y106450D02*
D03*
X140000Y104950D02*
D03*
Y106450D02*
D03*
X109614Y115750D02*
D03*
Y117250D02*
D03*
X148673Y84252D02*
D03*
Y82752D02*
D03*
X150250Y84252D02*
D03*
Y82752D02*
D03*
X151827Y84252D02*
D03*
Y82752D02*
D03*
X153405Y84252D02*
D03*
Y82752D02*
D03*
X154982Y84252D02*
D03*
Y82752D02*
D03*
X148673Y73150D02*
D03*
Y71650D02*
D03*
X150250Y73150D02*
D03*
Y71650D02*
D03*
X151827Y73150D02*
D03*
Y71650D02*
D03*
X153405Y73150D02*
D03*
Y71650D02*
D03*
X154982Y73150D02*
D03*
Y71650D02*
D03*
X166023Y84250D02*
D03*
Y82750D02*
D03*
X174250Y127425D02*
D03*
Y125925D02*
D03*
Y123625D02*
D03*
Y125125D02*
D03*
X187724Y65652D02*
D03*
Y67152D02*
D03*
X187773Y71053D02*
D03*
Y72553D02*
D03*
X166023Y73150D02*
D03*
Y71650D02*
D03*
X116245Y63233D02*
D03*
Y64733D02*
D03*
Y66231D02*
D03*
Y67731D02*
D03*
X21400Y63250D02*
D03*
Y64750D02*
D03*
Y66250D02*
D03*
Y67750D02*
D03*
X195900Y17050D02*
D03*
Y15550D02*
D03*
X180032Y8500D02*
D03*
Y7000D02*
D03*
X162350Y12150D02*
D03*
Y13650D02*
D03*
X160500D02*
D03*
Y12150D02*
D03*
X140779Y11750D02*
D03*
Y13250D02*
D03*
X138929D02*
D03*
Y11750D02*
D03*
X113800Y16950D02*
D03*
Y15450D02*
D03*
X124200Y27850D02*
D03*
Y29350D02*
D03*
X125500D02*
D03*
Y27850D02*
D03*
X111950Y15450D02*
D03*
Y16950D02*
D03*
X78463Y12501D02*
D03*
Y14001D02*
D03*
X21400Y61750D02*
D03*
Y60250D02*
D03*
X23100Y61750D02*
D03*
Y60250D02*
D03*
X23100Y67750D02*
D03*
Y66250D02*
D03*
X18000Y66250D02*
D03*
Y67750D02*
D03*
X19700Y66250D02*
D03*
Y67750D02*
D03*
Y63250D02*
D03*
Y64750D02*
D03*
X18000D02*
D03*
Y63250D02*
D03*
X35000Y75450D02*
D03*
Y73950D02*
D03*
X37600Y75450D02*
D03*
Y73950D02*
D03*
X27123Y57950D02*
D03*
Y59450D02*
D03*
X32050Y75450D02*
D03*
Y73950D02*
D03*
X36300Y75450D02*
D03*
Y73950D02*
D03*
X39200Y61550D02*
D03*
Y63050D02*
D03*
X23100Y64750D02*
D03*
Y63250D02*
D03*
X28050Y75450D02*
D03*
Y73950D02*
D03*
X11800Y66350D02*
D03*
Y64850D02*
D03*
Y63650D02*
D03*
Y62150D02*
D03*
X114480Y61242D02*
D03*
Y59742D02*
D03*
X116245Y61242D02*
D03*
Y59742D02*
D03*
X119775Y67731D02*
D03*
Y66231D02*
D03*
X114480D02*
D03*
Y67731D02*
D03*
X118010Y66231D02*
D03*
Y67731D02*
D03*
Y63233D02*
D03*
Y64733D02*
D03*
X114480D02*
D03*
Y63233D02*
D03*
X131700Y75450D02*
D03*
Y73950D02*
D03*
X129050Y75450D02*
D03*
Y73950D02*
D03*
X134250Y75450D02*
D03*
Y73950D02*
D03*
X122670Y58100D02*
D03*
Y59600D02*
D03*
X125050Y75450D02*
D03*
Y73950D02*
D03*
X132975Y75450D02*
D03*
Y73950D02*
D03*
X135850Y58600D02*
D03*
Y60100D02*
D03*
X119775Y64733D02*
D03*
Y63233D02*
D03*
X108520Y63800D02*
D03*
Y65300D02*
D03*
X108510Y61970D02*
D03*
Y60470D02*
D03*
X186523Y71053D02*
D03*
Y72553D02*
D03*
X179899Y71053D02*
D03*
Y72553D02*
D03*
X178649Y71053D02*
D03*
Y72553D02*
D03*
X186474Y65652D02*
D03*
Y67152D02*
D03*
X179899Y65652D02*
D03*
Y67152D02*
D03*
X178649Y65652D02*
D03*
Y67152D02*
D03*
X48600Y85725D02*
D03*
Y84225D02*
D03*
X80472Y55650D02*
D03*
Y57150D02*
D03*
X82526Y72636D02*
D03*
Y71136D02*
D03*
X89700Y67375D02*
D03*
Y68875D02*
D03*
Y62875D02*
D03*
Y61375D02*
D03*
X77400Y55650D02*
D03*
Y57150D02*
D03*
X68708Y71267D02*
D03*
Y69767D02*
D03*
X70108Y71267D02*
D03*
Y69767D02*
D03*
X65587Y71267D02*
D03*
Y69767D02*
D03*
X67148Y71267D02*
D03*
Y69767D02*
D03*
X24400Y85650D02*
D03*
Y84150D02*
D03*
X10200Y85450D02*
D03*
Y86950D02*
D03*
X32300Y85650D02*
D03*
Y84150D02*
D03*
X30900D02*
D03*
Y85650D02*
D03*
X38400Y84150D02*
D03*
Y85650D02*
D03*
X37000Y84150D02*
D03*
Y85650D02*
D03*
X192865Y81650D02*
D03*
Y80150D02*
D03*
X191365D02*
D03*
Y81650D02*
D03*
X199650Y80100D02*
D03*
Y81600D02*
D03*
X198200Y80700D02*
D03*
Y79200D02*
D03*
X169152Y123475D02*
D03*
Y121975D02*
D03*
X101688Y116650D02*
D03*
Y115150D02*
D03*
X100339Y116650D02*
D03*
Y115150D02*
D03*
X103038Y116650D02*
D03*
Y115150D02*
D03*
X108214Y117250D02*
D03*
Y115750D02*
D03*
X174000Y119350D02*
D03*
Y120850D02*
D03*
X176200Y119350D02*
D03*
Y120850D02*
D03*
X144922Y61100D02*
D03*
Y59600D02*
D03*
X146322Y61100D02*
D03*
Y59600D02*
D03*
X162868Y73150D02*
D03*
Y71650D02*
D03*
X161291D02*
D03*
Y73150D02*
D03*
X167600Y68000D02*
D03*
Y69500D02*
D03*
X158136Y73150D02*
D03*
Y71650D02*
D03*
X164445D02*
D03*
Y73150D02*
D03*
X167600D02*
D03*
Y71650D02*
D03*
X156559D02*
D03*
Y73150D02*
D03*
X159714D02*
D03*
Y71650D02*
D03*
X162868Y84300D02*
D03*
Y82800D02*
D03*
X161291D02*
D03*
Y84300D02*
D03*
X167600Y79077D02*
D03*
Y80577D02*
D03*
X158136Y84275D02*
D03*
Y82775D02*
D03*
X164445Y82800D02*
D03*
Y84300D02*
D03*
X167600Y84250D02*
D03*
Y82750D02*
D03*
X156559Y82775D02*
D03*
Y84275D02*
D03*
X159714D02*
D03*
Y82775D02*
D03*
X26600Y89850D02*
D03*
Y91350D02*
D03*
X37000Y108200D02*
D03*
Y106700D02*
D03*
X38825Y108200D02*
D03*
Y106700D02*
D03*
X40500D02*
D03*
Y108200D02*
D03*
X199300Y119750D02*
D03*
Y118250D02*
D03*
X100650Y122725D02*
D03*
Y124225D02*
D03*
X99375Y122725D02*
D03*
Y124225D02*
D03*
X98100D02*
D03*
Y122725D02*
D03*
D27*
X62459Y69771D02*
D03*
X64109D02*
D03*
X189075Y72501D02*
D03*
X190725D02*
D03*
X189125Y67100D02*
D03*
X190775D02*
D03*
D28*
X82526Y68321D02*
D03*
Y67821D02*
D03*
Y67321D02*
D03*
Y66821D02*
D03*
Y66321D02*
D03*
Y65821D02*
D03*
Y65321D02*
D03*
Y64821D02*
D03*
Y64321D02*
D03*
Y63821D02*
D03*
Y63321D02*
D03*
Y62821D02*
D03*
Y62321D02*
D03*
Y61821D02*
D03*
Y61321D02*
D03*
Y60821D02*
D03*
X71299D02*
D03*
Y61321D02*
D03*
Y61821D02*
D03*
Y62321D02*
D03*
Y62821D02*
D03*
Y63321D02*
D03*
Y63821D02*
D03*
Y64321D02*
D03*
Y64821D02*
D03*
Y65321D02*
D03*
Y65821D02*
D03*
Y66321D02*
D03*
Y66821D02*
D03*
Y67321D02*
D03*
Y67821D02*
D03*
Y68321D02*
D03*
D29*
X27550Y12302D02*
D03*
X25650D02*
D03*
X26600Y10202D02*
D03*
X188897Y12350D02*
D03*
X186997D02*
D03*
X187947Y10250D02*
D03*
X181903Y12350D02*
D03*
X180003D02*
D03*
X180953Y10250D02*
D03*
X192394Y12350D02*
D03*
X190494D02*
D03*
X191444Y10250D02*
D03*
X173583Y12408D02*
D03*
X171683D02*
D03*
X172633Y10308D02*
D03*
X166450Y12408D02*
D03*
X164550D02*
D03*
X165500Y10308D02*
D03*
X151877Y12300D02*
D03*
X149977D02*
D03*
X150927Y10200D02*
D03*
X144850Y12300D02*
D03*
X142950D02*
D03*
X143900Y10200D02*
D03*
X129886Y12450D02*
D03*
X127986D02*
D03*
X128936Y10350D02*
D03*
X122994Y12450D02*
D03*
X121094D02*
D03*
X122044Y10350D02*
D03*
X89955Y12250D02*
D03*
X88055D02*
D03*
X89005Y10150D02*
D03*
X82973Y12250D02*
D03*
X81073D02*
D03*
X82023Y10150D02*
D03*
X61720Y12229D02*
D03*
X59820D02*
D03*
X60770Y10128D02*
D03*
X68661Y12229D02*
D03*
X66761D02*
D03*
X67711Y10128D02*
D03*
X42009Y12365D02*
D03*
X40109D02*
D03*
X41059Y10265D02*
D03*
X48740Y12365D02*
D03*
X46840D02*
D03*
X47790Y10265D02*
D03*
X20250Y12277D02*
D03*
X18350D02*
D03*
X19300Y10177D02*
D03*
X177150Y12408D02*
D03*
X175250D02*
D03*
X176200Y10308D02*
D03*
X155390Y12300D02*
D03*
X153490D02*
D03*
X154440Y10200D02*
D03*
X133332Y12450D02*
D03*
X131432D02*
D03*
X132382Y10350D02*
D03*
X93446Y12250D02*
D03*
X91546D02*
D03*
X92496Y10150D02*
D03*
X72132Y12229D02*
D03*
X70232D02*
D03*
X71182Y10128D02*
D03*
X52085Y12365D02*
D03*
X50185D02*
D03*
X51135Y10265D02*
D03*
X31200Y12277D02*
D03*
X29300D02*
D03*
X30250Y10177D02*
D03*
X185400Y12350D02*
D03*
X183500D02*
D03*
X184450Y10250D02*
D03*
X170017Y12408D02*
D03*
X168117D02*
D03*
X169067Y10308D02*
D03*
X148363Y12300D02*
D03*
X146463D02*
D03*
X147413Y10200D02*
D03*
X126440Y12450D02*
D03*
X124540D02*
D03*
X125490Y10350D02*
D03*
X86464Y12250D02*
D03*
X84564D02*
D03*
X85514Y10150D02*
D03*
X65191Y12229D02*
D03*
X63291D02*
D03*
X64241Y10128D02*
D03*
X45321Y12365D02*
D03*
X43421D02*
D03*
X44371Y10265D02*
D03*
X23896Y12277D02*
D03*
X21996D02*
D03*
X22946Y10177D02*
D03*
X12842Y22157D02*
D03*
X14742D02*
D03*
X117700Y20150D02*
D03*
X116750Y22250D02*
D03*
X118650D02*
D03*
X181624Y22350D02*
D03*
X179724D02*
D03*
X180674Y20250D02*
D03*
X160850Y22350D02*
D03*
X158950D02*
D03*
X159900Y20250D02*
D03*
X139750Y22150D02*
D03*
X137850D02*
D03*
X138800Y20050D02*
D03*
X77935Y22000D02*
D03*
X76035D02*
D03*
X76985Y19900D02*
D03*
X56700Y21300D02*
D03*
X54800D02*
D03*
X55750Y19200D02*
D03*
X36250Y22250D02*
D03*
X34350D02*
D03*
X35300Y20150D02*
D03*
X13792Y20057D02*
D03*
D30*
X198475Y89007D02*
D03*
Y88207D02*
D03*
Y89907D02*
D03*
Y87307D02*
D03*
X197525Y87807D02*
D03*
Y88607D02*
D03*
Y89407D02*
D03*
Y86907D02*
D03*
Y90307D02*
D03*
X186875Y106075D02*
D03*
Y106875D02*
D03*
Y105175D02*
D03*
Y107775D02*
D03*
X187825Y107275D02*
D03*
Y106475D02*
D03*
Y105675D02*
D03*
Y108175D02*
D03*
Y104775D02*
D03*
D31*
X184550Y6170D02*
D03*
Y7120D02*
D03*
Y8070D02*
D03*
X182250D02*
D03*
Y6170D02*
D03*
X199850Y15150D02*
D03*
Y16100D02*
D03*
Y17050D02*
D03*
X197550D02*
D03*
Y15150D02*
D03*
X155440Y6530D02*
D03*
Y7480D02*
D03*
Y8430D02*
D03*
X153140D02*
D03*
Y6530D02*
D03*
X92870Y6350D02*
D03*
Y7300D02*
D03*
Y8250D02*
D03*
X90570D02*
D03*
Y6350D02*
D03*
X72180Y6510D02*
D03*
Y7460D02*
D03*
Y8410D02*
D03*
X69880D02*
D03*
Y6510D02*
D03*
X51130D02*
D03*
Y7460D02*
D03*
Y8410D02*
D03*
X48830D02*
D03*
Y6510D02*
D03*
D32*
X173560Y6110D02*
D03*
X174510D02*
D03*
X175460D02*
D03*
Y8410D02*
D03*
X173560D02*
D03*
X160450Y8500D02*
D03*
X161400D02*
D03*
X162350D02*
D03*
Y10800D02*
D03*
X160450D02*
D03*
X138879Y7850D02*
D03*
X139829D02*
D03*
X140779D02*
D03*
Y10150D02*
D03*
X138879D02*
D03*
X113850Y21050D02*
D03*
X112900D02*
D03*
X111950D02*
D03*
Y18750D02*
D03*
X113850D02*
D03*
X113950Y26672D02*
D03*
X113000D02*
D03*
X112050D02*
D03*
Y24372D02*
D03*
X113950D02*
D03*
X76800Y8750D02*
D03*
X77750D02*
D03*
X78700D02*
D03*
Y11050D02*
D03*
X76800D02*
D03*
X55600Y8850D02*
D03*
X56550D02*
D03*
X57500D02*
D03*
Y11150D02*
D03*
X55600D02*
D03*
X35143Y8121D02*
D03*
X36093D02*
D03*
X37043D02*
D03*
Y10421D02*
D03*
X35143D02*
D03*
X9350Y35050D02*
D03*
X8400D02*
D03*
X7450D02*
D03*
Y32750D02*
D03*
X9350D02*
D03*
Y27700D02*
D03*
X8400D02*
D03*
X7450D02*
D03*
Y25400D02*
D03*
X9350D02*
D03*
X193875Y68925D02*
D03*
X194825D02*
D03*
X195775D02*
D03*
Y71225D02*
D03*
X194825D02*
D03*
X193875D02*
D03*
X193925Y63600D02*
D03*
X194875D02*
D03*
X195825D02*
D03*
Y65900D02*
D03*
X194875D02*
D03*
X193925D02*
D03*
D33*
X126375Y119604D02*
D03*
X132075D02*
D03*
D34*
X120525Y133754D02*
D03*
X133675Y132754D02*
D03*
D35*
X132885Y129904D02*
D03*
X131785D02*
D03*
X130685Y130104D02*
D03*
X129585Y129904D02*
D03*
X128485Y130104D02*
D03*
X127385Y129904D02*
D03*
X126285Y129504D02*
D03*
X125185Y129904D02*
D03*
D36*
X167850Y123375D02*
D03*
Y122075D02*
D03*
X165950D02*
D03*
Y122725D02*
D03*
Y123375D02*
D03*
X184954Y131150D02*
D03*
Y129850D02*
D03*
X183054D02*
D03*
Y130500D02*
D03*
Y131150D02*
D03*
X203700Y35850D02*
D03*
Y34550D02*
D03*
X201800D02*
D03*
Y35200D02*
D03*
Y35850D02*
D03*
D37*
X49100Y82350D02*
D03*
X49600D02*
D03*
X54800Y95300D02*
D03*
X54300D02*
D03*
X55800D02*
D03*
X55300D02*
D03*
X49600Y77950D02*
D03*
X50100D02*
D03*
X48600D02*
D03*
X49100D02*
D03*
X50600D02*
D03*
Y82350D02*
D03*
X50100D02*
D03*
X48600D02*
D03*
X53800Y90900D02*
D03*
X54300D02*
D03*
X54800D02*
D03*
X55300D02*
D03*
X55800D02*
D03*
X53800Y95300D02*
D03*
D38*
X198605Y33800D02*
D03*
X197955D02*
D03*
X197305D02*
D03*
X196655D02*
D03*
X196005D02*
D03*
X195355D02*
D03*
X194705D02*
D03*
X194055D02*
D03*
X193405D02*
D03*
X192755D02*
D03*
X192105D02*
D03*
X191455D02*
D03*
X190805D02*
D03*
X190155D02*
D03*
X198605Y28200D02*
D03*
X197955D02*
D03*
X197305D02*
D03*
X196655D02*
D03*
X196005D02*
D03*
X195355D02*
D03*
X194705D02*
D03*
X194055D02*
D03*
X193405D02*
D03*
X192755D02*
D03*
X192105D02*
D03*
X191455D02*
D03*
X190805D02*
D03*
X190155D02*
D03*
X177605Y33800D02*
D03*
X176955D02*
D03*
X176305D02*
D03*
X175655D02*
D03*
X175005D02*
D03*
X174355D02*
D03*
X173705D02*
D03*
X173055D02*
D03*
X172405D02*
D03*
X171755D02*
D03*
X171105D02*
D03*
X170455D02*
D03*
X169805D02*
D03*
X169155D02*
D03*
X177605Y28200D02*
D03*
X176955D02*
D03*
X176305D02*
D03*
X175655D02*
D03*
X175005D02*
D03*
X174355D02*
D03*
X173705D02*
D03*
X173055D02*
D03*
X172405D02*
D03*
X171755D02*
D03*
X171105D02*
D03*
X170455D02*
D03*
X169805D02*
D03*
X169155D02*
D03*
X156605Y33800D02*
D03*
X155955D02*
D03*
X155305D02*
D03*
X154655D02*
D03*
X154005D02*
D03*
X153355D02*
D03*
X152705D02*
D03*
X152055D02*
D03*
X151405D02*
D03*
X150755D02*
D03*
X150105D02*
D03*
X149455D02*
D03*
X148805D02*
D03*
X148155D02*
D03*
X156605Y28200D02*
D03*
X155955D02*
D03*
X155305D02*
D03*
X154655D02*
D03*
X154005D02*
D03*
X153355D02*
D03*
X152705D02*
D03*
X152055D02*
D03*
X151405D02*
D03*
X150755D02*
D03*
X150105D02*
D03*
X149455D02*
D03*
X148805D02*
D03*
X148155D02*
D03*
X135605Y33800D02*
D03*
X134955D02*
D03*
X134305D02*
D03*
X133655D02*
D03*
X133005D02*
D03*
X132355D02*
D03*
X131705D02*
D03*
X131055D02*
D03*
X130405D02*
D03*
X129755D02*
D03*
X129105D02*
D03*
X128455D02*
D03*
X127805D02*
D03*
X127155D02*
D03*
X135605Y28200D02*
D03*
X134955D02*
D03*
X134305D02*
D03*
X133655D02*
D03*
X133005D02*
D03*
X132355D02*
D03*
X131705D02*
D03*
X131055D02*
D03*
X130405D02*
D03*
X129755D02*
D03*
X129105D02*
D03*
X128455D02*
D03*
X127805D02*
D03*
X127155D02*
D03*
X94605Y33800D02*
D03*
X93955D02*
D03*
X93305D02*
D03*
X92655D02*
D03*
X92005D02*
D03*
X91355D02*
D03*
X90705D02*
D03*
X90055D02*
D03*
X89405D02*
D03*
X88755D02*
D03*
X88105D02*
D03*
X87455D02*
D03*
X86805D02*
D03*
X86155D02*
D03*
X94605Y28200D02*
D03*
X93955D02*
D03*
X93305D02*
D03*
X92655D02*
D03*
X92005D02*
D03*
X91355D02*
D03*
X90705D02*
D03*
X90055D02*
D03*
X89405D02*
D03*
X88755D02*
D03*
X88105D02*
D03*
X87455D02*
D03*
X86805D02*
D03*
X86155D02*
D03*
X73605Y33800D02*
D03*
X72955D02*
D03*
X72305D02*
D03*
X71655D02*
D03*
X71005D02*
D03*
X70355D02*
D03*
X69705D02*
D03*
X69055D02*
D03*
X68405D02*
D03*
X67755D02*
D03*
X67105D02*
D03*
X66455D02*
D03*
X65805D02*
D03*
X65155D02*
D03*
X73605Y28200D02*
D03*
X72955D02*
D03*
X72305D02*
D03*
X71655D02*
D03*
X71005D02*
D03*
X70355D02*
D03*
X69705D02*
D03*
X69055D02*
D03*
X68405D02*
D03*
X67755D02*
D03*
X67105D02*
D03*
X66455D02*
D03*
X65805D02*
D03*
X65155D02*
D03*
X52605Y33800D02*
D03*
X51955D02*
D03*
X51305D02*
D03*
X50655D02*
D03*
X50005D02*
D03*
X49355D02*
D03*
X48705D02*
D03*
X48055D02*
D03*
X47405D02*
D03*
X46755D02*
D03*
X46105D02*
D03*
X45455D02*
D03*
X44805D02*
D03*
X44155D02*
D03*
X52605Y28200D02*
D03*
X51955D02*
D03*
X51305D02*
D03*
X50655D02*
D03*
X50005D02*
D03*
X49355D02*
D03*
X48705D02*
D03*
X48055D02*
D03*
X47405D02*
D03*
X46755D02*
D03*
X46105D02*
D03*
X45455D02*
D03*
X44805D02*
D03*
X44155D02*
D03*
X31605Y33800D02*
D03*
X30955D02*
D03*
X30305D02*
D03*
X29655D02*
D03*
X29005D02*
D03*
X28355D02*
D03*
X27705D02*
D03*
X27055D02*
D03*
X26405D02*
D03*
X25755D02*
D03*
X25105D02*
D03*
X24455D02*
D03*
X23805D02*
D03*
X23155D02*
D03*
X31605Y28200D02*
D03*
X30955D02*
D03*
X30305D02*
D03*
X29655D02*
D03*
X29005D02*
D03*
X28355D02*
D03*
X27705D02*
D03*
X27055D02*
D03*
X26405D02*
D03*
X25755D02*
D03*
X25105D02*
D03*
X24455D02*
D03*
X23805D02*
D03*
X23155D02*
D03*
D39*
X192043Y39500D02*
D03*
X192678D02*
D03*
X193313D02*
D03*
X193948D02*
D03*
X194583D02*
D03*
X195218D02*
D03*
X195853D02*
D03*
X196488D02*
D03*
X192043Y44900D02*
D03*
X192678D02*
D03*
X193313D02*
D03*
X193948D02*
D03*
X194583D02*
D03*
X195218D02*
D03*
X195853D02*
D03*
X196488D02*
D03*
X173518Y39500D02*
D03*
X174152D02*
D03*
X174788D02*
D03*
X175423D02*
D03*
X176057D02*
D03*
X176693D02*
D03*
X177327D02*
D03*
X177962D02*
D03*
X173518Y44900D02*
D03*
X174152D02*
D03*
X174788D02*
D03*
X175423D02*
D03*
X176057D02*
D03*
X176693D02*
D03*
X177327D02*
D03*
X177962D02*
D03*
X152518Y39500D02*
D03*
X153152D02*
D03*
X153788D02*
D03*
X154423D02*
D03*
X155057D02*
D03*
X155693D02*
D03*
X156327D02*
D03*
X156962D02*
D03*
X152518Y44900D02*
D03*
X153152D02*
D03*
X153788D02*
D03*
X154423D02*
D03*
X155057D02*
D03*
X155693D02*
D03*
X156327D02*
D03*
X156962D02*
D03*
X131518Y39500D02*
D03*
X132152D02*
D03*
X132788D02*
D03*
X133423D02*
D03*
X134057D02*
D03*
X134693D02*
D03*
X135327D02*
D03*
X135962D02*
D03*
X131518Y44900D02*
D03*
X132152D02*
D03*
X132788D02*
D03*
X133423D02*
D03*
X134057D02*
D03*
X134693D02*
D03*
X135327D02*
D03*
X135962D02*
D03*
X90518Y39300D02*
D03*
X91152D02*
D03*
X91787D02*
D03*
X92423D02*
D03*
X93058D02*
D03*
X93692D02*
D03*
X94327D02*
D03*
X94963D02*
D03*
X90518Y44700D02*
D03*
X91152D02*
D03*
X91787D02*
D03*
X92423D02*
D03*
X93058D02*
D03*
X93692D02*
D03*
X94327D02*
D03*
X94963D02*
D03*
X69518Y39300D02*
D03*
X70152D02*
D03*
X70787D02*
D03*
X71423D02*
D03*
X72058D02*
D03*
X72692D02*
D03*
X73327D02*
D03*
X73963D02*
D03*
X69518Y44700D02*
D03*
X70152D02*
D03*
X70787D02*
D03*
X71423D02*
D03*
X72058D02*
D03*
X72692D02*
D03*
X73327D02*
D03*
X73963D02*
D03*
X48518Y39300D02*
D03*
X49153D02*
D03*
X49787D02*
D03*
X50423D02*
D03*
X51057D02*
D03*
X51693D02*
D03*
X52327D02*
D03*
X52963D02*
D03*
X48518Y44700D02*
D03*
X49153D02*
D03*
X49787D02*
D03*
X50423D02*
D03*
X51057D02*
D03*
X51693D02*
D03*
X52327D02*
D03*
X52963D02*
D03*
X27517Y39300D02*
D03*
X28153D02*
D03*
X28788D02*
D03*
X29423D02*
D03*
X30058D02*
D03*
X30692D02*
D03*
X31327D02*
D03*
X31962D02*
D03*
X27517Y44700D02*
D03*
X28153D02*
D03*
X28788D02*
D03*
X29423D02*
D03*
X30058D02*
D03*
X30692D02*
D03*
X31327D02*
D03*
X31962D02*
D03*
X190822Y44900D02*
D03*
X190188D02*
D03*
X189553D02*
D03*
X188917D02*
D03*
X188283D02*
D03*
X187648D02*
D03*
X187012D02*
D03*
X186378D02*
D03*
X190822Y39500D02*
D03*
X190188D02*
D03*
X189553D02*
D03*
X188917D02*
D03*
X188283D02*
D03*
X187648D02*
D03*
X187012D02*
D03*
X186378D02*
D03*
X172223Y44900D02*
D03*
X171587D02*
D03*
X170952D02*
D03*
X170318D02*
D03*
X169682D02*
D03*
X169048D02*
D03*
X168413D02*
D03*
X167777D02*
D03*
X172223Y39500D02*
D03*
X171587D02*
D03*
X170952D02*
D03*
X170318D02*
D03*
X169682D02*
D03*
X169048D02*
D03*
X168413D02*
D03*
X167777D02*
D03*
X150622Y44900D02*
D03*
X149988D02*
D03*
X149352D02*
D03*
X148717D02*
D03*
X148083D02*
D03*
X147447D02*
D03*
X146812D02*
D03*
X146178D02*
D03*
X150622Y39500D02*
D03*
X149988D02*
D03*
X149352D02*
D03*
X148717D02*
D03*
X148083D02*
D03*
X147447D02*
D03*
X146812D02*
D03*
X146178D02*
D03*
X130202Y44900D02*
D03*
X129567D02*
D03*
X128932D02*
D03*
X128297D02*
D03*
X127662D02*
D03*
X127027D02*
D03*
X126392D02*
D03*
X125757D02*
D03*
X130202Y39500D02*
D03*
X129567D02*
D03*
X128932D02*
D03*
X128297D02*
D03*
X127662D02*
D03*
X127027D02*
D03*
X126392D02*
D03*
X125757D02*
D03*
X89223Y44700D02*
D03*
X88588D02*
D03*
X87952D02*
D03*
X87317D02*
D03*
X86683D02*
D03*
X86048D02*
D03*
X85412D02*
D03*
X84777D02*
D03*
X89223Y39300D02*
D03*
X88588D02*
D03*
X87952D02*
D03*
X87317D02*
D03*
X86683D02*
D03*
X86048D02*
D03*
X85412D02*
D03*
X84777D02*
D03*
X68223Y44700D02*
D03*
X67588D02*
D03*
X66952D02*
D03*
X66317D02*
D03*
X65683D02*
D03*
X65048D02*
D03*
X64412D02*
D03*
X63778D02*
D03*
X68223Y39300D02*
D03*
X67588D02*
D03*
X66952D02*
D03*
X66317D02*
D03*
X65683D02*
D03*
X65048D02*
D03*
X64412D02*
D03*
X63778D02*
D03*
X47222Y44700D02*
D03*
X46588D02*
D03*
X45952D02*
D03*
X45318D02*
D03*
X44682D02*
D03*
X44048D02*
D03*
X43412D02*
D03*
X42778D02*
D03*
X47222Y39300D02*
D03*
X46588D02*
D03*
X45952D02*
D03*
X45318D02*
D03*
X44682D02*
D03*
X44048D02*
D03*
X43412D02*
D03*
X42778D02*
D03*
X26222Y44700D02*
D03*
X25587D02*
D03*
X24952D02*
D03*
X24317D02*
D03*
X23683D02*
D03*
X23048D02*
D03*
X22413D02*
D03*
X21778D02*
D03*
X26222Y39300D02*
D03*
X25587D02*
D03*
X24952D02*
D03*
X24317D02*
D03*
X23683D02*
D03*
X23048D02*
D03*
X22413D02*
D03*
X21778D02*
D03*
D40*
X189325Y65250D02*
D03*
Y64250D02*
D03*
X192025Y65250D02*
D03*
Y64250D02*
D03*
X52140Y73300D02*
D03*
X54840D02*
D03*
Y74300D02*
D03*
X52140D02*
D03*
X117450Y80300D02*
D03*
X120150D02*
D03*
Y81300D02*
D03*
X117450D02*
D03*
X189275Y69575D02*
D03*
X191975D02*
D03*
Y70575D02*
D03*
X189275D02*
D03*
D41*
X14003Y54164D02*
D03*
X122450Y54071D02*
D03*
X195000Y76000D02*
D03*
X41154Y50447D02*
D03*
X54000Y109000D02*
D03*
X103900Y41500D02*
D03*
X111800Y56800D02*
D03*
X134444Y79923D02*
D03*
D42*
X58460Y114500D02*
D03*
Y114900D02*
D03*
Y116900D02*
D03*
Y117300D02*
D03*
X61540Y103700D02*
D03*
Y104100D02*
D03*
Y104900D02*
D03*
Y105300D02*
D03*
Y107300D02*
D03*
Y107700D02*
D03*
Y106100D02*
D03*
Y106500D02*
D03*
Y99700D02*
D03*
X58460D02*
D03*
X61540Y100100D02*
D03*
X58460D02*
D03*
X61540Y100500D02*
D03*
X58460D02*
D03*
X61540Y100900D02*
D03*
X58460D02*
D03*
X61540Y101300D02*
D03*
X58460D02*
D03*
X61540Y101700D02*
D03*
X58460D02*
D03*
X61540Y102100D02*
D03*
X58460D02*
D03*
X61540Y102500D02*
D03*
X58460D02*
D03*
X61540Y102900D02*
D03*
X58460D02*
D03*
X61540Y103300D02*
D03*
X58460D02*
D03*
Y103700D02*
D03*
Y104100D02*
D03*
X61540Y104500D02*
D03*
X58460D02*
D03*
Y104900D02*
D03*
Y105300D02*
D03*
X61540Y105700D02*
D03*
X58460D02*
D03*
Y106100D02*
D03*
Y106500D02*
D03*
X61540Y106900D02*
D03*
X58460D02*
D03*
Y107300D02*
D03*
Y107700D02*
D03*
X61540Y108100D02*
D03*
X58460D02*
D03*
X61540Y108500D02*
D03*
X58460D02*
D03*
X61540Y108900D02*
D03*
X58460D02*
D03*
X61540Y109300D02*
D03*
X58460D02*
D03*
X61540Y109700D02*
D03*
X58460D02*
D03*
X61540Y110100D02*
D03*
X58460D02*
D03*
X61540Y110500D02*
D03*
X58460D02*
D03*
X61540Y110900D02*
D03*
X58460D02*
D03*
X61540Y111300D02*
D03*
X58460D02*
D03*
X61540Y111700D02*
D03*
X58460D02*
D03*
X61540Y112100D02*
D03*
X58460D02*
D03*
X61540Y112500D02*
D03*
X58460D02*
D03*
X61540Y112900D02*
D03*
X58460D02*
D03*
X61540Y113300D02*
D03*
X58460D02*
D03*
X61540Y113700D02*
D03*
X58460D02*
D03*
X61540Y114100D02*
D03*
X58460D02*
D03*
X61540Y114500D02*
D03*
Y114900D02*
D03*
Y115300D02*
D03*
X58460D02*
D03*
X61540Y115700D02*
D03*
X58460D02*
D03*
X61540Y116100D02*
D03*
X58460D02*
D03*
X61540Y116500D02*
D03*
X58460D02*
D03*
X61540Y116900D02*
D03*
Y117300D02*
D03*
Y117700D02*
D03*
X58460D02*
D03*
X61540Y118100D02*
D03*
X58460D02*
D03*
X61540Y118500D02*
D03*
X58460D02*
D03*
X61540Y118900D02*
D03*
X58460D02*
D03*
X61540Y119300D02*
D03*
X58460D02*
D03*
X95540Y99700D02*
D03*
X92460D02*
D03*
X95540Y100100D02*
D03*
X92460D02*
D03*
X95540Y100500D02*
D03*
X92460D02*
D03*
X95540Y100900D02*
D03*
X92460D02*
D03*
X95540Y101300D02*
D03*
X92460D02*
D03*
X95540Y101700D02*
D03*
X92460D02*
D03*
X95540Y102100D02*
D03*
X92460D02*
D03*
X95540Y102500D02*
D03*
X92460D02*
D03*
X95540Y102900D02*
D03*
X92460D02*
D03*
X95540Y103300D02*
D03*
X92460D02*
D03*
X95540Y103700D02*
D03*
X92460D02*
D03*
X95540Y104100D02*
D03*
X92460D02*
D03*
X95540Y104500D02*
D03*
X92460D02*
D03*
X95540Y104900D02*
D03*
X92460D02*
D03*
X95540Y105300D02*
D03*
X92460D02*
D03*
X95540Y105700D02*
D03*
X92460D02*
D03*
X95540Y106100D02*
D03*
X92460D02*
D03*
X95540Y106500D02*
D03*
X92460D02*
D03*
X95540Y106900D02*
D03*
X92460D02*
D03*
X95540Y107300D02*
D03*
X92460D02*
D03*
X95540Y107700D02*
D03*
X92460D02*
D03*
X95540Y108100D02*
D03*
X92460D02*
D03*
X95540Y108500D02*
D03*
X92460D02*
D03*
X95540Y108900D02*
D03*
X92460D02*
D03*
X95540Y109300D02*
D03*
X92460D02*
D03*
X95540Y109700D02*
D03*
X92460D02*
D03*
X95540Y110100D02*
D03*
X92460D02*
D03*
X95540Y110500D02*
D03*
X92460D02*
D03*
X95540Y110900D02*
D03*
X92460D02*
D03*
X95540Y111300D02*
D03*
X92460D02*
D03*
X95540Y111700D02*
D03*
X92460D02*
D03*
X95540Y112100D02*
D03*
X92460D02*
D03*
X95540Y112500D02*
D03*
X92460D02*
D03*
X95540Y112900D02*
D03*
X92460D02*
D03*
X95540Y113300D02*
D03*
X92460D02*
D03*
X95540Y113700D02*
D03*
X92460D02*
D03*
X95540Y114100D02*
D03*
X92460D02*
D03*
X95540Y114500D02*
D03*
X92460D02*
D03*
X95540Y114900D02*
D03*
X92460D02*
D03*
X95540Y115300D02*
D03*
X92460D02*
D03*
X95540Y115700D02*
D03*
X92460D02*
D03*
X95540Y116100D02*
D03*
X92460D02*
D03*
X95540Y116500D02*
D03*
X92460D02*
D03*
X95540Y116900D02*
D03*
X92460D02*
D03*
X95540Y117300D02*
D03*
X92460D02*
D03*
X95540Y117700D02*
D03*
X92460D02*
D03*
X95540Y118100D02*
D03*
X92460D02*
D03*
X95540Y118500D02*
D03*
X92460D02*
D03*
X95540Y118900D02*
D03*
X92460D02*
D03*
X95540Y119300D02*
D03*
X92460D02*
D03*
D43*
X159000Y122175D02*
D03*
Y119225D02*
D03*
D44*
X157475Y120700D02*
D03*
D45*
X105300Y46600D02*
D03*
Y49100D02*
D03*
X101783Y46600D02*
D03*
Y49100D02*
D03*
X189125Y131750D02*
D03*
Y129250D02*
D03*
X191300Y131750D02*
D03*
Y129250D02*
D03*
D46*
X106250Y54300D02*
D03*
X104350D02*
D03*
X105300Y52100D02*
D03*
X102733Y54300D02*
D03*
X100833D02*
D03*
X101783Y52100D02*
D03*
X166450Y127867D02*
D03*
X164550D02*
D03*
X165500Y125667D02*
D03*
X166599Y59100D02*
D03*
X168499D02*
D03*
X167549Y61300D02*
D03*
X201775Y28925D02*
D03*
X203675D02*
D03*
X202725Y31125D02*
D03*
D47*
X149850Y68650D02*
D03*
Y65650D02*
D03*
Y76850D02*
D03*
Y79850D02*
D03*
D48*
X175775Y64764D02*
D03*
Y66664D02*
D03*
X175750Y70175D02*
D03*
Y68275D02*
D03*
X173600Y70175D02*
D03*
Y68275D02*
D03*
X173625Y64764D02*
D03*
Y66664D02*
D03*
X171500Y64764D02*
D03*
Y66664D02*
D03*
Y70175D02*
D03*
Y68275D02*
D03*
X170000Y82875D02*
D03*
Y80975D02*
D03*
Y77450D02*
D03*
Y79350D02*
D03*
X89200Y66075D02*
D03*
Y64175D02*
D03*
X174950Y60500D02*
D03*
Y62400D02*
D03*
D49*
X26120Y66730D02*
D03*
Y67230D02*
D03*
Y70230D02*
D03*
Y69730D02*
D03*
Y69230D02*
D03*
Y68730D02*
D03*
Y68230D02*
D03*
Y67730D02*
D03*
Y66230D02*
D03*
Y65730D02*
D03*
Y65230D02*
D03*
Y64730D02*
D03*
Y64230D02*
D03*
Y63730D02*
D03*
Y63230D02*
D03*
Y62730D02*
D03*
X37480D02*
D03*
Y63230D02*
D03*
Y63730D02*
D03*
Y64230D02*
D03*
Y64730D02*
D03*
Y65230D02*
D03*
Y65730D02*
D03*
Y66230D02*
D03*
Y66730D02*
D03*
Y67230D02*
D03*
Y67730D02*
D03*
Y68230D02*
D03*
Y68730D02*
D03*
Y69230D02*
D03*
Y69730D02*
D03*
Y70230D02*
D03*
X134480D02*
D03*
Y69730D02*
D03*
Y69230D02*
D03*
Y68730D02*
D03*
Y68230D02*
D03*
Y67730D02*
D03*
Y67230D02*
D03*
Y66730D02*
D03*
Y66230D02*
D03*
Y65730D02*
D03*
Y65230D02*
D03*
Y64730D02*
D03*
Y64230D02*
D03*
Y63730D02*
D03*
Y63230D02*
D03*
Y62730D02*
D03*
X123120D02*
D03*
Y63230D02*
D03*
Y63730D02*
D03*
Y64230D02*
D03*
Y64730D02*
D03*
Y65230D02*
D03*
Y65730D02*
D03*
Y66230D02*
D03*
Y66730D02*
D03*
Y67230D02*
D03*
Y67730D02*
D03*
Y68230D02*
D03*
Y68730D02*
D03*
Y69230D02*
D03*
Y69730D02*
D03*
Y70230D02*
D03*
D50*
X28050Y60800D02*
D03*
X28550D02*
D03*
X29050D02*
D03*
X29550D02*
D03*
X30050D02*
D03*
X30550D02*
D03*
X31050D02*
D03*
X31550D02*
D03*
X32050D02*
D03*
X32550D02*
D03*
X33050D02*
D03*
X33550D02*
D03*
X34050D02*
D03*
X34550D02*
D03*
X35050D02*
D03*
X35550D02*
D03*
Y72160D02*
D03*
X35050D02*
D03*
X34550D02*
D03*
X34050D02*
D03*
X33550D02*
D03*
X33050D02*
D03*
X32550D02*
D03*
X32050D02*
D03*
X31550D02*
D03*
X31050D02*
D03*
X30550D02*
D03*
X30050D02*
D03*
X29550D02*
D03*
X29050D02*
D03*
X28550D02*
D03*
X28050D02*
D03*
X125050D02*
D03*
X125550D02*
D03*
X126050D02*
D03*
X126550D02*
D03*
X127050D02*
D03*
X127550D02*
D03*
X128050D02*
D03*
X128550D02*
D03*
X129050D02*
D03*
X129550D02*
D03*
X130050D02*
D03*
X130550D02*
D03*
X131050D02*
D03*
X131550D02*
D03*
X132050D02*
D03*
X132550D02*
D03*
Y60800D02*
D03*
X132050D02*
D03*
X131550D02*
D03*
X131050D02*
D03*
X130550D02*
D03*
X130050D02*
D03*
X129550D02*
D03*
X129050D02*
D03*
X128550D02*
D03*
X128050D02*
D03*
X127550D02*
D03*
X127050D02*
D03*
X126550D02*
D03*
X126050D02*
D03*
X125550D02*
D03*
X125050D02*
D03*
D51*
X51250Y128600D02*
D03*
Y131400D02*
D03*
X38750D02*
D03*
Y128600D02*
D03*
X19750D02*
D03*
Y131400D02*
D03*
X32250D02*
D03*
Y128600D02*
D03*
D52*
X48250Y131400D02*
D03*
X47750Y128600D02*
D03*
X45750D02*
D03*
X46250Y131400D02*
D03*
X43750Y128600D02*
D03*
X44250Y131400D02*
D03*
X41250D02*
D03*
X40750Y128600D02*
D03*
X40250Y131400D02*
D03*
X39750Y128600D02*
D03*
X42250Y131400D02*
D03*
X41750Y128600D02*
D03*
X43250Y131400D02*
D03*
X42750Y128600D02*
D03*
X45250Y131400D02*
D03*
X44750Y128600D02*
D03*
X46750D02*
D03*
X47250Y131400D02*
D03*
X48750Y128600D02*
D03*
X49750D02*
D03*
X49250Y131400D02*
D03*
X50250D02*
D03*
X31250D02*
D03*
X30250D02*
D03*
X30750Y128600D02*
D03*
X29750D02*
D03*
X28250Y131400D02*
D03*
X27750Y128600D02*
D03*
X25750D02*
D03*
X26250Y131400D02*
D03*
X23750Y128600D02*
D03*
X24250Y131400D02*
D03*
X22750Y128600D02*
D03*
X23250Y131400D02*
D03*
X20750Y128600D02*
D03*
X21250Y131400D02*
D03*
X21750Y128600D02*
D03*
X22250Y131400D02*
D03*
X25250D02*
D03*
X24750Y128600D02*
D03*
X27250Y131400D02*
D03*
X26750Y128600D02*
D03*
X28750D02*
D03*
X29250Y131400D02*
D03*
D53*
X12276Y82085D02*
D03*
X17005Y34790D02*
D03*
X38005D02*
D03*
X59205D02*
D03*
X80105D02*
D03*
X121105D02*
D03*
X141905D02*
D03*
X163074Y34965D02*
D03*
X184004Y34790D02*
D03*
D54*
X13546Y82085D02*
D03*
X14816D02*
D03*
X16086D02*
D03*
X12276Y87015D02*
D03*
X13546D02*
D03*
X14816D02*
D03*
X16086D02*
D03*
X13195Y29860D02*
D03*
X14465D02*
D03*
X15735D02*
D03*
X17005D02*
D03*
X13195Y34790D02*
D03*
X14465D02*
D03*
X15735D02*
D03*
X36735D02*
D03*
X35465D02*
D03*
X34195D02*
D03*
X38005Y29860D02*
D03*
X36735D02*
D03*
X35465D02*
D03*
X34195D02*
D03*
X55395D02*
D03*
X56665D02*
D03*
X57935D02*
D03*
X59205D02*
D03*
X55395Y34790D02*
D03*
X56665D02*
D03*
X57935D02*
D03*
X78835D02*
D03*
X77565D02*
D03*
X76295D02*
D03*
X80105Y29860D02*
D03*
X78835D02*
D03*
X77565D02*
D03*
X76295D02*
D03*
X117295D02*
D03*
X118565D02*
D03*
X119835D02*
D03*
X121105D02*
D03*
X117295Y34790D02*
D03*
X118565D02*
D03*
X119835D02*
D03*
X140635D02*
D03*
X139365D02*
D03*
X138095D02*
D03*
X141905Y29860D02*
D03*
X140635D02*
D03*
X139365D02*
D03*
X138095D02*
D03*
X159264Y30035D02*
D03*
X160533D02*
D03*
X161803D02*
D03*
X163074D02*
D03*
X159264Y34965D02*
D03*
X160533D02*
D03*
X161803D02*
D03*
X182734Y34790D02*
D03*
X181464D02*
D03*
X180194D02*
D03*
X184004Y29860D02*
D03*
X182734D02*
D03*
X181464D02*
D03*
X180194D02*
D03*
D55*
X154315Y62365D02*
D03*
Y58335D02*
D03*
D56*
X204300Y88475D02*
D03*
Y91475D02*
D03*
Y87475D02*
D03*
Y87975D02*
D03*
Y88975D02*
D03*
Y89475D02*
D03*
Y89975D02*
D03*
Y90475D02*
D03*
Y90975D02*
D03*
Y86975D02*
D03*
Y86475D02*
D03*
Y85975D02*
D03*
Y85475D02*
D03*
Y84975D02*
D03*
Y84475D02*
D03*
Y83975D02*
D03*
Y83475D02*
D03*
Y82975D02*
D03*
Y82475D02*
D03*
D57*
X13350Y63800D02*
D03*
X14300D02*
D03*
X15250D02*
D03*
Y66200D02*
D03*
X14300D02*
D03*
X13350D02*
D03*
X110370Y62900D02*
D03*
X111320D02*
D03*
X112270D02*
D03*
Y65300D02*
D03*
X111320D02*
D03*
X110370D02*
D03*
D58*
X184524Y72550D02*
D03*
X182124Y72550D02*
D03*
Y71600D02*
D03*
Y70650D02*
D03*
X184524D02*
D03*
Y71600D02*
D03*
X184499Y67200D02*
D03*
X182099Y67200D02*
D03*
Y66250D02*
D03*
Y65300D02*
D03*
X184499D02*
D03*
Y66250D02*
D03*
X196665Y81650D02*
D03*
X194265Y81650D02*
D03*
Y80700D02*
D03*
Y79750D02*
D03*
X196665D02*
D03*
Y80700D02*
D03*
X106839Y117449D02*
D03*
X104438Y117449D02*
D03*
Y116499D02*
D03*
Y115549D02*
D03*
X106839D02*
D03*
Y116499D02*
D03*
D59*
X22691Y85300D02*
D03*
Y84800D02*
D03*
Y84300D02*
D03*
X20871Y85300D02*
D03*
Y84800D02*
D03*
Y84300D02*
D03*
D60*
X22531Y85960D02*
D03*
X21031D02*
D03*
X22031D02*
D03*
X21531D02*
D03*
X22531Y83640D02*
D03*
X21031D02*
D03*
X22031D02*
D03*
X21531D02*
D03*
D61*
X26581Y83836D02*
D03*
X27181D02*
D03*
Y85664D02*
D03*
X26581D02*
D03*
D62*
X27796Y84150D02*
D03*
Y84750D02*
D03*
Y85350D02*
D03*
X25967D02*
D03*
Y84750D02*
D03*
Y84150D02*
D03*
D63*
X33850Y84550D02*
D03*
Y85050D02*
D03*
Y85550D02*
D03*
X34350D02*
D03*
X35350Y85050D02*
D03*
Y84550D02*
D03*
Y84050D02*
D03*
X34850D02*
D03*
D64*
Y85550D02*
D03*
X35350D02*
D03*
X34350Y84050D02*
D03*
X33850D02*
D03*
D65*
X168225Y127221D02*
D03*
Y125136D02*
D03*
X172575Y127221D02*
D03*
Y125136D02*
D03*
D66*
X168225Y126496D02*
D03*
Y125862D02*
D03*
X172575Y126496D02*
D03*
Y125862D02*
D03*
D67*
X177950Y121050D02*
D03*
Y119150D02*
D03*
X180150Y120100D02*
D03*
D68*
X169924Y61175D02*
D03*
Y60525D02*
D03*
Y59875D02*
D03*
Y59225D02*
D03*
X172924D02*
D03*
Y59875D02*
D03*
Y60525D02*
D03*
Y61175D02*
D03*
D69*
X171824Y60200D02*
D03*
D70*
X148372Y61850D02*
D03*
Y58850D02*
D03*
D71*
X151022Y60350D02*
D03*
D72*
X148722D02*
D03*
D73*
X153225Y67250D02*
D03*
X157375D02*
D03*
X153225Y78400D02*
D03*
X157375D02*
D03*
D74*
X160835Y70245D02*
D03*
Y68975D02*
D03*
Y67705D02*
D03*
Y66435D02*
D03*
X165765Y70245D02*
D03*
Y68975D02*
D03*
Y67705D02*
D03*
Y66435D02*
D03*
X160835Y81230D02*
D03*
Y79960D02*
D03*
Y78690D02*
D03*
Y77420D02*
D03*
X165765Y81230D02*
D03*
Y79960D02*
D03*
Y78690D02*
D03*
Y77420D02*
D03*
D75*
X163300Y68340D02*
D03*
Y79325D02*
D03*
D76*
X142195Y104975D02*
D03*
Y105475D02*
D03*
Y105975D02*
D03*
Y106475D02*
D03*
X145005D02*
D03*
Y105975D02*
D03*
Y105475D02*
D03*
Y104975D02*
D03*
D77*
X24190Y108605D02*
D03*
Y107335D02*
D03*
Y106065D02*
D03*
Y104795D02*
D03*
Y103525D02*
D03*
Y102255D02*
D03*
Y100985D02*
D03*
Y99715D02*
D03*
Y98445D02*
D03*
Y97175D02*
D03*
Y95905D02*
D03*
Y94635D02*
D03*
Y93365D02*
D03*
Y92095D02*
D03*
X15160D02*
D03*
Y93365D02*
D03*
Y94635D02*
D03*
Y95905D02*
D03*
Y97175D02*
D03*
Y98445D02*
D03*
Y99715D02*
D03*
Y100985D02*
D03*
Y102255D02*
D03*
Y103525D02*
D03*
Y104795D02*
D03*
Y106065D02*
D03*
Y107335D02*
D03*
Y108605D02*
D03*
D78*
X139000Y133400D02*
D03*
D79*
Y131400D02*
D03*
Y129400D02*
D03*
Y127400D02*
D03*
Y125400D02*
D03*
Y123400D02*
D03*
Y121400D02*
D03*
Y119400D02*
D03*
X155000Y133400D02*
D03*
Y131400D02*
D03*
Y129400D02*
D03*
Y127400D02*
D03*
Y125400D02*
D03*
Y123400D02*
D03*
Y121400D02*
D03*
Y119400D02*
D03*
D80*
X37135Y103475D02*
D03*
Y102975D02*
D03*
Y102475D02*
D03*
Y101975D02*
D03*
Y101475D02*
D03*
Y100975D02*
D03*
X40915D02*
D03*
Y101475D02*
D03*
Y101975D02*
D03*
Y102475D02*
D03*
Y102975D02*
D03*
Y103475D02*
D03*
D81*
X37775Y100335D02*
D03*
X38275D02*
D03*
X38775D02*
D03*
X39275D02*
D03*
X39775D02*
D03*
X40275D02*
D03*
Y104115D02*
D03*
X39775D02*
D03*
X39275D02*
D03*
X38775D02*
D03*
X38275D02*
D03*
X37775D02*
D03*
D82*
X39025Y102225D02*
D03*
M02*
