G04*
G04 #@! TF.GenerationSoftware,Altium Limited,Altium Designer,19.0.15 (446)*
G04*
G04 Layer_Color=16711935*
%FSLAX43Y43*%
%MOMM*%
G71*
G01*
G75*
%ADD192C,0.100*%
D192*
X13300Y6300D02*
G03*
X15600Y4000I2300J0D01*
G01*
X18300Y135000D02*
G03*
X13300Y130000I0J-5000D01*
G01*
X202000Y119500D02*
G03*
X204000Y117500I2000J0D01*
G01*
X212800Y112500D02*
G03*
X207800Y117500I-5000J0D01*
G01*
X199775Y4000D02*
G03*
X202000Y6225I0J2225D01*
G01*
X204000Y17250D02*
G03*
X202000Y15250I0J-2000D01*
G01*
X70200Y134300D02*
G03*
X69500Y135000I-700J0D01*
G01*
X97500Y126945D02*
G03*
X98945Y125500I1445J0D01*
G01*
X97500Y133000D02*
G03*
X95500Y135000I-2000J-0D01*
G01*
X119000Y135000D02*
G03*
X118500Y134500I0J-500D01*
G01*
X5000Y19500D02*
G03*
X7250Y17250I2250J0D01*
G01*
X202000Y132700D02*
G03*
X199700Y135000I-2300J0D01*
G01*
X116850Y125500D02*
G03*
X118500Y127150I0J1650D01*
G01*
X7475Y117750D02*
G03*
X5000Y115275I0J-2475D01*
G01*
X11300Y117750D02*
G03*
X13300Y119750I0J2000D01*
G01*
X90975Y135000D02*
G03*
X89600Y133625I0J-1375D01*
G01*
X70200Y127000D02*
G03*
X70660Y126540I460J0D01*
G01*
X94813Y3999D02*
G03*
X97500Y6687I0J2688D01*
G01*
X116500Y8300D02*
G03*
X115300Y9500I-1200J0D01*
G01*
X116487Y6537D02*
G03*
X118989Y4000I2519J-18D01*
G01*
X98650Y9500D02*
G03*
X97500Y8350I0J-1150D01*
G01*
X89075Y126540D02*
G03*
X89600Y127065I0J525D01*
G01*
X14500Y123850D02*
G03*
X14500Y127350I0J1750D01*
G01*
X13300Y15200D02*
G03*
X11250Y17250I-2050J0D01*
G01*
X14500Y7650D02*
G03*
X14500Y11150I0J1750D01*
G01*
X119000Y135000D02*
X199700D01*
X212800Y111225D02*
Y112500D01*
X205000Y17250D02*
X208642D01*
X13300Y119750D02*
Y123850D01*
X13300Y127350D02*
Y130000D01*
X13300Y123850D02*
X14500D01*
X13300Y127350D02*
X14500D01*
X13300Y6300D02*
Y7625D01*
X13325Y7650D01*
X14500D01*
X208642Y17250D02*
X211092Y19700D01*
Y39567D01*
X212800D01*
Y61458D01*
X209967D02*
X212800D01*
X209967D02*
Y72617D01*
X212800D01*
Y98783D01*
X211000D02*
X212800D01*
X211000D02*
Y111225D01*
X212800D01*
X202000Y119500D02*
Y119930D01*
X204000Y117500D02*
X205225D01*
X208000D01*
X18300Y135000D02*
X69500Y135000D01*
X70660Y126540D02*
X89075D01*
X7475Y117750D02*
X11300D01*
X204000Y17250D02*
X205000D01*
X89600Y127065D02*
Y133625D01*
X90975Y135000D02*
X95500D01*
X202000Y6225D02*
Y15250D01*
X7250Y17250D02*
X11250D01*
X98945Y125500D02*
X116850D01*
X118500Y127150D02*
Y134500D01*
X70200Y127000D02*
Y134300D01*
X202000Y119930D02*
Y132700D01*
X97500Y126945D02*
Y133000D01*
X13300Y11175D02*
Y15200D01*
X13325Y11150D02*
X14500D01*
X55500Y4000D02*
X74455D01*
X74457D02*
X94813D01*
X53597D02*
X55496D01*
X47504D02*
X53597D01*
X32528D02*
X47500D01*
X15600D02*
X32526D01*
X5000Y19500D02*
Y41845D01*
Y115275D01*
X163500Y4000D02*
X178467D01*
X178473D02*
X199775D01*
X157458D02*
X163500D01*
X119006D02*
X136470D01*
X110179Y9500D02*
X110181Y9502D01*
X115298D01*
X136470Y4000D02*
X155400D01*
X155400D02*
X157458D01*
X98650Y9500D02*
X110179D01*
X97500Y6687D02*
Y8340D01*
X116487Y6537D02*
X116500Y8375D01*
X202000Y6225D02*
Y7925D01*
M02*
