G04*
G04 #@! TF.GenerationSoftware,Altium Limited,Altium Designer,19.0.15 (446)*
G04*
G04 Layer_Color=16711935*
%FSLAX43Y43*%
%MOMM*%
G71*
G01*
G75*
%ADD100C,2.203*%
%ADD133C,1.723*%
%ADD134R,1.723X1.723*%
%ADD135C,2.153*%
%ADD136R,2.153X2.153*%
%ADD137R,2.153X2.153*%
%ADD138C,1.803*%
%ADD139R,1.803X1.803*%
%ADD140C,1.727*%
%ADD141R,1.711X1.711*%
%ADD142C,1.711*%
%ADD143O,2.703X5.203*%
%ADD144O,5.203X2.703*%
%ADD145C,6.000*%
%ADD146C,1.623*%
%ADD147C,3.653*%
%ADD148C,1.703*%
%ADD149O,3.503X1.703*%
%ADD150O,2.503X1.703*%
%ADD151R,1.723X1.723*%
%ADD153R,1.803X1.803*%
%ADD154C,1.603*%
G04:AMPARAMS|DCode=155|XSize=1.603mm|YSize=1.603mm|CornerRadius=0.452mm|HoleSize=0mm|Usage=FLASHONLY|Rotation=270.000|XOffset=0mm|YOffset=0mm|HoleType=Round|Shape=RoundedRectangle|*
%AMROUNDEDRECTD155*
21,1,1.603,0.700,0,0,270.0*
21,1,0.700,1.603,0,0,270.0*
1,1,0.903,-0.350,-0.350*
1,1,0.903,-0.350,0.350*
1,1,0.903,0.350,0.350*
1,1,0.903,0.350,-0.350*
%
%ADD155ROUNDEDRECTD155*%
%ADD156C,2.703*%
%ADD157C,3.403*%
%ADD158C,2.453*%
%ADD211C,0.203*%
D100*
X171000Y133250D02*
D03*
X165920Y129750D02*
D03*
X176080D02*
D03*
X209500Y20750D02*
D03*
Y25250D02*
D03*
Y35750D02*
D03*
Y40250D02*
D03*
D133*
X69720Y88380D02*
D03*
Y85840D02*
D03*
Y83300D02*
D03*
D03*
Y85840D02*
D03*
Y88380D02*
D03*
X9000Y60320D02*
D03*
Y62860D02*
D03*
X50100Y97170D02*
D03*
Y94630D02*
D03*
Y92090D02*
D03*
D03*
Y94630D02*
D03*
Y97170D02*
D03*
X9000Y57780D02*
D03*
Y67940D02*
D03*
Y65400D02*
D03*
X146300Y79301D02*
D03*
Y76761D02*
D03*
Y74221D02*
D03*
Y69141D02*
D03*
Y71681D02*
D03*
X148280Y110000D02*
D03*
X150820D02*
D03*
X153360D02*
D03*
D03*
X150820D02*
D03*
X148280D02*
D03*
X170500Y114200D02*
D03*
X167960D02*
D03*
X165420D02*
D03*
X160340D02*
D03*
X162880D02*
D03*
X173040D02*
D03*
X175580D02*
D03*
X170500Y110000D02*
D03*
X167960D02*
D03*
X165420D02*
D03*
X160340D02*
D03*
X162880D02*
D03*
X173040D02*
D03*
X175580D02*
D03*
X136905D02*
D03*
X139445D02*
D03*
X141985D02*
D03*
D03*
X139445D02*
D03*
X136905D02*
D03*
X148280Y114200D02*
D03*
X150820D02*
D03*
X153360D02*
D03*
D03*
X150820D02*
D03*
X148280D02*
D03*
X136905D02*
D03*
X139445D02*
D03*
X141985D02*
D03*
D03*
X139445D02*
D03*
X136905D02*
D03*
X10675Y91720D02*
D03*
Y94260D02*
D03*
Y96800D02*
D03*
Y101880D02*
D03*
Y104420D02*
D03*
Y106960D02*
D03*
Y112040D02*
D03*
Y109500D02*
D03*
Y99340D02*
D03*
X31000Y92000D02*
D03*
Y94540D02*
D03*
Y97080D02*
D03*
Y102160D02*
D03*
Y104700D02*
D03*
Y107240D02*
D03*
Y112320D02*
D03*
Y109780D02*
D03*
Y99620D02*
D03*
X207640Y113200D02*
D03*
Y99750D02*
D03*
X209670Y113200D02*
D03*
Y99750D02*
D03*
X47050Y97170D02*
D03*
Y94630D02*
D03*
Y92090D02*
D03*
D03*
Y94630D02*
D03*
Y97170D02*
D03*
D134*
X69720Y90920D02*
D03*
D03*
X50100Y99710D02*
D03*
D03*
X9000Y70480D02*
D03*
X146300Y66601D02*
D03*
X10675Y114580D02*
D03*
X31000Y114860D02*
D03*
X47050Y99710D02*
D03*
D03*
D135*
X159500Y59080D02*
D03*
X26763Y6000D02*
D03*
X44270D02*
D03*
X86270D02*
D03*
X127270D02*
D03*
X148270D02*
D03*
X169270D02*
D03*
X190270D02*
D03*
X65270D02*
D03*
D136*
X159500Y61620D02*
D03*
D137*
X24223Y6000D02*
D03*
X41730D02*
D03*
X83730D02*
D03*
X124730D02*
D03*
X145730D02*
D03*
X166730D02*
D03*
X187730D02*
D03*
X62730D02*
D03*
D138*
X182082Y16200D02*
D03*
X161583Y16400D02*
D03*
X141030Y16100D02*
D03*
X112796Y12246D02*
D03*
X93627Y15900D02*
D03*
X72770D02*
D03*
X51265Y16400D02*
D03*
X30022Y16200D02*
D03*
X16920Y23770D02*
D03*
X19460Y21230D02*
D03*
Y23770D02*
D03*
X22000Y21230D02*
D03*
Y23770D02*
D03*
X24540Y21230D02*
D03*
X27080D02*
D03*
X24540Y23770D02*
D03*
X27080D02*
D03*
X37920D02*
D03*
X40460Y21230D02*
D03*
Y23770D02*
D03*
X43000Y21230D02*
D03*
Y23770D02*
D03*
X45540Y21230D02*
D03*
X48080D02*
D03*
X45540Y23770D02*
D03*
X48080D02*
D03*
X58920D02*
D03*
X61460Y21230D02*
D03*
Y23770D02*
D03*
X64000Y21230D02*
D03*
Y23770D02*
D03*
X66540Y21230D02*
D03*
X69080D02*
D03*
X66540Y23770D02*
D03*
X69080D02*
D03*
X79920D02*
D03*
X82460Y21230D02*
D03*
Y23770D02*
D03*
X85000Y21230D02*
D03*
Y23770D02*
D03*
X87540Y21230D02*
D03*
X90080D02*
D03*
X87540Y23770D02*
D03*
X90080D02*
D03*
X120920D02*
D03*
X123460Y21230D02*
D03*
Y23770D02*
D03*
X126000Y21230D02*
D03*
Y23770D02*
D03*
X128540Y21230D02*
D03*
X131080D02*
D03*
X128540Y23770D02*
D03*
X131080D02*
D03*
X141920D02*
D03*
X144460Y21230D02*
D03*
Y23770D02*
D03*
X147000Y21230D02*
D03*
Y23770D02*
D03*
X149540Y21230D02*
D03*
X152080D02*
D03*
X149540Y23770D02*
D03*
X152080D02*
D03*
X162920D02*
D03*
X165460Y21230D02*
D03*
Y23770D02*
D03*
X168000Y21230D02*
D03*
Y23770D02*
D03*
X170540Y21230D02*
D03*
X173080D02*
D03*
X170540Y23770D02*
D03*
X173080D02*
D03*
X183920D02*
D03*
X186460Y21230D02*
D03*
Y23770D02*
D03*
X189000Y21230D02*
D03*
Y23770D02*
D03*
X191540Y21230D02*
D03*
X194080D02*
D03*
X191540Y23770D02*
D03*
X194080D02*
D03*
X44025Y109580D02*
D03*
Y107040D02*
D03*
Y101960D02*
D03*
Y96880D02*
D03*
Y94340D02*
D03*
Y99420D02*
D03*
Y104500D02*
D03*
Y112120D02*
D03*
Y114660D02*
D03*
X34275Y104500D02*
D03*
Y99420D02*
D03*
Y94340D02*
D03*
Y96880D02*
D03*
Y101960D02*
D03*
Y107040D02*
D03*
Y109580D02*
D03*
X116980Y114500D02*
D03*
X119520Y111960D02*
D03*
Y114500D02*
D03*
X122060Y111960D02*
D03*
Y114500D02*
D03*
X124600Y111960D02*
D03*
X127140D02*
D03*
X124600Y114500D02*
D03*
X127140D02*
D03*
X105825Y123270D02*
D03*
X102825D02*
D03*
X108825D02*
D03*
X111825D02*
D03*
D139*
X184622Y16200D02*
D03*
X164123Y16400D02*
D03*
X143570Y16100D02*
D03*
X115336Y12246D02*
D03*
X91087Y15900D02*
D03*
X70230D02*
D03*
X48725Y16400D02*
D03*
X27482Y16200D02*
D03*
X16920Y21230D02*
D03*
X37920D02*
D03*
X58920D02*
D03*
X79920D02*
D03*
X120920D02*
D03*
X141920D02*
D03*
X162920D02*
D03*
X183920D02*
D03*
X116980Y111960D02*
D03*
D140*
X193520Y15500D02*
D03*
X190980D02*
D03*
X188440D02*
D03*
X172520D02*
D03*
X169980D02*
D03*
X167440D02*
D03*
X151520D02*
D03*
X148980D02*
D03*
X146440D02*
D03*
X130520D02*
D03*
X127980D02*
D03*
X125440D02*
D03*
X85540D02*
D03*
X83000D02*
D03*
X80460D02*
D03*
X64540D02*
D03*
X62000D02*
D03*
X59460D02*
D03*
X43540D02*
D03*
X41000D02*
D03*
X38460D02*
D03*
X22540D02*
D03*
X20000D02*
D03*
X17460D02*
D03*
D141*
X179934Y46250D02*
D03*
X158934D02*
D03*
X137934D02*
D03*
X116934D02*
D03*
X75934D02*
D03*
X54933D02*
D03*
X33933D02*
D03*
X12934D02*
D03*
D142*
X179934Y43710D02*
D03*
Y38630D02*
D03*
Y41170D02*
D03*
X158934Y43710D02*
D03*
Y38630D02*
D03*
Y41170D02*
D03*
X137934Y43710D02*
D03*
Y38630D02*
D03*
Y41170D02*
D03*
X116934Y43710D02*
D03*
Y38630D02*
D03*
Y41170D02*
D03*
X75934Y43710D02*
D03*
Y38630D02*
D03*
Y41170D02*
D03*
X54933Y43710D02*
D03*
Y38630D02*
D03*
Y41170D02*
D03*
X33933Y43710D02*
D03*
Y38630D02*
D03*
Y41170D02*
D03*
X12934Y43710D02*
D03*
Y38630D02*
D03*
Y41170D02*
D03*
D143*
X201950Y50000D02*
D03*
X208000D02*
D03*
D144*
X204950Y54700D02*
D03*
D145*
X105000Y28000D02*
D03*
X196500Y9400D02*
D03*
Y125600D02*
D03*
D146*
X200390Y63550D02*
D03*
Y70550D02*
D03*
Y68050D02*
D03*
Y66050D02*
D03*
X203010Y68050D02*
D03*
Y66050D02*
D03*
Y70550D02*
D03*
Y63550D02*
D03*
D147*
X200040Y60480D02*
D03*
Y73620D02*
D03*
X205720D02*
D03*
Y60480D02*
D03*
D148*
X176550Y124305D02*
D03*
Y126845D02*
D03*
X183600Y120200D02*
D03*
X191200D02*
D03*
D149*
X205060Y79725D02*
D03*
Y94225D02*
D03*
D150*
X211020D02*
D03*
Y79725D02*
D03*
D151*
X145740Y110000D02*
D03*
D03*
X157800Y114200D02*
D03*
Y110000D02*
D03*
X134365D02*
D03*
D03*
X145740Y114200D02*
D03*
D03*
X134365D02*
D03*
D03*
D153*
X44025Y91800D02*
D03*
X34275D02*
D03*
X105825Y120730D02*
D03*
X102825D02*
D03*
X108825D02*
D03*
X111825D02*
D03*
D154*
X198750Y112190D02*
D03*
Y109650D02*
D03*
Y107110D02*
D03*
Y104570D02*
D03*
Y102030D02*
D03*
X196210Y110920D02*
D03*
Y108380D02*
D03*
Y105840D02*
D03*
Y103300D02*
D03*
D155*
Y100760D02*
D03*
D156*
X202050Y98600D02*
D03*
Y114350D02*
D03*
D157*
X205100Y112190D02*
D03*
Y100760D02*
D03*
D158*
X207000Y26500D02*
D03*
Y19500D02*
D03*
Y41500D02*
D03*
Y34500D02*
D03*
D211*
X60500Y131000D02*
D03*
X93500D02*
D03*
Y83000D02*
D03*
X60500D02*
D03*
M02*
