M48
;Layer_Color=9474304
;FILE_FORMAT=4:3
METRIC,LZ
;TYPE=PLATED
T1F00S00C0.200
T2F00S00C0.700
T4F00S00C0.800
T5F00S00C0.890
T7F00S00C0.920
T8F00S00C1.000
T10F00S00C1.020
T11F00S00C1.100
T12F00S00C1.300
T13F00S00C1.700
T14F00S00C2.300
T15F00S00C3.500
%
T01
X0014975Y000615
X00187Y000655
X0021175Y0009775
X0024787Y0009833
X0026525Y001355
X00221Y0017175
X00195Y0017525
X0015392Y0017526
X001472Y001645
X001426Y001597
X0014229Y001332
X0016575Y001265
X0013792Y0018694
X00101Y00201
X00074Y00204
X0006933Y001915
X00067Y00239
X00083
X00103Y00254
X001271Y0024749
X0018196Y002505
X002065Y0025814
X0023275Y0024645
X00259Y00247
X0025393Y00253
X0030772Y0025757
X0033949Y00253
X0034275Y0024539
X0030054Y0022454
X002845Y00201
X0030836Y0019228
X0035306Y0018999
X0034392Y0017729
X0034998Y0014873
X0035654Y00149
X00364Y00143
X0037871Y0012776
X00385Y0011125
X0037871Y0008121
X0039851Y0006198
X003385Y0006
X0034315Y0010421
X0031275Y000975
X0028505Y00098
X0029575Y0006655
X003035Y0013725
X0039598Y0018957
X00402Y00255
X0044325Y0024632
X00483Y00254
X00491Y002247
X0049153Y00201
X0047676Y0018288
X0051918Y0018626
X00545Y00179
X0055Y001706
X0055725Y001805
X0056786Y0016619
X0056993Y0015593
X0056946Y0014812
X0056093Y001536
X005542Y001538
X0055571Y00103
X0058658Y0010925
X00575Y0008
X0054933Y000615
X0052327Y00094
X0049456Y0009879
X004605Y0009921
X0042625Y0009879
X0045725Y001435
X0050133Y0013993
X004752Y000652
X0060234Y000555
X0062575Y000985
X0065975Y000975
X0059722Y0017179
X0057732Y0022458
X0055702Y0024003
X0059334Y00253
X00615Y00257
X0051968Y0025664
X005195Y0022313
X007Y002249
X00705Y00212
X007285Y002295
X0072887Y002596
X00757Y00252
X0076512Y002515
X0077Y00209
X0076932Y001862
X007661Y001762
X007726Y001761
X0078175Y0016694
X0078625Y00155
X0079775Y001355
X0080375Y0017075
X0082825Y001735
X0081974Y0019016
X00825Y00257
X009Y002525
X0091Y002247
X00911Y00199
X0093761Y0019054
X0094675Y00232
X0095675Y0012875
X00952Y00096
X00958Y00059
X008925Y000637
X00909Y000975
X0087275Y0009856
X0083725Y00098
X00807Y0009475
X0079329Y0008725
X008046Y00054
X0076Y00066
X0073034Y000515
X0068133Y000535
X006858Y000652
X00694Y0009651
X007325Y00127
X0076225Y0011075
X0072551Y0019034
X0068052Y0018786
X0068405Y00252
X01134Y00237
X01124Y00222
X011385Y00197
X0115127Y0017315
X01168Y00154
Y0014567
X011965Y0015566
X0119447Y0017443
X0119661Y0019276
X01177Y00192
X0116361Y0024799
X0124Y0026
X0124919Y0024478
X0127315Y0024645
X01311Y00252
X01321Y0022505
X0134763Y0022572
X0135132Y002598
X0138431Y0024053
X0138792Y0018942
X01381Y00177
X01372Y00186
X0134257Y0018626
X01308Y00198
X0129962Y0017147
X0127059Y0017598
X0124893Y0017533
X0123712Y0009972
X0127337
X0130728
Y00081
X01312Y00053
X0134512Y0007897
X01377Y00056
X0138095Y001015
X0142387Y0009672
X01415Y00078
X0143387Y0005797
X0145712Y0009797
X01417Y00132
X013965Y0013995
X013913Y0015566
X013849
X0134762Y0014028
X0119862Y0013672
X0117812Y0009072
X01203Y00056
X0111108Y0014047
X01443Y00257
X0152055
X0153094Y0025217
X01529Y002251
X0152518Y00197
X0155636Y0020066
X01586Y00183
X01592Y00169
X01596Y0015597
X016019Y00156
X01622Y0014822
X016292Y00143
X0163546Y001335
X0163Y00085
X01644Y00055
X01588Y00053
X0159375Y00075
X0159735Y00108
X0156387Y0015047
X0154398Y0013997
X0152712Y0013972
X0152737Y0009797
X0149237Y0009822
X01518Y000654
X01546Y00051
X01717Y00052
X017253Y000842
X01709Y0009879
X01673Y0009872
X0174525Y0009879
X0176955Y00086
X01763Y000611
X01799Y00053
X01811Y000615
X01798Y000975
X01836Y001
X0185925Y00095
X01857Y00051
X0184499Y0013825
X0180875Y0013528
X018105Y001789
X018032Y001787
X0180674Y001884
X0185175Y001865
X0176943Y0017023
X0176125Y001415
X017675Y002123
X0174Y00224
X01736Y00199
X01719Y00247
X0177049Y0025333
X0179937Y0024551
X016425Y00249
X016166Y0019712
X01599Y00193
X0167737Y0018881
X0155809Y0025939
X0146605Y0019464
X0187675Y0018325
X0186997Y0025863
X019038Y0024848
X01944Y00257
X019585Y0024425
X01951Y00225
X0198023Y0022817
X01987Y0026053
X02046Y002565
X0205644Y0024191
X02028Y0023233
X020439Y001935
X020035Y0019475
X01999Y00179
X0197491Y0015824
X0195853Y0014839
X0196325Y00197
X02005Y0012365
X020004Y00058
X01935Y000535
X01923Y00076
X019044Y0009925
X018935Y000895
X0209234Y0023
X02046Y0028
X0204422Y003585
X0203666Y0037376
X02042Y0040919
X01988Y00408
X0195853Y004068
X0196488Y00385
X0195775Y0036437
X01952Y0036935
X01946Y00376
X0193925Y0037
X019143Y0037355
X01914Y003625
X01887Y00364
X01878Y00364
X01867Y0035713
X01865Y003285
X018773Y00307
X01862Y002775
X0192032Y0030109
X0192102Y0032403
X0191143Y003235
X0193405Y00326
X019755Y0032403
X01973Y00305
X01986Y00304
X0197955Y00297
X0195488Y0029912
X01914Y00395
X0191443Y0040931
X0187012Y004068
X0186662Y0048632
X0191097Y0049388
X0191425Y004775
X01914Y00462
X0197485Y004625
X019585Y00438
X0196653Y0050097
X0196249Y0053684
X0192551Y0055156
X0192444Y0051988
X0188023Y0053915
X0191796Y00579
X01897Y00626
X0190556Y0064469
Y0065031
X0193062Y00661
X01983Y00659
X0197019Y00636
X01972Y00617
X020708Y0063279
X02063Y0057079
X0211888Y0059567
X0212137Y0047568
X0211931Y0041178
X0210642Y0042375
X02097Y0032795
X0202334Y0045833
X0185575Y00448
X018392Y004371
Y0040825
X01852
X01854Y00361
X01858Y0035
X0183604Y0037269
X018069
X01767Y00371
X01761Y00364
X01754
X01729Y003625
X017286Y0037053
X017287Y00395
X01701Y0036935
X0169048
X01681Y0035814
X0166234Y0036051
X016545Y003265
X0163074Y00333
X0161278Y0032636
X0159219Y0032795
X01598Y00318
X01585Y0029
X0155928Y00295
X0156605Y00302
X0155303Y003065
X0154151Y0029671
X0152055Y0032708
X01503Y0032455
X0149455Y00326
X0149669Y0030461
X0149923Y0036697
X01485Y00371
X01476
X0146812Y00407
X01516Y00395
X01531Y0036268
X0154411Y0036343
X0155075Y00367
X01557Y00376
X01565Y003835
X0156327Y00406
Y00438
X01575Y00463
X0156576Y00486
X01544Y00481
X01538
X01516Y004775
Y0046145
X01487Y00468
X0149351Y00476
X01481Y0047873
X01476Y00473
X01472Y00466
X0147002Y00484
X01487Y00488
X0149352Y00497
X01481Y00505
X014739Y005138
X01538Y0051
X01544Y00501
X0154267Y0055933
X0154379Y0059913
X0150219Y0063438
X0162852Y0061184
X0162254Y0058561
X0162992Y0065976
X0163724Y0066
X0164321Y0066008
X0172062Y0063601
X0173679Y0063484
X0173353Y0062255
X0176018Y006356
X01787Y0064143
X0180728Y0063689
X0181135Y0065296
Y0066125
X01833Y0066215
X01832Y0065053
X018495Y0057425
X0180855Y0056084
X0179Y00577
X0177483Y0052732
X01754Y0052
X01748Y00533
Y00493
X0175411
X0172809Y0049567
X01728Y004775
Y004615
X0170952Y00499
X0170318
X01697
X0169048
X0170318Y00508
X0170952Y00516
X0170855Y0052666
X0169682Y00524
X0169048Y0052853
X01681Y0048632
X0166691Y0050023
X01668Y0046225
X0166619Y00446
X0166599Y00408
X01654
X01645Y0038885
X0162797Y0037487
X0159796Y0037415
X01566Y00356
X0162202Y0040825
X0161745Y004654
X0160075Y00506
X0171196Y0055959
X0177665Y00485
X01785Y004625
X0177327Y00437
X01773Y0040694
X01775Y003835
X0177605Y0035619
X01776Y00301
X0176955Y00295
X0176303Y00301
X0174642Y0030009
X0174213Y0032272
X0172405Y0032711
X01711Y00328
X0171357Y0030354
X01667Y00308
X01638Y00293
X01652Y002785
X0170271Y0035
X01684Y00407
X01671Y00395
X01804Y0031414
X01794Y00298
X0181974Y0032595
X01856Y002985
X0182916Y004657
X0181979Y0050838
X0186059Y0052753
X0145143Y0048968
X01444Y0048956
X01448Y004833
X0145143Y004765
X01444
X01455Y004625
X0145005Y00447
X0145Y00408
X01437
X01443Y00391
X0146178Y00384
X01456Y0036268
X0143341Y0035772
X014446Y003275
X0141905Y0032695
X0139381Y0032976
X0138086Y0032525
X01386Y00314
X01373Y00289
X0134955Y00297
X0134305Y00311
X0133043Y0030019
X01295Y0030264
X012905Y003265
X013105Y0032455
X01309Y003625
X0133423Y00363
X0134Y00368
X01347Y00374
X0135475Y00381
X01357Y00356
X01356Y00323
X0138699Y0037471
X0139545Y0041089
X0139995Y0044944
X01418Y00456
X0137157Y0044852
X0135336Y00438
X0135327Y00407
X01309Y00395
X01281Y00376
X0127027
X0125757Y00384
X0126375Y00406
X01245Y00407
X01232
X01227Y00393
X0124362Y0036806
X0126Y0035641
X012755Y00355
X01235Y003275
X01248Y00308
X01233Y002785
X0122Y00291
X01162
X01173Y00313
X0114287Y0031172
X0112232Y0032213
X01121Y00278
X0113811Y0038122
X0111891Y004084
X0111934Y004657
X0109495Y00533
X0115685Y0053579
X0114115Y00568
X011449Y005895
X011448Y0062315
X011449Y006548
X011544Y006549
X011714Y0065495
X01189Y00655
X011879Y0062315
X0121557Y00623
X01233Y006145
X01251Y0063398
X01265Y00627
X012605Y00651
X01246Y0065725
X01317Y0066125
X01321Y0065625
X0132969Y0066185
X012976Y006215
X0128945Y00622
X012855Y0057425
X012755Y00581
X0127Y005758
X0127043Y00588
X01265Y00567
Y0056
X012555Y00567
X01245Y0056
X012855Y00549
X01293Y00555
X0127Y0052943
X0127662Y00522
X0123431Y0050447
X01248Y0046225
X012508Y00448
X0130889Y0046
X01308Y004775
X0134955Y0048872
Y0049574
Y0050268
Y0051
X0138627Y0052301
X0141093Y0054105
X0142997Y0056323
X0145382Y0058578
X0145195Y0064106
X01414Y006373
X01418Y00629
X014095Y006201
X01401Y00625
X01397Y0063298
X013894Y006436
X013929Y006162
X013883Y006104
X01406Y0060885
X0135204Y0056566
X0133845Y0056933
X012019Y0058303
X011121Y005934
X010951Y0061812
X010853Y006291
X011274Y006385
X011347Y006551
X0142657Y0029167
X0144Y0027825
X01456Y00308
X01039Y00382
X00954Y003803
X0096076Y0039139
X0094327Y00404
X0093692Y00375
X0093058Y003695
X0092423Y0036343
X00899Y003625
X008987Y00393
X0089875Y0040967
X008987Y0045848
Y004775
X008981Y0048872
X008834Y00521
X0085284Y00522
X0083281Y0051212
X0082637Y004714
X0083845Y0046225
X0083684Y0044447
Y00407
X00824
X00814Y00392
X0079785Y0037791
X00833Y0037247
X008421Y003777
X00862Y00373
X00871
X0085125Y0035698
X0082066Y0035094
X0082683Y003285
X00801Y00334
X007824Y0032741
X00763Y00334
Y0031255
X00755Y0029855
X0072955Y00297
X0071293Y0029945
X00723Y00313
X00736Y00312
X0070089Y0032158
X0068405Y00326
X006722Y0030139
X006887Y003625
X00689Y0037117
X006887Y00393
X0072058Y00375
X00714Y00368
X0072692Y00367
X007375Y00356
X0073963Y00383
X0073327Y00404
X0077551Y004085
X0076133Y0037072
X0074439Y00463
X006887Y00457
X006885Y004775
X0068525Y0049524
X0070579Y0051316
X007421Y0054529
X0078463Y00556
X0081796Y005565
X0083358Y00579
X00846Y0059913
X0084065Y0062321
X0084261Y00641
X0084841Y0066
X0081023Y00658
Y0064106
X0077441Y006273
X0078531Y00613
X0075904Y0064
X007325Y0063821
X00731Y00608
X007Y00612
Y0062473
X0069705Y0065321
X007023Y0058
X0077591Y0049593
X0087203Y00558
X0090453Y0055957
X0090252Y00583
X0087878Y0059162
X0087831Y0060662
X00912Y006308
X0094593Y0065321
X00948Y00601
X00976Y00569
X01001Y005795
X0102Y00588
X0104952Y0059742
X01036Y0049041
X01035Y0047348
X0096Y0046225
X0098388Y0052666
X0091152Y00531
X0085412Y00404
X0087878Y0032568
X00894Y00327
X0087831Y0030369
X00839Y00308
X008109Y002985
X00823Y0027825
X0092485Y0029855
X0093955Y00297
X0094625Y00308
X0093305Y0031125
X0095Y00352
X0096144Y0027224
X00671Y00325
X00654Y00351
X00641Y0035641
X00651Y00373
X00661Y00373
X0063778Y00383
X0062123Y0037299
X006031Y0039
X00613Y00405
X00626
X00644
X006259Y0044457
X0063Y004625
X006226Y0048493
X0065898Y0049785
X0064Y0054866
X0063409Y0057836
X00598Y00575
X0056367Y0057033
X0052342Y0060851
X00543Y0065821
X0047728Y0065827
X00455Y0065275
X004474Y006357
X00451Y006253
X004509Y006181
X0045108Y00611
X004509Y006015
X004508Y005941
X00451Y00586
X00436Y00588
X00431Y0061
X00421Y00602
X00411Y00595
X00406Y00615
X00416Y00622
X0042602Y0062999
X00432Y0065831
X0039788Y0064571
X00392Y0060601
X00391Y0058132
X003748Y00574
X00365Y005739
X003555Y00574
X003455Y00573
X003405Y00576
X003305Y00571
X0031059Y0056613
X00315Y005605
X002905Y00566
X0028037
X00279Y00543
X00289Y00536
X0028249Y0050896
X0029423Y00507
X00313
X003155Y005225
X0034078Y0051162
X00334Y0054347
X003435Y00549
X00349Y0056
X00365Y00555
X003555Y00539
X00375Y00534
X0038438Y0051114
X0042882Y0052055
X0045108Y0054104
X0047263Y0056633
X0050461Y0053467
X0053462Y005015
X00535Y0046225
X00479Y0046163
X00478Y004775
X0047904Y0048903
X0041973Y00462
X00416Y00406
X00403
X00394Y00392
X003804Y0037922
X0038177Y0041011
X00434Y0040313
X0042778Y00383
X0044048Y00374
X00451Y00374
X0047892Y0037072
X0047865Y003625
X0050423Y0036343
X0051057Y00369
X00517Y00375
X0052763Y00381
X0052745Y003541
X00526Y00306
X00513Y00309
X0051955Y0029582
X0050405Y0029821
X004923Y0032096
X0047405Y00326
X0046105Y00325
X004525Y00324
X0045904Y0030146
X00419Y0030795
X004065Y003275
X004Y00348
X0038Y00333
X003674Y0032384
X0034895Y00326
X00342Y00314
X00334Y0029807
X00316Y00302
X0030955Y00295
X0029126Y0029861
X00303Y00313
X0027865Y0032134
X0029411Y00368
X0030054Y00373
X0030692Y00378
X00317Y00383
X00313Y00404
X003155Y00356
X0034064Y003716
X0041216Y0037122
X0043Y00356
X00479Y00393
X0052327Y00404
X0056912Y0041015
X0056123Y0037797
X00561Y00329
X0057459Y0032586
X0059373Y0032795
X0061544Y003285
X00609Y0035
X00627Y0030795
X0060009Y002985
X006135Y002795
X00543Y002985
X00553Y00315
X0039Y00298
X00402Y0027998
X00325Y00463
X0028289Y0048625
X002955Y0062111
X0031994Y006215
X0034Y00622
X0035345Y0063868
X003399Y006524
X0034Y006581
X003031Y0065654
X0027578Y00633
X0059542Y0063972
X0063778
X00638Y0065288
X00629Y0061396
X0024971Y0061594
X0022259Y0062494
X0022275Y0065534
X0020556
X0018903Y0065495
X0018001Y006551
X00164Y00651
Y0066215
X0017686Y0061919
X0021419Y0059332
X0021394Y0056031
X002708Y00558
X0027031Y005495
X0027055Y00523
X0025978Y0048638
X0026817Y004775
Y0046225
X00207Y004625
Y0044544
Y00406
X001946
X00184Y00391
X0015874Y0039905
X0010775Y0040625
X000655
X0006448Y0044001
X000866Y0050487
X0012518Y0050808
X0016432Y0050086
X0023209Y0050878
X00224Y0040313
X0021778Y00383
X0023048Y00378
X00242Y00378
X002285Y003625
X0020203Y0036339
X00183Y00343
X0017Y00333
X00158Y00324
X0013195Y00312
X00126Y00288
X000745Y0028925
X00093Y0031743
X000745Y00362
X001965Y003275
X00206Y00308
X0018007Y002985
X00193Y0027825
X0026183Y0029829
X00264Y00324
X00251Y00329
X0024455Y00324
X00269Y00362
X002687Y00393
X0027412Y0065499
X0014112Y0058808
X00062Y00553
X00119Y00676
X0013337Y0069126
X0012934Y00717
X001Y0073675
X0011175Y00776
X0018042
X001737Y00813
X0018114Y0082975
X00183Y0084729
X00156Y00844
X0013075Y0085326
X00113Y008695
X00128Y00894
X0016Y0089975
X00189Y0088427
X0021396Y00899
X00248Y0090101
X00266Y0088975
X00253Y0087225
X0022531Y00871
X00218Y0084759
X00236Y00843
X002546Y008302
X00249Y00822
X0025319Y0078
X00228Y0073058
X0018062Y0072362
X0019516Y00707
X00168Y0070507
X001743Y006852
X0015929Y0068012
X0024725Y006695
X0019653Y00822
X002005Y0082963
X0019445Y0093
X001719Y0097
X0021025Y0098153
X0008675Y00981
Y00956
Y0092874
X0008Y0089112
X0007Y0082603
X00061Y009491
Y01009
X0008675Y01006
Y0103119
Y0105734
X00372Y0105625
X00388
X0038275Y0104915
X0038262Y0102989
X0039789Y0102984
X0039761Y0101412
X0038257Y0101434
X00369Y0099
X0037073Y0095815
X0039559Y009496
X004Y0096848
X004075Y0098449
X0041154Y0105255
X0039863Y010584
X004575Y0104175
X00467Y0103487
X0048025Y01036
X004883Y01028
X0055395Y0101725
X005475Y00988
X00525Y0096948
X00552Y0093373
X005487Y009275
X00565Y0090975
X00596Y0090019
X006067Y0090898
X00606Y00958
X00576Y00952
X00582Y0098109
X00621Y00983
X0063038Y010127
X006481Y010241
X00648Y0102975
X006546Y010361
X0065446Y0104175
X006614Y010481
X00661Y0105375
X006666Y0105975
X0059897Y0105026
Y0102004
X0057585Y0103921
X0052085Y0087015
X00518Y00816
Y0080959
X0049084Y00809
X00491Y0079212
X00541Y0078957
Y0078395
X0054225Y0079866
Y0080427
X0056063Y0082603
X0057Y007865
X0057578Y00755
X00587Y00715
X00627Y0071
X0064395Y0071075
X0063778Y006823
X0062452Y006873
X00639Y0075748
X0066148Y00809
X00643Y0085725
X006705Y0090269
X0047136
X0044636Y00883
X004605Y0085558
X00467Y0084225
X0041667Y0081494
X0038792Y00818
X0037023Y00829
X003385Y0083125
Y00817
X002955Y00822
X00316Y008565
X003105Y0088616
X0031936Y0093567
X0038081Y00933
X0038623Y00888
X00375Y00765
X0039151Y0075691
X0040738Y00773
X0043294Y00749
X0042455Y0071718
X00436Y00688
X00444Y00676
X00448Y0067
X00436Y00664
X00455Y00682
X0050133Y00706
X00525Y00767
X0038328Y0071312
X00363Y0073089
X003505Y0073343
X003205Y00734
X0032137Y00766
X002807Y0076675
X0028825Y007395
X0029Y006935
X002961
X00284Y006933
X0029811Y006775
X0034Y00676
Y00682
Y00688
Y0067
Y00664
X003555Y00701
X0067755Y0067563
X00697Y0068275
X0072955Y006702
X00739Y006873
X0076162
X0079186Y0068811
X0078246Y00667
X0082513Y0069366
X0084696Y007
X00855Y0073403
X00869Y00735
X0084Y0073524
X00819Y0074453
X0080193Y0074458
X0079632
X00777Y0074081
Y0073519
X0077415Y007545
X00751Y00772
X0070579Y0075577
X0072058Y0074081
Y0073519
X00719Y00709
X0073699Y00859
X00762Y00884
X00761Y00924
X00774Y00939
X00787Y00953
X0080679Y00962
X00831Y0097654
X0084841Y0099
X0086495Y00986
X0086136Y0098
X0086495Y00974
Y00998
X00869Y0100479
X0086495Y01012
X00864Y0102136
X0087878Y01025
X00884Y01045
X00883Y0105473
X00897Y0106025
X0091415Y0105734
X0091404Y01039
X00903Y01022
X009405Y0102109
X0094425Y0102975
Y0104
X00946Y0104975
X009368Y010534
X009358Y0106
X00943Y0100985
X00965Y01012
Y0101777
X0097806Y0103307
X00986Y01036
X0100116Y0102475
X00985Y0100439
Y0099862
X009738Y0099749
X0093177Y0098827
X00903Y00972
X00884Y0098856
X00846Y010127
X0081823Y0102273
X0079186Y0101155
X0076767Y0101381
X0075674Y0098393
X0073051Y0098285
X0070618Y0098259
X0070477Y0101138
X0072455Y0101094
X006805Y0103525
X00673Y0097635
X00707Y00936
X0078631Y009835
X00802Y0105266
X0085635Y00889
X0087421Y008535
X0083684Y0080563
X0080193Y00811
X0079632
X009496Y007795
X0098Y0074283
X00972Y0069549
X0100116Y007055
X0102Y0072
X01028Y00729
X0106313Y00717
X01046Y0066996
X01045Y00782
X01051Y007869
X01057Y00782
X01062Y007869
X01064Y00826
X010625Y00833
X0106Y0084
X0101727Y0088475
X00946Y00889
X010105Y00795
X009008Y0071267
X0106229Y0102425
X0110869
X0113274Y0102475
X0115025Y01024
X01194
X0121115Y0103625
X01228Y010584
X01275Y0105975
X0126177Y01026
X0132725Y0102475
X013555Y0106
X01375Y0104975
X0143263Y01051
X014395Y01055
X0144Y01023
X0145749Y0084196
X0145147Y0082984
X0145433Y0081809
X01424Y00816
X0140439Y0081
X01414Y00794
X01418Y00766
X0139773Y00777
X0137842Y0076892
X0136878Y00787
X01381Y0081446
X0137137Y0084675
X0139929Y0084475
X0141985Y00838
X0133821Y00844
X0133121Y0081834
X0131722Y0083125
X0129859Y0084379
X012855Y0080563
X01279Y00772
X01252Y00777
X0125272Y00818
X01217Y00843
X01191Y00792
X01107Y00791
X01118Y008302
X0110519Y00845
X0113824Y0084675
X01073Y0082603
X0110519Y0070489
X010987Y006807
X011228Y006753
X011227Y006651
X011441Y006897
X01149Y00721
X0116614Y0070575
X0120661Y0070489
X012089Y00664
X01263Y006673
X0128437Y0066975
X01309Y00671
X01313Y0066625
X01305Y00676
X01301Y00681
X01297Y00686
X01293Y00691
X012671Y0069475
X012605
X012543Y006949
X01273Y00736
X012905Y00734
X0130328Y0073846
X0131803Y0073403
X0133536Y0072907
X0134075Y0071725
X01361Y0071271
Y007255
Y007355
Y0074603
X0136878Y00741
X0136905Y0073
Y0071909
X01366Y00697
X0133025Y0069475
X0131932Y0070693
X0132445Y007685
X0133821
X01411Y006905
X01419
Y0068175
Y00674
X01411
Y0068175
Y006655
X01419
X010761Y006649
X0153675Y007045
X0155799Y0074122
X0162571Y0074627
X0164071Y0074291
X0165195Y0074172
X0166586Y0074234
X0168185Y0075479
X016957Y0076281
X0167173Y0076759
X0164173Y0077075
X016389Y0076284
X0162963Y0076254
X0162294Y0076962
X0162529Y0081695
X0163382Y008177
X0164265Y0081648
X017201Y0082992
X0172452Y0083941
X0175393Y0083708
X017553Y0081781
X0175558Y0079212
X0175477Y0075524
X0175296Y007228
X01789Y0070004
X0178649Y00683
X0184961Y0068125
X0183352Y007031
X0181087Y00738
X018032
X017995Y00816
X0184403Y009063
X0180674Y0097652
X0178823Y0100335
X0175696Y010102
X0176572Y010525
X0170679Y01053
X0169337Y0102425
X01665Y0104939
X0162105Y010439
X0163035Y0102307
X01592Y0105
X01562Y01052
X0154918Y01054
X015384Y01023
X0150738Y0105488
X01467Y01055
X0183489Y0104836
X0164244Y0070801
X0163307
X0162378Y0070756
X0186678Y00701
X01907Y0070356
Y0069794
X01896Y006834
X0193015Y0068125
X019485Y006695
X01984Y0067963
X01971Y0072784
X0195775Y00725
X019494Y00776
X0195404Y0080959
X019775Y0083125
X0199006Y00827
X02011Y0083227
X02013Y0079171
X02001Y0076649
X019775Y0085025
X0195396Y0085809
X0190833Y0085326
X0191193Y0087272
X019261Y008889
X0194438Y0090126
X0195037Y009381
X0198391Y009641
X01989Y0099533
X0200708Y010318
X02048Y0104915
X0209979Y0102778
X02082Y00954
X02058Y0097269
X0206865Y0091387
Y008966
X0206885Y0088
X02071Y00865
X02073Y0083527
X02108Y00822
X0210771Y0088185
X0202166Y00887
Y0087225
Y00902
X0200925Y0093373
X0191856Y0097075
X0189652Y009496
X0187841Y0093651
X0186199Y0092165
X01872Y00992
X01869Y0103286
X01941Y0103357
X0193433Y0100525
X01902Y00816
X0189314Y0075751
X0188753
X0187763Y00758
X0187201
X0210707Y007433
X020782Y0108121
X0206Y0109133
X02006Y011
X01998Y01152
X02011Y01182
X0200311Y01235
X0195374Y01201
X0193925Y01165
X01932Y0113633
X0194Y0111041
X01935Y01079
X01901Y0108
X0188958Y01098
X0188252Y01135
X01875Y012032
X0188Y0127024
X01984Y01326
X019656Y01135
X02072Y01152
X0209759Y0114851
X02114Y01127
X018365Y0111625
X0184058Y0111217
X01845Y0109367
X0180541Y01114
X0181015Y0115409
X01823Y01217
X0181971Y0125256
X0178688Y0125602
X01791Y0129175
X0182849Y01287
X0180692Y01332
X0185448Y0133271
X0176057Y0122489
X01738Y01217
X0170652Y01163
X01636Y0117384
X016292Y01178
X01645Y0118377
X0159332Y0120716
X0158882Y0123446
X0157102Y0123086
X0151918Y0124021
X0152186Y0119668
X014935Y0115475
X01532Y01119
X0154625Y0110801
X01521Y01095
X01534Y0107841
X01578Y0107868
X0161075
X0162853Y0107825
X016542Y01077
X01641Y0106353
X016795Y01067
X0168527
X01717Y01082
X01732Y0107446
X0178188Y01072
X0180443Y0106125
X01479Y0106475
X01467
Y01079
X01482
X0146761Y0127096
X0151094Y0131034
X01532Y01314
Y01334
X0150542Y013338
X01532Y01294
X015974Y0130135
X01593Y01314
Y0132675
Y01339
X0162105Y013359
X016455Y01287
X0160954Y01262
X01598Y012705
X0161788Y012491
X0142148Y0124434
X01374Y012545
X0137425Y0127325
X0137462Y0129325
Y0131325
X0135898Y0133588
X01329Y01342
X01322Y01328
X01329Y01311
X0130683Y01315
X0128945Y01329
X01281Y01284
X01252Y01281
X0128Y0124975
X01278Y01224
X01306Y0122
X01311Y01225
X01317Y01235
X01301Y0121443
X01296Y01209
X01291Y01204
X0129812Y0118377
X01288Y0116498
X013055Y01158
X01314Y01163
X01302Y011212
X0130822Y0109367
X01314Y01078
X01302Y0107825
X0127738Y0109136
X0125793Y01092
X01255Y01067
X01246Y0106879
X0123654Y0106633
X011952Y01067
X01183Y01068
X0118416Y0109159
X01132Y0109084
X0111825Y01081
X0113824Y0111217
X01128Y011824
X0110575Y0118675
X0111Y01165
X0108813Y0114841
X01076Y0106725
X01145Y0120041
X01143Y01239
X01161Y01226
X01187Y0125125
X012271Y01243
X01227Y01231
X01238Y0122489
X01234Y0117449
X0125885Y01169
X0118775Y011885
X012Y0120175
X01197Y0131725
X01221Y01343
X0131803Y0128262
X01338Y01279
X01374Y01234
X0136629Y0121076
X0141243Y0119557
X0141895Y0130965
X0141187Y0133321
X014205Y01077
X014109Y0106094
X01434Y0106475
X0145005Y0108
X0139425Y0107964
X0136921Y010711
X0133074Y0106034
X010645Y01088
X01057
X01048
X0104
X0103226
X01024
X01008
X0100015
X00992
X00984
X00976
X0097012Y01092
X00946Y01102
X00948Y0112202
X0094593Y0113
X00948Y0113559
X0094425Y0114075
X0093561Y0114675
X0094971Y01153
X0094983Y01157
Y0116077
Y01165
X00964
Y0116077
Y01157
X0096388Y01153
X00975
X0097511Y01157
Y0116077
Y01165
X0098Y01177
X0099217
X0100463Y0117644
X0101Y0119575
Y0121462
X0099217Y0119825
X0098
X0095925Y01205
X0094625Y0120451
X0094704Y01189
X0093325Y0118987
X0093Y01204
X0093893Y0122489
X00956Y012327
X009665Y0121675
X00897Y0121599
X00876Y01216
X0086854Y01237
X0083963Y0125075
X0079Y01252
X00761Y0123946
X00732Y01241
X0072437Y0118165
X00704Y011824
X00745Y0117146
X0076698Y0117208
X00804Y0116647
X0080425Y01202
X0083125Y0120175
X0083558Y0117934
X00852Y0116499
X00862Y0114675
X0086789Y0113655
X00884Y01133
X0090225Y01132
X00902Y011212
X0090225Y01114
X00902Y01108
X0090225Y01101
X00902Y0109425
X009019Y010885
X009017Y010828
X00884Y0108213
X00876Y01065
X00869Y0109619
X0081447Y01092
X0084065Y0113329
X00769Y011251
X007448Y0111098
X00766Y010711
X006753Y01072
X00675Y0107783
X0067934Y01133
X0067637Y0127425
X00689Y01338
X0092531Y01265
X0091225Y011851
X0091404Y01163
X00913Y0114555
X008905Y0116499
X00939Y011196
X00936Y0107825
X009367Y010709
X009425Y010655
X0091415Y010761
X01006Y0107
X00994Y01152
X0098946Y0116223
X009675Y0114075
X01029Y0117531
X01054Y0117458
X01056Y0115663
X0066837Y01163
X0064Y01168
Y01174
X0063Y0118011
Y0118589
X00628Y0119796
Y0120373
X0063Y0116188
Y0115612
X0064Y0114989
Y0114411
X0063284Y011219
X0064Y01108
X0066Y0108677
X00667Y0106575
X00574Y0107927
X005365Y0106065
X0050077Y0108037
X00474Y0107446
X0048Y0115128
X0052859Y01117
X00607Y01138
X0065846Y01188
X00657Y0130137
X00653Y0133538
X0055862Y0133502
X00533Y013024
X00535Y0126862
X0049814Y01258
X0048697Y01299
X00468Y013
X0046223
X00453
X0044723
X00438Y0129986
X0043223
X004225Y013
X0041673
X00407
X0040123
X00412Y0132675
X00442
X004725Y01327
X004925Y0132675
X00504Y01327
Y0134
X004925Y01339
X004575Y0127425
X0044267Y0125857
X00428Y0127275
X004125Y01273
X0041519Y0125125
X003795Y0125675
X00368Y0128
X0037188Y0131725
X0034015Y01324
X0033614Y0130675
X00323Y01331
X003025Y0133502
X0028752Y01333
X0029725Y013
X00277Y0129986
X0030337Y0125602
X00324Y0127493
X00332Y01128
X0036841Y01149
X0037971Y0111129
X0037602Y0109011
X0040798Y0109972
X00322Y0106513
X0061544Y0126901
X002525Y0127325
X002375Y01273
X00233Y0129961
X0022723
X0021796Y0129948
X0021219
X0024223Y0129962
X00248
X0025673Y0129961
X002625
X0027123Y0129986
X002527Y01333
X0019791
X00153Y01309
X001476Y011898
X00182Y01191
X0021758Y0118
X0024775Y0115321
X0019653Y01141
X00165Y011219
X0017977Y01082
X0008675Y0111563
X00071Y0116223
T02
X01912Y01202
X01836
T04
X001746Y00155
X002
X002254
X003846
X0041
X004354
X005946
X0062
X006454
X008046
X0083
X008554
X012544
X012798
X013052
X014644
X014898
X015152
X016744
X016998
X017252
X018844
X019098
X019352
X017655Y0124305
Y0126845
T05
X019621Y010076
Y01033
Y010584
X019875Y010457
Y010203
Y010711
Y010965
Y011219
X019621Y011092
Y010838
T07
X020039Y006355
Y006605
X020301
Y006355
Y006805
Y007055
X020039
Y006805
T08
X0158934Y003863
Y004117
Y004371
Y004625
X0179934
Y004371
Y004117
Y003863
X0137934
Y004117
Y004371
Y004625
X0116934
Y004371
Y004117
Y003863
X0075934
Y004117
Y004371
Y004625
X0054933
Y004371
Y004117
Y003863
X0033933
Y004117
Y004371
Y004625
X0012934
Y004371
Y004117
Y003863
T10
X0009Y005778
Y006032
Y006286
Y00654
Y006794
Y007048
X0010675Y009172
Y009426
Y00968
Y009934
Y010188
Y010442
X0031Y01047
Y010216
Y009962
Y009708
Y009454
Y0092
X004705Y009209
Y009463
Y009717
Y009971
X00501
Y009717
Y009463
Y009209
X006972Y009092
Y008838
Y008584
Y00833
X01463Y0079301
Y0076761
Y0074221
Y0071681
Y0069141
Y0066601
X020764Y009975
X020967
Y01132
X020764
X017558Y01142
X017304
X01705
X016796
X016542
X016288
X016034
X01578
Y011
X016034
X016288
X016542
X016796
X01705
X017304
X017558
X015336
X015082
X014828
Y01142
X015082
X015336
X014574
X0141985
X0139445
X0136905
X0134365
Y011
X0136905
X0139445
X0141985
X014574
X0031Y010978
Y010724
Y011232
Y011486
X0010675Y011458
Y011204
Y01095
Y010696
T11
X001692Y002123
Y002377
X001946
Y002123
X0022
Y002377
X002454
Y002123
X002708
Y002377
X0027482Y00162
X0030022
X003792Y002123
Y002377
X004046
Y002123
X0043
Y002377
X004554
Y002123
X004808
Y002377
X0048725Y00164
X0051265
X005892Y002123
Y002377
X006146
Y002123
X0064
Y002377
X006654
Y002123
X006908
Y002377
X007023Y00159
X007277
X007992Y002123
Y002377
X008246
Y002123
X0085
Y002377
X008754
Y002123
X009008
Y002377
X0091087Y00159
X0093627
X0112796Y0012246
X0115336
X012092Y002123
Y002377
X012346
Y002123
X0126
Y002377
X012854
Y002123
X013108
Y002377
X014192
Y002123
X014446
Y002377
X014357Y00161
X014103
X0147Y002123
Y002377
X014954
Y002123
X015208
Y002377
X016292
Y002123
X016546
Y002377
X0168
Y002123
X017054
X017308
Y002377
X017054
X018392
Y002123
X0184622Y00162
X0182082
X0164123Y00164
X0161583
X018646Y002123
Y002377
X0189
Y002123
X019154
X019408
Y002377
X019154
X0044025Y00918
Y009434
Y009688
Y009942
Y010196
Y01045
X0034275
Y010196
Y009942
Y009688
Y009434
Y00918
X011698Y011196
Y01145
X011952
Y011196
X012206
Y01145
X01246
Y011196
X012714
Y01145
X0111825Y012073
Y012327
X0108825
Y012073
X0105825
Y012327
X0102825
Y012073
X0044025Y011466
Y011212
Y010958
Y010704
X0034275
Y010958
T12
X0024223Y0006
X0026763
X004173
X004427
X006273
X006527
X008373
X008627
X012473
X012727
X014573
X014827
X016673
X016927
X018773
X019027
X0207Y00195
Y00265
Y00345
Y00415
X01595Y005908
Y006162
X016592Y012975
X0171Y013325
X017608Y012975
T13
X020205Y00986
Y011435
T14
X020004Y006048
X020572
Y007362
X020004
T15
X01965Y00094
X0105Y0028
X01965Y01256
M30
