M48
;Layer_Color=9474304
;FILE_FORMAT=4:3
METRIC,LZ
;TYPE=PLATED
T3F00S00C0.700
T6F00S00C0.900
T9F00S00C1.000
%
G90
G05
T03
G00X020606Y0079725
M15
G01X020406
M16
G00X021152Y0079725
M15
G01X021052
M16
G00X021152Y0094225
M15
G01X021052
M16
G00X020606Y0094225
M15
G01X020406
M16
T06
G00X020195Y00513
M15
G01Y00487
M16
G00X0208Y00513
M15
G01Y00487
M16
G00X020365Y00547
M15
G01X020625
M16
T09
G00X02095Y002075
M15
G01Y002075
M16
G00X02095Y002525
M15
G01Y002525
M16
G00X02095Y003575
M15
G01Y003575
M16
G00X02095Y004025
M15
G01Y004025
M16
M17
M30
